<svg width="701" height="385" viewBox="0 0 701 385" fill="none" xmlns="http://www.w3.org/2000/svg">
<g id="202">
<path id="k" d="M544.354 17.2745V5.6962H546.101V11.2253H546.242L551.099 5.6962H553.298L548.628 10.9087L553.315 17.2745H551.212L547.469 12.1016L546.101 13.6733V17.2745H544.354Z" fill="white"/>
<path id="j" d="M549.748 43.2158H551.49V51.4247C551.49 52.1672 551.343 52.8022 551.049 53.3299C550.758 53.8576 550.349 54.2608 549.822 54.5398C549.294 54.8149 548.676 54.9525 547.967 54.9525C547.315 54.9525 546.729 54.8337 546.209 54.5963C545.693 54.3588 545.284 54.014 544.982 53.5617C544.685 53.1057 544.536 52.5516 544.536 51.8996H546.271C546.271 52.2199 546.345 52.497 546.492 52.7306C546.643 52.9643 546.848 53.1471 547.108 53.279C547.372 53.4072 547.673 53.4712 548.013 53.4712C548.382 53.4712 548.695 53.394 548.951 53.2395C549.211 53.0812 549.409 52.8494 549.545 52.5441C549.68 52.2388 549.748 51.8657 549.748 51.4247V43.2158Z" fill="white"/>
<path id="i" d="M549.242 79.5984V91.1768H547.495V79.5984H549.242Z" fill="white"/>
<path id="h" d="M543.732 127.56V115.982H545.479V121.013H551.251V115.982H553.004V127.56H551.251V122.512H545.479V127.56H543.732Z" fill="white"/>
<path id="g" d="M551.514 156.022C551.404 155.679 551.257 155.372 551.073 155.101C550.892 154.826 550.675 154.592 550.422 154.4C550.17 154.204 549.882 154.055 549.558 153.953C549.237 153.851 548.885 153.8 548.5 153.8C547.848 153.8 547.26 153.968 546.736 154.304C546.213 154.639 545.798 155.131 545.493 155.779C545.191 156.424 545.04 157.213 545.04 158.148C545.04 159.086 545.193 159.88 545.498 160.528C545.804 161.176 546.222 161.668 546.753 162.004C547.285 162.339 547.89 162.507 548.568 162.507C549.198 162.507 549.746 162.379 550.213 162.122C550.684 161.866 551.048 161.504 551.304 161.037C551.565 160.566 551.695 160.012 551.695 159.375L552.147 159.46H548.834V158.018H553.385V159.335C553.385 160.308 553.178 161.152 552.763 161.868C552.352 162.58 551.783 163.131 551.056 163.519C550.332 163.907 549.503 164.101 548.568 164.101C547.52 164.101 546.601 163.86 545.809 163.377C545.022 162.895 544.407 162.211 543.966 161.325C543.525 160.436 543.305 159.38 543.305 158.159C543.305 157.236 543.433 156.407 543.689 155.672C543.945 154.937 544.305 154.313 544.769 153.8C545.236 153.284 545.785 152.89 546.414 152.619C547.047 152.344 547.739 152.206 548.489 152.206C549.115 152.206 549.697 152.298 550.236 152.483C550.779 152.668 551.261 152.93 551.683 153.269C552.109 153.608 552.462 154.011 552.74 154.479C553.019 154.942 553.208 155.457 553.306 156.022H551.514Z" fill="white"/>
<path id="f" d="M544.976 200.325V188.747H552.156V190.251H546.723V193.778H551.642V195.277H546.723V200.325H544.976Z" fill="white"/>
<path id="e" d="M544.844 236.708V225.13H552.103V226.634H546.591V230.161H551.724V231.66H546.591V235.204H552.171V236.708H544.844Z" fill="white"/>
<path id="d" d="M547.644 273.091H543.896V261.513H547.763C548.897 261.513 549.871 261.745 550.685 262.208C551.499 262.668 552.123 263.329 552.557 264.192C552.994 265.052 553.212 266.083 553.212 267.285C553.212 268.491 552.992 269.527 552.551 270.394C552.114 271.261 551.481 271.928 550.651 272.396C549.822 272.859 548.82 273.091 547.644 273.091ZM545.642 271.565H547.548C548.43 271.565 549.163 271.399 549.747 271.067C550.331 270.732 550.768 270.247 551.059 269.614C551.349 268.977 551.494 268.201 551.494 267.285C551.494 266.377 551.349 265.606 551.059 264.973C550.772 264.339 550.344 263.859 549.775 263.531C549.206 263.203 548.499 263.039 547.655 263.039H545.642V271.565Z" fill="white"/>
<path id="c" d="M553.403 301.661H551.639C551.572 301.284 551.445 300.952 551.261 300.666C551.076 300.379 550.85 300.136 550.582 299.936C550.315 299.737 550.015 299.586 549.683 299.484C549.355 299.382 549.007 299.332 548.637 299.332C547.97 299.332 547.373 299.499 546.845 299.835C546.321 300.17 545.907 300.662 545.601 301.31C545.3 301.959 545.149 302.75 545.149 303.685C545.149 304.627 545.3 305.422 545.601 306.07C545.907 306.719 546.323 307.209 546.851 307.54C547.379 307.872 547.972 308.038 548.632 308.038C548.997 308.038 549.344 307.989 549.672 307.891C550.004 307.789 550.303 307.64 550.571 307.444C550.839 307.248 551.065 307.009 551.249 306.726C551.438 306.44 551.568 306.112 551.639 305.743L553.403 305.748C553.309 306.317 553.126 306.841 552.855 307.32C552.587 307.795 552.242 308.206 551.82 308.552C551.402 308.895 550.923 309.161 550.384 309.35C549.845 309.538 549.257 309.632 548.62 309.632C547.618 309.632 546.725 309.395 545.941 308.92C545.157 308.441 544.539 307.757 544.086 306.868C543.638 305.978 543.414 304.917 543.414 303.685C543.414 302.448 543.64 301.388 544.092 300.502C544.544 299.612 545.162 298.93 545.946 298.455C546.73 297.977 547.622 297.737 548.62 297.737C549.235 297.737 549.808 297.826 550.339 298.003C550.874 298.176 551.355 298.433 551.781 298.772C552.207 299.107 552.559 299.518 552.838 300.004C553.117 300.487 553.305 301.039 553.403 301.661Z" fill="white"/>
<path id="k_2" d="M3.06671 15V3.42166H4.81364V8.95077H4.95498L9.81132 3.42166H12.0105L7.34075 8.63418L12.0275 15H9.92439L6.18178 9.82706L4.81364 11.3987V15H3.06671Z" fill="white"/>
<path id="j_2" d="M8.46085 40.9415H10.2021V49.1504C10.2021 49.8929 10.0551 50.528 9.76115 51.0556C9.47093 51.5833 9.062 51.9866 8.53434 52.2655C8.00668 52.5406 7.38857 52.6782 6.68 52.6782C6.02796 52.6782 5.44189 52.5594 4.92176 52.322C4.40541 52.0845 3.99648 51.7397 3.69496 51.2874C3.39721 50.8314 3.24833 50.2773 3.24833 49.6253H4.98395C4.98395 49.9456 5.05745 50.2227 5.20444 50.4563C5.3552 50.69 5.56061 50.8728 5.82067 51.0047C6.0845 51.1329 6.38602 51.197 6.72523 51.197C7.09459 51.197 7.40741 51.1197 7.6637 50.9652C7.92376 50.8069 8.12164 50.5751 8.25732 50.2698C8.393 49.9645 8.46085 49.5914 8.46085 49.1504V40.9415Z" fill="white"/>
<path id="i_2" d="M7.95415 77.3244V88.9027H6.20723V77.3244H7.95415Z" fill="white"/>
<path id="h_2" d="M2.44483 125.286V113.707H4.19176V118.739H9.96397V113.707H11.7165V125.286H9.96397V120.237H4.19176V125.286H2.44483Z" fill="white"/>
<path id="g_2" d="M10.2261 153.748C10.1168 153.405 9.96985 153.098 9.78517 152.826C9.60426 152.551 9.38755 152.318 9.13502 152.125C8.8825 151.929 8.59417 151.781 8.27004 151.679C7.94968 151.577 7.59728 151.526 7.21284 151.526C6.5608 151.526 5.97284 151.694 5.44895 152.029C4.92506 152.365 4.51047 152.857 4.20519 153.505C3.90367 154.149 3.75291 154.939 3.75291 155.874C3.75291 156.812 3.90555 157.605 4.21084 158.254C4.51613 158.902 4.93448 159.394 5.46591 159.729C5.99734 160.065 6.60226 160.232 7.28068 160.232C7.9101 160.232 8.45849 160.104 8.92584 159.848C9.39697 159.592 9.76068 159.23 10.017 158.763C10.277 158.291 10.4071 157.737 10.4071 157.1L10.8593 157.185H7.54639V155.744H12.0974V157.061C12.0974 158.033 11.8902 158.878 11.4756 159.594C11.0647 160.306 10.4956 160.856 9.76821 161.244C9.04457 161.633 8.21539 161.827 7.28068 161.827C6.2329 161.827 5.31327 161.586 4.52178 161.103C3.73406 160.621 3.11972 159.937 2.67874 159.051C2.23777 158.161 2.01729 157.106 2.01729 155.885C2.01729 154.962 2.14543 154.132 2.40172 153.397C2.65802 152.662 3.01795 152.039 3.48154 151.526C3.94889 151.01 4.49728 150.616 5.1267 150.345C5.75989 150.069 6.4515 149.932 7.20153 149.932C7.82718 149.932 8.40949 150.024 8.94846 150.209C9.49119 150.394 9.97362 150.655 10.3958 150.995C10.8216 151.334 11.174 151.737 11.453 152.205C11.7319 152.668 11.9203 153.183 12.0183 153.748H10.2261Z" fill="white"/>
<path id="f_2" d="M3.6886 198.051V186.473H10.8685V187.977H5.43552V191.504H10.3541V193.002H5.43552V198.051H3.6886Z" fill="white"/>
<path id="e_2" d="M3.55645 234.434V222.855H10.8155V224.359H5.30337V227.887H10.4367V229.385H5.30337V232.93H10.8834V234.434H3.55645Z" fill="white"/>
<path id="d_2" d="M6.35634 270.817H2.60808V259.238H6.47506C7.60952 259.238 8.58381 259.47 9.39791 259.934C10.212 260.393 10.8358 261.055 11.2692 261.918C11.7064 262.777 11.925 263.808 11.925 265.01C11.925 266.216 11.7045 267.253 11.2636 268.12C10.8264 268.987 10.1932 269.654 9.36399 270.121C8.53481 270.585 7.53226 270.817 6.35634 270.817ZM4.355 269.29H6.26023C7.14217 269.29 7.87524 269.124 8.45943 268.793C9.04363 268.457 9.48083 267.973 9.77104 267.34C10.0613 266.703 10.2064 265.926 10.2064 265.01C10.2064 264.102 10.0613 263.331 9.77104 262.698C9.4846 262.065 9.05682 261.584 8.4877 261.256C7.91858 260.929 7.2119 260.765 6.36764 260.765H4.355V269.29Z" fill="white"/>
<path id="c_2" d="M12.1158 299.386H10.3519C10.2841 299.009 10.1578 298.677 9.97315 298.391C9.78847 298.105 9.56233 297.861 9.29473 297.662C9.02714 297.462 8.7275 297.311 8.39583 297.209C8.06793 297.108 7.7193 297.057 7.34994 297.057C6.68282 297.057 6.08544 297.224 5.55778 297.56C5.03389 297.895 4.6193 298.387 4.31401 299.035C4.0125 299.684 3.86174 300.475 3.86174 301.41C3.86174 302.352 4.0125 303.147 4.31401 303.796C4.6193 304.444 5.03578 304.934 5.56343 305.266C6.09109 305.597 6.68471 305.763 7.34428 305.763C7.70987 305.763 8.05662 305.714 8.38452 305.616C8.71619 305.514 9.01583 305.365 9.28343 305.169C9.55103 304.974 9.77716 304.734 9.96185 304.452C10.1503 304.165 10.2803 303.837 10.3519 303.468L12.1158 303.473C12.0216 304.043 11.8388 304.566 11.5674 305.045C11.2998 305.52 10.955 305.931 10.5328 306.278C10.1145 306.621 9.63583 306.886 9.09686 307.075C8.5579 307.263 7.96993 307.357 7.33298 307.357C6.33042 307.357 5.43717 307.12 4.65322 306.645C3.86927 306.166 3.25116 305.482 2.79888 304.593C2.35037 303.703 2.12612 302.642 2.12612 301.41C2.12612 300.174 2.35226 299.113 2.80453 298.227C3.25681 297.338 3.87493 296.655 4.65888 296.18C5.44283 295.702 6.33419 295.462 7.33298 295.462C7.94732 295.462 8.52021 295.551 9.05163 295.728C9.58683 295.902 10.0674 296.158 10.4933 296.497C10.9192 296.832 11.2716 297.243 11.5505 297.73C11.8294 298.212 12.0178 298.764 12.1158 299.386Z" fill="white"/>
<path id="B" d="M328.867 343.582V332.004H333.107C333.929 332.004 334.609 332.14 335.148 332.411C335.687 332.679 336.09 333.042 336.358 333.502C336.626 333.958 336.759 334.473 336.759 335.046C336.759 335.528 336.671 335.935 336.494 336.267C336.317 336.595 336.079 336.859 335.781 337.058C335.487 337.254 335.163 337.397 334.809 337.488V337.601C335.193 337.62 335.568 337.744 335.934 337.974C336.303 338.2 336.609 338.523 336.85 338.941C337.091 339.359 337.212 339.868 337.212 340.467C337.212 341.059 337.072 341.59 336.793 342.062C336.518 342.529 336.092 342.9 335.516 343.175C334.939 343.447 334.202 343.582 333.305 343.582H328.867ZM330.614 342.084H333.135C333.972 342.084 334.571 341.922 334.933 341.598C335.295 341.274 335.476 340.869 335.476 340.383C335.476 340.017 335.384 339.681 335.199 339.376C335.014 339.071 334.75 338.828 334.408 338.647C334.068 338.466 333.665 338.376 333.198 338.376H330.614V342.084ZM330.614 337.013H332.955C333.347 337.013 333.699 336.938 334.012 336.787C334.328 336.636 334.579 336.425 334.764 336.154C334.952 335.879 335.046 335.554 335.046 335.181C335.046 334.703 334.879 334.301 334.543 333.977C334.208 333.653 333.693 333.491 333 333.491H330.614V337.013Z" fill="white"/>
<path id="B_2" d="M545.341 343.582V332.004H549.581C550.403 332.004 551.083 332.14 551.622 332.411C552.161 332.679 552.564 333.042 552.832 333.502C553.1 333.958 553.233 334.473 553.233 335.046C553.233 335.528 553.145 335.935 552.968 336.267C552.791 336.595 552.553 336.859 552.255 337.058C551.961 337.254 551.637 337.397 551.283 337.488V337.601C551.667 337.62 552.042 337.744 552.408 337.974C552.777 338.2 553.083 338.523 553.324 338.941C553.565 339.359 553.686 339.868 553.686 340.467C553.686 341.059 553.546 341.59 553.267 342.062C552.992 342.529 552.566 342.9 551.99 343.175C551.413 343.447 550.676 343.582 549.779 343.582H545.341ZM547.088 342.084H549.61C550.446 342.084 551.046 341.922 551.407 341.598C551.769 341.274 551.95 340.869 551.95 340.383C551.95 340.017 551.858 339.681 551.673 339.376C551.488 339.071 551.225 338.828 550.882 338.647C550.542 338.466 550.139 338.376 549.672 338.376H547.088V342.084ZM547.088 337.013H549.429C549.821 337.013 550.173 336.938 550.486 336.787C550.802 336.636 551.053 336.425 551.238 336.154C551.426 335.879 551.52 335.554 551.52 335.181C551.52 334.703 551.353 334.301 551.017 333.977C550.682 333.653 550.167 333.491 549.474 333.491H547.088V337.013Z" fill="white"/>
<path id="A" d="M329.48 379.965H327.625L331.792 368.387H333.81L337.977 379.965H336.123L332.849 370.49H332.759L329.48 379.965ZM329.791 375.431H335.806V376.901H329.791V375.431Z" fill="white"/>
<path id="A_2" d="M545.954 379.965H544.1L548.266 368.387H550.284L554.451 379.965H552.597L549.323 370.49H549.233L545.954 379.965ZM546.265 375.431H552.28V376.901H546.265V375.431Z" fill="white"/>
<path id="K - 14" d="M514.738 20.4691C509.734 20.4691 505.64 16.3753 505.64 11.3718C505.64 6.3683 509.734 2.27454 514.738 2.27454C519.741 2.27454 523.835 6.3683 523.835 11.3718C523.835 16.3753 519.741 20.4691 514.738 20.4691Z" fill="#4ED784"/>
<path id="K - 13" d="M478.348 20.4691C473.345 20.4691 469.251 16.3753 469.251 11.3718C469.251 6.3683 473.345 2.27454 478.348 2.27454C483.352 2.27454 487.446 6.3683 487.446 11.3718C487.446 16.3753 483.352 20.4691 478.348 20.4691Z" fill="#4ED784"/>
<path id="K - 12" d="M441.959 20.4691C436.955 20.4691 432.861 16.3753 432.861 11.3718C432.861 6.3683 436.955 2.27454 441.959 2.27454C446.962 2.27454 451.056 6.3683 451.056 11.3718C451.056 16.3753 446.962 20.4691 441.959 20.4691Z" fill="#4ED784"/>
<path id="K - 11" d="M405.57 20.4691C400.566 20.4691 396.472 16.3753 396.472 11.3718C396.472 6.3683 400.566 2.27454 405.57 2.27454C410.573 2.27454 414.667 6.3683 414.667 11.3718C414.667 16.3753 410.573 20.4691 405.57 20.4691Z" fill="#4ED784"/>
<path id="K - 10" d="M369.181 20.4691C364.177 20.4691 360.083 16.3753 360.083 11.3718C360.083 6.3683 364.177 2.27454 369.181 2.27454C374.184 2.27454 378.278 6.3683 378.278 11.3718C378.278 16.3753 374.184 20.4691 369.181 20.4691Z" fill="#4ED784"/>
<path id="K - 09" d="M332.792 20.4691C327.788 20.4691 323.695 16.3753 323.695 11.3718C323.695 6.3683 327.788 2.27454 332.792 2.27454C337.795 2.27454 341.889 6.3683 341.889 11.3718C341.889 16.3753 337.795 20.4691 332.792 20.4691Z" fill="#4ED784"/>
<path id="K - 08" d="M296.403 20.4691C291.399 20.4691 287.306 16.3753 287.306 11.3718C287.306 6.3683 291.399 2.27454 296.403 2.27454C301.406 2.27454 305.5 6.3683 305.5 11.3718C305.5 16.3753 301.406 20.4691 296.403 20.4691Z" fill="#4ED784"/>
<path id="K - 07" d="M260.014 20.4691C255.01 20.4691 250.917 16.3753 250.917 11.3718C250.917 6.3683 255.01 2.27454 260.014 2.27454C265.017 2.27454 269.111 6.3683 269.111 11.3718C269.111 16.3753 265.017 20.4691 260.014 20.4691Z" fill="#4ED784"/>
<path id="K - 06" d="M223.625 20.4691C218.621 20.4691 214.527 16.3753 214.527 11.3718C214.527 6.3683 218.621 2.27454 223.625 2.27454C228.628 2.27454 232.722 6.3683 232.722 11.3718C232.722 16.3753 228.628 20.4691 223.625 20.4691Z" fill="#4ED784"/>
<path id="K - 05" d="M187.236 20.4691C182.232 20.4691 178.138 16.3753 178.138 11.3718C178.138 6.3683 182.232 2.27454 187.236 2.27454C192.239 2.27454 196.333 6.3683 196.333 11.3718C196.333 16.3753 192.239 20.4691 187.236 20.4691Z" fill="#4ED784"/>
<path id="J - 14" d="M514.738 56.8579C509.734 56.8579 505.64 52.7641 505.64 47.7606C505.64 42.7571 509.734 38.6633 514.738 38.6633C519.741 38.6633 523.835 42.7571 523.835 47.7606C523.835 52.7641 519.741 56.8579 514.738 56.8579Z" fill="#4ED784"/>
<path id="J - 13" d="M478.348 56.8579C473.345 56.8579 469.251 52.7641 469.251 47.7606C469.251 42.7571 473.345 38.6633 478.348 38.6633C483.352 38.6633 487.446 42.7571 487.446 47.7606C487.446 52.7641 483.352 56.8579 478.348 56.8579Z" fill="#4ED784"/>
<path id="J - 12" d="M441.959 56.8579C436.955 56.8579 432.861 52.7641 432.861 47.7606C432.861 42.7571 436.955 38.6633 441.959 38.6633C446.962 38.6633 451.056 42.7571 451.056 47.7606C451.056 52.7641 446.962 56.8579 441.959 56.8579Z" fill="#4ED784"/>
<path id="J - 11" d="M405.57 56.8579C400.566 56.8579 396.472 52.7641 396.472 47.7606C396.472 42.7571 400.566 38.6633 405.57 38.6633C410.573 38.6633 414.667 42.7571 414.667 47.7606C414.667 52.7641 410.573 56.8579 405.57 56.8579Z" fill="#4ED784"/>
<path id="J - 10" d="M369.181 56.8579C364.177 56.8579 360.083 52.7641 360.083 47.7606C360.083 42.7571 364.177 38.6633 369.181 38.6633C374.184 38.6633 378.278 42.7571 378.278 47.7606C378.278 52.7641 374.184 56.8579 369.181 56.8579Z" fill="#4ED784"/>
<path id="J - 09" d="M332.792 56.8579C327.788 56.8579 323.695 52.7641 323.695 47.7606C323.695 42.7571 327.788 38.6633 332.792 38.6633C337.795 38.6633 341.889 42.7571 341.889 47.7606C341.889 52.7641 337.795 56.8579 332.792 56.8579Z" fill="#4ED784"/>
<path id="J - 08" d="M296.403 56.8579C291.399 56.8579 287.306 52.7641 287.306 47.7606C287.306 42.7571 291.399 38.6633 296.403 38.6633C301.406 38.6633 305.5 42.7571 305.5 47.7606C305.5 52.7641 301.406 56.8579 296.403 56.8579Z" fill="#4ED784"/>
<path id="J - 07" d="M260.014 56.8579C255.01 56.8579 250.917 52.7641 250.917 47.7606C250.917 42.7571 255.01 38.6633 260.014 38.6633C265.017 38.6633 269.111 42.7571 269.111 47.7606C269.111 52.7641 265.017 56.8579 260.014 56.8579Z" fill="#4ED784"/>
<path id="J - 06" d="M223.625 56.8579C218.621 56.8579 214.527 52.7641 214.527 47.7606C214.527 42.7571 218.621 38.6633 223.625 38.6633C228.628 38.6633 232.722 42.7571 232.722 47.7606C232.722 52.7641 228.628 56.8579 223.625 56.8579Z" fill="#4ED784"/>
<path id="J - 05" d="M187.236 56.8579C182.232 56.8579 178.138 52.7641 178.138 47.7606C178.138 42.7571 182.232 38.6633 187.236 38.6633C192.239 38.6633 196.333 42.7571 196.333 47.7606C196.333 52.7641 192.239 56.8579 187.236 56.8579Z" fill="#4ED784"/>
<path id="I - 14" d="M514.738 93.2469C509.734 93.2469 505.64 89.1531 505.64 84.1496C505.64 79.1461 509.734 75.0523 514.738 75.0523C519.741 75.0523 523.835 79.1461 523.835 84.1496C523.835 89.1531 519.741 93.2469 514.738 93.2469Z" fill="#4ED784"/>
<path id="I - 13" d="M478.348 93.2469C473.345 93.2469 469.251 89.1531 469.251 84.1496C469.251 79.1461 473.345 75.0523 478.348 75.0523C483.352 75.0523 487.446 79.1461 487.446 84.1496C487.446 89.1531 483.352 93.2469 478.348 93.2469Z" fill="#4ED784"/>
<path id="I - 12" d="M441.959 93.2469C436.955 93.2469 432.861 89.1531 432.861 84.1496C432.861 79.1461 436.955 75.0523 441.959 75.0523C446.962 75.0523 451.056 79.1461 451.056 84.1496C451.056 89.1531 446.962 93.2469 441.959 93.2469Z" fill="#4ED784"/>
<path id="I - 11" d="M405.57 93.2469C400.566 93.2469 396.472 89.1531 396.472 84.1496C396.472 79.1461 400.566 75.0523 405.57 75.0523C410.573 75.0523 414.667 79.1461 414.667 84.1496C414.667 89.1531 410.573 93.2469 405.57 93.2469Z" fill="#4ED784"/>
<path id="I - 10" d="M369.181 93.2469C364.177 93.2469 360.083 89.1531 360.083 84.1496C360.083 79.1461 364.177 75.0523 369.181 75.0523C374.184 75.0523 378.278 79.1461 378.278 84.1496C378.278 89.1531 374.184 93.2469 369.181 93.2469Z" fill="#4ED784"/>
<path id="I - 09" d="M332.792 93.2469C327.788 93.2469 323.695 89.1531 323.695 84.1496C323.695 79.1461 327.788 75.0523 332.792 75.0523C337.795 75.0523 341.889 79.1461 341.889 84.1496C341.889 89.1531 337.795 93.2469 332.792 93.2469Z" fill="#4ED784"/>
<path id="I - 08" d="M296.403 93.2469C291.399 93.2469 287.306 89.1531 287.306 84.1496C287.306 79.1461 291.399 75.0523 296.403 75.0523C301.406 75.0523 305.5 79.1461 305.5 84.1496C305.5 89.1531 301.406 93.2469 296.403 93.2469Z" fill="#4ED784"/>
<path id="I - 07" d="M260.014 93.2469C255.01 93.2469 250.917 89.1531 250.917 84.1496C250.917 79.1461 255.01 75.0523 260.014 75.0523C265.017 75.0523 269.111 79.1461 269.111 84.1496C269.111 89.1531 265.017 93.2469 260.014 93.2469Z" fill="#4ED784"/>
<path id="I - 06" d="M223.625 93.2469C218.621 93.2469 214.527 89.1531 214.527 84.1496C214.527 79.1461 218.621 75.0523 223.625 75.0523C228.628 75.0523 232.722 79.1461 232.722 84.1496C232.722 89.1531 228.628 93.2469 223.625 93.2469Z" fill="#4ED784"/>
<path id="I - 05" d="M187.236 93.2469C182.232 93.2469 178.138 89.1531 178.138 84.1496C178.138 79.1461 182.232 75.0523 187.236 75.0523C192.239 75.0523 196.333 79.1461 196.333 84.1496C196.333 89.1531 192.239 93.2469 187.236 93.2469Z" fill="#4ED784"/>
<path id="K - 04" d="M150.744 20.4691C145.74 20.4691 141.647 16.3753 141.647 11.3718C141.647 6.3683 145.74 2.27454 150.744 2.27454C155.747 2.27454 159.841 6.3683 159.841 11.3718C159.841 16.3753 155.747 20.4691 150.744 20.4691Z" fill="#4ED784"/>
<path id="K - 03" d="M114.356 20.4691C109.352 20.4691 105.258 16.3753 105.258 11.3718C105.258 6.3683 109.352 2.27454 114.356 2.27454C119.359 2.27454 123.453 6.3683 123.453 11.3718C123.453 16.3753 119.359 20.4691 114.356 20.4691Z" fill="#4ED784"/>
<path id="K - 02" d="M77.9657 20.4691C72.9622 20.4691 68.8684 16.3753 68.8684 11.3718C68.8684 6.3683 72.9622 2.27454 77.9657 2.27454C82.9692 2.27454 87.0629 6.3683 87.0629 11.3718C87.0629 16.3753 82.9692 20.4691 77.9657 20.4691Z" fill="#4ED784"/>
<path id="K - 01" d="M41.5772 20.4691C36.5737 20.4691 32.48 16.3753 32.48 11.3718C32.48 6.3683 36.5737 2.27454 41.5772 2.27454C46.5807 2.27454 50.6745 6.3683 50.6745 11.3718C50.6745 16.3753 46.5807 20.4691 41.5772 20.4691Z" fill="#4ED784"/>
<path id="J - 04" d="M150.744 56.8579C145.74 56.8579 141.647 52.7641 141.647 47.7606C141.647 42.7571 145.74 38.6633 150.744 38.6633C155.747 38.6633 159.841 42.7571 159.841 47.7606C159.841 52.7641 155.747 56.8579 150.744 56.8579Z" fill="#4ED784"/>
<path id="J - 03" d="M114.356 56.8579C109.352 56.8579 105.258 52.7641 105.258 47.7606C105.258 42.7571 109.352 38.6633 114.356 38.6633C119.359 38.6633 123.453 42.7571 123.453 47.7606C123.453 52.7641 119.359 56.8579 114.356 56.8579Z" fill="#4ED784"/>
<path id="J - 02" d="M77.9657 56.8579C72.9622 56.8579 68.8684 52.7641 68.8684 47.7606C68.8684 42.7571 72.9622 38.6633 77.9657 38.6633C82.9692 38.6633 87.0629 42.7571 87.0629 47.7606C87.0629 52.7641 82.9692 56.8579 77.9657 56.8579Z" fill="#4ED784"/>
<path id="J - 01" d="M41.5772 56.8579C36.5737 56.8579 32.48 52.7641 32.48 47.7606C32.48 42.7571 36.5737 38.6633 41.5772 38.6633C46.5807 38.6633 50.6745 42.7571 50.6745 47.7606C50.6745 52.7641 46.5807 56.8579 41.5772 56.8579Z" fill="#4ED784"/>
<path id="I - 04" d="M150.744 93.2469C145.74 93.2469 141.647 89.1531 141.647 84.1496C141.647 79.1461 145.74 75.0523 150.744 75.0523C155.747 75.0523 159.841 79.1461 159.841 84.1496C159.841 89.1531 155.747 93.2469 150.744 93.2469Z" fill="#4ED784"/>
<path id="I - 03" d="M114.356 93.2469C109.352 93.2469 105.258 89.1531 105.258 84.1496C105.258 79.1461 109.352 75.0523 114.356 75.0523C119.359 75.0523 123.453 79.1461 123.453 84.1496C123.453 89.1531 119.359 93.2469 114.356 93.2469Z" fill="#4ED784"/>
<path id="I - 02" d="M77.9657 93.2469C72.9622 93.2469 68.8684 89.1531 68.8684 84.1496C68.8684 79.1461 72.9622 75.0523 77.9657 75.0523C82.9692 75.0523 87.0629 79.1461 87.0629 84.1496C87.0629 89.1531 82.9692 93.2469 77.9657 93.2469Z" fill="#4ED784"/>
<path id="I - 01" d="M41.5772 93.2469C36.5737 93.2469 32.48 89.1531 32.48 84.1496C32.48 79.1461 36.5737 75.0523 41.5772 75.0523C46.5807 75.0523 50.6745 79.1461 50.6745 84.1496C50.6745 89.1531 46.5807 93.2469 41.5772 93.2469Z" fill="#4ED784"/>
<path id="H - 14" d="M514.738 129.727C509.734 129.727 505.64 125.633 505.64 120.63C505.64 115.626 509.734 111.533 514.738 111.533C519.741 111.533 523.835 115.626 523.835 120.63C523.835 125.633 519.741 129.727 514.738 129.727Z" fill="#4ED784"/>
<path id="H - 13" d="M478.348 129.727C473.345 129.727 469.251 125.633 469.251 120.63C469.251 115.626 473.345 111.533 478.348 111.533C483.352 111.533 487.446 115.626 487.446 120.63C487.446 125.633 483.352 129.727 478.348 129.727Z" fill="#4ED784"/>
<path id="H - 12" d="M441.959 129.727C436.955 129.727 432.861 125.633 432.861 120.63C432.861 115.626 436.955 111.533 441.959 111.533C446.962 111.533 451.056 115.626 451.056 120.63C451.056 125.633 446.962 129.727 441.959 129.727Z" fill="#4ED784"/>
<path id="H - 11" d="M405.57 129.727C400.566 129.727 396.472 125.633 396.472 120.63C396.472 115.626 400.566 111.533 405.57 111.533C410.573 111.533 414.667 115.626 414.667 120.63C414.667 125.633 410.573 129.727 405.57 129.727Z" fill="#4ED784"/>
<path id="H - 10" d="M369.181 129.727C364.177 129.727 360.083 125.633 360.083 120.63C360.083 115.626 364.177 111.533 369.181 111.533C374.184 111.533 378.278 115.626 378.278 120.63C378.278 125.633 374.184 129.727 369.181 129.727Z" fill="#4ED784"/>
<path id="H - 09" d="M332.792 129.727C327.788 129.727 323.695 125.633 323.695 120.63C323.695 115.626 327.788 111.533 332.792 111.533C337.795 111.533 341.889 115.626 341.889 120.63C341.889 125.633 337.795 129.727 332.792 129.727Z" fill="#4ED784"/>
<path id="H - 08" d="M296.403 129.727C291.399 129.727 287.306 125.633 287.306 120.63C287.306 115.626 291.399 111.533 296.403 111.533C301.406 111.533 305.5 115.626 305.5 120.63C305.5 125.633 301.406 129.727 296.403 129.727Z" fill="#4ED784"/>
<path id="H - 07" d="M260.014 129.727C255.01 129.727 250.917 125.633 250.917 120.63C250.917 115.626 255.01 111.533 260.014 111.533C265.017 111.533 269.111 115.626 269.111 120.63C269.111 125.633 265.017 129.727 260.014 129.727Z" fill="#4ED784"/>
<path id="H - 06" d="M223.625 129.727C218.621 129.727 214.527 125.633 214.527 120.63C214.527 115.626 218.621 111.533 223.625 111.533C228.628 111.533 232.722 115.626 232.722 120.63C232.722 125.633 228.628 129.727 223.625 129.727Z" fill="#4ED784"/>
<path id="H - 05" d="M187.236 129.727C182.232 129.727 178.138 125.633 178.138 120.63C178.138 115.626 182.232 111.533 187.236 111.533C192.239 111.533 196.333 115.626 196.333 120.63C196.333 125.633 192.239 129.727 187.236 129.727Z" fill="#4ED784"/>
<path id="G - 14" d="M514.738 166.116C509.734 166.116 505.64 162.022 505.64 157.019C505.64 152.015 509.734 147.922 514.738 147.922C519.741 147.922 523.835 152.015 523.835 157.019C523.835 162.022 519.741 166.116 514.738 166.116Z" fill="#4ED784"/>
<path id="G - 13" d="M478.348 166.116C473.345 166.116 469.251 162.022 469.251 157.019C469.251 152.015 473.345 147.922 478.348 147.922C483.352 147.922 487.446 152.015 487.446 157.019C487.446 162.022 483.352 166.116 478.348 166.116Z" fill="#4ED784"/>
<path id="G - 12" d="M441.959 166.116C436.955 166.116 432.861 162.022 432.861 157.019C432.861 152.015 436.955 147.922 441.959 147.922C446.962 147.922 451.056 152.015 451.056 157.019C451.056 162.022 446.962 166.116 441.959 166.116Z" fill="#4ED784"/>
<path id="G - 11" d="M405.57 166.116C400.566 166.116 396.472 162.022 396.472 157.019C396.472 152.015 400.566 147.922 405.57 147.922C410.573 147.922 414.667 152.015 414.667 157.019C414.667 162.022 410.573 166.116 405.57 166.116Z" fill="#4ED784"/>
<path id="G - 10" d="M369.181 166.116C364.177 166.116 360.083 162.022 360.083 157.019C360.083 152.015 364.177 147.922 369.181 147.922C374.184 147.922 378.278 152.015 378.278 157.019C378.278 162.022 374.184 166.116 369.181 166.116Z" fill="#4ED784"/>
<path id="G - 09" d="M332.792 166.116C327.788 166.116 323.695 162.022 323.695 157.019C323.695 152.015 327.788 147.922 332.792 147.922C337.795 147.922 341.889 152.015 341.889 157.019C341.889 162.022 337.795 166.116 332.792 166.116Z" fill="#4ED784"/>
<path id="G - 08" d="M296.403 166.116C291.399 166.116 287.306 162.022 287.306 157.019C287.306 152.015 291.399 147.922 296.403 147.922C301.406 147.922 305.5 152.015 305.5 157.019C305.5 162.022 301.406 166.116 296.403 166.116Z" fill="#4ED784"/>
<path id="G - 07" d="M260.014 166.116C255.01 166.116 250.917 162.022 250.917 157.019C250.917 152.015 255.01 147.922 260.014 147.922C265.017 147.922 269.111 152.015 269.111 157.019C269.111 162.022 265.017 166.116 260.014 166.116Z" fill="#4ED784"/>
<path id="G - 06" d="M223.625 166.116C218.621 166.116 214.527 162.022 214.527 157.019C214.527 152.015 218.621 147.922 223.625 147.922C228.628 147.922 232.722 152.015 232.722 157.019C232.722 162.022 228.628 166.116 223.625 166.116Z" fill="#4ED784"/>
<path id="G - 05" d="M187.236 166.116C182.232 166.116 178.138 162.022 178.138 157.019C178.138 152.015 182.232 147.922 187.236 147.922C192.239 147.922 196.333 152.015 196.333 157.019C196.333 162.022 192.239 166.116 187.236 166.116Z" fill="#4ED784"/>
<path id="F - 12" d="M441.959 202.505C436.955 202.505 432.861 198.412 432.861 193.408C432.861 188.405 436.955 184.311 441.959 184.311C446.962 184.311 451.056 188.405 451.056 193.408C451.056 198.412 446.962 202.505 441.959 202.505Z" fill="#4ED784"/>
<path id="F - 11" d="M405.57 202.505C400.566 202.505 396.472 198.412 396.472 193.408C396.472 188.405 400.566 184.311 405.57 184.311C410.573 184.311 414.667 188.405 414.667 193.408C414.667 198.412 410.573 202.505 405.57 202.505Z" fill="#4ED784"/>
<path id="F - 10" d="M369.181 202.505C364.177 202.505 360.083 198.412 360.083 193.408C360.083 188.405 364.177 184.311 369.181 184.311C374.184 184.311 378.278 188.405 378.278 193.408C378.278 198.412 374.184 202.505 369.181 202.505Z" fill="#4ED784"/>
<path id="F - 09" d="M332.792 202.505C327.788 202.505 323.695 198.412 323.695 193.408C323.695 188.405 327.788 184.311 332.792 184.311C337.795 184.311 341.889 188.405 341.889 193.408C341.889 198.412 337.795 202.505 332.792 202.505Z" fill="#4ED784"/>
<path id="F - 08" d="M296.403 202.505C291.399 202.505 287.306 198.412 287.306 193.408C287.306 188.405 291.399 184.311 296.403 184.311C301.406 184.311 305.5 188.405 305.5 193.408C305.5 198.412 301.406 202.505 296.403 202.505Z" fill="#4ED784"/>
<path id="F - 07" d="M260.014 202.505C255.01 202.505 250.917 198.412 250.917 193.408C250.917 188.405 255.01 184.311 260.014 184.311C265.017 184.311 269.111 188.405 269.111 193.408C269.111 198.412 265.017 202.505 260.014 202.505Z" fill="#4ED784"/>
<path id="F - 06" d="M223.625 202.505C218.621 202.505 214.527 198.412 214.527 193.408C214.527 188.405 218.621 184.311 223.625 184.311C228.628 184.311 232.722 188.405 232.722 193.408C232.722 198.412 228.628 202.505 223.625 202.505Z" fill="#4ED784"/>
<path id="F - 05" d="M187.236 202.505C182.232 202.505 178.138 198.412 178.138 193.408C178.138 188.405 182.232 184.311 187.236 184.311C192.239 184.311 196.333 188.405 196.333 193.408C196.333 198.412 192.239 202.505 187.236 202.505Z" fill="#4ED784"/>
<path id="H - 04" d="M150.744 129.727C145.74 129.727 141.647 125.633 141.647 120.63C141.647 115.626 145.74 111.533 150.744 111.533C155.747 111.533 159.841 115.626 159.841 120.63C159.841 125.633 155.747 129.727 150.744 129.727Z" fill="#4ED784"/>
<path id="H - 03" d="M114.356 129.727C109.352 129.727 105.258 125.633 105.258 120.63C105.258 115.626 109.352 111.533 114.356 111.533C119.359 111.533 123.453 115.626 123.453 120.63C123.453 125.633 119.359 129.727 114.356 129.727Z" fill="#4ED784"/>
<path id="H - 02" d="M77.9657 129.727C72.9622 129.727 68.8684 125.633 68.8684 120.63C68.8684 115.626 72.9622 111.533 77.9657 111.533C82.9692 111.533 87.0629 115.626 87.0629 120.63C87.0629 125.633 82.9692 129.727 77.9657 129.727Z" fill="#4ED784"/>
<path id="H - 01" d="M41.5772 129.727C36.5737 129.727 32.48 125.633 32.48 120.63C32.48 115.626 36.5737 111.533 41.5772 111.533C46.5807 111.533 50.6745 115.626 50.6745 120.63C50.6745 125.633 46.5807 129.727 41.5772 129.727Z" fill="#4ED784"/>
<path id="G - 04" d="M150.744 166.116C145.74 166.116 141.647 162.022 141.647 157.019C141.647 152.015 145.74 147.922 150.744 147.922C155.747 147.922 159.841 152.015 159.841 157.019C159.841 162.022 155.747 166.116 150.744 166.116Z" fill="#4ED784"/>
<path id="G - 03" d="M114.356 166.116C109.352 166.116 105.258 162.022 105.258 157.019C105.258 152.015 109.352 147.922 114.356 147.922C119.359 147.922 123.453 152.015 123.453 157.019C123.453 162.022 119.359 166.116 114.356 166.116Z" fill="#4ED784"/>
<path id="G - 02" d="M77.9657 166.116C72.9622 166.116 68.8684 162.022 68.8684 157.019C68.8684 152.015 72.9622 147.922 77.9657 147.922C82.9692 147.922 87.0629 152.015 87.0629 157.019C87.0629 162.022 82.9692 166.116 77.9657 166.116Z" fill="#4ED784"/>
<path id="G - 01" d="M41.5772 166.116C36.5737 166.116 32.48 162.022 32.48 157.019C32.48 152.015 36.5737 147.922 41.5772 147.922C46.5807 147.922 50.6745 152.015 50.6745 157.019C50.6745 162.022 46.5807 166.116 41.5772 166.116Z" fill="#4ED784"/>
<path id="F - 04" d="M150.744 202.505C145.74 202.505 141.647 198.412 141.647 193.408C141.647 188.405 145.74 184.311 150.744 184.311C155.747 184.311 159.841 188.405 159.841 193.408C159.841 198.412 155.747 202.505 150.744 202.505Z" fill="#4ED784"/>
<path id="F - 03" d="M114.356 202.505C109.352 202.505 105.258 198.412 105.258 193.408C105.258 188.405 109.352 184.311 114.356 184.311C119.359 184.311 123.453 188.405 123.453 193.408C123.453 198.412 119.359 202.505 114.356 202.505Z" fill="#4ED784"/>
<path id="F - 02" d="M77.9657 202.505C72.9622 202.505 68.8684 198.412 68.8684 193.408C68.8684 188.405 72.9622 184.311 77.9657 184.311C82.9692 184.311 87.0629 188.405 87.0629 193.408C87.0629 198.412 82.9692 202.505 77.9657 202.505Z" fill="#4ED784"/>
<path id="F - 01" d="M41.5772 202.505C36.5737 202.505 32.48 198.412 32.48 193.408C32.48 188.405 36.5737 184.311 41.5772 184.311C46.5807 184.311 50.6745 188.405 50.6745 193.408C50.6745 198.412 46.5807 202.505 41.5772 202.505Z" fill="#4ED784"/>
<path id="E - 12" d="M441.959 238.735C436.955 238.735 432.861 234.641 432.861 229.638C432.861 224.634 436.955 220.54 441.959 220.54C446.962 220.54 451.056 224.634 451.056 229.638C451.056 234.641 446.962 238.735 441.959 238.735Z" fill="#4ED784"/>
<path id="E - 13" d="M582.375 238.803C577.372 238.803 573.278 234.709 573.278 229.706C573.278 224.702 577.372 220.608 582.375 220.608C587.379 220.608 591.473 224.702 591.473 229.706C591.473 234.709 587.379 238.803 582.375 238.803Z" fill="#4ED784"/>
<path id="D - 13" d="M582.375 275.192C577.372 275.192 573.278 271.098 573.278 266.095C573.278 261.091 577.372 256.998 582.375 256.998C587.379 256.998 591.473 261.091 591.473 266.095C591.473 271.098 587.379 275.192 582.375 275.192Z" fill="#4ED784"/>
<path id="C - 13" d="M582.375 311.582C577.372 311.582 573.278 307.488 573.278 302.484C573.278 297.481 577.372 293.387 582.375 293.387C587.379 293.387 591.473 297.481 591.473 302.484C591.473 307.488 587.379 311.582 582.375 311.582Z" fill="#4ED784"/>
<path id="B - 04" d="M582.375 347.97C577.372 347.97 573.278 343.877 573.278 338.873C573.278 333.87 577.372 329.776 582.375 329.776C587.379 329.776 591.473 333.87 591.473 338.873C591.473 343.877 587.379 347.97 582.375 347.97Z" fill="#4ED784"/>
<path id="A - 04" d="M582.375 384.36C577.372 384.36 573.278 380.266 573.278 375.262C573.278 370.259 577.372 366.165 582.375 366.165C587.379 366.165 591.473 370.259 591.473 375.262C591.473 380.266 587.379 384.36 582.375 384.36Z" fill="#4ED784"/>
<path id="A - 06" d="M655.153 384.36C650.15 384.36 646.056 380.266 646.056 375.262C646.056 370.259 650.15 366.165 655.153 366.165C660.157 366.165 664.25 370.259 664.25 375.262C664.25 380.266 660.157 384.36 655.153 384.36Z" fill="#4ED784"/>
<path id="A - 05" d="M618.765 384.36C613.761 384.36 609.667 380.266 609.667 375.262C609.667 370.259 613.761 366.165 618.765 366.165C623.768 366.165 627.862 370.259 627.862 375.262C627.862 380.266 623.768 384.36 618.765 384.36Z" fill="#4ED784"/>
<path id="A - 07" d="M691.542 384.36C686.539 384.36 682.445 380.266 682.445 375.262C682.445 370.259 686.539 366.165 691.542 366.165C696.546 366.165 700.639 370.259 700.639 375.262C700.639 380.266 696.546 384.36 691.542 384.36Z" fill="#4ED784"/>
<path id="E - 11" d="M405.57 238.735C400.566 238.735 396.472 234.641 396.472 229.638C396.472 224.634 400.566 220.54 405.57 220.54C410.573 220.54 414.667 224.634 414.667 229.638C414.667 234.641 410.573 238.735 405.57 238.735Z" fill="#4ED784"/>
<path id="E - 10" d="M369.181 238.735C364.177 238.735 360.083 234.641 360.083 229.638C360.083 224.634 364.177 220.54 369.181 220.54C374.184 220.54 378.278 224.634 378.278 229.638C378.278 234.641 374.184 238.735 369.181 238.735Z" fill="#4ED784"/>
<path id="E - 09" d="M332.792 238.735C327.788 238.735 323.695 234.641 323.695 229.638C323.695 224.634 327.788 220.54 332.792 220.54C337.795 220.54 341.889 224.634 341.889 229.638C341.889 234.641 337.795 238.735 332.792 238.735Z" fill="#4ED784"/>
<path id="E - 08" d="M296.403 238.735C291.399 238.735 287.306 234.641 287.306 229.638C287.306 224.634 291.399 220.54 296.403 220.54C301.406 220.54 305.5 224.634 305.5 229.638C305.5 234.641 301.406 238.735 296.403 238.735Z" fill="#4ED784"/>
<path id="E - 07" d="M260.014 238.735C255.01 238.735 250.917 234.641 250.917 229.638C250.917 224.634 255.01 220.54 260.014 220.54C265.017 220.54 269.111 224.634 269.111 229.638C269.111 234.641 265.017 238.735 260.014 238.735Z" fill="#4ED784"/>
<path id="E - 06" d="M223.625 238.735C218.621 238.735 214.527 234.641 214.527 229.638C214.527 224.634 218.621 220.54 223.625 220.54C228.628 220.54 232.722 224.634 232.722 229.638C232.722 234.641 228.628 238.735 223.625 238.735Z" fill="#4ED784"/>
<path id="E - 05" d="M187.236 238.735C182.232 238.735 178.138 234.641 178.138 229.638C178.138 224.634 182.232 220.54 187.236 220.54C192.239 220.54 196.333 224.634 196.333 229.638C196.333 234.641 192.239 238.735 187.236 238.735Z" fill="#4ED784"/>
<path id="D - 12" d="M441.959 275.124C436.955 275.124 432.861 271.03 432.861 266.027C432.861 261.023 436.955 256.93 441.959 256.93C446.962 256.93 451.056 261.023 451.056 266.027C451.056 271.03 446.962 275.124 441.959 275.124Z" fill="#4ED784"/>
<path id="D - 11" d="M405.57 275.124C400.566 275.124 396.472 271.03 396.472 266.027C396.472 261.023 400.566 256.93 405.57 256.93C410.573 256.93 414.667 261.023 414.667 266.027C414.667 271.03 410.573 275.124 405.57 275.124Z" fill="#4ED784"/>
<path id="D - 10" d="M369.181 275.124C364.177 275.124 360.083 271.03 360.083 266.027C360.083 261.023 364.177 256.93 369.181 256.93C374.184 256.93 378.278 261.023 378.278 266.027C378.278 271.03 374.184 275.124 369.181 275.124Z" fill="#4ED784"/>
<path id="D - 09" d="M332.792 275.124C327.788 275.124 323.695 271.03 323.695 266.027C323.695 261.023 327.788 256.93 332.792 256.93C337.795 256.93 341.889 261.023 341.889 266.027C341.889 271.03 337.795 275.124 332.792 275.124Z" fill="#4ED784"/>
<path id="D - 08" d="M296.403 275.124C291.399 275.124 287.306 271.03 287.306 266.027C287.306 261.023 291.399 256.93 296.403 256.93C301.406 256.93 305.5 261.023 305.5 266.027C305.5 271.03 301.406 275.124 296.403 275.124Z" fill="#4ED784"/>
<path id="D - 07" d="M260.014 275.124C255.01 275.124 250.917 271.03 250.917 266.027C250.917 261.023 255.01 256.93 260.014 256.93C265.017 256.93 269.111 261.023 269.111 266.027C269.111 271.03 265.017 275.124 260.014 275.124Z" fill="#4ED784"/>
<path id="D - 06" d="M223.625 275.124C218.621 275.124 214.527 271.03 214.527 266.027C214.527 261.023 218.621 256.93 223.625 256.93C228.628 256.93 232.722 261.023 232.722 266.027C232.722 271.03 228.628 275.124 223.625 275.124Z" fill="#4ED784"/>
<path id="D - 05" d="M187.236 275.124C182.232 275.124 178.138 271.03 178.138 266.027C178.138 261.023 182.232 256.93 187.236 256.93C192.239 256.93 196.333 261.023 196.333 266.027C196.333 271.03 192.239 275.124 187.236 275.124Z" fill="#4ED784"/>
<path id="C - 12" d="M441.959 311.513C436.955 311.513 432.861 307.419 432.861 302.416C432.861 297.412 436.955 293.319 441.959 293.319C446.962 293.319 451.056 297.412 451.056 302.416C451.056 307.419 446.962 311.513 441.959 311.513Z" fill="#4ED784"/>
<path id="C - 11" d="M405.57 311.513C400.566 311.513 396.472 307.419 396.472 302.416C396.472 297.412 400.566 293.319 405.57 293.319C410.573 293.319 414.667 297.412 414.667 302.416C414.667 307.419 410.573 311.513 405.57 311.513Z" fill="#4ED784"/>
<path id="C - 10" d="M369.181 311.513C364.177 311.513 360.083 307.419 360.083 302.416C360.083 297.412 364.177 293.319 369.181 293.319C374.184 293.319 378.278 297.412 378.278 302.416C378.278 307.419 374.184 311.513 369.181 311.513Z" fill="#4ED784"/>
<path id="C - 09" d="M332.792 311.513C327.788 311.513 323.695 307.419 323.695 302.416C323.695 297.412 327.788 293.319 332.792 293.319C337.795 293.319 341.889 297.412 341.889 302.416C341.889 307.419 337.795 311.513 332.792 311.513Z" fill="#4ED784"/>
<path id="C - 08" d="M296.403 311.513C291.399 311.513 287.306 307.419 287.306 302.416C287.306 297.412 291.399 293.319 296.403 293.319C301.406 293.319 305.5 297.412 305.5 302.416C305.5 307.419 301.406 311.513 296.403 311.513Z" fill="#4ED784"/>
<path id="C - 07" d="M260.014 311.513C255.01 311.513 250.917 307.419 250.917 302.416C250.917 297.412 255.01 293.319 260.014 293.319C265.017 293.319 269.111 297.412 269.111 302.416C269.111 307.419 265.017 311.513 260.014 311.513Z" fill="#4ED784"/>
<path id="C - 06" d="M223.625 311.513C218.621 311.513 214.527 307.419 214.527 302.416C214.527 297.412 218.621 293.319 223.625 293.319C228.628 293.319 232.722 297.412 232.722 302.416C232.722 307.419 228.628 311.513 223.625 311.513Z" fill="#4ED784"/>
<path id="C - 05" d="M187.236 311.513C182.232 311.513 178.138 307.419 178.138 302.416C178.138 297.412 182.232 293.319 187.236 293.319C192.239 293.319 196.333 297.412 196.333 302.416C196.333 307.419 192.239 311.513 187.236 311.513Z" fill="#4ED784"/>
<path id="E - 04" d="M150.744 238.735C145.74 238.735 141.647 234.641 141.647 229.638C141.647 224.634 145.74 220.54 150.744 220.54C155.747 220.54 159.841 224.634 159.841 229.638C159.841 234.641 155.747 238.735 150.744 238.735Z" fill="#4ED784"/>
<path id="E - 03" d="M114.356 238.735C109.352 238.735 105.258 234.641 105.258 229.638C105.258 224.634 109.352 220.54 114.356 220.54C119.359 220.54 123.453 224.634 123.453 229.638C123.453 234.641 119.359 238.735 114.356 238.735Z" fill="#4ED784"/>
<path id="E - 02" d="M77.9657 238.735C72.9622 238.735 68.8684 234.641 68.8684 229.638C68.8684 224.634 72.9622 220.54 77.9657 220.54C82.9692 220.54 87.0629 224.634 87.0629 229.638C87.0629 234.641 82.9692 238.735 77.9657 238.735Z" fill="#4ED784"/>
<path id="E - 01" d="M41.5772 238.735C36.5737 238.735 32.48 234.641 32.48 229.638C32.48 224.634 36.5737 220.54 41.5772 220.54C46.5807 220.54 50.6745 224.634 50.6745 229.638C50.6745 234.641 46.5807 238.735 41.5772 238.735Z" fill="#4ED784"/>
<path id="D - 04" d="M150.744 275.124C145.74 275.124 141.647 271.03 141.647 266.027C141.647 261.023 145.74 256.93 150.744 256.93C155.747 256.93 159.841 261.023 159.841 266.027C159.841 271.03 155.747 275.124 150.744 275.124Z" fill="#4ED784"/>
<path id="D - 03" d="M114.356 275.124C109.352 275.124 105.258 271.03 105.258 266.027C105.258 261.023 109.352 256.93 114.356 256.93C119.359 256.93 123.453 261.023 123.453 266.027C123.453 271.03 119.359 275.124 114.356 275.124Z" fill="#4ED784"/>
<path id="D - 02" d="M77.9657 275.124C72.9622 275.124 68.8684 271.03 68.8684 266.027C68.8684 261.023 72.9622 256.93 77.9657 256.93C82.9692 256.93 87.0629 261.023 87.0629 266.027C87.0629 271.03 82.9692 275.124 77.9657 275.124Z" fill="#4ED784"/>
<path id="D - 01" d="M41.5772 275.124C36.5737 275.124 32.48 271.03 32.48 266.027C32.48 261.023 36.5737 256.93 41.5772 256.93C46.5807 256.93 50.6745 261.023 50.6745 266.027C50.6745 271.03 46.5807 275.124 41.5772 275.124Z" fill="#4ED784"/>
<path id="C - 04" d="M150.744 311.513C145.74 311.513 141.647 307.419 141.647 302.416C141.647 297.412 145.74 293.319 150.744 293.319C155.747 293.319 159.841 297.412 159.841 302.416C159.841 307.419 155.747 311.513 150.744 311.513Z" fill="#4ED784"/>
<path id="C - 03" d="M114.356 311.513C109.352 311.513 105.258 307.419 105.258 302.416C105.258 297.412 109.352 293.319 114.356 293.319C119.359 293.319 123.453 297.412 123.453 302.416C123.453 307.419 119.359 311.513 114.356 311.513Z" fill="#4ED784"/>
<path id="C - 02" d="M77.9657 311.513C72.9622 311.513 68.8684 307.419 68.8684 302.416C68.8684 297.412 72.9622 293.319 77.9657 293.319C82.9692 293.319 87.0629 297.412 87.0629 302.416C87.0629 307.419 82.9692 311.513 77.9657 311.513Z" fill="#4ED784"/>
<path id="C - 01" d="M41.5772 311.513C36.5737 311.513 32.48 307.419 32.48 302.416C32.48 297.412 36.5737 293.319 41.5772 293.319C46.5807 293.319 50.6745 297.412 50.6745 302.416C50.6745 307.419 46.5807 311.513 41.5772 311.513Z" fill="#4ED784"/>
<path id="B - 03" d="M441.959 347.777C436.955 347.777 432.861 343.683 432.861 338.68C432.861 333.676 436.955 329.583 441.959 329.583C446.962 329.583 451.056 333.676 451.056 338.68C451.056 343.683 446.962 347.777 441.959 347.777Z" fill="#4ED784"/>
<path id="B - 02" d="M405.57 347.777C400.566 347.777 396.472 343.683 396.472 338.68C396.472 333.676 400.566 329.583 405.57 329.583C410.573 329.583 414.667 333.676 414.667 338.68C414.667 343.683 410.573 347.777 405.57 347.777Z" fill="#4ED784"/>
<path id="B - 01" d="M369.181 347.777C364.177 347.777 360.083 343.683 360.083 338.68C360.083 333.676 364.177 329.583 369.181 329.583C374.184 329.583 378.278 333.676 378.278 338.68C378.278 343.683 374.184 347.777 369.181 347.777Z" fill="#4ED784"/>
<path id="A - 03" d="M441.959 384.166C436.955 384.166 432.861 380.072 432.861 375.068C432.861 370.065 436.955 365.971 441.959 365.971C446.962 365.971 451.056 370.065 451.056 375.068C451.056 380.072 446.962 384.166 441.959 384.166Z" fill="#4ED784"/>
<path id="A - 02" d="M405.57 384.166C400.566 384.166 396.472 380.072 396.472 375.068C396.472 370.065 400.566 365.971 405.57 365.971C410.573 365.971 414.667 370.065 414.667 375.068C414.667 380.072 410.573 384.166 405.57 384.166Z" fill="#4ED784"/>
<path id="A - 01" d="M369.181 384.166C364.177 384.166 360.083 380.072 360.083 375.068C360.083 370.065 364.177 365.971 369.181 365.971C374.184 365.971 378.278 370.065 378.278 375.068C378.278 380.072 374.184 384.166 369.181 384.166Z" fill="#4ED784"/>
</g>
</svg>
