<svg width="913" height="378" viewBox="0 0 913 378" fill="none" xmlns="http://www.w3.org/2000/svg">
<g id="204">
<path id="k" d="M1.98603 15V3.42166H3.73295V8.95077H3.87429L8.73063 3.42166H10.9298L6.26006 8.63418L10.9468 15H8.8437L5.1011 9.82706L3.73295 11.3987V15H1.98603Z" fill="white"/>
<path id="K - 01" d="M39 18C34.05 18 30 13.95 30 9C30 4.05 34.05 0 39 0C43.95 0 48 4.05 48 9C48 13.95 43.95 18 39 18Z" fill="#8525D9"/>
<path id="K - 02" d="M75 18C70.05 18 66 13.95 66 9C66 4.05 70.05 0 75 0C79.95 0 84 4.05 84 9C84 13.95 79.95 18 75 18Z" fill="#8525D9"/>
<path id="K - 03" d="M111 18C106.05 18 102 13.95 102 9C102 4.05 106.05 0 111 0C115.95 0 120 4.05 120 9C120 13.95 115.95 18 111 18Z" fill="#8525D9"/>
<path id="K - 04" d="M147 18C142.05 18 138 13.95 138 9C138 4.05 142.05 0 147 0C151.95 0 156 4.05 156 9C156 13.95 151.95 18 147 18Z" fill="#8525D9"/>
<path id="K - 05" d="M183 18C178.05 18 174 13.95 174 9C174 4.05 178.05 0 183 0C187.95 0 192 4.05 192 9C192 13.95 187.95 18 183 18Z" fill="#8525D9"/>
<path id="K - 06" d="M219 18C214.05 18 210 13.95 210 9C210 4.05 214.05 0 219 0C223.95 0 228 4.05 228 9C228 13.95 223.95 18 219 18Z" fill="#8525D9"/>
<path id="K - 07" d="M255 18C250.05 18 246 13.95 246 9C246 4.05 250.05 0 255 0C259.95 0 264 4.05 264 9C264 13.95 259.95 18 255 18Z" fill="#8525D9"/>
<path id="K - 08" d="M291 18C286.05 18 282 13.95 282 9C282 4.05 286.05 0 291 0C295.95 0 300 4.05 300 9C300 13.95 295.95 18 291 18Z" fill="#8525D9"/>
<path id="K - 09" d="M327 18C322.05 18 318 13.95 318 9C318 4.05 322.05 0 327 0C331.95 0 336 4.05 336 9C336 13.95 331.95 18 327 18Z" fill="#8525D9"/>
<path id="K - 10" d="M363 18C358.05 18 354 13.95 354 9C354 4.05 358.05 0 363 0C367.95 0 372 4.05 372 9C372 13.95 367.95 18 363 18Z" fill="#8525D9"/>
<path id="K - 11" d="M399 18C394.05 18 390 13.95 390 9C390 4.05 394.05 0 399 0C403.95 0 408 4.05 408 9C408 13.95 403.95 18 399 18Z" fill="#8525D9"/>
<path id="K - 12" d="M435 18C430.05 18 426 13.95 426 9C426 4.05 430.05 0 435 0C439.95 0 444 4.05 444 9C444 13.95 439.95 18 435 18Z" fill="#8525D9"/>
<path id="K - 13" d="M471 18C466.05 18 462 13.95 462 9C462 4.05 466.05 0 471 0C475.95 0 480 4.05 480 9C480 13.95 475.95 18 471 18Z" fill="#8525D9"/>
<path id="K - 14" d="M507 18C502.05 18 498 13.95 498 9C498 4.05 502.05 0 507 0C511.95 0 516 4.05 516 9C516 13.95 511.95 18 507 18Z" fill="#8525D9"/>
<path id="K - 15" d="M543 18C538.05 18 534 13.95 534 9C534 4.05 538.05 0 543 0C547.95 0 552 4.05 552 9C552 13.95 547.95 18 543 18Z" fill="#8525D9"/>
<path id="K - 16" d="M579 18C574.05 18 570 13.95 570 9C570 4.05 574.05 0 579 0C583.95 0 588 4.05 588 9C588 13.95 583.95 18 579 18Z" fill="#8525D9"/>
<path id="K - 17" d="M615 18C610.05 18 606 13.95 606 9C606 4.05 610.05 0 615 0C619.95 0 624 4.05 624 9C624 13.95 619.95 18 615 18Z" fill="#8525D9"/>
<path id="K - 18" d="M651 18C646.05 18 642 13.95 642 9C642 4.05 646.05 0 651 0C655.95 0 660 4.05 660 9C660 13.95 655.95 18 651 18Z" fill="#8525D9"/>
<path id="K - 19" d="M687 18C682.05 18 678 13.95 678 9C678 4.05 682.05 0 687 0C691.95 0 696 4.05 696 9C696 13.95 691.95 18 687 18Z" fill="#8525D9"/>
<path id="K - 20" d="M723 18C718.05 18 714 13.95 714 9C714 4.05 718.05 0 723 0C727.95 0 732 4.05 732 9C732 13.95 727.95 18 723 18Z" fill="#8525D9"/>
<path id="K - 21" d="M759 18C754.05 18 750 13.95 750 9C750 4.05 754.05 0 759 0C763.95 0 768 4.05 768 9C768 13.95 763.95 18 759 18Z" fill="#8525D9"/>
<path id="K - 22" d="M795 18C790.05 18 786 13.95 786 9C786 4.05 790.05 0 795 0C799.95 0 804 4.05 804 9C804 13.95 799.95 18 795 18Z" fill="#8525D9"/>
<path id="K - 23" d="M831 18C826.05 18 822 13.95 822 9C822 4.05 826.05 0 831 0C835.95 0 840 4.05 840 9C840 13.95 835.95 18 831 18Z" fill="#8525D9"/>
<path id="K - 24" d="M867 18C862.05 18 858 13.95 858 9C858 4.05 862.05 0 867 0C871.95 0 876 4.05 876 9C876 13.95 871.95 18 867 18Z" fill="#8525D9"/>
<path id="J - 01" d="M39 54C34.05 54 30 49.95 30 45C30 40.05 34.05 36 39 36C43.95 36 48 40.05 48 45C48 49.95 43.95 54 39 54Z" fill="#8525D9"/>
<path id="J - 02" d="M75 54C70.05 54 66 49.95 66 45C66 40.05 70.05 36 75 36C79.95 36 84 40.05 84 45C84 49.95 79.95 54 75 54Z" fill="#8525D9"/>
<path id="J - 03" d="M111 54C106.05 54 102 49.95 102 45C102 40.05 106.05 36 111 36C115.95 36 120 40.05 120 45C120 49.95 115.95 54 111 54Z" fill="#8525D9"/>
<path id="J - 04" d="M147 54C142.05 54 138 49.95 138 45C138 40.05 142.05 36 147 36C151.95 36 156 40.05 156 45C156 49.95 151.95 54 147 54Z" fill="#8525D9"/>
<path id="J - 05" d="M183 54C178.05 54 174 49.95 174 45C174 40.05 178.05 36 183 36C187.95 36 192 40.05 192 45C192 49.95 187.95 54 183 54Z" fill="#8525D9"/>
<path id="J - 06" d="M219 54C214.05 54 210 49.95 210 45C210 40.05 214.05 36 219 36C223.95 36 228 40.05 228 45C228 49.95 223.95 54 219 54Z" fill="#8525D9"/>
<path id="J - 07" d="M255 54C250.05 54 246 49.95 246 45C246 40.05 250.05 36 255 36C259.95 36 264 40.05 264 45C264 49.95 259.95 54 255 54Z" fill="#8525D9"/>
<path id="J - 08" d="M291 54C286.05 54 282 49.95 282 45C282 40.05 286.05 36 291 36C295.95 36 300 40.05 300 45C300 49.95 295.95 54 291 54Z" fill="#8525D9"/>
<path id="J - 09" d="M327 54C322.05 54 318 49.95 318 45C318 40.05 322.05 36 327 36C331.95 36 336 40.05 336 45C336 49.95 331.95 54 327 54Z" fill="#8525D9"/>
<path id="J - 10" d="M363 54C358.05 54 354 49.95 354 45C354 40.05 358.05 36 363 36C367.95 36 372 40.05 372 45C372 49.95 367.95 54 363 54Z" fill="#8525D9"/>
<path id="J - 11" d="M399 54C394.05 54 390 49.95 390 45C390 40.05 394.05 36 399 36C403.95 36 408 40.05 408 45C408 49.95 403.95 54 399 54Z" fill="#8525D9"/>
<path id="J - 12" d="M435 54C430.05 54 426 49.95 426 45C426 40.05 430.05 36 435 36C439.95 36 444 40.05 444 45C444 49.95 439.95 54 435 54Z" fill="#8525D9"/>
<path id="J - 13" d="M471 54C466.05 54 462 49.95 462 45C462 40.05 466.05 36 471 36C475.95 36 480 40.05 480 45C480 49.95 475.95 54 471 54Z" fill="#8525D9"/>
<path id="J - 14" d="M507 54C502.05 54 498 49.95 498 45C498 40.05 502.05 36 507 36C511.95 36 516 40.05 516 45C516 49.95 511.95 54 507 54Z" fill="#8525D9"/>
<path id="J - 15" d="M543 54C538.05 54 534 49.95 534 45C534 40.05 538.05 36 543 36C547.95 36 552 40.05 552 45C552 49.95 547.95 54 543 54Z" fill="#8525D9"/>
<path id="J - 16" d="M579 54C574.05 54 570 49.95 570 45C570 40.05 574.05 36 579 36C583.95 36 588 40.05 588 45C588 49.95 583.95 54 579 54Z" fill="#8525D9"/>
<path id="J - 17" d="M615 54C610.05 54 606 49.95 606 45C606 40.05 610.05 36 615 36C619.95 36 624 40.05 624 45C624 49.95 619.95 54 615 54Z" fill="#8525D9"/>
<path id="J - 18" d="M651 54C646.05 54 642 49.95 642 45C642 40.05 646.05 36 651 36C655.95 36 660 40.05 660 45C660 49.95 655.95 54 651 54Z" fill="#8525D9"/>
<path id="J - 19" d="M687 54C682.05 54 678 49.95 678 45C678 40.05 682.05 36 687 36C691.95 36 696 40.05 696 45C696 49.95 691.95 54 687 54Z" fill="#8525D9"/>
<path id="J - 20" d="M723 54C718.05 54 714 49.95 714 45C714 40.05 718.05 36 723 36C727.95 36 732 40.05 732 45C732 49.95 727.95 54 723 54Z" fill="#8525D9"/>
<path id="J - 21" d="M759 54C754.05 54 750 49.95 750 45C750 40.05 754.05 36 759 36C763.95 36 768 40.05 768 45C768 49.95 763.95 54 759 54Z" fill="#8525D9"/>
<path id="J - 22" d="M795 54C790.05 54 786 49.95 786 45C786 40.05 790.05 36 795 36C799.95 36 804 40.05 804 45C804 49.95 799.95 54 795 54Z" fill="#8525D9"/>
<path id="J - 23" d="M831 54C826.05 54 822 49.95 822 45C822 40.05 826.05 36 831 36C835.95 36 840 40.05 840 45C840 49.95 835.95 54 831 54Z" fill="#8525D9"/>
<path id="J - 24" d="M867 54C862.05 54 858 49.95 858 45C858 40.05 862.05 36 867 36C871.95 36 876 40.05 876 45C876 49.95 871.95 54 867 54Z" fill="#8525D9"/>
<path id="I - 01" d="M75 90C70.05 90 66 85.95 66 81C66 76.05 70.05 72 75 72C79.95 72 84 76.05 84 81C84 85.95 79.95 90 75 90Z" fill="#8525D9"/>
<path id="I - 02" d="M111 90C106.05 90 102 85.95 102 81C102 76.05 106.05 72 111 72C115.95 72 120 76.05 120 81C120 85.95 115.95 90 111 90Z" fill="#8525D9"/>
<path id="I - 03" d="M147 90C142.05 90 138 85.95 138 81C138 76.05 142.05 72 147 72C151.95 72 156 76.05 156 81C156 85.95 151.95 90 147 90Z" fill="#8525D9"/>
<path id="I - 04" d="M183 90C178.05 90 174 85.95 174 81C174 76.05 178.05 72 183 72C187.95 72 192 76.05 192 81C192 85.95 187.95 90 183 90Z" fill="#8525D9"/>
<path id="I - 05" d="M219 90C214.05 90 210 85.95 210 81C210 76.05 214.05 72 219 72C223.95 72 228 76.05 228 81C228 85.95 223.95 90 219 90Z" fill="#8525D9"/>
<path id="I - 06" d="M255 90C250.05 90 246 85.95 246 81C246 76.05 250.05 72 255 72C259.95 72 264 76.05 264 81C264 85.95 259.95 90 255 90Z" fill="#8525D9"/>
<path id="I - 07" d="M291 90C286.05 90 282 85.95 282 81C282 76.05 286.05 72 291 72C295.95 72 300 76.05 300 81C300 85.95 295.95 90 291 90Z" fill="#8525D9"/>
<path id="I - 08" d="M327 90C322.05 90 318 85.95 318 81C318 76.05 322.05 72 327 72C331.95 72 336 76.05 336 81C336 85.95 331.95 90 327 90Z" fill="#8525D9"/>
<path id="I - 09" d="M363 90C358.05 90 354 85.95 354 81C354 76.05 358.05 72 363 72C367.95 72 372 76.05 372 81C372 85.95 367.95 90 363 90Z" fill="#8525D9"/>
<path id="I - 10" d="M399 90C394.05 90 390 85.95 390 81C390 76.05 394.05 72 399 72C403.95 72 408 76.05 408 81C408 85.95 403.95 90 399 90Z" fill="#8525D9"/>
<path id="I - 11" d="M435 90C430.05 90 426 85.95 426 81C426 76.05 430.05 72 435 72C439.95 72 444 76.05 444 81C444 85.95 439.95 90 435 90Z" fill="#8525D9"/>
<path id="I - 12" d="M471 90C466.05 90 462 85.95 462 81C462 76.05 466.05 72 471 72C475.95 72 480 76.05 480 81C480 85.95 475.95 90 471 90Z" fill="#8525D9"/>
<path id="I - 13" d="M507 90C502.05 90 498 85.95 498 81C498 76.05 502.05 72 507 72C511.95 72 516 76.05 516 81C516 85.95 511.95 90 507 90Z" fill="#8525D9"/>
<path id="I - 14" d="M543 90C538.05 90 534 85.95 534 81C534 76.05 538.05 72 543 72C547.95 72 552 76.05 552 81C552 85.95 547.95 90 543 90Z" fill="#8525D9"/>
<path id="I - 15" d="M579 90C574.05 90 570 85.95 570 81C570 76.05 574.05 72 579 72C583.95 72 588 76.05 588 81C588 85.95 583.95 90 579 90Z" fill="#8525D9"/>
<path id="I - 16" d="M615 90C610.05 90 606 85.95 606 81C606 76.05 610.05 72 615 72C619.95 72 624 76.05 624 81C624 85.95 619.95 90 615 90Z" fill="#8525D9"/>
<path id="I - 17" d="M651 90C646.05 90 642 85.95 642 81C642 76.05 646.05 72 651 72C655.95 72 660 76.05 660 81C660 85.95 655.95 90 651 90Z" fill="#8525D9"/>
<path id="I - 18" d="M687 90C682.05 90 678 85.95 678 81C678 76.05 682.05 72 687 72C691.95 72 696 76.05 696 81C696 85.95 691.95 90 687 90Z" fill="#8525D9"/>
<path id="I - 19" d="M723 90C718.05 90 714 85.95 714 81C714 76.05 718.05 72 723 72C727.95 72 732 76.05 732 81C732 85.95 727.95 90 723 90Z" fill="#8525D9"/>
<path id="I - 20" d="M759 90C754.05 90 750 85.95 750 81C750 76.05 754.05 72 759 72C763.95 72 768 76.05 768 81C768 85.95 763.95 90 759 90Z" fill="#8525D9"/>
<path id="I - 21" d="M795 90C790.05 90 786 85.95 786 81C786 76.05 790.05 72 795 72C799.95 72 804 76.05 804 81C804 85.95 799.95 90 795 90Z" fill="#8525D9"/>
<path id="I - 22" d="M831 90C826.05 90 822 85.95 822 81C822 76.05 826.05 72 831 72C835.95 72 840 76.05 840 81C840 85.95 835.95 90 831 90Z" fill="#8525D9"/>
<path id="I - 23" d="M867 90C862.05 90 858 85.95 858 81C858 76.05 862.05 72 867 72C871.95 72 876 76.05 876 81C876 85.95 871.95 90 867 90Z" fill="#8525D9"/>
<path id="H - 01" d="M75 126C70.05 126 66 121.95 66 117C66 112.05 70.05 108 75 108C79.95 108 84 112.05 84 117C84 121.95 79.95 126 75 126Z" fill="#8525D9"/>
<path id="H - 02" d="M111 126C106.05 126 102 121.95 102 117C102 112.05 106.05 108 111 108C115.95 108 120 112.05 120 117C120 121.95 115.95 126 111 126Z" fill="#8525D9"/>
<path id="H - 03" d="M147 126C142.05 126 138 121.95 138 117C138 112.05 142.05 108 147 108C151.95 108 156 112.05 156 117C156 121.95 151.95 126 147 126Z" fill="#8525D9"/>
<path id="H - 04" d="M183 126C178.05 126 174 121.95 174 117C174 112.05 178.05 108 183 108C187.95 108 192 112.05 192 117C192 121.95 187.95 126 183 126Z" fill="#8525D9"/>
<path id="H - 05" d="M219 126C214.05 126 210 121.95 210 117C210 112.05 214.05 108 219 108C223.95 108 228 112.05 228 117C228 121.95 223.95 126 219 126Z" fill="#8525D9"/>
<path id="H - 06" d="M255 126C250.05 126 246 121.95 246 117C246 112.05 250.05 108 255 108C259.95 108 264 112.05 264 117C264 121.95 259.95 126 255 126Z" fill="#8525D9"/>
<path id="H - 07" d="M291 126C286.05 126 282 121.95 282 117C282 112.05 286.05 108 291 108C295.95 108 300 112.05 300 117C300 121.95 295.95 126 291 126Z" fill="#8525D9"/>
<path id="H - 08" d="M327 126C322.05 126 318 121.95 318 117C318 112.05 322.05 108 327 108C331.95 108 336 112.05 336 117C336 121.95 331.95 126 327 126Z" fill="#8525D9"/>
<path id="H - 09" d="M363 126C358.05 126 354 121.95 354 117C354 112.05 358.05 108 363 108C367.95 108 372 112.05 372 117C372 121.95 367.95 126 363 126Z" fill="#8525D9"/>
<path id="H - 10" d="M399 126C394.05 126 390 121.95 390 117C390 112.05 394.05 108 399 108C403.95 108 408 112.05 408 117C408 121.95 403.95 126 399 126Z" fill="#8525D9"/>
<path id="H - 11" d="M435 126C430.05 126 426 121.95 426 117C426 112.05 430.05 108 435 108C439.95 108 444 112.05 444 117C444 121.95 439.95 126 435 126Z" fill="#8525D9"/>
<path id="H - 12" d="M471 126C466.05 126 462 121.95 462 117C462 112.05 466.05 108 471 108C475.95 108 480 112.05 480 117C480 121.95 475.95 126 471 126Z" fill="#8525D9"/>
<path id="H - 13" d="M507 126C502.05 126 498 121.95 498 117C498 112.05 502.05 108 507 108C511.95 108 516 112.05 516 117C516 121.95 511.95 126 507 126Z" fill="#8525D9"/>
<path id="H - 14" d="M543 126C538.05 126 534 121.95 534 117C534 112.05 538.05 108 543 108C547.95 108 552 112.05 552 117C552 121.95 547.95 126 543 126Z" fill="#8525D9"/>
<path id="H - 15" d="M579 126C574.05 126 570 121.95 570 117C570 112.05 574.05 108 579 108C583.95 108 588 112.05 588 117C588 121.95 583.95 126 579 126Z" fill="#8525D9"/>
<path id="H - 16" d="M615 126C610.05 126 606 121.95 606 117C606 112.05 610.05 108 615 108C619.95 108 624 112.05 624 117C624 121.95 619.95 126 615 126Z" fill="#8525D9"/>
<path id="H - 17" d="M651 126C646.05 126 642 121.95 642 117C642 112.05 646.05 108 651 108C655.95 108 660 112.05 660 117C660 121.95 655.95 126 651 126Z" fill="#8525D9"/>
<path id="H - 18" d="M687 126C682.05 126 678 121.95 678 117C678 112.05 682.05 108 687 108C691.95 108 696 112.05 696 117C696 121.95 691.95 126 687 126Z" fill="#8525D9"/>
<path id="H - 19" d="M723 126C718.05 126 714 121.95 714 117C714 112.05 718.05 108 723 108C727.95 108 732 112.05 732 117C732 121.95 727.95 126 723 126Z" fill="#8525D9"/>
<path id="H - 20" d="M759 126C754.05 126 750 121.95 750 117C750 112.05 754.05 108 759 108C763.95 108 768 112.05 768 117C768 121.95 763.95 126 759 126Z" fill="#8525D9"/>
<path id="H - 21" d="M795 126C790.05 126 786 121.95 786 117C786 112.05 790.05 108 795 108C799.95 108 804 112.05 804 117C804 121.95 799.95 126 795 126Z" fill="#8525D9"/>
<path id="H - 22" d="M831 126C826.05 126 822 121.95 822 117C822 112.05 826.05 108 831 108C835.95 108 840 112.05 840 117C840 121.95 835.95 126 831 126Z" fill="#8525D9"/>
<path id="G - 01" d="M111 162C106.05 162 102 157.95 102 153C102 148.05 106.05 144 111 144C115.95 144 120 148.05 120 153C120 157.95 115.95 162 111 162Z" fill="#8525D9"/>
<path id="G - 02" d="M147 162C142.05 162 138 157.95 138 153C138 148.05 142.05 144 147 144C151.95 144 156 148.05 156 153C156 157.95 151.95 162 147 162Z" fill="#8525D9"/>
<path id="G - 03" d="M183 162C178.05 162 174 157.95 174 153C174 148.05 178.05 144 183 144C187.95 144 192 148.05 192 153C192 157.95 187.95 162 183 162Z" fill="#8525D9"/>
<path id="G - 04" d="M219 162C214.05 162 210 157.95 210 153C210 148.05 214.05 144 219 144C223.95 144 228 148.05 228 153C228 157.95 223.95 162 219 162Z" fill="#8525D9"/>
<path id="G - 05" d="M255 162C250.05 162 246 157.95 246 153C246 148.05 250.05 144 255 144C259.95 144 264 148.05 264 153C264 157.95 259.95 162 255 162Z" fill="#8525D9"/>
<path id="G - 06" d="M291 162C286.05 162 282 157.95 282 153C282 148.05 286.05 144 291 144C295.95 144 300 148.05 300 153C300 157.95 295.95 162 291 162Z" fill="#8525D9"/>
<path id="G - 07" d="M327 162C322.05 162 318 157.95 318 153C318 148.05 322.05 144 327 144C331.95 144 336 148.05 336 153C336 157.95 331.95 162 327 162Z" fill="#8525D9"/>
<path id="G - 08" d="M363 162C358.05 162 354 157.95 354 153C354 148.05 358.05 144 363 144C367.95 144 372 148.05 372 153C372 157.95 367.95 162 363 162Z" fill="#8525D9"/>
<path id="G - 09" d="M399 162C394.05 162 390 157.95 390 153C390 148.05 394.05 144 399 144C403.95 144 408 148.05 408 153C408 157.95 403.95 162 399 162Z" fill="#8525D9"/>
<path id="G - 10" d="M435 162C430.05 162 426 157.95 426 153C426 148.05 430.05 144 435 144C439.95 144 444 148.05 444 153C444 157.95 439.95 162 435 162Z" fill="#8525D9"/>
<path id="G - 11" d="M471 162C466.05 162 462 157.95 462 153C462 148.05 466.05 144 471 144C475.95 144 480 148.05 480 153C480 157.95 475.95 162 471 162Z" fill="#8525D9"/>
<path id="G - 12" d="M507 162C502.05 162 498 157.95 498 153C498 148.05 502.05 144 507 144C511.95 144 516 148.05 516 153C516 157.95 511.95 162 507 162Z" fill="#8525D9"/>
<path id="G - 13" d="M543 162C538.05 162 534 157.95 534 153C534 148.05 538.05 144 543 144C547.95 144 552 148.05 552 153C552 157.95 547.95 162 543 162Z" fill="#8525D9"/>
<path id="G - 14" d="M579 162C574.05 162 570 157.95 570 153C570 148.05 574.05 144 579 144C583.95 144 588 148.05 588 153C588 157.95 583.95 162 579 162Z" fill="#8525D9"/>
<path id="G - 15" d="M615 162C610.05 162 606 157.95 606 153C606 148.05 610.05 144 615 144C619.95 144 624 148.05 624 153C624 157.95 619.95 162 615 162Z" fill="#8525D9"/>
<path id="G - 16" d="M651 162C646.05 162 642 157.95 642 153C642 148.05 646.05 144 651 144C655.95 144 660 148.05 660 153C660 157.95 655.95 162 651 162Z" fill="#8525D9"/>
<path id="G - 17" d="M687 162C682.05 162 678 157.95 678 153C678 148.05 682.05 144 687 144C691.95 144 696 148.05 696 153C696 157.95 691.95 162 687 162Z" fill="#8525D9"/>
<path id="G - 18" d="M723 162C718.05 162 714 157.95 714 153C714 148.05 718.05 144 723 144C727.95 144 732 148.05 732 153C732 157.95 727.95 162 723 162Z" fill="#8525D9"/>
<path id="G - 19" d="M759 162C754.05 162 750 157.95 750 153C750 148.05 754.05 144 759 144C763.95 144 768 148.05 768 153C768 157.95 763.95 162 759 162Z" fill="#8525D9"/>
<path id="G - 20" d="M795 162C790.05 162 786 157.95 786 153C786 148.05 790.05 144 795 144C799.95 144 804 148.05 804 153C804 157.95 799.95 162 795 162Z" fill="#8525D9"/>
<path id="G - 21" d="M831 162C826.05 162 822 157.95 822 153C822 148.05 826.05 144 831 144C835.95 144 840 148.05 840 153C840 157.95 835.95 162 831 162Z" fill="#8525D9"/>
<path id="G - 22" d="M867 162C862.05 162 858 157.95 858 153C858 148.05 862.05 144 867 144C871.95 144 876 148.05 876 153C876 157.95 871.95 162 867 162Z" fill="#8525D9"/>
<path id="F - 01" d="M111 198C106.05 198 102 193.95 102 189C102 184.05 106.05 180 111 180C115.95 180 120 184.05 120 189C120 193.95 115.95 198 111 198Z" fill="#8525D9"/>
<path id="F - 02" d="M147 198C142.05 198 138 193.95 138 189C138 184.05 142.05 180 147 180C151.95 180 156 184.05 156 189C156 193.95 151.95 198 147 198Z" fill="#8525D9"/>
<path id="F - 03" d="M183 198C178.05 198 174 193.95 174 189C174 184.05 178.05 180 183 180C187.95 180 192 184.05 192 189C192 193.95 187.95 198 183 198Z" fill="#8525D9"/>
<path id="F - 04" d="M219 198C214.05 198 210 193.95 210 189C210 184.05 214.05 180 219 180C223.95 180 228 184.05 228 189C228 193.95 223.95 198 219 198Z" fill="#8525D9"/>
<path id="F - 05" d="M255 198C250.05 198 246 193.95 246 189C246 184.05 250.05 180 255 180C259.95 180 264 184.05 264 189C264 193.95 259.95 198 255 198Z" fill="#8525D9"/>
<path id="F - 06" d="M291 198C286.05 198 282 193.95 282 189C282 184.05 286.05 180 291 180C295.95 180 300 184.05 300 189C300 193.95 295.95 198 291 198Z" fill="#8525D9"/>
<path id="F - 07" d="M327 198C322.05 198 318 193.95 318 189C318 184.05 322.05 180 327 180C331.95 180 336 184.05 336 189C336 193.95 331.95 198 327 198Z" fill="#8525D9"/>
<path id="F - 08" d="M363 198C358.05 198 354 193.95 354 189C354 184.05 358.05 180 363 180C367.95 180 372 184.05 372 189C372 193.95 367.95 198 363 198Z" fill="#8525D9"/>
<path id="F - 09" d="M399 198C394.05 198 390 193.95 390 189C390 184.05 394.05 180 399 180C403.95 180 408 184.05 408 189C408 193.95 403.95 198 399 198Z" fill="#8525D9"/>
<path id="F - 10" d="M435 198C430.05 198 426 193.95 426 189C426 184.05 430.05 180 435 180C439.95 180 444 184.05 444 189C444 193.95 439.95 198 435 198Z" fill="#8525D9"/>
<path id="F - 11" d="M471 198C466.05 198 462 193.95 462 189C462 184.05 466.05 180 471 180C475.95 180 480 184.05 480 189C480 193.95 475.95 198 471 198Z" fill="#8525D9"/>
<path id="F - 12" d="M507 198C502.05 198 498 193.95 498 189C498 184.05 502.05 180 507 180C511.95 180 516 184.05 516 189C516 193.95 511.95 198 507 198Z" fill="#8525D9"/>
<path id="F - 13" d="M543 198C538.05 198 534 193.95 534 189C534 184.05 538.05 180 543 180C547.95 180 552 184.05 552 189C552 193.95 547.95 198 543 198Z" fill="#8525D9"/>
<path id="F - 14" d="M579 198C574.05 198 570 193.95 570 189C570 184.05 574.05 180 579 180C583.95 180 588 184.05 588 189C588 193.95 583.95 198 579 198Z" fill="#8525D9"/>
<path id="F - 15" d="M615 198C610.05 198 606 193.95 606 189C606 184.05 610.05 180 615 180C619.95 180 624 184.05 624 189C624 193.95 619.95 198 615 198Z" fill="#8525D9"/>
<path id="F - 16" d="M651 198C646.05 198 642 193.95 642 189C642 184.05 646.05 180 651 180C655.95 180 660 184.05 660 189C660 193.95 655.95 198 651 198Z" fill="#8525D9"/>
<path id="F - 17" d="M687 198C682.05 198 678 193.95 678 189C678 184.05 682.05 180 687 180C691.95 180 696 184.05 696 189C696 193.95 691.95 198 687 198Z" fill="#8525D9"/>
<path id="F - 18" d="M723 198C718.05 198 714 193.95 714 189C714 184.05 718.05 180 723 180C727.95 180 732 184.05 732 189C732 193.95 727.95 198 723 198Z" fill="#8525D9"/>
<path id="F - 19" d="M759 198C754.05 198 750 193.95 750 189C750 184.05 754.05 180 759 180C763.95 180 768 184.05 768 189C768 193.95 763.95 198 759 198Z" fill="#8525D9"/>
<path id="F - 20" d="M795 198C790.05 198 786 193.95 786 189C786 184.05 790.05 180 795 180C799.95 180 804 184.05 804 189C804 193.95 799.95 198 795 198Z" fill="#8525D9"/>
<path id="F - 21" d="M831 198C826.05 198 822 193.95 822 189C822 184.05 826.05 180 831 180C835.95 180 840 184.05 840 189C840 193.95 835.95 198 831 198Z" fill="#8525D9"/>
<path id="E - 01" d="M147 234C142.05 234 138 229.95 138 225C138 220.05 142.05 216 147 216C151.95 216 156 220.05 156 225C156 229.95 151.95 234 147 234Z" fill="#8525D9"/>
<path id="E - 02" d="M183 234C178.05 234 174 229.95 174 225C174 220.05 178.05 216 183 216C187.95 216 192 220.05 192 225C192 229.95 187.95 234 183 234Z" fill="#8525D9"/>
<path id="E - 03" d="M219 234C214.05 234 210 229.95 210 225C210 220.05 214.05 216 219 216C223.95 216 228 220.05 228 225C228 229.95 223.95 234 219 234Z" fill="#8525D9"/>
<path id="E - 04" d="M255 234C250.05 234 246 229.95 246 225C246 220.05 250.05 216 255 216C259.95 216 264 220.05 264 225C264 229.95 259.95 234 255 234Z" fill="#8525D9"/>
<path id="E - 05" d="M291 234C286.05 234 282 229.95 282 225C282 220.05 286.05 216 291 216C295.95 216 300 220.05 300 225C300 229.95 295.95 234 291 234Z" fill="#8525D9"/>
<path id="E - 06" d="M327 234C322.05 234 318 229.95 318 225C318 220.05 322.05 216 327 216C331.95 216 336 220.05 336 225C336 229.95 331.95 234 327 234Z" fill="#8525D9"/>
<path id="E - 07" d="M363 234C358.05 234 354 229.95 354 225C354 220.05 358.05 216 363 216C367.95 216 372 220.05 372 225C372 229.95 367.95 234 363 234Z" fill="#8525D9"/>
<path id="E - 08" d="M399 234C394.05 234 390 229.95 390 225C390 220.05 394.05 216 399 216C403.95 216 408 220.05 408 225C408 229.95 403.95 234 399 234Z" fill="#8525D9"/>
<path id="E - 09" d="M435 234C430.05 234 426 229.95 426 225C426 220.05 430.05 216 435 216C439.95 216 444 220.05 444 225C444 229.95 439.95 234 435 234Z" fill="#8525D9"/>
<path id="E - 10" d="M471 234C466.05 234 462 229.95 462 225C462 220.05 466.05 216 471 216C475.95 216 480 220.05 480 225C480 229.95 475.95 234 471 234Z" fill="#8525D9"/>
<path id="E - 11" d="M507 234C502.05 234 498 229.95 498 225C498 220.05 502.05 216 507 216C511.95 216 516 220.05 516 225C516 229.95 511.95 234 507 234Z" fill="#8525D9"/>
<path id="E - 12" d="M543 234C538.05 234 534 229.95 534 225C534 220.05 538.05 216 543 216C547.95 216 552 220.05 552 225C552 229.95 547.95 234 543 234Z" fill="#8525D9"/>
<path id="E - 13" d="M579 234C574.05 234 570 229.95 570 225C570 220.05 574.05 216 579 216C583.95 216 588 220.05 588 225C588 229.95 583.95 234 579 234Z" fill="#8525D9"/>
<path id="E - 14" d="M615 234C610.05 234 606 229.95 606 225C606 220.05 610.05 216 615 216C619.95 216 624 220.05 624 225C624 229.95 619.95 234 615 234Z" fill="#8525D9"/>
<path id="E - 15" d="M651 234C646.05 234 642 229.95 642 225C642 220.05 646.05 216 651 216C655.95 216 660 220.05 660 225C660 229.95 655.95 234 651 234Z" fill="#8525D9"/>
<path id="E - 16" d="M687 234C682.05 234 678 229.95 678 225C678 220.05 682.05 216 687 216C691.95 216 696 220.05 696 225C696 229.95 691.95 234 687 234Z" fill="#8525D9"/>
<path id="E - 17" d="M723 234C718.05 234 714 229.95 714 225C714 220.05 718.05 216 723 216C727.95 216 732 220.05 732 225C732 229.95 727.95 234 723 234Z" fill="#8525D9"/>
<path id="E - 18" d="M759 234C754.05 234 750 229.95 750 225C750 220.05 754.05 216 759 216C763.95 216 768 220.05 768 225C768 229.95 763.95 234 759 234Z" fill="#8525D9"/>
<path id="E - 19" d="M795 234C790.05 234 786 229.95 786 225C786 220.05 790.05 216 795 216C799.95 216 804 220.05 804 225C804 229.95 799.95 234 795 234Z" fill="#8525D9"/>
<path id="E - 20" d="M831 234C826.05 234 822 229.95 822 225C822 220.05 826.05 216 831 216C835.95 216 840 220.05 840 225C840 229.95 835.95 234 831 234Z" fill="#8525D9"/>
<path id="E - 21" d="M867 234C862.05 234 858 229.95 858 225C858 220.05 862.05 216 867 216C871.95 216 876 220.05 876 225C876 229.95 871.95 234 867 234Z" fill="#8525D9"/>
<path id="D - 01" d="M147 270C142.05 270 138 265.95 138 261C138 256.05 142.05 252 147 252C151.95 252 156 256.05 156 261C156 265.95 151.95 270 147 270Z" fill="#8525D9"/>
<path id="D - 02" d="M183 270C178.05 270 174 265.95 174 261C174 256.05 178.05 252 183 252C187.95 252 192 256.05 192 261C192 265.95 187.95 270 183 270Z" fill="#8525D9"/>
<path id="D - 03" d="M219 270C214.05 270 210 265.95 210 261C210 256.05 214.05 252 219 252C223.95 252 228 256.05 228 261C228 265.95 223.95 270 219 270Z" fill="#8525D9"/>
<path id="D - 04" d="M255 270C250.05 270 246 265.95 246 261C246 256.05 250.05 252 255 252C259.95 252 264 256.05 264 261C264 265.95 259.95 270 255 270Z" fill="#8525D9"/>
<path id="D - 05" d="M291 270C286.05 270 282 265.95 282 261C282 256.05 286.05 252 291 252C295.95 252 300 256.05 300 261C300 265.95 295.95 270 291 270Z" fill="#8525D9"/>
<path id="D - 06" d="M327 270C322.05 270 318 265.95 318 261C318 256.05 322.05 252 327 252C331.95 252 336 256.05 336 261C336 265.95 331.95 270 327 270Z" fill="#8525D9"/>
<path id="D - 07" d="M363 270C358.05 270 354 265.95 354 261C354 256.05 358.05 252 363 252C367.95 252 372 256.05 372 261C372 265.95 367.95 270 363 270Z" fill="#8525D9"/>
<path id="D - 08" d="M399 270C394.05 270 390 265.95 390 261C390 256.05 394.05 252 399 252C403.95 252 408 256.05 408 261C408 265.95 403.95 270 399 270Z" fill="#8525D9"/>
<path id="D - 09" d="M435 270C430.05 270 426 265.95 426 261C426 256.05 430.05 252 435 252C439.95 252 444 256.05 444 261C444 265.95 439.95 270 435 270Z" fill="#8525D9"/>
<path id="D - 10" d="M471 270C466.05 270 462 265.95 462 261C462 256.05 466.05 252 471 252C475.95 252 480 256.05 480 261C480 265.95 475.95 270 471 270Z" fill="#8525D9"/>
<path id="D - 11" d="M507 270C502.05 270 498 265.95 498 261C498 256.05 502.05 252 507 252C511.95 252 516 256.05 516 261C516 265.95 511.95 270 507 270Z" fill="#8525D9"/>
<path id="D - 12" d="M543 270C538.05 270 534 265.95 534 261C534 256.05 538.05 252 543 252C547.95 252 552 256.05 552 261C552 265.95 547.95 270 543 270Z" fill="#8525D9"/>
<path id="D - 13" d="M579 270C574.05 270 570 265.95 570 261C570 256.05 574.05 252 579 252C583.95 252 588 256.05 588 261C588 265.95 583.95 270 579 270Z" fill="#8525D9"/>
<path id="D - 14" d="M615 270C610.05 270 606 265.95 606 261C606 256.05 610.05 252 615 252C619.95 252 624 256.05 624 261C624 265.95 619.95 270 615 270Z" fill="#8525D9"/>
<path id="D - 15" d="M651 270C646.05 270 642 265.95 642 261C642 256.05 646.05 252 651 252C655.95 252 660 256.05 660 261C660 265.95 655.95 270 651 270Z" fill="#8525D9"/>
<path id="D - 16" d="M687 270C682.05 270 678 265.95 678 261C678 256.05 682.05 252 687 252C691.95 252 696 256.05 696 261C696 265.95 691.95 270 687 270Z" fill="#8525D9"/>
<path id="D - 17" d="M723 270C718.05 270 714 265.95 714 261C714 256.05 718.05 252 723 252C727.95 252 732 256.05 732 261C732 265.95 727.95 270 723 270Z" fill="#8525D9"/>
<path id="D - 18" d="M759 270C754.05 270 750 265.95 750 261C750 256.05 754.05 252 759 252C763.95 252 768 256.05 768 261C768 265.95 763.95 270 759 270Z" fill="#8525D9"/>
<path id="D - 19" d="M795 270C790.05 270 786 265.95 786 261C786 256.05 790.05 252 795 252C799.95 252 804 256.05 804 261C804 265.95 799.95 270 795 270Z" fill="#8525D9"/>
<path id="D - 20" d="M831 270C826.05 270 822 265.95 822 261C822 256.05 826.05 252 831 252C835.95 252 840 256.05 840 261C840 265.95 835.95 270 831 270Z" fill="#8525D9"/>
<path id="C - 01" d="M183 306C178.05 306 174 301.95 174 297C174 292.05 178.05 288 183 288C187.95 288 192 292.05 192 297C192 301.95 187.95 306 183 306Z" fill="#8525D9"/>
<path id="C - 02" d="M219 306C214.05 306 210 301.95 210 297C210 292.05 214.05 288 219 288C223.95 288 228 292.05 228 297C228 301.95 223.95 306 219 306Z" fill="#8525D9"/>
<path id="C - 03" d="M255 306C250.05 306 246 301.95 246 297C246 292.05 250.05 288 255 288C259.95 288 264 292.05 264 297C264 301.95 259.95 306 255 306Z" fill="#8525D9"/>
<path id="C - 04" d="M291 306C286.05 306 282 301.95 282 297C282 292.05 286.05 288 291 288C295.95 288 300 292.05 300 297C300 301.95 295.95 306 291 306Z" fill="#8525D9"/>
<path id="C - 05" d="M327 306C322.05 306 318 301.95 318 297C318 292.05 322.05 288 327 288C331.95 288 336 292.05 336 297C336 301.95 331.95 306 327 306Z" fill="#8525D9"/>
<path id="C - 06" d="M363 306C358.05 306 354 301.95 354 297C354 292.05 358.05 288 363 288C367.95 288 372 292.05 372 297C372 301.95 367.95 306 363 306Z" fill="#8525D9"/>
<path id="C - 07" d="M399 306C394.05 306 390 301.95 390 297C390 292.05 394.05 288 399 288C403.95 288 408 292.05 408 297C408 301.95 403.95 306 399 306Z" fill="#8525D9"/>
<path id="C - 08" d="M435 306C430.05 306 426 301.95 426 297C426 292.05 430.05 288 435 288C439.95 288 444 292.05 444 297C444 301.95 439.95 306 435 306Z" fill="#8525D9"/>
<path id="C - 09" d="M471 306C466.05 306 462 301.95 462 297C462 292.05 466.05 288 471 288C475.95 288 480 292.05 480 297C480 301.95 475.95 306 471 306Z" fill="#8525D9"/>
<path id="C - 10" d="M507 306C502.05 306 498 301.95 498 297C498 292.05 502.05 288 507 288C511.95 288 516 292.05 516 297C516 301.95 511.95 306 507 306Z" fill="#8525D9"/>
<path id="B - 01" d="M183 342C178.05 342 174 337.95 174 333C174 328.05 178.05 324 183 324C187.95 324 192 328.05 192 333C192 337.95 187.95 342 183 342Z" fill="#8525D9"/>
<path id="B - 02" d="M219 342C214.05 342 210 337.95 210 333C210 328.05 214.05 324 219 324C223.95 324 228 328.05 228 333C228 337.95 223.95 342 219 342Z" fill="#8525D9"/>
<path id="B - 03" d="M255 342C250.05 342 246 337.95 246 333C246 328.05 250.05 324 255 324C259.95 324 264 328.05 264 333C264 337.95 259.95 342 255 342Z" fill="#8525D9"/>
<path id="B - 04" d="M291 342C286.05 342 282 337.95 282 333C282 328.05 286.05 324 291 324C295.95 324 300 328.05 300 333C300 337.95 295.95 342 291 342Z" fill="#8525D9"/>
<path id="B - 05" d="M327 342C322.05 342 318 337.95 318 333C318 328.05 322.05 324 327 324C331.95 324 336 328.05 336 333C336 337.95 331.95 342 327 342Z" fill="#8525D9"/>
<path id="B - 06" d="M363 342C358.05 342 354 337.95 354 333C354 328.05 358.05 324 363 324C367.95 324 372 328.05 372 333C372 337.95 367.95 342 363 342Z" fill="#8525D9"/>
<path id="B - 07" d="M399 342C394.05 342 390 337.95 390 333C390 328.05 394.05 324 399 324C403.95 324 408 328.05 408 333C408 337.95 403.95 342 399 342Z" fill="#8525D9"/>
<path id="B - 08" d="M435 342C430.05 342 426 337.95 426 333C426 328.05 430.05 324 435 324C439.95 324 444 328.05 444 333C444 337.95 439.95 342 435 342Z" fill="#8525D9"/>
<path id="B - 09" d="M471 342C466.05 342 462 337.95 462 333C462 328.05 466.05 324 471 324C475.95 324 480 328.05 480 333C480 337.95 475.95 342 471 342Z" fill="#8525D9"/>
<path id="A - 01" d="M219 378C214.05 378 210 373.95 210 369C210 364.05 214.05 360 219 360C223.95 360 228 364.05 228 369C228 373.95 223.95 378 219 378Z" fill="#8525D9"/>
<path id="A - 02" d="M255 378C250.05 378 246 373.95 246 369C246 364.05 250.05 360 255 360C259.95 360 264 364.05 264 369C264 373.95 259.95 378 255 378Z" fill="#8525D9"/>
<path id="A - 03" d="M291 378C286.05 378 282 373.95 282 369C282 364.05 286.05 360 291 360C295.95 360 300 364.05 300 369C300 373.95 295.95 378 291 378Z" fill="#8525D9"/>
<path id="A - 04" d="M327 378C322.05 378 318 373.95 318 369C318 364.05 322.05 360 327 360C331.95 360 336 364.05 336 369C336 373.95 331.95 378 327 378Z" fill="#8525D9"/>
<path id="A - 05" d="M363 378C358.05 378 354 373.95 354 369C354 364.05 358.05 360 363 360C367.95 360 372 364.05 372 369C372 373.95 367.95 378 363 378Z" fill="#8525D9"/>
<path id="A - 06" d="M399 378C394.05 378 390 373.95 390 369C390 364.05 394.05 360 399 360C403.95 360 408 364.05 408 369C408 373.95 403.95 378 399 378Z" fill="#8525D9"/>
<path id="A - 07" d="M435 378C430.05 378 426 373.95 426 369C426 364.05 430.05 360 435 360C439.95 360 444 364.05 444 369C444 373.95 439.95 378 435 378Z" fill="#8525D9"/>
<path id="A - 08" d="M471 378C466.05 378 462 373.95 462 369C462 364.05 466.05 360 471 360C475.95 360 480 364.05 480 369C480 373.95 475.95 378 471 378Z" fill="#8525D9"/>
<path id="A - 09" d="M507 378C502.05 378 498 373.95 498 369C498 364.05 502.05 360 507 360C511.95 360 516 364.05 516 369C516 373.95 511.95 378 507 378Z" fill="#8525D9"/>
<path id="B - 10" d="M507 342C502.05 342 498 337.95 498 333C498 328.05 502.05 324 507 324C511.95 324 516 328.05 516 333C516 337.95 511.95 342 507 342Z" fill="#8525D9"/>
<path id="C - 11" d="M543 306C538.05 306 534 301.95 534 297C534 292.05 538.05 288 543 288C547.95 288 552 292.05 552 297C552 301.95 547.95 306 543 306Z" fill="#8525D9"/>
<path id="C - 12" d="M579 306C574.05 306 570 301.95 570 297C570 292.05 574.05 288 579 288C583.95 288 588 292.05 588 297C588 301.95 583.95 306 579 306Z" fill="#8525D9"/>
<path id="C - 13" d="M615 306C610.05 306 606 301.95 606 297C606 292.05 610.05 288 615 288C619.95 288 624 292.05 624 297C624 301.95 619.95 306 615 306Z" fill="#8525D9"/>
<path id="C - 14" d="M651 306C646.05 306 642 301.95 642 297C642 292.05 646.05 288 651 288C655.95 288 660 292.05 660 297C660 301.95 655.95 306 651 306Z" fill="#8525D9"/>
<path id="C - 15" d="M687 306C682.05 306 678 301.95 678 297C678 292.05 682.05 288 687 288C691.95 288 696 292.05 696 297C696 301.95 691.95 306 687 306Z" fill="#8525D9"/>
<path id="C - 16" d="M723 306C718.05 306 714 301.95 714 297C714 292.05 718.05 288 723 288C727.95 288 732 292.05 732 297C732 301.95 727.95 306 723 306Z" fill="#8525D9"/>
<path id="C - 17" d="M759 306C754.05 306 750 301.95 750 297C750 292.05 754.05 288 759 288C763.95 288 768 292.05 768 297C768 301.95 763.95 306 759 306Z" fill="#8525D9"/>
<path id="C - 18" d="M795 306C790.05 306 786 301.95 786 297C786 292.05 790.05 288 795 288C799.95 288 804 292.05 804 297C804 301.95 799.95 306 795 306Z" fill="#8525D9"/>
<path id="C - 19" d="M831 306C826.05 306 822 301.95 822 297C822 292.05 826.05 288 831 288C835.95 288 840 292.05 840 297C840 301.95 835.95 306 831 306Z" fill="#8525D9"/>
<path id="C - 20" d="M867 306C862.05 306 858 301.95 858 297C858 292.05 862.05 288 867 288C871.95 288 876 292.05 876 297C876 301.95 871.95 306 867 306Z" fill="#8525D9"/>
<path id="D - 21" d="M867 270C862.05 270 858 265.95 858 261C858 256.05 862.05 252 867 252C871.95 252 876 256.05 876 261C876 265.95 871.95 270 867 270Z" fill="#8525D9"/>
<path id="F - 22" d="M867 198C862.05 198 858 193.95 858 189C858 184.05 862.05 180 867 180C871.95 180 876 184.05 876 189C876 193.95 871.95 198 867 198Z" fill="#8525D9"/>
<path id="H - 23" d="M867 126C862.05 126 858 121.95 858 117C858 112.05 862.05 108 867 108C871.95 108 876 112.05 876 117C876 121.95 871.95 126 867 126Z" fill="#8525D9"/>
<path id="k_2" d="M899.869 15V3.42166H901.616V8.95077H901.757L906.613 3.42166H908.812L904.143 8.63418L908.829 15H906.726L902.984 9.82706L901.616 11.3987V15H899.869Z" fill="white"/>
<path id="j" d="M7.38016 39.4217H9.12143V47.6305C9.12143 48.373 8.97444 49.0081 8.68046 49.5357C8.39025 50.0634 7.98131 50.4667 7.45365 50.7456C6.92599 51.0207 6.30788 51.1583 5.59931 51.1583C4.94727 51.1583 4.3612 51.0396 3.84108 50.8021C3.32472 50.5647 2.91579 50.2198 2.61427 49.7675C2.31652 49.3115 2.16764 48.7575 2.16764 48.1054H3.90326C3.90326 48.4258 3.97676 48.7028 4.12375 48.9365C4.27451 49.1702 4.47992 49.353 4.73998 49.4849C5.00381 49.613 5.30533 49.6771 5.64454 49.6771C6.0139 49.6771 6.32672 49.5998 6.58302 49.4453C6.84308 49.287 7.04095 49.0552 7.17663 48.7499C7.31232 48.4446 7.38016 48.0715 7.38016 47.6305V39.4217Z" fill="white"/>
<path id="j_2" d="M905.263 39.4217H907.004V47.6305C907.004 48.373 906.857 49.0081 906.563 49.5357C906.273 50.0634 905.864 50.4667 905.336 50.7456C904.809 51.0207 904.19 51.1583 903.482 51.1583C902.83 51.1583 902.244 51.0396 901.724 50.8021C901.207 50.5647 900.798 50.2198 900.497 49.7675C900.199 49.3115 900.05 48.7575 900.05 48.1054H901.786C901.786 48.4258 901.859 48.7028 902.006 48.9365C902.157 49.1702 902.362 49.353 902.623 49.4849C902.886 49.613 903.188 49.6771 903.527 49.6771C903.896 49.6771 904.209 49.5998 904.466 49.4453C904.726 49.287 904.924 49.0552 905.059 48.7499C905.195 48.4446 905.263 48.0715 905.263 47.6305V39.4217Z" fill="white"/>
<path id="i" d="M39.8735 75.4217V87H38.1265V75.4217H39.8735Z" fill="white"/>
<path id="h" d="M34.3641 123V111.422H36.1111V116.453H41.8833V111.422H43.6359V123H41.8833V117.951H36.1111V123H34.3641Z" fill="white"/>
<path id="g" d="M78.1455 151.079C78.0362 150.736 77.8892 150.429 77.7045 150.158C77.5236 149.883 77.3069 149.649 77.0543 149.457C76.8018 149.261 76.5135 149.112 76.1894 149.01C75.869 148.909 75.5166 148.858 75.1322 148.858C74.4801 148.858 73.8922 149.025 73.3683 149.361C72.8444 149.696 72.4298 150.188 72.1245 150.836C71.823 151.481 71.6722 152.27 71.6722 153.205C71.6722 154.144 71.8249 154.937 72.1302 155.585C72.4354 156.234 72.8538 156.725 73.3852 157.061C73.9167 157.396 74.5216 157.564 75.2 157.564C75.8294 157.564 76.3778 157.436 76.8452 157.18C77.3163 156.923 77.68 156.561 77.9363 156.094C78.1963 155.623 78.3264 155.069 78.3264 154.432L78.7786 154.517H75.4657V153.075H80.0168V154.392C80.0168 155.365 79.8095 156.209 79.3949 156.925C78.9841 157.638 78.4149 158.188 77.6875 158.576C76.9639 158.964 76.1347 159.158 75.2 159.158C74.1522 159.158 73.2326 158.917 72.4411 158.435C71.6534 157.952 71.039 157.268 70.5981 156.382C70.1571 155.493 69.9366 154.438 69.9366 153.216C69.9366 152.293 70.0647 151.464 70.321 150.729C70.5773 149.994 70.9373 149.37 71.4009 148.858C71.8682 148.341 72.4166 147.947 73.046 147.676C73.6792 147.401 74.3708 147.263 75.1208 147.263C75.7465 147.263 76.3288 147.356 76.8678 147.54C77.4105 147.725 77.8929 147.987 78.3151 148.326C78.741 148.665 79.0934 149.069 79.3723 149.536C79.6512 150 79.8396 150.514 79.9376 151.079H78.1455Z" fill="white"/>
<path id="f" d="M71.6079 195V183.422H78.7878V184.925H73.3548V188.453H78.2734V189.951H73.3548V195H71.6079Z" fill="white"/>
<path id="e" d="M107.476 231V219.422H114.735V220.925H109.223V224.453H114.356V225.951H109.223V229.496H114.803V231H107.476Z" fill="white"/>
<path id="d" d="M110.276 267H106.527V255.422H110.394C111.529 255.422 112.503 255.653 113.317 256.117C114.131 256.577 114.755 257.238 115.189 258.101C115.626 258.961 115.844 259.992 115.844 261.194C115.844 262.4 115.624 263.436 115.183 264.303C114.746 265.17 114.112 265.837 113.283 266.305C112.454 266.768 111.452 267 110.276 267ZM108.274 265.474H110.18C111.061 265.474 111.795 265.308 112.379 264.976C112.963 264.641 113.4 264.156 113.69 263.523C113.981 262.886 114.126 262.11 114.126 261.194C114.126 260.286 113.981 259.515 113.69 258.882C113.404 258.248 112.976 257.768 112.407 257.44C111.838 257.112 111.131 256.948 110.287 256.948H108.274V265.474Z" fill="white"/>
<path id="C" d="M152.035 295.187H150.271C150.203 294.81 150.077 294.478 149.892 294.192C149.708 293.905 149.482 293.662 149.214 293.463C148.946 293.263 148.647 293.112 148.315 293.01C147.987 292.909 147.639 292.858 147.269 292.858C146.602 292.858 146.005 293.025 145.477 293.361C144.953 293.696 144.539 294.188 144.233 294.836C143.932 295.485 143.781 296.276 143.781 297.211C143.781 298.153 143.932 298.948 144.233 299.597C144.539 300.245 144.955 300.735 145.483 301.067C146.01 301.398 146.604 301.564 147.264 301.564C147.629 301.564 147.976 301.515 148.304 301.417C148.636 301.315 148.935 301.166 149.203 300.97C149.47 300.774 149.696 300.535 149.881 300.252C150.07 299.966 150.2 299.638 150.271 299.269L152.035 299.274C151.941 299.843 151.758 300.367 151.487 300.846C151.219 301.321 150.874 301.732 150.452 302.078C150.034 302.421 149.555 302.687 149.016 302.876C148.477 303.064 147.889 303.158 147.252 303.158C146.25 303.158 145.356 302.921 144.573 302.446C143.789 301.967 143.17 301.283 142.718 300.394C142.27 299.504 142.045 298.443 142.045 297.211C142.045 295.975 142.272 294.914 142.724 294.028C143.176 293.138 143.794 292.456 144.578 291.981C145.362 291.503 146.254 291.263 147.252 291.263C147.867 291.263 148.44 291.352 148.971 291.529C149.506 291.702 149.987 291.959 150.413 292.298C150.838 292.633 151.191 293.044 151.47 293.53C151.749 294.013 151.937 294.565 152.035 295.187Z" fill="white"/>
<path id="b" d="M143.064 339V327.422H147.304C148.126 327.422 148.806 327.557 149.345 327.829C149.884 328.096 150.287 328.46 150.555 328.92C150.822 329.376 150.956 329.89 150.956 330.463C150.956 330.946 150.867 331.353 150.69 331.684C150.513 332.012 150.276 332.276 149.978 332.476C149.684 332.672 149.36 332.815 149.006 332.906V333.019C149.39 333.037 149.765 333.162 150.131 333.392C150.5 333.618 150.805 333.94 151.046 334.358C151.288 334.777 151.408 335.286 151.408 335.885C151.408 336.477 151.269 337.008 150.99 337.479C150.715 337.947 150.289 338.318 149.712 338.593C149.136 338.864 148.399 339 147.502 339H143.064ZM144.811 337.502H147.332C148.169 337.502 148.768 337.34 149.13 337.016C149.492 336.691 149.673 336.286 149.673 335.8C149.673 335.435 149.58 335.099 149.396 334.794C149.211 334.489 148.947 334.245 148.604 334.065C148.265 333.884 147.862 333.793 147.394 333.793H144.811V337.502ZM144.811 332.431H147.151C147.543 332.431 147.896 332.355 148.208 332.205C148.525 332.054 148.776 331.843 148.96 331.571C149.149 331.296 149.243 330.972 149.243 330.599C149.243 330.12 149.075 329.719 148.74 329.395C148.404 329.071 147.89 328.909 147.196 328.909H144.811V332.431Z" fill="white"/>
<path id="a" d="M179.676 375H177.822L181.989 363.422H184.007L188.174 375H186.319L183.046 365.525H182.955L179.676 375ZM179.987 370.466H186.003V371.936H179.987V370.466Z" fill="white"/>
<path id="i_2" d="M903.873 75.4217V87H902.127V75.4217H903.873Z" fill="white"/>
<path id="h_2" d="M898.364 123V111.422H900.111V116.453H905.883V111.422H907.636V123H905.883V117.951H900.111V123H898.364Z" fill="white"/>
<path id="g_2" d="M906.145 151.079C906.036 150.736 905.889 150.429 905.704 150.158C905.524 149.883 905.307 149.649 905.054 149.457C904.802 149.261 904.513 149.112 904.189 149.01C903.869 148.909 903.517 148.858 903.132 148.858C902.48 148.858 901.892 149.025 901.368 149.361C900.844 149.696 900.43 150.188 900.124 150.836C899.823 151.481 899.672 152.27 899.672 153.205C899.672 154.144 899.825 154.937 900.13 155.585C900.435 156.234 900.854 156.725 901.385 157.061C901.917 157.396 902.522 157.564 903.2 157.564C903.829 157.564 904.378 157.436 904.845 157.18C905.316 156.923 905.68 156.561 905.936 156.094C906.196 155.623 906.326 155.069 906.326 154.432L906.779 154.517H903.466V153.075H908.017V154.392C908.017 155.365 907.809 156.209 907.395 156.925C906.984 157.638 906.415 158.188 905.688 158.576C904.964 158.964 904.135 159.158 903.2 159.158C902.152 159.158 901.233 158.917 900.441 158.435C899.653 157.952 899.039 157.268 898.598 156.382C898.157 155.493 897.937 154.438 897.937 153.216C897.937 152.293 898.065 151.464 898.321 150.729C898.577 149.994 898.937 149.37 899.401 148.858C899.868 148.341 900.417 147.947 901.046 147.676C901.679 147.401 902.371 147.263 903.121 147.263C903.746 147.263 904.329 147.356 904.868 147.54C905.411 147.725 905.893 147.987 906.315 148.326C906.741 148.665 907.093 149.069 907.372 149.536C907.651 150 907.84 150.514 907.938 151.079H906.145Z" fill="white"/>
<path id="f_2" d="M899.608 195V183.422H906.788V184.925H901.355V188.453H906.273V189.951H901.355V195H899.608Z" fill="white"/>
<path id="e_2" d="M899.476 231V219.422H906.735V220.925H901.223V224.453H906.356V225.951H901.223V229.496H906.803V231H899.476Z" fill="white"/>
<path id="d_2" d="M902.276 267H898.527V255.422H902.394C903.529 255.422 904.503 255.653 905.317 256.117C906.131 256.577 906.755 257.238 907.189 258.101C907.626 258.961 907.844 259.992 907.844 261.194C907.844 262.4 907.624 263.436 907.183 264.303C906.746 265.17 906.112 265.837 905.283 266.305C904.454 266.768 903.452 267 902.276 267ZM900.274 265.474H902.18C903.061 265.474 903.795 265.308 904.379 264.976C904.963 264.641 905.4 264.156 905.69 263.523C905.981 262.886 906.126 262.11 906.126 261.194C906.126 260.286 905.981 259.515 905.69 258.882C905.404 258.248 904.976 257.768 904.407 257.44C903.838 257.112 903.131 256.948 902.287 256.948H900.274V265.474Z" fill="white"/>
<path id="b_2" d="M539.064 339V327.422H543.304C544.126 327.422 544.806 327.557 545.345 327.829C545.884 328.096 546.287 328.46 546.555 328.92C546.822 329.376 546.956 329.89 546.956 330.463C546.956 330.946 546.867 331.353 546.69 331.684C546.513 332.012 546.276 332.276 545.978 332.476C545.684 332.672 545.36 332.815 545.006 332.906V333.019C545.39 333.037 545.765 333.162 546.131 333.392C546.5 333.618 546.805 333.94 547.046 334.358C547.288 334.777 547.408 335.286 547.408 335.885C547.408 336.477 547.269 337.008 546.99 337.479C546.715 337.947 546.289 338.318 545.712 338.593C545.136 338.864 544.399 339 543.502 339H539.064ZM540.811 337.502H543.332C544.169 337.502 544.768 337.34 545.13 337.016C545.492 336.691 545.673 336.286 545.673 335.8C545.673 335.435 545.58 335.099 545.396 334.794C545.211 334.489 544.947 334.245 544.604 334.065C544.265 333.884 543.862 333.793 543.394 333.793H540.811V337.502ZM540.811 332.431H543.151C543.543 332.431 543.896 332.355 544.208 332.205C544.525 332.054 544.776 331.843 544.96 331.571C545.149 331.296 545.243 330.972 545.243 330.599C545.243 330.12 545.075 329.719 544.74 329.395C544.404 329.071 543.89 328.909 543.196 328.909H540.811V332.431Z" fill="white"/>
<path id="a_2" d="M539.676 375H537.822L541.989 363.422H544.007L548.174 375H546.319L543.046 365.525H542.955L539.676 375ZM539.987 370.466H546.003V371.936H539.987V370.466Z" fill="white"/>
<path id="c" d="M908.035 295.187H906.271C906.203 294.81 906.077 294.478 905.892 294.192C905.708 293.905 905.482 293.662 905.214 293.463C904.946 293.263 904.647 293.112 904.315 293.01C903.987 292.909 903.639 292.858 903.269 292.858C902.602 292.858 902.005 293.025 901.477 293.361C900.953 293.696 900.539 294.188 900.233 294.836C899.932 295.485 899.781 296.276 899.781 297.211C899.781 298.153 899.932 298.948 900.233 299.597C900.539 300.245 900.955 300.735 901.483 301.067C902.01 301.398 902.604 301.564 903.264 301.564C903.629 301.564 903.976 301.515 904.304 301.417C904.636 301.315 904.935 301.166 905.203 300.97C905.47 300.774 905.696 300.535 905.881 300.252C906.07 299.966 906.2 299.638 906.271 299.269L908.035 299.274C907.941 299.843 907.758 300.367 907.487 300.846C907.219 301.321 906.874 301.732 906.452 302.078C906.034 302.421 905.555 302.687 905.016 302.876C904.477 303.064 903.889 303.158 903.252 303.158C902.25 303.158 901.356 302.921 900.573 302.446C899.789 301.967 899.17 301.283 898.718 300.394C898.27 299.504 898.045 298.443 898.045 297.211C898.045 295.975 898.272 294.914 898.724 294.028C899.176 293.138 899.794 292.456 900.578 291.981C901.362 291.503 902.254 291.263 903.252 291.263C903.867 291.263 904.44 291.352 904.971 291.529C905.506 291.702 905.987 291.959 906.413 292.298C906.838 292.633 907.191 293.044 907.47 293.53C907.749 294.013 907.937 294.565 908.035 295.187Z" fill="white"/>
</g>
</svg>
