<svg width="847" height="378" viewBox="0 0 847 378" fill="none" xmlns="http://www.w3.org/2000/svg">
<g id="207">
<path id="k" d="M4.98603 15V3.42166H6.73295V8.95077H6.87429L11.7306 3.42166H13.9298L9.26006 8.63418L13.9468 15H11.8437L8.1011 9.82706L6.73295 11.3987V15H4.98603Z" fill="white"/>
<path id="k_2" d="M833.986 15V3.42166H835.733V8.95077H835.874L840.731 3.42166H842.93L838.26 8.63418L842.947 15H840.844L837.101 9.82706L835.733 11.3987V15H833.986Z" fill="white"/>
<path id="j" d="M10.3802 39.4217H12.1214V47.6305C12.1214 48.373 11.9744 49.0081 11.6805 49.5357C11.3902 50.0634 10.9813 50.4667 10.4537 50.7456C9.92599 51.0207 9.30788 51.1583 8.59931 51.1583C7.94727 51.1583 7.3612 51.0396 6.84108 50.8021C6.32472 50.5647 5.91579 50.2198 5.61427 49.7675C5.31652 49.3115 5.16764 48.7575 5.16764 48.1054H6.90326C6.90326 48.4258 6.97676 48.7028 7.12375 48.9365C7.27451 49.1702 7.47992 49.353 7.73998 49.4849C8.00381 49.613 8.30533 49.6771 8.64454 49.6771C9.0139 49.6771 9.32672 49.5998 9.58302 49.4453C9.84308 49.287 10.0409 49.0552 10.1766 48.7499C10.3123 48.4446 10.3802 48.0715 10.3802 47.6305V39.4217Z" fill="white"/>
<path id="J - 01" d="M45.8828 54C40.9328 54 36.8828 49.95 36.8828 45C36.8828 40.05 40.9328 36 45.8828 36C50.8328 36 54.8828 40.05 54.8828 45C54.8828 49.95 50.8328 54 45.8828 54Z" fill="#EA3446"/>
<path id="J - 02" d="M81.8828 54C76.9328 54 72.8828 49.95 72.8828 45C72.8828 40.05 76.9328 36 81.8828 36C86.8328 36 90.8828 40.05 90.8828 45C90.8828 49.95 86.8328 54 81.8828 54Z" fill="#EA3446"/>
<path id="J - 03" d="M117.883 54C112.933 54 108.883 49.95 108.883 45C108.883 40.05 112.933 36 117.883 36C122.833 36 126.883 40.05 126.883 45C126.883 49.95 122.833 54 117.883 54Z" fill="#EA3446"/>
<path id="J - 04" d="M153.883 54C148.933 54 144.883 49.95 144.883 45C144.883 40.05 148.933 36 153.883 36C158.833 36 162.883 40.05 162.883 45C162.883 49.95 158.833 54 153.883 54Z" fill="#EA3446"/>
<path id="J - 05" d="M189.883 54C184.933 54 180.883 49.95 180.883 45C180.883 40.05 184.933 36 189.883 36C194.833 36 198.883 40.05 198.883 45C198.883 49.95 194.833 54 189.883 54Z" fill="#EA3446"/>
<path id="J - 06" d="M225.883 54C220.933 54 216.883 49.95 216.883 45C216.883 40.05 220.933 36 225.883 36C230.833 36 234.883 40.05 234.883 45C234.883 49.95 230.833 54 225.883 54Z" fill="#EA3446"/>
<path id="J - 07" d="M261.883 54C256.933 54 252.883 49.95 252.883 45C252.883 40.05 256.933 36 261.883 36C266.833 36 270.883 40.05 270.883 45C270.883 49.95 266.833 54 261.883 54Z" fill="#EA3446"/>
<path id="J - 08" d="M297.883 54C292.933 54 288.883 49.95 288.883 45C288.883 40.05 292.933 36 297.883 36C302.833 36 306.883 40.05 306.883 45C306.883 49.95 302.833 54 297.883 54Z" fill="#EA3446"/>
<path id="J - 09" d="M333.883 54C328.933 54 324.883 49.95 324.883 45C324.883 40.05 328.933 36 333.883 36C338.833 36 342.883 40.05 342.883 45C342.883 49.95 338.833 54 333.883 54Z" fill="#EA3446"/>
<path id="J - 10" d="M369.883 54C364.933 54 360.883 49.95 360.883 45C360.883 40.05 364.933 36 369.883 36C374.833 36 378.883 40.05 378.883 45C378.883 49.95 374.833 54 369.883 54Z" fill="#EA3446"/>
<path id="J - 11" d="M405.883 54C400.933 54 396.883 49.95 396.883 45C396.883 40.05 400.933 36 405.883 36C410.833 36 414.883 40.05 414.883 45C414.883 49.95 410.833 54 405.883 54Z" fill="#EA3446"/>
<path id="J - 12" d="M441.883 54C436.933 54 432.883 49.95 432.883 45C432.883 40.05 436.933 36 441.883 36C446.833 36 450.883 40.05 450.883 45C450.883 49.95 446.833 54 441.883 54Z" fill="#EA3446"/>
<path id="J - 13" d="M477.883 54C472.933 54 468.883 49.95 468.883 45C468.883 40.05 472.933 36 477.883 36C482.833 36 486.883 40.05 486.883 45C486.883 49.95 482.833 54 477.883 54Z" fill="#EA3446"/>
<path id="J - 14" d="M513.883 54C508.933 54 504.883 49.95 504.883 45C504.883 40.05 508.933 36 513.883 36C518.833 36 522.883 40.05 522.883 45C522.883 49.95 518.833 54 513.883 54Z" fill="#EA3446"/>
<path id="J - 15" d="M549.883 54C544.933 54 540.883 49.95 540.883 45C540.883 40.05 544.933 36 549.883 36C554.833 36 558.883 40.05 558.883 45C558.883 49.95 554.833 54 549.883 54Z" fill="#EA3446"/>
<path id="J - 16" d="M585.883 54C580.933 54 576.883 49.95 576.883 45C576.883 40.05 580.933 36 585.883 36C590.833 36 594.883 40.05 594.883 45C594.883 49.95 590.833 54 585.883 54Z" fill="#EA3446"/>
<path id="J - 18" d="M658 54C653.05 54 649 49.95 649 45C649 40.05 653.05 36 658 36C662.95 36 667 40.05 667 45C667 49.95 662.95 54 658 54Z" fill="#EA3446"/>
<path id="J - 17" d="M621.883 54C616.933 54 612.883 49.95 612.883 45C612.883 40.05 616.933 36 621.883 36C626.833 36 630.883 40.05 630.883 45C630.883 49.95 626.833 54 621.883 54Z" fill="#EA3446"/>
<path id="J - 19" d="M694 54C689.05 54 685 49.95 685 45C685 40.05 689.05 36 694 36C698.95 36 703 40.05 703 45C703 49.95 698.95 54 694 54Z" fill="#EA3446"/>
<path id="J - 20" d="M730 54C725.05 54 721 49.95 721 45C721 40.05 725.05 36 730 36C734.95 36 739 40.05 739 45C739 49.95 734.95 54 730 54Z" fill="#EA3446"/>
<path id="J - 21" d="M766 54C761.05 54 757 49.95 757 45C757 40.05 761.05 36 766 36C770.95 36 775 40.05 775 45C775 49.95 770.95 54 766 54Z" fill="#EA3446"/>
<path id="J - 22" d="M802 54C797.05 54 793 49.95 793 45C793 40.05 797.05 36 802 36C806.95 36 811 40.05 811 45C811 49.95 806.95 54 802 54Z" fill="#EA3446"/>
<path id="j_2" d="M839.38 39.4217H841.121V47.6305C841.121 48.373 840.974 49.0081 840.68 49.5357C840.39 50.0634 839.981 50.4667 839.454 50.7456C838.926 51.0207 838.308 51.1583 837.599 51.1583C836.947 51.1583 836.361 51.0396 835.841 50.8021C835.325 50.5647 834.916 50.2198 834.614 49.7675C834.317 49.3115 834.168 48.7575 834.168 48.1054H835.903C835.903 48.4258 835.977 48.7028 836.124 48.9365C836.275 49.1702 836.48 49.353 836.74 49.4849C837.004 49.613 837.305 49.6771 837.645 49.6771C838.014 49.6771 838.327 49.5998 838.583 49.4453C838.843 49.287 839.041 49.0552 839.177 48.7499C839.312 48.4446 839.38 48.0715 839.38 47.6305V39.4217Z" fill="white"/>
<path id="i" d="M9.87346 75.4217V87H8.12654V75.4217H9.87346Z" fill="white"/>
<path id="I - 01" d="M45 90C40.05 90 36 85.95 36 81C36 76.05 40.05 72 45 72C49.95 72 54 76.05 54 81C54 85.95 49.95 90 45 90Z" fill="#EA3446"/>
<path id="I - 02" d="M81 90C76.05 90 72 85.95 72 81C72 76.05 76.05 72 81 72C85.95 72 90 76.05 90 81C90 85.95 85.95 90 81 90Z" fill="#EA3446"/>
<path id="I - 03" d="M117 90C112.05 90 108 85.95 108 81C108 76.05 112.05 72 117 72C121.95 72 126 76.05 126 81C126 85.95 121.95 90 117 90Z" fill="#EA3446"/>
<path id="I - 04" d="M153 90C148.05 90 144 85.95 144 81C144 76.05 148.05 72 153 72C157.95 72 162 76.05 162 81C162 85.95 157.95 90 153 90Z" fill="#EA3446"/>
<path id="I - 05" d="M189 90C184.05 90 180 85.95 180 81C180 76.05 184.05 72 189 72C193.95 72 198 76.05 198 81C198 85.95 193.95 90 189 90Z" fill="#EA3446"/>
<path id="I - 06" d="M225 90C220.05 90 216 85.95 216 81C216 76.05 220.05 72 225 72C229.95 72 234 76.05 234 81C234 85.95 229.95 90 225 90Z" fill="#EA3446"/>
<path id="I - 07" d="M261 90C256.05 90 252 85.95 252 81C252 76.05 256.05 72 261 72C265.95 72 270 76.05 270 81C270 85.95 265.95 90 261 90Z" fill="#EA3446"/>
<path id="I - 08" d="M297 90C292.05 90 288 85.95 288 81C288 76.05 292.05 72 297 72C301.95 72 306 76.05 306 81C306 85.95 301.95 90 297 90Z" fill="#EA3446"/>
<path id="I - 09" d="M333 90C328.05 90 324 85.95 324 81C324 76.05 328.05 72 333 72C337.95 72 342 76.05 342 81C342 85.95 337.95 90 333 90Z" fill="#EA3446"/>
<path id="I - 10" d="M369 90C364.05 90 360 85.95 360 81C360 76.05 364.05 72 369 72C373.95 72 378 76.05 378 81C378 85.95 373.95 90 369 90Z" fill="#EA3446"/>
<path id="I - 11" d="M405 90C400.05 90 396 85.95 396 81C396 76.05 400.05 72 405 72C409.95 72 414 76.05 414 81C414 85.95 409.95 90 405 90Z" fill="#EA3446"/>
<path id="I - 12" d="M441 90C436.05 90 432 85.95 432 81C432 76.05 436.05 72 441 72C445.95 72 450 76.05 450 81C450 85.95 445.95 90 441 90Z" fill="#EA3446"/>
<path id="I - 13" d="M477 90C472.05 90 468 85.95 468 81C468 76.05 472.05 72 477 72C481.95 72 486 76.05 486 81C486 85.95 481.95 90 477 90Z" fill="#EA3446"/>
<path id="I - 14" d="M513 90C508.05 90 504 85.95 504 81C504 76.05 508.05 72 513 72C517.95 72 522 76.05 522 81C522 85.95 517.95 90 513 90Z" fill="#EA3446"/>
<path id="I - 15" d="M549 90C544.05 90 540 85.95 540 81C540 76.05 544.05 72 549 72C553.95 72 558 76.05 558 81C558 85.95 553.95 90 549 90Z" fill="#EA3446"/>
<path id="I - 16" d="M585 90C580.05 90 576 85.95 576 81C576 76.05 580.05 72 585 72C589.95 72 594 76.05 594 81C594 85.95 589.95 90 585 90Z" fill="#EA3446"/>
<path id="I - 17" d="M621 90C616.05 90 612 85.95 612 81C612 76.05 616.05 72 621 72C625.95 72 630 76.05 630 81C630 85.95 625.95 90 621 90Z" fill="#EA3446"/>
<path id="I - 18" d="M658 90C653.05 90 649 85.95 649 81C649 76.05 653.05 72 658 72C662.95 72 667 76.05 667 81C667 85.95 662.95 90 658 90Z" fill="#EA3446"/>
<path id="I - 19" d="M694 90C689.05 90 685 85.95 685 81C685 76.05 689.05 72 694 72C698.95 72 703 76.05 703 81C703 85.95 698.95 90 694 90Z" fill="#EA3446"/>
<path id="I - 20" d="M730 90C725.05 90 721 85.95 721 81C721 76.05 725.05 72 730 72C734.95 72 739 76.05 739 81C739 85.95 734.95 90 730 90Z" fill="#EA3446"/>
<path id="I - 21" d="M766 90C761.05 90 757 85.95 757 81C757 76.05 761.05 72 766 72C770.95 72 775 76.05 775 81C775 85.95 770.95 90 766 90Z" fill="#EA3446"/>
<path id="I - 22" d="M802 90C797.05 90 793 85.95 793 81C793 76.05 797.05 72 802 72C806.95 72 811 76.05 811 81C811 85.95 806.95 90 802 90Z" fill="#EA3446"/>
<path id="i_2" d="M838.873 75.4217V87H837.127V75.4217H838.873Z" fill="white"/>
<path id="h" d="M4.36414 123V111.422H6.11107V116.453H11.8833V111.422H13.6359V123H11.8833V117.951H6.11107V123H4.36414Z" fill="white"/>
<path id="H - 01" d="M45 126C40.05 126 36 121.95 36 117C36 112.05 40.05 108 45 108C49.95 108 54 112.05 54 117C54 121.95 49.95 126 45 126Z" fill="#EA3446"/>
<path id="H - 02" d="M81 126C76.05 126 72 121.95 72 117C72 112.05 76.05 108 81 108C85.95 108 90 112.05 90 117C90 121.95 85.95 126 81 126Z" fill="#EA3446"/>
<path id="H - 03" d="M117 126C112.05 126 108 121.95 108 117C108 112.05 112.05 108 117 108C121.95 108 126 112.05 126 117C126 121.95 121.95 126 117 126Z" fill="#EA3446"/>
<path id="H - 04" d="M153 126C148.05 126 144 121.95 144 117C144 112.05 148.05 108 153 108C157.95 108 162 112.05 162 117C162 121.95 157.95 126 153 126Z" fill="#EA3446"/>
<path id="H - 05" d="M189 126C184.05 126 180 121.95 180 117C180 112.05 184.05 108 189 108C193.95 108 198 112.05 198 117C198 121.95 193.95 126 189 126Z" fill="#EA3446"/>
<path id="H - 06" d="M225 126C220.05 126 216 121.95 216 117C216 112.05 220.05 108 225 108C229.95 108 234 112.05 234 117C234 121.95 229.95 126 225 126Z" fill="#EA3446"/>
<path id="H - 07" d="M261 126C256.05 126 252 121.95 252 117C252 112.05 256.05 108 261 108C265.95 108 270 112.05 270 117C270 121.95 265.95 126 261 126Z" fill="#EA3446"/>
<path id="H - 08" d="M297 126C292.05 126 288 121.95 288 117C288 112.05 292.05 108 297 108C301.95 108 306 112.05 306 117C306 121.95 301.95 126 297 126Z" fill="#EA3446"/>
<path id="H - 09" d="M333 126C328.05 126 324 121.95 324 117C324 112.05 328.05 108 333 108C337.95 108 342 112.05 342 117C342 121.95 337.95 126 333 126Z" fill="#EA3446"/>
<path id="H - 10" d="M369 126C364.05 126 360 121.95 360 117C360 112.05 364.05 108 369 108C373.95 108 378 112.05 378 117C378 121.95 373.95 126 369 126Z" fill="#EA3446"/>
<path id="H - 11" d="M405 126C400.05 126 396 121.95 396 117C396 112.05 400.05 108 405 108C409.95 108 414 112.05 414 117C414 121.95 409.95 126 405 126Z" fill="#EA3446"/>
<path id="H - 12" d="M441 126C436.05 126 432 121.95 432 117C432 112.05 436.05 108 441 108C445.95 108 450 112.05 450 117C450 121.95 445.95 126 441 126Z" fill="#EA3446"/>
<path id="H - 13" d="M477 126C472.05 126 468 121.95 468 117C468 112.05 472.05 108 477 108C481.95 108 486 112.05 486 117C486 121.95 481.95 126 477 126Z" fill="#EA3446"/>
<path id="H - 14" d="M513 126C508.05 126 504 121.95 504 117C504 112.05 508.05 108 513 108C517.95 108 522 112.05 522 117C522 121.95 517.95 126 513 126Z" fill="#EA3446"/>
<path id="H - 15" d="M549 126C544.05 126 540 121.95 540 117C540 112.05 544.05 108 549 108C553.95 108 558 112.05 558 117C558 121.95 553.95 126 549 126Z" fill="#EA3446"/>
<path id="H - 16" d="M585 126C580.05 126 576 121.95 576 117C576 112.05 580.05 108 585 108C589.95 108 594 112.05 594 117C594 121.95 589.95 126 585 126Z" fill="#EA3446"/>
<path id="H - 17" d="M621 126C616.05 126 612 121.95 612 117C612 112.05 616.05 108 621 108C625.95 108 630 112.05 630 117C630 121.95 625.95 126 621 126Z" fill="#EA3446"/>
<path id="H - 18" d="M658 126C653.05 126 649 121.95 649 117C649 112.05 653.05 108 658 108C662.95 108 667 112.05 667 117C667 121.95 662.95 126 658 126Z" fill="#EA3446"/>
<path id="H - 19" d="M694 126C689.05 126 685 121.95 685 117C685 112.05 689.05 108 694 108C698.95 108 703 112.05 703 117C703 121.95 698.95 126 694 126Z" fill="#EA3446"/>
<path id="H - 20" d="M730 126C725.05 126 721 121.95 721 117C721 112.05 725.05 108 730 108C734.95 108 739 112.05 739 117C739 121.95 734.95 126 730 126Z" fill="#EA3446"/>
<path id="H - 21" d="M766 126C761.05 126 757 121.95 757 117C757 112.05 761.05 108 766 108C770.95 108 775 112.05 775 117C775 121.95 770.95 126 766 126Z" fill="#EA3446"/>
<path id="H - 22" d="M802 126C797.05 126 793 121.95 793 117C793 112.05 797.05 108 802 108C806.95 108 811 112.05 811 117C811 121.95 806.95 126 802 126Z" fill="#EA3446"/>
<path id="h_2" d="M833.364 123V111.422H835.111V116.453H840.883V111.422H842.636V123H840.883V117.951H835.111V123H833.364Z" fill="white"/>
<path id="g" d="M12.1455 151.079C12.0362 150.736 11.8892 150.429 11.7045 150.158C11.5236 149.883 11.3069 149.649 11.0543 149.457C10.8018 149.261 10.5135 149.112 10.1894 149.01C9.86899 148.909 9.51659 148.858 9.13215 148.858C8.48012 148.858 7.89215 149.025 7.36826 149.361C6.84437 149.696 6.42978 150.188 6.1245 150.836C5.82298 151.481 5.67222 152.27 5.67222 153.205C5.67222 154.144 5.82486 154.937 6.13015 155.585C6.43544 156.234 6.8538 156.725 7.38522 157.061C7.91665 157.396 8.52157 157.564 9.19999 157.564C9.82941 157.564 10.3778 157.436 10.8452 157.18C11.3163 156.923 11.68 156.561 11.9363 156.094C12.1963 155.623 12.3264 155.069 12.3264 154.432L12.7786 154.517H9.46571V153.075H14.0168V154.392C14.0168 155.365 13.8095 156.209 13.3949 156.925C12.9841 157.638 12.4149 158.188 11.6875 158.576C10.9639 158.964 10.1347 159.158 9.19999 159.158C8.15221 159.158 7.23258 158.917 6.44109 158.435C5.65337 157.952 5.03903 157.268 4.59806 156.382C4.15708 155.493 3.9366 154.438 3.9366 153.216C3.9366 152.293 4.06474 151.464 4.32104 150.729C4.57733 149.994 4.93727 149.37 5.40085 148.858C5.86821 148.341 6.41659 147.947 7.04601 147.676C7.6792 147.401 8.37081 147.263 9.12084 147.263C9.7465 147.263 10.3288 147.356 10.8678 147.54C11.4105 147.725 11.8929 147.987 12.3151 148.326C12.741 148.665 13.0934 149.069 13.3723 149.536C13.6512 150 13.8396 150.514 13.9376 151.079H12.1455Z" fill="white"/>
<path id="G - 01" d="M45 162C40.05 162 36 157.95 36 153C36 148.05 40.05 144 45 144C49.95 144 54 148.05 54 153C54 157.95 49.95 162 45 162Z" fill="#EA3446"/>
<path id="G - 02" d="M81 162C76.05 162 72 157.95 72 153C72 148.05 76.05 144 81 144C85.95 144 90 148.05 90 153C90 157.95 85.95 162 81 162Z" fill="#EA3446"/>
<path id="G - 03" d="M117 162C112.05 162 108 157.95 108 153C108 148.05 112.05 144 117 144C121.95 144 126 148.05 126 153C126 157.95 121.95 162 117 162Z" fill="#EA3446"/>
<path id="G - 04" d="M153 162C148.05 162 144 157.95 144 153C144 148.05 148.05 144 153 144C157.95 144 162 148.05 162 153C162 157.95 157.95 162 153 162Z" fill="#EA3446"/>
<path id="G - 05" d="M189 162C184.05 162 180 157.95 180 153C180 148.05 184.05 144 189 144C193.95 144 198 148.05 198 153C198 157.95 193.95 162 189 162Z" fill="#EA3446"/>
<path id="G - 06" d="M225 162C220.05 162 216 157.95 216 153C216 148.05 220.05 144 225 144C229.95 144 234 148.05 234 153C234 157.95 229.95 162 225 162Z" fill="#EA3446"/>
<path id="G - 07" d="M261 162C256.05 162 252 157.95 252 153C252 148.05 256.05 144 261 144C265.95 144 270 148.05 270 153C270 157.95 265.95 162 261 162Z" fill="#EA3446"/>
<path id="G - 08" d="M297 162C292.05 162 288 157.95 288 153C288 148.05 292.05 144 297 144C301.95 144 306 148.05 306 153C306 157.95 301.95 162 297 162Z" fill="#EA3446"/>
<path id="G - 09" d="M333 162C328.05 162 324 157.95 324 153C324 148.05 328.05 144 333 144C337.95 144 342 148.05 342 153C342 157.95 337.95 162 333 162Z" fill="#EA3446"/>
<path id="G - 10" d="M369 162C364.05 162 360 157.95 360 153C360 148.05 364.05 144 369 144C373.95 144 378 148.05 378 153C378 157.95 373.95 162 369 162Z" fill="#EA3446"/>
<path id="G - 11" d="M405 162C400.05 162 396 157.95 396 153C396 148.05 400.05 144 405 144C409.95 144 414 148.05 414 153C414 157.95 409.95 162 405 162Z" fill="#EA3446"/>
<path id="G - 12" d="M441 162C436.05 162 432 157.95 432 153C432 148.05 436.05 144 441 144C445.95 144 450 148.05 450 153C450 157.95 445.95 162 441 162Z" fill="#EA3446"/>
<path id="G - 13" d="M477 162C472.05 162 468 157.95 468 153C468 148.05 472.05 144 477 144C481.95 144 486 148.05 486 153C486 157.95 481.95 162 477 162Z" fill="#EA3446"/>
<path id="G - 14" d="M513 162C508.05 162 504 157.95 504 153C504 148.05 508.05 144 513 144C517.95 144 522 148.05 522 153C522 157.95 517.95 162 513 162Z" fill="#EA3446"/>
<path id="G - 15" d="M549 162C544.05 162 540 157.95 540 153C540 148.05 544.05 144 549 144C553.95 144 558 148.05 558 153C558 157.95 553.95 162 549 162Z" fill="#EA3446"/>
<path id="G - 16" d="M585 162C580.05 162 576 157.95 576 153C576 148.05 580.05 144 585 144C589.95 144 594 148.05 594 153C594 157.95 589.95 162 585 162Z" fill="#EA3446"/>
<path id="G - 18" d="M657 162C652.05 162 648 157.95 648 153C648 148.05 652.05 144 657 144C661.95 144 666 148.05 666 153C666 157.95 661.95 162 657 162Z" fill="#EA3446"/>
<path id="G - 17" d="M621 162C616.05 162 612 157.95 612 153C612 148.05 616.05 144 621 144C625.95 144 630 148.05 630 153C630 157.95 625.95 162 621 162Z" fill="#EA3446"/>
<path id="G - 19" d="M693 162C688.05 162 684 157.95 684 153C684 148.05 688.05 144 693 144C697.95 144 702 148.05 702 153C702 157.95 697.95 162 693 162Z" fill="#EA3446"/>
<path id="G - 20" d="M730 162C725.05 162 721 157.95 721 153C721 148.05 725.05 144 730 144C734.95 144 739 148.05 739 153C739 157.95 734.95 162 730 162Z" fill="#EA3446"/>
<path id="G - 21" d="M766 162C761.05 162 757 157.95 757 153C757 148.05 761.05 144 766 144C770.95 144 775 148.05 775 153C775 157.95 770.95 162 766 162Z" fill="#EA3446"/>
<path id="G - 22" d="M802 162C797.05 162 793 157.95 793 153C793 148.05 797.05 144 802 144C806.95 144 811 148.05 811 153C811 157.95 806.95 162 802 162Z" fill="#EA3446"/>
<path id="g_2" d="M841.145 151.079C841.036 150.736 840.889 150.429 840.704 150.158C840.524 149.883 840.307 149.649 840.054 149.457C839.802 149.261 839.513 149.112 839.189 149.01C838.869 148.909 838.517 148.858 838.132 148.858C837.48 148.858 836.892 149.025 836.368 149.361C835.844 149.696 835.43 150.188 835.124 150.836C834.823 151.481 834.672 152.27 834.672 153.205C834.672 154.144 834.825 154.937 835.13 155.585C835.435 156.234 835.854 156.725 836.385 157.061C836.917 157.396 837.522 157.564 838.2 157.564C838.829 157.564 839.378 157.436 839.845 157.18C840.316 156.923 840.68 156.561 840.936 156.094C841.196 155.623 841.326 155.069 841.326 154.432L841.779 154.517H838.466V153.075H843.017V154.392C843.017 155.365 842.809 156.209 842.395 156.925C841.984 157.638 841.415 158.188 840.688 158.576C839.964 158.964 839.135 159.158 838.2 159.158C837.152 159.158 836.233 158.917 835.441 158.435C834.653 157.952 834.039 157.268 833.598 156.382C833.157 155.493 832.937 154.438 832.937 153.216C832.937 152.293 833.065 151.464 833.321 150.729C833.577 149.994 833.937 149.37 834.401 148.858C834.868 148.341 835.417 147.947 836.046 147.676C836.679 147.401 837.371 147.263 838.121 147.263C838.746 147.263 839.329 147.356 839.868 147.54C840.411 147.725 840.893 147.987 841.315 148.326C841.741 148.665 842.093 149.069 842.372 149.536C842.651 150 842.84 150.514 842.938 151.079H841.145Z" fill="white"/>
<path id="f" d="M5.60791 195V183.422H12.7878V184.925H7.35484V188.453H12.2734V189.951H7.35484V195H5.60791Z" fill="white"/>
<path id="F - 01" d="M45 198C40.05 198 36 193.95 36 189C36 184.05 40.05 180 45 180C49.95 180 54 184.05 54 189C54 193.95 49.95 198 45 198Z" fill="#EA3446"/>
<path id="F - 02" d="M81 198C76.05 198 72 193.95 72 189C72 184.05 76.05 180 81 180C85.95 180 90 184.05 90 189C90 193.95 85.95 198 81 198Z" fill="#EA3446"/>
<path id="F - 03" d="M117 198C112.05 198 108 193.95 108 189C108 184.05 112.05 180 117 180C121.95 180 126 184.05 126 189C126 193.95 121.95 198 117 198Z" fill="#EA3446"/>
<path id="F - 04" d="M153 198C148.05 198 144 193.95 144 189C144 184.05 148.05 180 153 180C157.95 180 162 184.05 162 189C162 193.95 157.95 198 153 198Z" fill="#EA3446"/>
<path id="F - 05" d="M189 198C184.05 198 180 193.95 180 189C180 184.05 184.05 180 189 180C193.95 180 198 184.05 198 189C198 193.95 193.95 198 189 198Z" fill="#EA3446"/>
<path id="F - 06" d="M225 198C220.05 198 216 193.95 216 189C216 184.05 220.05 180 225 180C229.95 180 234 184.05 234 189C234 193.95 229.95 198 225 198Z" fill="#EA3446"/>
<path id="F - 07" d="M261 198C256.05 198 252 193.95 252 189C252 184.05 256.05 180 261 180C265.95 180 270 184.05 270 189C270 193.95 265.95 198 261 198Z" fill="#EA3446"/>
<path id="F - 08" d="M297 198C292.05 198 288 193.95 288 189C288 184.05 292.05 180 297 180C301.95 180 306 184.05 306 189C306 193.95 301.95 198 297 198Z" fill="#EA3446"/>
<path id="F - 09" d="M333 198C328.05 198 324 193.95 324 189C324 184.05 328.05 180 333 180C337.95 180 342 184.05 342 189C342 193.95 337.95 198 333 198Z" fill="#EA3446"/>
<path id="F - 10" d="M369 198C364.05 198 360 193.95 360 189C360 184.05 364.05 180 369 180C373.95 180 378 184.05 378 189C378 193.95 373.95 198 369 198Z" fill="#EA3446"/>
<path id="F - 11" d="M405 198C400.05 198 396 193.95 396 189C396 184.05 400.05 180 405 180C409.95 180 414 184.05 414 189C414 193.95 409.95 198 405 198Z" fill="#EA3446"/>
<path id="F - 12" d="M441 198C436.05 198 432 193.95 432 189C432 184.05 436.05 180 441 180C445.95 180 450 184.05 450 189C450 193.95 445.95 198 441 198Z" fill="#EA3446"/>
<path id="F - 13" d="M477 198C472.05 198 468 193.95 468 189C468 184.05 472.05 180 477 180C481.95 180 486 184.05 486 189C486 193.95 481.95 198 477 198Z" fill="#EA3446"/>
<path id="F - 14" d="M513 198C508.05 198 504 193.95 504 189C504 184.05 508.05 180 513 180C517.95 180 522 184.05 522 189C522 193.95 517.95 198 513 198Z" fill="#EA3446"/>
<path id="F - 15" d="M549 198C544.05 198 540 193.95 540 189C540 184.05 544.05 180 549 180C553.95 180 558 184.05 558 189C558 193.95 553.95 198 549 198Z" fill="#EA3446"/>
<path id="F - 16" d="M585 198C580.05 198 576 193.95 576 189C576 184.05 580.05 180 585 180C589.95 180 594 184.05 594 189C594 193.95 589.95 198 585 198Z" fill="#EA3446"/>
<path id="F - 17" d="M621 198C616.05 198 612 193.95 612 189C612 184.05 616.05 180 621 180C625.95 180 630 184.05 630 189C630 193.95 625.95 198 621 198Z" fill="#EA3446"/>
<path id="F - 18" d="M657 198C652.05 198 648 193.95 648 189C648 184.05 652.05 180 657 180C661.95 180 666 184.05 666 189C666 193.95 661.95 198 657 198Z" fill="#EA3446"/>
<path id="F - 19" d="M693 198C688.05 198 684 193.95 684 189C684 184.05 688.05 180 693 180C697.95 180 702 184.05 702 189C702 193.95 697.95 198 693 198Z" fill="#EA3446"/>
<path id="F - 20" d="M730 198C725.05 198 721 193.95 721 189C721 184.05 725.05 180 730 180C734.95 180 739 184.05 739 189C739 193.95 734.95 198 730 198Z" fill="#EA3446"/>
<path id="F - 21" d="M766 198C761.05 198 757 193.95 757 189C757 184.05 761.05 180 766 180C770.95 180 775 184.05 775 189C775 193.95 770.95 198 766 198Z" fill="#EA3446"/>
<path id="F - 22" d="M802 198C797.05 198 793 193.95 793 189C793 184.05 797.05 180 802 180C806.95 180 811 184.05 811 189C811 193.95 806.95 198 802 198Z" fill="#EA3446"/>
<path id="f_2" d="M834.608 195V183.422H841.788V184.925H836.355V188.453H841.273V189.951H836.355V195H834.608Z" fill="white"/>
<path id="e" d="M5.47576 231V219.422H12.7348V220.925H7.22269V224.453H12.356V225.951H7.22269V229.496H12.8027V231H5.47576Z" fill="white"/>
<path id="E - 01" d="M45 234C40.05 234 36 229.95 36 225C36 220.05 40.05 216 45 216C49.95 216 54 220.05 54 225C54 229.95 49.95 234 45 234Z" fill="#EA3446"/>
<path id="E - 02" d="M81 234C76.05 234 72 229.95 72 225C72 220.05 76.05 216 81 216C85.95 216 90 220.05 90 225C90 229.95 85.95 234 81 234Z" fill="#EA3446"/>
<path id="E - 03" d="M117 234C112.05 234 108 229.95 108 225C108 220.05 112.05 216 117 216C121.95 216 126 220.05 126 225C126 229.95 121.95 234 117 234Z" fill="#EA3446"/>
<path id="E - 04" d="M153 234C148.05 234 144 229.95 144 225C144 220.05 148.05 216 153 216C157.95 216 162 220.05 162 225C162 229.95 157.95 234 153 234Z" fill="#EA3446"/>
<path id="E - 05" d="M189 234C184.05 234 180 229.95 180 225C180 220.05 184.05 216 189 216C193.95 216 198 220.05 198 225C198 229.95 193.95 234 189 234Z" fill="#EA3446"/>
<path id="E - 06" d="M225 234C220.05 234 216 229.95 216 225C216 220.05 220.05 216 225 216C229.95 216 234 220.05 234 225C234 229.95 229.95 234 225 234Z" fill="#EA3446"/>
<path id="E - 07" d="M261 234C256.05 234 252 229.95 252 225C252 220.05 256.05 216 261 216C265.95 216 270 220.05 270 225C270 229.95 265.95 234 261 234Z" fill="#EA3446"/>
<path id="E - 08" d="M297 234C292.05 234 288 229.95 288 225C288 220.05 292.05 216 297 216C301.95 216 306 220.05 306 225C306 229.95 301.95 234 297 234Z" fill="#EA3446"/>
<path id="E - 09" d="M333 234C328.05 234 324 229.95 324 225C324 220.05 328.05 216 333 216C337.95 216 342 220.05 342 225C342 229.95 337.95 234 333 234Z" fill="#EA3446"/>
<path id="E - 10" d="M369 234C364.05 234 360 229.95 360 225C360 220.05 364.05 216 369 216C373.95 216 378 220.05 378 225C378 229.95 373.95 234 369 234Z" fill="#EA3446"/>
<path id="E - 11" d="M405 234C400.05 234 396 229.95 396 225C396 220.05 400.05 216 405 216C409.95 216 414 220.05 414 225C414 229.95 409.95 234 405 234Z" fill="#EA3446"/>
<path id="E - 12" d="M441 234C436.05 234 432 229.95 432 225C432 220.05 436.05 216 441 216C445.95 216 450 220.05 450 225C450 229.95 445.95 234 441 234Z" fill="#EA3446"/>
<path id="E - 13" d="M477 234C472.05 234 468 229.95 468 225C468 220.05 472.05 216 477 216C481.95 216 486 220.05 486 225C486 229.95 481.95 234 477 234Z" fill="#EA3446"/>
<path id="E - 14" d="M513 234C508.05 234 504 229.95 504 225C504 220.05 508.05 216 513 216C517.95 216 522 220.05 522 225C522 229.95 517.95 234 513 234Z" fill="#EA3446"/>
<path id="E - 15" d="M549 234C544.05 234 540 229.95 540 225C540 220.05 544.05 216 549 216C553.95 216 558 220.05 558 225C558 229.95 553.95 234 549 234Z" fill="#EA3446"/>
<path id="E - 16" d="M585 234C580.05 234 576 229.95 576 225C576 220.05 580.05 216 585 216C589.95 216 594 220.05 594 225C594 229.95 589.95 234 585 234Z" fill="#EA3446"/>
<path id="E - 17" d="M621 234C616.05 234 612 229.95 612 225C612 220.05 616.05 216 621 216C625.95 216 630 220.05 630 225C630 229.95 625.95 234 621 234Z" fill="#EA3446"/>
<path id="E - 18" d="M657 234C652.05 234 648 229.95 648 225C648 220.05 652.05 216 657 216C661.95 216 666 220.05 666 225C666 229.95 661.95 234 657 234Z" fill="#EA3446"/>
<path id="E - 19" d="M694 234C689.05 234 685 229.95 685 225C685 220.05 689.05 216 694 216C698.95 216 703 220.05 703 225C703 229.95 698.95 234 694 234Z" fill="#EA3446"/>
<path id="E - 20" d="M730 234C725.05 234 721 229.95 721 225C721 220.05 725.05 216 730 216C734.95 216 739 220.05 739 225C739 229.95 734.95 234 730 234Z" fill="#EA3446"/>
<path id="E - 21" d="M766 234C761.05 234 757 229.95 757 225C757 220.05 761.05 216 766 216C770.95 216 775 220.05 775 225C775 229.95 770.95 234 766 234Z" fill="#EA3446"/>
<path id="E - 22" d="M802 234C797.05 234 793 229.95 793 225C793 220.05 797.05 216 802 216C806.95 216 811 220.05 811 225C811 229.95 806.95 234 802 234Z" fill="#EA3446"/>
<path id="e_2" d="M834.476 231V219.422H841.735V220.925H836.223V224.453H841.356V225.951H836.223V229.496H841.803V231H834.476Z" fill="white"/>
<path id="d" d="M8.27565 267H4.52739V255.422H8.39437C9.52884 255.422 10.5031 255.653 11.3172 256.117C12.1313 256.577 12.7551 257.238 13.1885 258.101C13.6257 258.961 13.8443 259.992 13.8443 261.194C13.8443 262.4 13.6238 263.436 13.1829 264.303C12.7457 265.17 12.1125 265.837 11.2833 266.305C10.4541 266.768 9.45157 267 8.27565 267ZM6.27431 265.474H8.17954C9.06148 265.474 9.79455 265.308 10.3787 264.976C10.9629 264.641 11.4001 264.156 11.6904 263.523C11.9806 262.886 12.1257 262.11 12.1257 261.194C12.1257 260.286 11.9806 259.515 11.6904 258.882C11.4039 258.248 10.9761 257.768 10.407 257.44C9.83789 257.112 9.13121 256.948 8.28695 256.948H6.27431V265.474Z" fill="white"/>
<path id="D - 01" d="M45 270C40.05 270 36 265.95 36 261C36 256.05 40.05 252 45 252C49.95 252 54 256.05 54 261C54 265.95 49.95 270 45 270Z" fill="#EA3446"/>
<path id="D - 02" d="M81 270C76.05 270 72 265.95 72 261C72 256.05 76.05 252 81 252C85.95 252 90 256.05 90 261C90 265.95 85.95 270 81 270Z" fill="#EA3446"/>
<path id="D - 03" d="M117 270C112.05 270 108 265.95 108 261C108 256.05 112.05 252 117 252C121.95 252 126 256.05 126 261C126 265.95 121.95 270 117 270Z" fill="#EA3446"/>
<path id="D - 04" d="M153 270C148.05 270 144 265.95 144 261C144 256.05 148.05 252 153 252C157.95 252 162 256.05 162 261C162 265.95 157.95 270 153 270Z" fill="#EA3446"/>
<path id="D - 05" d="M189 270C184.05 270 180 265.95 180 261C180 256.05 184.05 252 189 252C193.95 252 198 256.05 198 261C198 265.95 193.95 270 189 270Z" fill="#EA3446"/>
<path id="D - 06" d="M225 270C220.05 270 216 265.95 216 261C216 256.05 220.05 252 225 252C229.95 252 234 256.05 234 261C234 265.95 229.95 270 225 270Z" fill="#EA3446"/>
<path id="D - 07" d="M261 270C256.05 270 252 265.95 252 261C252 256.05 256.05 252 261 252C265.95 252 270 256.05 270 261C270 265.95 265.95 270 261 270Z" fill="#EA3446"/>
<path id="D - 08" d="M297 270C292.05 270 288 265.95 288 261C288 256.05 292.05 252 297 252C301.95 252 306 256.05 306 261C306 265.95 301.95 270 297 270Z" fill="#EA3446"/>
<path id="D - 09" d="M333 270C328.05 270 324 265.95 324 261C324 256.05 328.05 252 333 252C337.95 252 342 256.05 342 261C342 265.95 337.95 270 333 270Z" fill="#EA3446"/>
<path id="D - 10" d="M369 270C364.05 270 360 265.95 360 261C360 256.05 364.05 252 369 252C373.95 252 378 256.05 378 261C378 265.95 373.95 270 369 270Z" fill="#EA3446"/>
<path id="D - 11" d="M405 270C400.05 270 396 265.95 396 261C396 256.05 400.05 252 405 252C409.95 252 414 256.05 414 261C414 265.95 409.95 270 405 270Z" fill="#EA3446"/>
<path id="D - 12" d="M441 270C436.05 270 432 265.95 432 261C432 256.05 436.05 252 441 252C445.95 252 450 256.05 450 261C450 265.95 445.95 270 441 270Z" fill="#EA3446"/>
<path id="D - 13" d="M477 270C472.05 270 468 265.95 468 261C468 256.05 472.05 252 477 252C481.95 252 486 256.05 486 261C486 265.95 481.95 270 477 270Z" fill="#EA3446"/>
<path id="D - 14" d="M513 270C508.05 270 504 265.95 504 261C504 256.05 508.05 252 513 252C517.95 252 522 256.05 522 261C522 265.95 517.95 270 513 270Z" fill="#EA3446"/>
<path id="D - 15" d="M549 270C544.05 270 540 265.95 540 261C540 256.05 544.05 252 549 252C553.95 252 558 256.05 558 261C558 265.95 553.95 270 549 270Z" fill="#EA3446"/>
<path id="D - 16" d="M585 270C580.05 270 576 265.95 576 261C576 256.05 580.05 252 585 252C589.95 252 594 256.05 594 261C594 265.95 589.95 270 585 270Z" fill="#EA3446"/>
<path id="D - 17" d="M621 270C616.05 270 612 265.95 612 261C612 256.05 616.05 252 621 252C625.95 252 630 256.05 630 261C630 265.95 625.95 270 621 270Z" fill="#EA3446"/>
<path id="D - 18" d="M657 270C652.05 270 648 265.95 648 261C648 256.05 652.05 252 657 252C661.95 252 666 256.05 666 261C666 265.95 661.95 270 657 270Z" fill="#EA3446"/>
<path id="D - 19" d="M693 270C688.05 270 684 265.95 684 261C684 256.05 688.05 252 693 252C697.95 252 702 256.05 702 261C702 265.95 697.95 270 693 270Z" fill="#EA3446"/>
<path id="D - 20" d="M730 270C725.05 270 721 265.95 721 261C721 256.05 725.05 252 730 252C734.95 252 739 256.05 739 261C739 265.95 734.95 270 730 270Z" fill="#EA3446"/>
<path id="D - 21" d="M766 270C761.05 270 757 265.95 757 261C757 256.05 761.05 252 766 252C770.95 252 775 256.05 775 261C775 265.95 770.95 270 766 270Z" fill="#EA3446"/>
<path id="D - 22" d="M802 270C797.05 270 793 265.95 793 261C793 256.05 797.05 252 802 252C806.95 252 811 256.05 811 261C811 265.95 806.95 270 802 270Z" fill="#EA3446"/>
<path id="d_2" d="M837.276 267H833.527V255.422H837.394C838.529 255.422 839.503 255.653 840.317 256.117C841.131 256.577 841.755 257.238 842.189 258.101C842.626 258.961 842.844 259.992 842.844 261.194C842.844 262.4 842.624 263.436 842.183 264.303C841.746 265.17 841.112 265.837 840.283 266.305C839.454 266.768 838.452 267 837.276 267ZM835.274 265.474H837.18C838.061 265.474 838.795 265.308 839.379 264.976C839.963 264.641 840.4 264.156 840.69 263.523C840.981 262.886 841.126 262.11 841.126 261.194C841.126 260.286 840.981 259.515 840.69 258.882C840.404 258.248 839.976 257.768 839.407 257.44C838.838 257.112 838.131 256.948 837.287 256.948H835.274V265.474Z" fill="white"/>
<path id="c" d="M14.0351 295.187H12.2712C12.2034 294.81 12.0771 294.478 11.8925 294.192C11.7078 293.905 11.4816 293.662 11.214 293.463C10.9464 293.263 10.6468 293.112 10.3151 293.01C9.98724 292.909 9.63861 292.858 9.26925 292.858C8.60214 292.858 8.00475 293.025 7.47709 293.361C6.9532 293.696 6.53861 294.188 6.23333 294.836C5.93181 295.485 5.78105 296.276 5.78105 297.211C5.78105 298.153 5.93181 298.948 6.23333 299.597C6.53861 300.245 6.95509 300.735 7.48275 301.067C8.0104 301.398 8.60402 301.564 9.26359 301.564C9.62919 301.564 9.97593 301.515 10.3038 301.417C10.6355 301.315 10.9351 301.166 11.2027 300.97C11.4703 300.774 11.6965 300.535 11.8812 300.252C12.0696 299.966 12.1996 299.638 12.2712 299.269L14.0351 299.274C13.9409 299.843 13.7581 300.367 13.4867 300.846C13.2191 301.321 12.8743 301.732 12.4522 302.078C12.0338 302.421 11.5551 302.687 11.0162 302.876C10.4772 303.064 9.88925 303.158 9.25229 303.158C8.24974 303.158 7.35649 302.921 6.57254 302.446C5.78859 301.967 5.17047 301.283 4.71819 300.394C4.26968 299.504 4.04543 298.443 4.04543 297.211C4.04543 295.975 4.27157 294.914 4.72385 294.028C5.17612 293.138 5.79424 292.456 6.57819 291.981C7.36214 291.503 8.2535 291.263 9.25229 291.263C9.86663 291.263 10.4395 291.352 10.9709 291.529C11.5061 291.702 11.9867 291.959 12.4126 292.298C12.8385 292.633 13.1909 293.044 13.4698 293.53C13.7487 294.013 13.9371 294.565 14.0351 295.187Z" fill="white"/>
<path id="C - 01" d="M45 306C40.05 306 36 301.95 36 297C36 292.05 40.05 288 45 288C49.95 288 54 292.05 54 297C54 301.95 49.95 306 45 306Z" fill="#EA3446"/>
<path id="C - 02" d="M81 306C76.05 306 72 301.95 72 297C72 292.05 76.05 288 81 288C85.95 288 90 292.05 90 297C90 301.95 85.95 306 81 306Z" fill="#EA3446"/>
<path id="C - 03" d="M117 306C112.05 306 108 301.95 108 297C108 292.05 112.05 288 117 288C121.95 288 126 292.05 126 297C126 301.95 121.95 306 117 306Z" fill="#EA3446"/>
<path id="C - 04" d="M153 306C148.05 306 144 301.95 144 297C144 292.05 148.05 288 153 288C157.95 288 162 292.05 162 297C162 301.95 157.95 306 153 306Z" fill="#EA3446"/>
<path id="C - 05" d="M189 306C184.05 306 180 301.95 180 297C180 292.05 184.05 288 189 288C193.95 288 198 292.05 198 297C198 301.95 193.95 306 189 306Z" fill="#EA3446"/>
<path id="C - 06" d="M225 306C220.05 306 216 301.95 216 297C216 292.05 220.05 288 225 288C229.95 288 234 292.05 234 297C234 301.95 229.95 306 225 306Z" fill="#EA3446"/>
<path id="C - 07" d="M261 306C256.05 306 252 301.95 252 297C252 292.05 256.05 288 261 288C265.95 288 270 292.05 270 297C270 301.95 265.95 306 261 306Z" fill="#EA3446"/>
<path id="b" d="M5.06376 339V327.422H9.30388C10.1255 327.422 10.8058 327.557 11.3448 327.829C11.8837 328.096 12.287 328.46 12.5546 328.92C12.8222 329.376 12.956 329.89 12.956 330.463C12.956 330.946 12.8675 331.353 12.6903 331.684C12.5132 332.012 12.2757 332.276 11.978 332.476C11.684 332.672 11.3599 332.815 11.0056 332.906V333.019C11.39 333.037 11.765 333.162 12.1306 333.392C12.5 333.618 12.8053 333.94 13.0465 334.358C13.2877 334.777 13.4083 335.286 13.4083 335.885C13.4083 336.477 13.2689 337.008 12.9899 337.479C12.7148 337.947 12.2889 338.318 11.7123 338.593C11.1356 338.864 10.3988 339 9.50175 339H5.06376ZM6.81069 337.502H9.33214C10.1689 337.502 10.7681 337.34 11.13 337.016C11.4918 336.691 11.6727 336.286 11.6727 335.8C11.6727 335.435 11.5803 335.099 11.3957 334.794C11.211 334.489 10.9472 334.245 10.6042 334.065C10.265 333.884 9.86169 333.793 9.39433 333.793H6.81069V337.502ZM6.81069 332.431H9.15123C9.54321 332.431 9.89561 332.355 10.2084 332.205C10.525 332.054 10.7757 331.843 10.9603 331.571C11.1488 331.296 11.243 330.972 11.243 330.599C11.243 330.12 11.0753 329.719 10.7399 329.395C10.4044 329.071 9.88995 328.909 9.19646 328.909H6.81069V332.431Z" fill="white"/>
<path id="B - 01" d="M45 342C40.05 342 36 337.95 36 333C36 328.05 40.05 324 45 324C49.95 324 54 328.05 54 333C54 337.95 49.95 342 45 342Z" fill="#EA3446"/>
<path id="B - 02" d="M81 342C76.05 342 72 337.95 72 333C72 328.05 76.05 324 81 324C85.95 324 90 328.05 90 333C90 337.95 85.95 342 81 342Z" fill="#EA3446"/>
<path id="B - 03" d="M117 342C112.05 342 108 337.95 108 333C108 328.05 112.05 324 117 324C121.95 324 126 328.05 126 333C126 337.95 121.95 342 117 342Z" fill="#EA3446"/>
<path id="B - 04" d="M153 342C148.05 342 144 337.95 144 333C144 328.05 148.05 324 153 324C157.95 324 162 328.05 162 333C162 337.95 157.95 342 153 342Z" fill="#EA3446"/>
<path id="B - 05" d="M189 342C184.05 342 180 337.95 180 333C180 328.05 184.05 324 189 324C193.95 324 198 328.05 198 333C198 337.95 193.95 342 189 342Z" fill="#EA3446"/>
<path id="B - 06" d="M225 342C220.05 342 216 337.95 216 333C216 328.05 220.05 324 225 324C229.95 324 234 328.05 234 333C234 337.95 229.95 342 225 342Z" fill="#EA3446"/>
<path id="B - 07" d="M261 342C256.05 342 252 337.95 252 333C252 328.05 256.05 324 261 324C265.95 324 270 328.05 270 333C270 337.95 265.95 342 261 342Z" fill="#EA3446"/>
<path id="B - 8" d="M297 342C292.05 342 288 337.95 288 333C288 328.05 292.05 324 297 324C301.95 324 306 328.05 306 333C306 337.95 301.95 342 297 342Z" fill="#EA3446"/>
<path id="B - 9" d="M333 342C328.05 342 324 337.95 324 333C324 328.05 328.05 324 333 324C337.95 324 342 328.05 342 333C342 337.95 337.95 342 333 342Z" fill="#EA3446"/>
<path id="B - 10" d="M369 342C364.05 342 360 337.95 360 333C360 328.05 364.05 324 369 324C373.95 324 378 328.05 378 333C378 337.95 373.95 342 369 342Z" fill="#EA3446"/>
<path id="B - 11" d="M405 342C400.05 342 396 337.95 396 333C396 328.05 400.05 324 405 324C409.95 324 414 328.05 414 333C414 337.95 409.95 342 405 342Z" fill="#EA3446"/>
<path id="B - 12" d="M441 342C436.05 342 432 337.95 432 333C432 328.05 436.05 324 441 324C445.95 324 450 328.05 450 333C450 337.95 445.95 342 441 342Z" fill="#EA3446"/>
<path id="B - 13" d="M477 342C472.05 342 468 337.95 468 333C468 328.05 472.05 324 477 324C481.95 324 486 328.05 486 333C486 337.95 481.95 342 477 342Z" fill="#EA3446"/>
<path id="B - 14" d="M513 342C508.05 342 504 337.95 504 333C504 328.05 508.05 324 513 324C517.95 324 522 328.05 522 333C522 337.95 517.95 342 513 342Z" fill="#EA3446"/>
<path id="B - 15" d="M549 342C544.05 342 540 337.95 540 333C540 328.05 544.05 324 549 324C553.95 324 558 328.05 558 333C558 337.95 553.95 342 549 342Z" fill="#EA3446"/>
<path id="B - 16" d="M585 342C580.05 342 576 337.95 576 333C576 328.05 580.05 324 585 324C589.95 324 594 328.05 594 333C594 337.95 589.95 342 585 342Z" fill="#EA3446"/>
<path id="B - 17" d="M621 342C616.05 342 612 337.95 612 333C612 328.05 616.05 324 621 324C625.95 324 630 328.05 630 333C630 337.95 625.95 342 621 342Z" fill="#EA3446"/>
<path id="B - 18" d="M657 342C652.05 342 648 337.95 648 333C648 328.05 652.05 324 657 324C661.95 324 666 328.05 666 333C666 337.95 661.95 342 657 342Z" fill="#EA3446"/>
<path id="B - 19" d="M693 342C688.05 342 684 337.95 684 333C684 328.05 688.05 324 693 324C697.95 324 702 328.05 702 333C702 337.95 697.95 342 693 342Z" fill="#EA3446"/>
<path id="B - 20" d="M729 342C724.05 342 720 337.95 720 333C720 328.05 724.05 324 729 324C733.95 324 738 328.05 738 333C738 337.95 733.95 342 729 342Z" fill="#EA3446"/>
<path id="B - 21" d="M766 342C761.05 342 757 337.95 757 333C757 328.05 761.05 324 766 324C770.95 324 775 328.05 775 333C775 337.95 770.95 342 766 342Z" fill="#EA3446"/>
<path id="B - 22" d="M802 342C797.05 342 793 337.95 793 333C793 328.05 797.05 324 802 324C806.95 324 811 328.05 811 333C811 337.95 806.95 342 802 342Z" fill="#EA3446"/>
<path id="b_2" d="M834.064 339V327.422H838.304C839.126 327.422 839.806 327.557 840.345 327.829C840.884 328.096 841.287 328.46 841.555 328.92C841.822 329.376 841.956 329.89 841.956 330.463C841.956 330.946 841.867 331.353 841.69 331.684C841.513 332.012 841.276 332.276 840.978 332.476C840.684 332.672 840.36 332.815 840.006 332.906V333.019C840.39 333.037 840.765 333.162 841.131 333.392C841.5 333.618 841.805 333.94 842.046 334.358C842.288 334.777 842.408 335.286 842.408 335.885C842.408 336.477 842.269 337.008 841.99 337.479C841.715 337.947 841.289 338.318 840.712 338.593C840.136 338.864 839.399 339 838.502 339H834.064ZM835.811 337.502H838.332C839.169 337.502 839.768 337.34 840.13 337.016C840.492 336.691 840.673 336.286 840.673 335.8C840.673 335.435 840.58 335.099 840.396 334.794C840.211 334.489 839.947 334.245 839.604 334.065C839.265 333.884 838.862 333.793 838.394 333.793H835.811V337.502ZM835.811 332.431H838.151C838.543 332.431 838.896 332.355 839.208 332.205C839.525 332.054 839.776 331.843 839.96 331.571C840.149 331.296 840.243 330.972 840.243 330.599C840.243 330.12 840.075 329.719 839.74 329.395C839.404 329.071 838.89 328.909 838.196 328.909H835.811V332.431Z" fill="white"/>
<path id="a" d="M5.67646 375H3.82212L7.98873 363.422H10.007L14.1736 375H12.3193L9.04593 365.525H8.95548L5.67646 375ZM5.9874 370.466H12.0027V371.936H5.9874V370.466Z" fill="white"/>
<path id="A - 01" d="M45 378C40.05 378 36 373.95 36 369C36 364.05 40.05 360 45 360C49.95 360 54 364.05 54 369C54 373.95 49.95 378 45 378Z" fill="#EA3446"/>
<path id="A - 02" d="M81 378C76.05 378 72 373.95 72 369C72 364.05 76.05 360 81 360C85.95 360 90 364.05 90 369C90 373.95 85.95 378 81 378Z" fill="#EA3446"/>
<path id="A - 03" d="M117 378C112.05 378 108 373.95 108 369C108 364.05 112.05 360 117 360C121.95 360 126 364.05 126 369C126 373.95 121.95 378 117 378Z" fill="#EA3446"/>
<path id="A - 04" d="M153 378C148.05 378 144 373.95 144 369C144 364.05 148.05 360 153 360C157.95 360 162 364.05 162 369C162 373.95 157.95 378 153 378Z" fill="#EA3446"/>
<path id="A - 05" d="M189 378C184.05 378 180 373.95 180 369C180 364.05 184.05 360 189 360C193.95 360 198 364.05 198 369C198 373.95 193.95 378 189 378Z" fill="#EA3446"/>
<path id="A - 06" d="M225 378C220.05 378 216 373.95 216 369C216 364.05 220.05 360 225 360C229.95 360 234 364.05 234 369C234 373.95 229.95 378 225 378Z" fill="#EA3446"/>
<path id="A - 07" d="M261 378C256.05 378 252 373.95 252 369C252 364.05 256.05 360 261 360C265.95 360 270 364.05 270 369C270 373.95 265.95 378 261 378Z" fill="#EA3446"/>
<path id="A - 8" d="M297 378C292.05 378 288 373.95 288 369C288 364.05 292.05 360 297 360C301.95 360 306 364.05 306 369C306 373.95 301.95 378 297 378Z" fill="#EA3446"/>
<path id="A - 9" d="M333 378C328.05 378 324 373.95 324 369C324 364.05 328.05 360 333 360C337.95 360 342 364.05 342 369C342 373.95 337.95 378 333 378Z" fill="#EA3446"/>
<path id="A - 10" d="M369 378C364.05 378 360 373.95 360 369C360 364.05 364.05 360 369 360C373.95 360 378 364.05 378 369C378 373.95 373.95 378 369 378Z" fill="#EA3446"/>
<path id="A - 11" d="M405 378C400.05 378 396 373.95 396 369C396 364.05 400.05 360 405 360C409.95 360 414 364.05 414 369C414 373.95 409.95 378 405 378Z" fill="#EA3446"/>
<path id="A - 12" d="M441 378C436.05 378 432 373.95 432 369C432 364.05 436.05 360 441 360C445.95 360 450 364.05 450 369C450 373.95 445.95 378 441 378Z" fill="#EA3446"/>
<path id="A - 13" d="M477 378C472.05 378 468 373.95 468 369C468 364.05 472.05 360 477 360C481.95 360 486 364.05 486 369C486 373.95 481.95 378 477 378Z" fill="#EA3446"/>
<path id="A - 14" d="M513 378C508.05 378 504 373.95 504 369C504 364.05 508.05 360 513 360C517.95 360 522 364.05 522 369C522 373.95 517.95 378 513 378Z" fill="#EA3446"/>
<path id="A - 15" d="M549 378C544.05 378 540 373.95 540 369C540 364.05 544.05 360 549 360C553.95 360 558 364.05 558 369C558 373.95 553.95 378 549 378Z" fill="#EA3446"/>
<path id="A - 16" d="M585 378C580.05 378 576 373.95 576 369C576 364.05 580.05 360 585 360C589.95 360 594 364.05 594 369C594 373.95 589.95 378 585 378Z" fill="#EA3446"/>
<path id="A - 17" d="M621 378C616.05 378 612 373.95 612 369C612 364.05 616.05 360 621 360C625.95 360 630 364.05 630 369C630 373.95 625.95 378 621 378Z" fill="#EA3446"/>
<path id="A - 18" d="M657 378C652.05 378 648 373.95 648 369C648 364.05 652.05 360 657 360C661.95 360 666 364.05 666 369C666 373.95 661.95 378 657 378Z" fill="#EA3446"/>
<path id="A - 19" d="M693 378C688.05 378 684 373.95 684 369C684 364.05 688.05 360 693 360C697.95 360 702 364.05 702 369C702 373.95 697.95 378 693 378Z" fill="#EA3446"/>
<path id="A - 20" d="M729 378C724.05 378 720 373.95 720 369C720 364.05 724.05 360 729 360C733.95 360 738 364.05 738 369C738 373.95 733.95 378 729 378Z" fill="#EA3446"/>
<path id="A - 21" d="M765 378C760.05 378 756 373.95 756 369C756 364.05 760.05 360 765 360C769.95 360 774 364.05 774 369C774 373.95 769.95 378 765 378Z" fill="#EA3446"/>
<path id="A - 22" d="M802 378C797.05 378 793 373.95 793 369C793 364.05 797.05 360 802 360C806.95 360 811 364.05 811 369C811 373.95 806.95 378 802 378Z" fill="#EA3446"/>
<path id="a_2" d="M834.676 375H832.822L836.989 363.422H839.007L843.174 375H841.319L838.046 365.525H837.955L834.676 375ZM834.987 370.466H841.003V371.936H834.987V370.466Z" fill="white"/>
<path id="C - 08" d="M297 306C292.05 306 288 301.95 288 297C288 292.05 292.05 288 297 288C301.95 288 306 292.05 306 297C306 301.95 301.95 306 297 306Z" fill="#EA3446"/>
<path id="C - 09" d="M333 306C328.05 306 324 301.95 324 297C324 292.05 328.05 288 333 288C337.95 288 342 292.05 342 297C342 301.95 337.95 306 333 306Z" fill="#EA3446"/>
<path id="C - 10" d="M369 306C364.05 306 360 301.95 360 297C360 292.05 364.05 288 369 288C373.95 288 378 292.05 378 297C378 301.95 373.95 306 369 306Z" fill="#EA3446"/>
<path id="C - 11" d="M405 306C400.05 306 396 301.95 396 297C396 292.05 400.05 288 405 288C409.95 288 414 292.05 414 297C414 301.95 409.95 306 405 306Z" fill="#EA3446"/>
<path id="C - 12" d="M441 306C436.05 306 432 301.95 432 297C432 292.05 436.05 288 441 288C445.95 288 450 292.05 450 297C450 301.95 445.95 306 441 306Z" fill="#EA3446"/>
<path id="C - 13" d="M477 306C472.05 306 468 301.95 468 297C468 292.05 472.05 288 477 288C481.95 288 486 292.05 486 297C486 301.95 481.95 306 477 306Z" fill="#EA3446"/>
<path id="C - 14" d="M513 306C508.05 306 504 301.95 504 297C504 292.05 508.05 288 513 288C517.95 288 522 292.05 522 297C522 301.95 517.95 306 513 306Z" fill="#EA3446"/>
<path id="C - 15" d="M549 306C544.05 306 540 301.95 540 297C540 292.05 544.05 288 549 288C553.95 288 558 292.05 558 297C558 301.95 553.95 306 549 306Z" fill="#EA3446"/>
<path id="C - 16" d="M585 306C580.05 306 576 301.95 576 297C576 292.05 580.05 288 585 288C589.95 288 594 292.05 594 297C594 301.95 589.95 306 585 306Z" fill="#EA3446"/>
<path id="C - 17" d="M621 306C616.05 306 612 301.95 612 297C612 292.05 616.05 288 621 288C625.95 288 630 292.05 630 297C630 301.95 625.95 306 621 306Z" fill="#EA3446"/>
<path id="C - 18" d="M657 306C652.05 306 648 301.95 648 297C648 292.05 652.05 288 657 288C661.95 288 666 292.05 666 297C666 301.95 661.95 306 657 306Z" fill="#EA3446"/>
<path id="C - 19" d="M693 306C688.05 306 684 301.95 684 297C684 292.05 688.05 288 693 288C697.95 288 702 292.05 702 297C702 301.95 697.95 306 693 306Z" fill="#EA3446"/>
<path id="C - 20" d="M729 306C724.05 306 720 301.95 720 297C720 292.05 724.05 288 729 288C733.95 288 738 292.05 738 297C738 301.95 733.95 306 729 306Z" fill="#EA3446"/>
<path id="C - 21" d="M766 306C761.05 306 757 301.95 757 297C757 292.05 761.05 288 766 288C770.95 288 775 292.05 775 297C775 301.95 770.95 306 766 306Z" fill="#EA3446"/>
<path id="C - 22" d="M802 306C797.05 306 793 301.95 793 297C793 292.05 797.05 288 802 288C806.95 288 811 292.05 811 297C811 301.95 806.95 306 802 306Z" fill="#EA3446"/>
<path id="c_2" d="M843.035 295.187H841.271C841.203 294.81 841.077 294.478 840.892 294.192C840.708 293.905 840.482 293.662 840.214 293.463C839.946 293.263 839.647 293.112 839.315 293.01C838.987 292.909 838.639 292.858 838.269 292.858C837.602 292.858 837.005 293.025 836.477 293.361C835.953 293.696 835.539 294.188 835.233 294.836C834.932 295.485 834.781 296.276 834.781 297.211C834.781 298.153 834.932 298.948 835.233 299.597C835.539 300.245 835.955 300.735 836.483 301.067C837.01 301.398 837.604 301.564 838.264 301.564C838.629 301.564 838.976 301.515 839.304 301.417C839.636 301.315 839.935 301.166 840.203 300.97C840.47 300.774 840.696 300.535 840.881 300.252C841.07 299.966 841.2 299.638 841.271 299.269L843.035 299.274C842.941 299.843 842.758 300.367 842.487 300.846C842.219 301.321 841.874 301.732 841.452 302.078C841.034 302.421 840.555 302.687 840.016 302.876C839.477 303.064 838.889 303.158 838.252 303.158C837.25 303.158 836.356 302.921 835.573 302.446C834.789 301.967 834.17 301.283 833.718 300.394C833.27 299.504 833.045 298.443 833.045 297.211C833.045 295.975 833.272 294.914 833.724 294.028C834.176 293.138 834.794 292.456 835.578 291.981C836.362 291.503 837.254 291.263 838.252 291.263C838.867 291.263 839.44 291.352 839.971 291.529C840.506 291.702 840.987 291.959 841.413 292.298C841.838 292.633 842.191 293.044 842.47 293.53C842.749 294.013 842.937 294.565 843.035 295.187Z" fill="white"/>
<path id="K - 01" d="M189.883 18C184.933 18 180.883 13.95 180.883 9C180.883 4.05 184.933 0 189.883 0C194.833 0 198.883 4.05 198.883 9C198.883 13.95 194.833 18 189.883 18Z" fill="#EA3446"/>
<path id="K - 02" d="M225.883 18C220.933 18 216.883 13.95 216.883 9C216.883 4.05 220.933 0 225.883 0C230.833 0 234.883 4.05 234.883 9C234.883 13.95 230.833 18 225.883 18Z" fill="#EA3446"/>
<path id="K - 03" d="M261.883 18C256.933 18 252.883 13.95 252.883 9C252.883 4.05 256.933 0 261.883 0C266.833 0 270.883 4.05 270.883 9C270.883 13.95 266.833 18 261.883 18Z" fill="#EA3446"/>
<path id="K - 04" d="M297.883 18C292.933 18 288.883 13.95 288.883 9C288.883 4.05 292.933 0 297.883 0C302.833 0 306.883 4.05 306.883 9C306.883 13.95 302.833 18 297.883 18Z" fill="#EA3446"/>
<path id="K - 05" d="M333.883 18C328.933 18 324.883 13.95 324.883 9C324.883 4.05 328.933 0 333.883 0C338.833 0 342.883 4.05 342.883 9C342.883 13.95 338.833 18 333.883 18Z" fill="#EA3446"/>
<path id="K - 06" d="M369.883 18C364.933 18 360.883 13.95 360.883 9C360.883 4.05 364.933 0 369.883 0C374.833 0 378.883 4.05 378.883 9C378.883 13.95 374.833 18 369.883 18Z" fill="#EA3446"/>
<path id="K - 07" d="M405.883 18C400.933 18 396.883 13.95 396.883 9C396.883 4.05 400.933 0 405.883 0C410.833 0 414.883 4.05 414.883 9C414.883 13.95 410.833 18 405.883 18Z" fill="#EA3446"/>
<path id="K - 08" d="M441.883 18C436.933 18 432.883 13.95 432.883 9C432.883 4.05 436.933 0 441.883 0C446.833 0 450.883 4.05 450.883 9C450.883 13.95 446.833 18 441.883 18Z" fill="#EA3446"/>
<path id="K - 09" d="M477.883 18C472.933 18 468.883 13.95 468.883 9C468.883 4.05 472.933 0 477.883 0C482.833 0 486.883 4.05 486.883 9C486.883 13.95 482.833 18 477.883 18Z" fill="#EA3446"/>
<path id="K - 10" d="M513.883 18C508.933 18 504.883 13.95 504.883 9C504.883 4.05 508.933 0 513.883 0C518.833 0 522.883 4.05 522.883 9C522.883 13.95 518.833 18 513.883 18Z" fill="#EA3446"/>
<path id="K - 11" d="M549.883 18C544.933 18 540.883 13.95 540.883 9C540.883 4.05 544.933 0 549.883 0C554.833 0 558.883 4.05 558.883 9C558.883 13.95 554.833 18 549.883 18Z" fill="#EA3446"/>
<path id="K - 12" d="M585.883 18C580.933 18 576.883 13.95 576.883 9C576.883 4.05 580.933 0 585.883 0C590.833 0 594.883 4.05 594.883 9C594.883 13.95 590.833 18 585.883 18Z" fill="#EA3446"/>
<path id="K - 13" d="M621.883 18C616.933 18 612.883 13.95 612.883 9C612.883 4.05 616.933 0 621.883 0C626.833 0 630.883 4.05 630.883 9C630.883 13.95 626.833 18 621.883 18Z" fill="#EA3446"/>
</g>
</svg>
