<svg width="776" height="396" viewBox="0 0 776 396" fill="none" xmlns="http://www.w3.org/2000/svg">
<g id="208">
<path id="k" d="M4.98603 24V12.4217H6.73295V17.9508H6.87429L11.7306 12.4217H13.9298L9.26006 17.6342L13.9468 24H11.8437L8.1011 18.8271L6.73295 20.3987V24H4.98603Z" fill="white"/>
<path id="k_2" d="M761.986 24V12.4217H763.733V17.9508H763.874L768.731 12.4217H770.93L766.26 17.6342L770.947 24H768.844L765.101 18.8271L763.733 20.3987V24H761.986Z" fill="white"/>
<path id="j" d="M10.3802 57.4217H12.1214V65.6305C12.1214 66.373 11.9744 67.0081 11.6805 67.5357C11.3902 68.0634 10.9813 68.4667 10.4537 68.7456C9.92599 69.0207 9.30788 69.1583 8.59931 69.1583C7.94727 69.1583 7.3612 69.0396 6.84108 68.8021C6.32472 68.5647 5.91579 68.2198 5.61427 67.7675C5.31652 67.3115 5.16764 66.7575 5.16764 66.1054H6.90326C6.90326 66.4258 6.97676 66.7028 7.12375 66.9365C7.27451 67.1702 7.47992 67.353 7.73998 67.4849C8.00381 67.613 8.30533 67.6771 8.64454 67.6771C9.0139 67.6771 9.32672 67.5998 9.58302 67.4453C9.84308 67.287 10.0409 67.0552 10.1766 66.7499C10.3123 66.4446 10.3802 66.0715 10.3802 65.6305V57.4217Z" fill="white"/>
<path id="J - 01" d="M45.8828 72C40.9328 72 36.8828 67.95 36.8828 63C36.8828 58.05 40.9328 54 45.8828 54C50.8328 54 54.8828 58.05 54.8828 63C54.8828 67.95 50.8328 72 45.8828 72Z" fill="#EA3446"/>
<path id="J - 02" d="M81.8828 72C76.9328 72 72.8828 67.95 72.8828 63C72.8828 58.05 76.9328 54 81.8828 54C86.8328 54 90.8828 58.05 90.8828 63C90.8828 67.95 86.8328 72 81.8828 72Z" fill="#EA3446"/>
<path id="J - 03" d="M117.883 72C112.933 72 108.883 67.95 108.883 63C108.883 58.05 112.933 54 117.883 54C122.833 54 126.883 58.05 126.883 63C126.883 67.95 122.833 72 117.883 72Z" fill="#EA3446"/>
<path id="J - 04" d="M153.883 72C148.933 72 144.883 67.95 144.883 63C144.883 58.05 148.933 54 153.883 54C158.833 54 162.883 58.05 162.883 63C162.883 67.95 158.833 72 153.883 72Z" fill="#EA3446"/>
<path id="J - 05" d="M189.883 72C184.933 72 180.883 67.95 180.883 63C180.883 58.05 184.933 54 189.883 54C194.833 54 198.883 58.05 198.883 63C198.883 67.95 194.833 72 189.883 72Z" fill="#EA3446"/>
<path id="J - 06" d="M225.883 72C220.933 72 216.883 67.95 216.883 63C216.883 58.05 220.933 54 225.883 54C230.833 54 234.883 58.05 234.883 63C234.883 67.95 230.833 72 225.883 72Z" fill="#EA3446"/>
<path id="J - 07" d="M261.883 72C256.933 72 252.883 67.95 252.883 63C252.883 58.05 256.933 54 261.883 54C266.833 54 270.883 58.05 270.883 63C270.883 67.95 266.833 72 261.883 72Z" fill="#EA3446"/>
<path id="J - 08" d="M297.883 72C292.933 72 288.883 67.95 288.883 63C288.883 58.05 292.933 54 297.883 54C302.833 54 306.883 58.05 306.883 63C306.883 67.95 302.833 72 297.883 72Z" fill="#EA3446"/>
<path id="J - 09" d="M333.883 72C328.933 72 324.883 67.95 324.883 63C324.883 58.05 328.933 54 333.883 54C338.833 54 342.883 58.05 342.883 63C342.883 67.95 338.833 72 333.883 72Z" fill="#EA3446"/>
<path id="J - 10" d="M369.883 72C364.933 72 360.883 67.95 360.883 63C360.883 58.05 364.933 54 369.883 54C374.833 54 378.883 58.05 378.883 63C378.883 67.95 374.833 72 369.883 72Z" fill="#EA3446"/>
<path id="J - 11" d="M405.883 72C400.933 72 396.883 67.95 396.883 63C396.883 58.05 400.933 54 405.883 54C410.833 54 414.883 58.05 414.883 63C414.883 67.95 410.833 72 405.883 72Z" fill="#EA3446"/>
<path id="J - 12" d="M441.883 72C436.933 72 432.883 67.95 432.883 63C432.883 58.05 436.933 54 441.883 54C446.833 54 450.883 58.05 450.883 63C450.883 67.95 446.833 72 441.883 72Z" fill="#EA3446"/>
<path id="J - 13" d="M477.883 72C472.933 72 468.883 67.95 468.883 63C468.883 58.05 472.933 54 477.883 54C482.833 54 486.883 58.05 486.883 63C486.883 67.95 482.833 72 477.883 72Z" fill="#EA3446"/>
<path id="J - 14" d="M513.883 72C508.933 72 504.883 67.95 504.883 63C504.883 58.05 508.933 54 513.883 54C518.833 54 522.883 58.05 522.883 63C522.883 67.95 518.833 72 513.883 72Z" fill="#EA3446"/>
<path id="J - 15" d="M549.883 72C544.933 72 540.883 67.95 540.883 63C540.883 58.05 544.933 54 549.883 54C554.833 54 558.883 58.05 558.883 63C558.883 67.95 554.833 72 549.883 72Z" fill="#EA3446"/>
<path id="J - 16" d="M585.883 72C580.933 72 576.883 67.95 576.883 63C576.883 58.05 580.933 54 585.883 54C590.833 54 594.883 58.05 594.883 63C594.883 67.95 590.833 72 585.883 72Z" fill="#EA3446"/>
<path id="J - 18" d="M658 72C653.05 72 649 67.95 649 63C649 58.05 653.05 54 658 54C662.95 54 667 58.05 667 63C667 67.95 662.95 72 658 72Z" fill="#EA3446"/>
<path id="J - 17" d="M621.883 72C616.933 72 612.883 67.95 612.883 63C612.883 58.05 616.933 54 621.883 54C626.833 54 630.883 58.05 630.883 63C630.883 67.95 626.833 72 621.883 72Z" fill="#EA3446"/>
<path id="J - 19" d="M694 72C689.05 72 685 67.95 685 63C685 58.05 689.05 54 694 54C698.95 54 703 58.05 703 63C703 67.95 698.95 72 694 72Z" fill="#EA3446"/>
<path id="J - 20" d="M730 72C725.05 72 721 67.95 721 63C721 58.05 725.05 54 730 54C734.95 54 739 58.05 739 63C739 67.95 734.95 72 730 72Z" fill="#EA3446"/>
<path id="j_2" d="M767.38 57.4217H769.121V65.6305C769.121 66.373 768.974 67.0081 768.68 67.5357C768.39 68.0634 767.981 68.4667 767.454 68.7456C766.926 69.0207 766.308 69.1583 765.599 69.1583C764.947 69.1583 764.361 69.0396 763.841 68.8021C763.325 68.5647 762.916 68.2198 762.614 67.7675C762.317 67.3115 762.168 66.7575 762.168 66.1054H763.903C763.903 66.4258 763.977 66.7028 764.124 66.9365C764.275 67.1702 764.48 67.353 764.74 67.4849C765.004 67.613 765.305 67.6771 765.645 67.6771C766.014 67.6771 766.327 67.5998 766.583 67.4453C766.843 67.287 767.041 67.0552 767.177 66.7499C767.312 66.4446 767.38 66.0715 767.38 65.6305V57.4217Z" fill="white"/>
<path id="i" d="M9.87346 93.4217V105H8.12654V93.4217H9.87346Z" fill="white"/>
<path id="I - 01" d="M45 108C40.05 108 36 103.95 36 99C36 94.05 40.05 90 45 90C49.95 90 54 94.05 54 99C54 103.95 49.95 108 45 108Z" fill="#EA3446"/>
<path id="I - 02" d="M81 108C76.05 108 72 103.95 72 99C72 94.05 76.05 90 81 90C85.95 90 90 94.05 90 99C90 103.95 85.95 108 81 108Z" fill="#EA3446"/>
<path id="I - 03" d="M117 108C112.05 108 108 103.95 108 99C108 94.05 112.05 90 117 90C121.95 90 126 94.05 126 99C126 103.95 121.95 108 117 108Z" fill="#EA3446"/>
<path id="I - 04" d="M153 108C148.05 108 144 103.95 144 99C144 94.05 148.05 90 153 90C157.95 90 162 94.05 162 99C162 103.95 157.95 108 153 108Z" fill="#EA3446"/>
<path id="I - 05" d="M189 108C184.05 108 180 103.95 180 99C180 94.05 184.05 90 189 90C193.95 90 198 94.05 198 99C198 103.95 193.95 108 189 108Z" fill="#EA3446"/>
<path id="I - 06" d="M225 108C220.05 108 216 103.95 216 99C216 94.05 220.05 90 225 90C229.95 90 234 94.05 234 99C234 103.95 229.95 108 225 108Z" fill="#EA3446"/>
<path id="I - 07" d="M261 108C256.05 108 252 103.95 252 99C252 94.05 256.05 90 261 90C265.95 90 270 94.05 270 99C270 103.95 265.95 108 261 108Z" fill="#EA3446"/>
<path id="I - 08" d="M297 108C292.05 108 288 103.95 288 99C288 94.05 292.05 90 297 90C301.95 90 306 94.05 306 99C306 103.95 301.95 108 297 108Z" fill="#EA3446"/>
<path id="I - 09" d="M333 108C328.05 108 324 103.95 324 99C324 94.05 328.05 90 333 90C337.95 90 342 94.05 342 99C342 103.95 337.95 108 333 108Z" fill="#EA3446"/>
<path id="I - 10" d="M369 108C364.05 108 360 103.95 360 99C360 94.05 364.05 90 369 90C373.95 90 378 94.05 378 99C378 103.95 373.95 108 369 108Z" fill="#EA3446"/>
<path id="I - 11" d="M405 108C400.05 108 396 103.95 396 99C396 94.05 400.05 90 405 90C409.95 90 414 94.05 414 99C414 103.95 409.95 108 405 108Z" fill="#EA3446"/>
<path id="I - 12" d="M441 108C436.05 108 432 103.95 432 99C432 94.05 436.05 90 441 90C445.95 90 450 94.05 450 99C450 103.95 445.95 108 441 108Z" fill="#EA3446"/>
<path id="I - 13" d="M477 108C472.05 108 468 103.95 468 99C468 94.05 472.05 90 477 90C481.95 90 486 94.05 486 99C486 103.95 481.95 108 477 108Z" fill="#EA3446"/>
<path id="I - 14" d="M513 108C508.05 108 504 103.95 504 99C504 94.05 508.05 90 513 90C517.95 90 522 94.05 522 99C522 103.95 517.95 108 513 108Z" fill="#EA3446"/>
<path id="I - 15" d="M549 108C544.05 108 540 103.95 540 99C540 94.05 544.05 90 549 90C553.95 90 558 94.05 558 99C558 103.95 553.95 108 549 108Z" fill="#EA3446"/>
<path id="I - 16" d="M585 108C580.05 108 576 103.95 576 99C576 94.05 580.05 90 585 90C589.95 90 594 94.05 594 99C594 103.95 589.95 108 585 108Z" fill="#EA3446"/>
<path id="I - 17" d="M621 108C616.05 108 612 103.95 612 99C612 94.05 616.05 90 621 90C625.95 90 630 94.05 630 99C630 103.95 625.95 108 621 108Z" fill="#EA3446"/>
<path id="I - 18" d="M658 108C653.05 108 649 103.95 649 99C649 94.05 653.05 90 658 90C662.95 90 667 94.05 667 99C667 103.95 662.95 108 658 108Z" fill="#EA3446"/>
<path id="I - 19" d="M694 108C689.05 108 685 103.95 685 99C685 94.05 689.05 90 694 90C698.95 90 703 94.05 703 99C703 103.95 698.95 108 694 108Z" fill="#EA3446"/>
<path id="I - 20" d="M730 108C725.05 108 721 103.95 721 99C721 94.05 725.05 90 730 90C734.95 90 739 94.05 739 99C739 103.95 734.95 108 730 108Z" fill="#EA3446"/>
<path id="i_2" d="M766.873 93.4217V105H765.127V93.4217H766.873Z" fill="white"/>
<path id="h" d="M40.3641 141V129.422H42.1111V134.453H47.8833V129.422H49.6359V141H47.8833V135.951H42.1111V141H40.3641Z" fill="white"/>
<path id="H - 01" d="M81 144C76.05 144 72 139.95 72 135C72 130.05 76.05 126 81 126C85.95 126 90 130.05 90 135C90 139.95 85.95 144 81 144Z" fill="#EA3446"/>
<path id="H - 02" d="M117 144C112.05 144 108 139.95 108 135C108 130.05 112.05 126 117 126C121.95 126 126 130.05 126 135C126 139.95 121.95 144 117 144Z" fill="#EA3446"/>
<path id="H - 03" d="M153 144C148.05 144 144 139.95 144 135C144 130.05 148.05 126 153 126C157.95 126 162 130.05 162 135C162 139.95 157.95 144 153 144Z" fill="#EA3446"/>
<path id="H - 04" d="M189 144C184.05 144 180 139.95 180 135C180 130.05 184.05 126 189 126C193.95 126 198 130.05 198 135C198 139.95 193.95 144 189 144Z" fill="#EA3446"/>
<path id="H - 05" d="M225 144C220.05 144 216 139.95 216 135C216 130.05 220.05 126 225 126C229.95 126 234 130.05 234 135C234 139.95 229.95 144 225 144Z" fill="#EA3446"/>
<path id="H - 06" d="M261 144C256.05 144 252 139.95 252 135C252 130.05 256.05 126 261 126C265.95 126 270 130.05 270 135C270 139.95 265.95 144 261 144Z" fill="#EA3446"/>
<path id="H - 07" d="M297 144C292.05 144 288 139.95 288 135C288 130.05 292.05 126 297 126C301.95 126 306 130.05 306 135C306 139.95 301.95 144 297 144Z" fill="#EA3446"/>
<path id="H - 08" d="M333 144C328.05 144 324 139.95 324 135C324 130.05 328.05 126 333 126C337.95 126 342 130.05 342 135C342 139.95 337.95 144 333 144Z" fill="#EA3446"/>
<path id="H - 09" d="M369 144C364.05 144 360 139.95 360 135C360 130.05 364.05 126 369 126C373.95 126 378 130.05 378 135C378 139.95 373.95 144 369 144Z" fill="#EA3446"/>
<path id="H - 10" d="M405 144C400.05 144 396 139.95 396 135C396 130.05 400.05 126 405 126C409.95 126 414 130.05 414 135C414 139.95 409.95 144 405 144Z" fill="#EA3446"/>
<path id="H - 11" d="M441 144C436.05 144 432 139.95 432 135C432 130.05 436.05 126 441 126C445.95 126 450 130.05 450 135C450 139.95 445.95 144 441 144Z" fill="#EA3446"/>
<path id="H - 12" d="M477 144C472.05 144 468 139.95 468 135C468 130.05 472.05 126 477 126C481.95 126 486 130.05 486 135C486 139.95 481.95 144 477 144Z" fill="#EA3446"/>
<path id="H - 13" d="M513 144C508.05 144 504 139.95 504 135C504 130.05 508.05 126 513 126C517.95 126 522 130.05 522 135C522 139.95 517.95 144 513 144Z" fill="#EA3446"/>
<path id="H - 14" d="M549 144C544.05 144 540 139.95 540 135C540 130.05 544.05 126 549 126C553.95 126 558 130.05 558 135C558 139.95 553.95 144 549 144Z" fill="#EA3446"/>
<path id="H - 15" d="M585 144C580.05 144 576 139.95 576 135C576 130.05 580.05 126 585 126C589.95 126 594 130.05 594 135C594 139.95 589.95 144 585 144Z" fill="#EA3446"/>
<path id="H - 16" d="M621 144C616.05 144 612 139.95 612 135C612 130.05 616.05 126 621 126C625.95 126 630 130.05 630 135C630 139.95 625.95 144 621 144Z" fill="#EA3446"/>
<path id="H - 17" d="M657 144C652.05 144 648 139.95 648 135C648 130.05 652.05 126 657 126C661.95 126 666 130.05 666 135C666 139.95 661.95 144 657 144Z" fill="#EA3446"/>
<path id="H - 18" d="M694 144C689.05 144 685 139.95 685 135C685 130.05 689.05 126 694 126C698.95 126 703 130.05 703 135C703 139.95 698.95 144 694 144Z" fill="#EA3446"/>
<path id="H - 19" d="M730 144C725.05 144 721 139.95 721 135C721 130.05 725.05 126 730 126C734.95 126 739 130.05 739 135C739 139.95 734.95 144 730 144Z" fill="#EA3446"/>
<path id="h_2" d="M761.364 141V129.422H763.111V134.453H768.883V129.422H770.636V141H768.883V135.951H763.111V141H761.364Z" fill="white"/>
<path id="g" d="M49.1455 169.079C49.0362 168.736 48.8892 168.429 48.7045 168.158C48.5236 167.883 48.3069 167.649 48.0543 167.457C47.8018 167.261 47.5135 167.112 47.1894 167.01C46.869 166.909 46.5166 166.858 46.1322 166.858C45.4801 166.858 44.8922 167.025 44.3683 167.361C43.8444 167.696 43.4298 168.188 43.1245 168.836C42.823 169.481 42.6722 170.27 42.6722 171.205C42.6722 172.144 42.8249 172.937 43.1302 173.585C43.4354 174.234 43.8538 174.725 44.3852 175.061C44.9167 175.396 45.5216 175.564 46.2 175.564C46.8294 175.564 47.3778 175.436 47.8452 175.18C48.3163 174.923 48.68 174.561 48.9363 174.094C49.1963 173.623 49.3264 173.069 49.3264 172.432L49.7786 172.517H46.4657V171.075H51.0168V172.392C51.0168 173.365 50.8095 174.209 50.3949 174.925C49.9841 175.638 49.4149 176.188 48.6875 176.576C47.9639 176.964 47.1347 177.158 46.2 177.158C45.1522 177.158 44.2326 176.917 43.4411 176.435C42.6534 175.952 42.039 175.268 41.5981 174.382C41.1571 173.493 40.9366 172.438 40.9366 171.216C40.9366 170.293 41.0647 169.464 41.321 168.729C41.5773 167.994 41.9373 167.37 42.4009 166.858C42.8682 166.341 43.4166 165.947 44.046 165.676C44.6792 165.401 45.3708 165.263 46.1208 165.263C46.7465 165.263 47.3288 165.356 47.8678 165.54C48.4105 165.725 48.8929 165.987 49.3151 166.326C49.741 166.665 50.0934 167.069 50.3723 167.536C50.6512 168 50.8396 168.514 50.9376 169.079H49.1455Z" fill="white"/>
<path id="G - 01" d="M82 180C77.05 180 73 175.95 73 171C73 166.05 77.05 162 82 162C86.95 162 91 166.05 91 171C91 175.95 86.95 180 82 180Z" fill="#EA3446"/>
<path id="G - 02" d="M118 180C113.05 180 109 175.95 109 171C109 166.05 113.05 162 118 162C122.95 162 127 166.05 127 171C127 175.95 122.95 180 118 180Z" fill="#EA3446"/>
<path id="G - 03" d="M154 180C149.05 180 145 175.95 145 171C145 166.05 149.05 162 154 162C158.95 162 163 166.05 163 171C163 175.95 158.95 180 154 180Z" fill="#EA3446"/>
<path id="G - 04" d="M190 180C185.05 180 181 175.95 181 171C181 166.05 185.05 162 190 162C194.95 162 199 166.05 199 171C199 175.95 194.95 180 190 180Z" fill="#EA3446"/>
<path id="G - 05" d="M226 180C221.05 180 217 175.95 217 171C217 166.05 221.05 162 226 162C230.95 162 235 166.05 235 171C235 175.95 230.95 180 226 180Z" fill="#EA3446"/>
<path id="G - 06" d="M262 180C257.05 180 253 175.95 253 171C253 166.05 257.05 162 262 162C266.95 162 271 166.05 271 171C271 175.95 266.95 180 262 180Z" fill="#EA3446"/>
<path id="G - 07" d="M298 180C293.05 180 289 175.95 289 171C289 166.05 293.05 162 298 162C302.95 162 307 166.05 307 171C307 175.95 302.95 180 298 180Z" fill="#EA3446"/>
<path id="G - 08" d="M334 180C329.05 180 325 175.95 325 171C325 166.05 329.05 162 334 162C338.95 162 343 166.05 343 171C343 175.95 338.95 180 334 180Z" fill="#EA3446"/>
<path id="G - 09" d="M370 180C365.05 180 361 175.95 361 171C361 166.05 365.05 162 370 162C374.95 162 379 166.05 379 171C379 175.95 374.95 180 370 180Z" fill="#EA3446"/>
<path id="G - 10" d="M406 180C401.05 180 397 175.95 397 171C397 166.05 401.05 162 406 162C410.95 162 415 166.05 415 171C415 175.95 410.95 180 406 180Z" fill="#EA3446"/>
<path id="G - 11" d="M442 180C437.05 180 433 175.95 433 171C433 166.05 437.05 162 442 162C446.95 162 451 166.05 451 171C451 175.95 446.95 180 442 180Z" fill="#EA3446"/>
<path id="G - 12" d="M478 180C473.05 180 469 175.95 469 171C469 166.05 473.05 162 478 162C482.95 162 487 166.05 487 171C487 175.95 482.95 180 478 180Z" fill="#EA3446"/>
<path id="G - 13" d="M514 180C509.05 180 505 175.95 505 171C505 166.05 509.05 162 514 162C518.95 162 523 166.05 523 171C523 175.95 518.95 180 514 180Z" fill="#EA3446"/>
<path id="G - 14" d="M550 180C545.05 180 541 175.95 541 171C541 166.05 545.05 162 550 162C554.95 162 559 166.05 559 171C559 175.95 554.95 180 550 180Z" fill="#EA3446"/>
<path id="G - 15" d="M586 180C581.05 180 577 175.95 577 171C577 166.05 581.05 162 586 162C590.95 162 595 166.05 595 171C595 175.95 590.95 180 586 180Z" fill="#EA3446"/>
<path id="G - 16" d="M622 180C617.05 180 613 175.95 613 171C613 166.05 617.05 162 622 162C626.95 162 631 166.05 631 171C631 175.95 626.95 180 622 180Z" fill="#EA3446"/>
<path id="G - 18" d="M694 180C689.05 180 685 175.95 685 171C685 166.05 689.05 162 694 162C698.95 162 703 166.05 703 171C703 175.95 698.95 180 694 180Z" fill="#EA3446"/>
<path id="G - 17" d="M658 180C653.05 180 649 175.95 649 171C649 166.05 653.05 162 658 162C662.95 162 667 166.05 667 171C667 175.95 662.95 180 658 180Z" fill="#EA3446"/>
<path id="G - 19" d="M730 180C725.05 180 721 175.95 721 171C721 166.05 725.05 162 730 162C734.95 162 739 166.05 739 171C739 175.95 734.95 180 730 180Z" fill="#EA3446"/>
<path id="g_2" d="M770.145 169.079C770.036 168.736 769.889 168.429 769.704 168.158C769.524 167.883 769.307 167.649 769.054 167.457C768.802 167.261 768.513 167.112 768.189 167.01C767.869 166.909 767.517 166.858 767.132 166.858C766.48 166.858 765.892 167.025 765.368 167.361C764.844 167.696 764.43 168.188 764.124 168.836C763.823 169.481 763.672 170.27 763.672 171.205C763.672 172.144 763.825 172.937 764.13 173.585C764.435 174.234 764.854 174.725 765.385 175.061C765.917 175.396 766.522 175.564 767.2 175.564C767.829 175.564 768.378 175.436 768.845 175.18C769.316 174.923 769.68 174.561 769.936 174.094C770.196 173.623 770.326 173.069 770.326 172.432L770.779 172.517H767.466V171.075H772.017V172.392C772.017 173.365 771.809 174.209 771.395 174.925C770.984 175.638 770.415 176.188 769.688 176.576C768.964 176.964 768.135 177.158 767.2 177.158C766.152 177.158 765.233 176.917 764.441 176.435C763.653 175.952 763.039 175.268 762.598 174.382C762.157 173.493 761.937 172.438 761.937 171.216C761.937 170.293 762.065 169.464 762.321 168.729C762.577 167.994 762.937 167.37 763.401 166.858C763.868 166.341 764.417 165.947 765.046 165.676C765.679 165.401 766.371 165.263 767.121 165.263C767.746 165.263 768.329 165.356 768.868 165.54C769.411 165.725 769.893 165.987 770.315 166.326C770.741 166.665 771.093 167.069 771.372 167.536C771.651 168 771.84 168.514 771.938 169.079H770.145Z" fill="white"/>
<path id="f" d="M77.6079 213V201.422H84.7878V202.925H79.3548V206.453H84.2734V207.951H79.3548V213H77.6079Z" fill="white"/>
<path id="F - 01" d="M117 216C112.05 216 108 211.95 108 207C108 202.05 112.05 198 117 198C121.95 198 126 202.05 126 207C126 211.95 121.95 216 117 216Z" fill="#EA3446"/>
<path id="F - 02" d="M153 216C148.05 216 144 211.95 144 207C144 202.05 148.05 198 153 198C157.95 198 162 202.05 162 207C162 211.95 157.95 216 153 216Z" fill="#EA3446"/>
<path id="F - 03" d="M189 216C184.05 216 180 211.95 180 207C180 202.05 184.05 198 189 198C193.95 198 198 202.05 198 207C198 211.95 193.95 216 189 216Z" fill="#EA3446"/>
<path id="F - 04" d="M225 216C220.05 216 216 211.95 216 207C216 202.05 220.05 198 225 198C229.95 198 234 202.05 234 207C234 211.95 229.95 216 225 216Z" fill="#EA3446"/>
<path id="F - 05" d="M261 216C256.05 216 252 211.95 252 207C252 202.05 256.05 198 261 198C265.95 198 270 202.05 270 207C270 211.95 265.95 216 261 216Z" fill="#EA3446"/>
<path id="F - 06" d="M297 216C292.05 216 288 211.95 288 207C288 202.05 292.05 198 297 198C301.95 198 306 202.05 306 207C306 211.95 301.95 216 297 216Z" fill="#EA3446"/>
<path id="F - 07" d="M333 216C328.05 216 324 211.95 324 207C324 202.05 328.05 198 333 198C337.95 198 342 202.05 342 207C342 211.95 337.95 216 333 216Z" fill="#EA3446"/>
<path id="F - 08" d="M369 216C364.05 216 360 211.95 360 207C360 202.05 364.05 198 369 198C373.95 198 378 202.05 378 207C378 211.95 373.95 216 369 216Z" fill="#EA3446"/>
<path id="F - 09" d="M405 216C400.05 216 396 211.95 396 207C396 202.05 400.05 198 405 198C409.95 198 414 202.05 414 207C414 211.95 409.95 216 405 216Z" fill="#EA3446"/>
<path id="F - 10" d="M441 216C436.05 216 432 211.95 432 207C432 202.05 436.05 198 441 198C445.95 198 450 202.05 450 207C450 211.95 445.95 216 441 216Z" fill="#EA3446"/>
<path id="F - 11" d="M477 216C472.05 216 468 211.95 468 207C468 202.05 472.05 198 477 198C481.95 198 486 202.05 486 207C486 211.95 481.95 216 477 216Z" fill="#EA3446"/>
<path id="F - 12" d="M513 216C508.05 216 504 211.95 504 207C504 202.05 508.05 198 513 198C517.95 198 522 202.05 522 207C522 211.95 517.95 216 513 216Z" fill="#EA3446"/>
<path id="F - 13" d="M549 216C544.05 216 540 211.95 540 207C540 202.05 544.05 198 549 198C553.95 198 558 202.05 558 207C558 211.95 553.95 216 549 216Z" fill="#EA3446"/>
<path id="F - 14" d="M585 216C580.05 216 576 211.95 576 207C576 202.05 580.05 198 585 198C589.95 198 594 202.05 594 207C594 211.95 589.95 216 585 216Z" fill="#EA3446"/>
<path id="F - 15" d="M621 216C616.05 216 612 211.95 612 207C612 202.05 616.05 198 621 198C625.95 198 630 202.05 630 207C630 211.95 625.95 216 621 216Z" fill="#EA3446"/>
<path id="F - 16" d="M657 216C652.05 216 648 211.95 648 207C648 202.05 652.05 198 657 198C661.95 198 666 202.05 666 207C666 211.95 661.95 216 657 216Z" fill="#EA3446"/>
<path id="F - 17" d="M693 216C688.05 216 684 211.95 684 207C684 202.05 688.05 198 693 198C697.95 198 702 202.05 702 207C702 211.95 697.95 216 693 216Z" fill="#EA3446"/>
<path id="F - 18" d="M729 216C724.05 216 720 211.95 720 207C720 202.05 724.05 198 729 198C733.95 198 738 202.05 738 207C738 211.95 733.95 216 729 216Z" fill="#EA3446"/>
<path id="f_2" d="M762.608 213V201.422H769.788V202.925H764.355V206.453H769.273V207.951H764.355V213H762.608Z" fill="white"/>
<path id="e" d="M77.4758 249V237.422H84.7348V238.925H79.2227V242.453H84.356V243.951H79.2227V247.496H84.8027V249H77.4758Z" fill="white"/>
<path id="E - 01" d="M117 252C112.05 252 108 247.95 108 243C108 238.05 112.05 234 117 234C121.95 234 126 238.05 126 243C126 247.95 121.95 252 117 252Z" fill="#EA3446"/>
<path id="E - 02" d="M153 252C148.05 252 144 247.95 144 243C144 238.05 148.05 234 153 234C157.95 234 162 238.05 162 243C162 247.95 157.95 252 153 252Z" fill="#EA3446"/>
<path id="E - 03" d="M189 252C184.05 252 180 247.95 180 243C180 238.05 184.05 234 189 234C193.95 234 198 238.05 198 243C198 247.95 193.95 252 189 252Z" fill="#EA3446"/>
<path id="E - 04" d="M225 252C220.05 252 216 247.95 216 243C216 238.05 220.05 234 225 234C229.95 234 234 238.05 234 243C234 247.95 229.95 252 225 252Z" fill="#EA3446"/>
<path id="E - 05" d="M261 252C256.05 252 252 247.95 252 243C252 238.05 256.05 234 261 234C265.95 234 270 238.05 270 243C270 247.95 265.95 252 261 252Z" fill="#EA3446"/>
<path id="E - 06" d="M297 252C292.05 252 288 247.95 288 243C288 238.05 292.05 234 297 234C301.95 234 306 238.05 306 243C306 247.95 301.95 252 297 252Z" fill="#EA3446"/>
<path id="E - 07" d="M333 252C328.05 252 324 247.95 324 243C324 238.05 328.05 234 333 234C337.95 234 342 238.05 342 243C342 247.95 337.95 252 333 252Z" fill="#EA3446"/>
<path id="E - 08" d="M369 252C364.05 252 360 247.95 360 243C360 238.05 364.05 234 369 234C373.95 234 378 238.05 378 243C378 247.95 373.95 252 369 252Z" fill="#EA3446"/>
<path id="E - 09" d="M405 252C400.05 252 396 247.95 396 243C396 238.05 400.05 234 405 234C409.95 234 414 238.05 414 243C414 247.95 409.95 252 405 252Z" fill="#EA3446"/>
<path id="E - 10" d="M441 252C436.05 252 432 247.95 432 243C432 238.05 436.05 234 441 234C445.95 234 450 238.05 450 243C450 247.95 445.95 252 441 252Z" fill="#EA3446"/>
<path id="E - 11" d="M477 252C472.05 252 468 247.95 468 243C468 238.05 472.05 234 477 234C481.95 234 486 238.05 486 243C486 247.95 481.95 252 477 252Z" fill="#EA3446"/>
<path id="E - 12" d="M513 252C508.05 252 504 247.95 504 243C504 238.05 508.05 234 513 234C517.95 234 522 238.05 522 243C522 247.95 517.95 252 513 252Z" fill="#EA3446"/>
<path id="E - 13" d="M549 252C544.05 252 540 247.95 540 243C540 238.05 544.05 234 549 234C553.95 234 558 238.05 558 243C558 247.95 553.95 252 549 252Z" fill="#EA3446"/>
<path id="E - 14" d="M585 252C580.05 252 576 247.95 576 243C576 238.05 580.05 234 585 234C589.95 234 594 238.05 594 243C594 247.95 589.95 252 585 252Z" fill="#EA3446"/>
<path id="E - 15" d="M621 252C616.05 252 612 247.95 612 243C612 238.05 616.05 234 621 234C625.95 234 630 238.05 630 243C630 247.95 625.95 252 621 252Z" fill="#EA3446"/>
<path id="E - 16" d="M657 252C652.05 252 648 247.95 648 243C648 238.05 652.05 234 657 234C661.95 234 666 238.05 666 243C666 247.95 661.95 252 657 252Z" fill="#EA3446"/>
<path id="E - 17" d="M693 252C688.05 252 684 247.95 684 243C684 238.05 688.05 234 693 234C697.95 234 702 238.05 702 243C702 247.95 697.95 252 693 252Z" fill="#EA3446"/>
<path id="E - 18" d="M729 252C724.05 252 720 247.95 720 243C720 238.05 724.05 234 729 234C733.95 234 738 238.05 738 243C738 247.95 733.95 252 729 252Z" fill="#EA3446"/>
<path id="e_2" d="M762.476 249V237.422H769.735V238.925H764.223V242.453H769.356V243.951H764.223V247.496H769.803V249H762.476Z" fill="white"/>
<path id="d" d="M116.276 285H112.527V273.422H116.394C117.529 273.422 118.503 273.653 119.317 274.117C120.131 274.577 120.755 275.238 121.189 276.101C121.626 276.961 121.844 277.992 121.844 279.194C121.844 280.4 121.624 281.436 121.183 282.303C120.746 283.17 120.112 283.837 119.283 284.305C118.454 284.768 117.452 285 116.276 285ZM114.274 283.474H116.18C117.061 283.474 117.795 283.308 118.379 282.976C118.963 282.641 119.4 282.156 119.69 281.523C119.981 280.886 120.126 280.11 120.126 279.194C120.126 278.286 119.981 277.515 119.69 276.882C119.404 276.248 118.976 275.768 118.407 275.44C117.838 275.112 117.131 274.948 116.287 274.948H114.274V283.474Z" fill="white"/>
<path id="D - 01" d="M153 288C148.05 288 144 283.95 144 279C144 274.05 148.05 270 153 270C157.95 270 162 274.05 162 279C162 283.95 157.95 288 153 288Z" fill="#EA3446"/>
<path id="D - 02" d="M189 288C184.05 288 180 283.95 180 279C180 274.05 184.05 270 189 270C193.95 270 198 274.05 198 279C198 283.95 193.95 288 189 288Z" fill="#EA3446"/>
<path id="D - 03" d="M225 288C220.05 288 216 283.95 216 279C216 274.05 220.05 270 225 270C229.95 270 234 274.05 234 279C234 283.95 229.95 288 225 288Z" fill="#EA3446"/>
<path id="D - 04" d="M261 288C256.05 288 252 283.95 252 279C252 274.05 256.05 270 261 270C265.95 270 270 274.05 270 279C270 283.95 265.95 288 261 288Z" fill="#EA3446"/>
<path id="D - 05" d="M297 288C292.05 288 288 283.95 288 279C288 274.05 292.05 270 297 270C301.95 270 306 274.05 306 279C306 283.95 301.95 288 297 288Z" fill="#EA3446"/>
<path id="D - 06" d="M333 288C328.05 288 324 283.95 324 279C324 274.05 328.05 270 333 270C337.95 270 342 274.05 342 279C342 283.95 337.95 288 333 288Z" fill="#EA3446"/>
<path id="D - 07" d="M369 288C364.05 288 360 283.95 360 279C360 274.05 364.05 270 369 270C373.95 270 378 274.05 378 279C378 283.95 373.95 288 369 288Z" fill="#EA3446"/>
<path id="D - 08" d="M405 288C400.05 288 396 283.95 396 279C396 274.05 400.05 270 405 270C409.95 270 414 274.05 414 279C414 283.95 409.95 288 405 288Z" fill="#EA3446"/>
<path id="D - 09" d="M441 288C436.05 288 432 283.95 432 279C432 274.05 436.05 270 441 270C445.95 270 450 274.05 450 279C450 283.95 445.95 288 441 288Z" fill="#EA3446"/>
<path id="D - 10" d="M477 288C472.05 288 468 283.95 468 279C468 274.05 472.05 270 477 270C481.95 270 486 274.05 486 279C486 283.95 481.95 288 477 288Z" fill="#EA3446"/>
<path id="D - 11" d="M513 288C508.05 288 504 283.95 504 279C504 274.05 508.05 270 513 270C517.95 270 522 274.05 522 279C522 283.95 517.95 288 513 288Z" fill="#EA3446"/>
<path id="D - 12" d="M549 288C544.05 288 540 283.95 540 279C540 274.05 544.05 270 549 270C553.95 270 558 274.05 558 279C558 283.95 553.95 288 549 288Z" fill="#EA3446"/>
<path id="D - 13" d="M585 288C580.05 288 576 283.95 576 279C576 274.05 580.05 270 585 270C589.95 270 594 274.05 594 279C594 283.95 589.95 288 585 288Z" fill="#EA3446"/>
<path id="D - 14" d="M621 288C616.05 288 612 283.95 612 279C612 274.05 616.05 270 621 270C625.95 270 630 274.05 630 279C630 283.95 625.95 288 621 288Z" fill="#EA3446"/>
<path id="D - 15" d="M657 288C652.05 288 648 283.95 648 279C648 274.05 652.05 270 657 270C661.95 270 666 274.05 666 279C666 283.95 661.95 288 657 288Z" fill="#EA3446"/>
<path id="D - 16" d="M693 288C688.05 288 684 283.95 684 279C684 274.05 688.05 270 693 270C697.95 270 702 274.05 702 279C702 283.95 697.95 288 693 288Z" fill="#EA3446"/>
<path id="D - 17" d="M729 288C724.05 288 720 283.95 720 279C720 274.05 724.05 270 729 270C733.95 270 738 274.05 738 279C738 283.95 733.95 288 729 288Z" fill="#EA3446"/>
<path id="d_2" d="M765.276 285H761.527V273.422H765.394C766.529 273.422 767.503 273.653 768.317 274.117C769.131 274.577 769.755 275.238 770.189 276.101C770.626 276.961 770.844 277.992 770.844 279.194C770.844 280.4 770.624 281.436 770.183 282.303C769.746 283.17 769.112 283.837 768.283 284.305C767.454 284.768 766.452 285 765.276 285ZM763.274 283.474H765.18C766.061 283.474 766.795 283.308 767.379 282.976C767.963 282.641 768.4 282.156 768.69 281.523C768.981 280.886 769.126 280.11 769.126 279.194C769.126 278.286 768.981 277.515 768.69 276.882C768.404 276.248 767.976 275.768 767.407 275.44C766.838 275.112 766.131 274.948 765.287 274.948H763.274V283.474Z" fill="white"/>
<path id="c" d="M122.035 313.187H120.271C120.203 312.81 120.077 312.478 119.892 312.192C119.708 311.905 119.482 311.662 119.214 311.463C118.946 311.263 118.647 311.112 118.315 311.01C117.987 310.909 117.639 310.858 117.269 310.858C116.602 310.858 116.005 311.025 115.477 311.361C114.953 311.696 114.539 312.188 114.233 312.836C113.932 313.485 113.781 314.276 113.781 315.211C113.781 316.153 113.932 316.948 114.233 317.597C114.539 318.245 114.955 318.735 115.483 319.067C116.01 319.398 116.604 319.564 117.264 319.564C117.629 319.564 117.976 319.515 118.304 319.417C118.636 319.315 118.935 319.166 119.203 318.97C119.47 318.774 119.696 318.535 119.881 318.252C120.07 317.966 120.2 317.638 120.271 317.269L122.035 317.274C121.941 317.843 121.758 318.367 121.487 318.846C121.219 319.321 120.874 319.732 120.452 320.078C120.034 320.421 119.555 320.687 119.016 320.876C118.477 321.064 117.889 321.158 117.252 321.158C116.25 321.158 115.356 320.921 114.573 320.446C113.789 319.967 113.17 319.283 112.718 318.394C112.27 317.504 112.045 316.443 112.045 315.211C112.045 313.975 112.272 312.914 112.724 312.028C113.176 311.138 113.794 310.456 114.578 309.981C115.362 309.503 116.254 309.263 117.252 309.263C117.867 309.263 118.44 309.352 118.971 309.529C119.506 309.702 119.987 309.959 120.413 310.298C120.838 310.633 121.191 311.044 121.47 311.53C121.749 312.013 121.937 312.565 122.035 313.187Z" fill="white"/>
<path id="C - 01" d="M153 324C148.05 324 144 319.95 144 315C144 310.05 148.05 306 153 306C157.95 306 162 310.05 162 315C162 319.95 157.95 324 153 324Z" fill="#EA3446"/>
<path id="C - 02" d="M189 324C184.05 324 180 319.95 180 315C180 310.05 184.05 306 189 306C193.95 306 198 310.05 198 315C198 319.95 193.95 324 189 324Z" fill="#EA3446"/>
<path id="C - 03" d="M225 324C220.05 324 216 319.95 216 315C216 310.05 220.05 306 225 306C229.95 306 234 310.05 234 315C234 319.95 229.95 324 225 324Z" fill="#EA3446"/>
<path id="C - 04" d="M261 324C256.05 324 252 319.95 252 315C252 310.05 256.05 306 261 306C265.95 306 270 310.05 270 315C270 319.95 265.95 324 261 324Z" fill="#EA3446"/>
<path id="C - 05" d="M297 324C292.05 324 288 319.95 288 315C288 310.05 292.05 306 297 306C301.95 306 306 310.05 306 315C306 319.95 301.95 324 297 324Z" fill="#EA3446"/>
<path id="C - 06" d="M333 324C328.05 324 324 319.95 324 315C324 310.05 328.05 306 333 306C337.95 306 342 310.05 342 315C342 319.95 337.95 324 333 324Z" fill="#EA3446"/>
<path id="C - 07" d="M369 324C364.05 324 360 319.95 360 315C360 310.05 364.05 306 369 306C373.95 306 378 310.05 378 315C378 319.95 373.95 324 369 324Z" fill="#EA3446"/>
<path id="b" d="M150.064 357V345.422H154.304C155.126 345.422 155.806 345.557 156.345 345.829C156.884 346.096 157.287 346.46 157.555 346.92C157.822 347.376 157.956 347.89 157.956 348.463C157.956 348.946 157.867 349.353 157.69 349.684C157.513 350.012 157.276 350.276 156.978 350.476C156.684 350.672 156.36 350.815 156.006 350.906V351.019C156.39 351.037 156.765 351.162 157.131 351.392C157.5 351.618 157.805 351.94 158.046 352.358C158.288 352.777 158.408 353.286 158.408 353.885C158.408 354.477 158.269 355.008 157.99 355.479C157.715 355.947 157.289 356.318 156.712 356.593C156.136 356.864 155.399 357 154.502 357H150.064ZM151.811 355.502H154.332C155.169 355.502 155.768 355.34 156.13 355.016C156.492 354.691 156.673 354.286 156.673 353.8C156.673 353.435 156.58 353.099 156.396 352.794C156.211 352.489 155.947 352.245 155.604 352.065C155.265 351.884 154.862 351.793 154.394 351.793H151.811V355.502ZM151.811 350.431H154.151C154.543 350.431 154.896 350.355 155.208 350.205C155.525 350.054 155.776 349.843 155.96 349.571C156.149 349.296 156.243 348.972 156.243 348.599C156.243 348.12 156.075 347.719 155.74 347.395C155.404 347.071 154.89 346.909 154.196 346.909H151.811V350.431Z" fill="white"/>
<path id="B - 01" d="M190 360C185.05 360 181 355.95 181 351C181 346.05 185.05 342 190 342C194.95 342 199 346.05 199 351C199 355.95 194.95 360 190 360Z" fill="#EA3446"/>
<path id="B - 02" d="M226 360C221.05 360 217 355.95 217 351C217 346.05 221.05 342 226 342C230.95 342 235 346.05 235 351C235 355.95 230.95 360 226 360Z" fill="#EA3446"/>
<path id="B - 03" d="M262 360C257.05 360 253 355.95 253 351C253 346.05 257.05 342 262 342C266.95 342 271 346.05 271 351C271 355.95 266.95 360 262 360Z" fill="#EA3446"/>
<path id="B - 04" d="M298 360C293.05 360 289 355.95 289 351C289 346.05 293.05 342 298 342C302.95 342 307 346.05 307 351C307 355.95 302.95 360 298 360Z" fill="#EA3446"/>
<path id="B - 05" d="M334 360C329.05 360 325 355.95 325 351C325 346.05 329.05 342 334 342C338.95 342 343 346.05 343 351C343 355.95 338.95 360 334 360Z" fill="#EA3446"/>
<path id="B - 06" d="M370 360C365.05 360 361 355.95 361 351C361 346.05 365.05 342 370 342C374.95 342 379 346.05 379 351C379 355.95 374.95 360 370 360Z" fill="#EA3446"/>
<path id="B - 07" d="M406 360C401.05 360 397 355.95 397 351C397 346.05 401.05 342 406 342C410.95 342 415 346.05 415 351C415 355.95 410.95 360 406 360Z" fill="#EA3446"/>
<path id="B - 8" d="M442 360C437.05 360 433 355.95 433 351C433 346.05 437.05 342 442 342C446.95 342 451 346.05 451 351C451 355.95 446.95 360 442 360Z" fill="#EA3446"/>
<path id="B - 9" d="M478 360C473.05 360 469 355.95 469 351C469 346.05 473.05 342 478 342C482.95 342 487 346.05 487 351C487 355.95 482.95 360 478 360Z" fill="#EA3446"/>
<path id="B - 10" d="M514 360C509.05 360 505 355.95 505 351C505 346.05 509.05 342 514 342C518.95 342 523 346.05 523 351C523 355.95 518.95 360 514 360Z" fill="#EA3446"/>
<path id="B - 11" d="M550 360C545.05 360 541 355.95 541 351C541 346.05 545.05 342 550 342C554.95 342 559 346.05 559 351C559 355.95 554.95 360 550 360Z" fill="#EA3446"/>
<path id="B - 12" d="M586 360C581.05 360 577 355.95 577 351C577 346.05 581.05 342 586 342C590.95 342 595 346.05 595 351C595 355.95 590.95 360 586 360Z" fill="#EA3446"/>
<path id="B - 13" d="M622 360C617.05 360 613 355.95 613 351C613 346.05 617.05 342 622 342C626.95 342 631 346.05 631 351C631 355.95 626.95 360 622 360Z" fill="#EA3446"/>
<path id="B - 14" d="M658 360C653.05 360 649 355.95 649 351C649 346.05 653.05 342 658 342C662.95 342 667 346.05 667 351C667 355.95 662.95 360 658 360Z" fill="#EA3446"/>
<path id="B - 15" d="M694 360C689.05 360 685 355.95 685 351C685 346.05 689.05 342 694 342C698.95 342 703 346.05 703 351C703 355.95 698.95 360 694 360Z" fill="#EA3446"/>
<path id="B - 16" d="M730 360C725.05 360 721 355.95 721 351C721 346.05 725.05 342 730 342C734.95 342 739 346.05 739 351C739 355.95 734.95 360 730 360Z" fill="#EA3446"/>
<path id="b_2" d="M762.064 357V345.422H766.304C767.126 345.422 767.806 345.557 768.345 345.829C768.884 346.096 769.287 346.46 769.555 346.92C769.822 347.376 769.956 347.89 769.956 348.463C769.956 348.946 769.867 349.353 769.69 349.684C769.513 350.012 769.276 350.276 768.978 350.476C768.684 350.672 768.36 350.815 768.006 350.906V351.019C768.39 351.037 768.765 351.162 769.131 351.392C769.5 351.618 769.805 351.94 770.046 352.358C770.288 352.777 770.408 353.286 770.408 353.885C770.408 354.477 770.269 355.008 769.99 355.479C769.715 355.947 769.289 356.318 768.712 356.593C768.136 356.864 767.399 357 766.502 357H762.064ZM763.811 355.502H766.332C767.169 355.502 767.768 355.34 768.13 355.016C768.492 354.691 768.673 354.286 768.673 353.8C768.673 353.435 768.58 353.099 768.396 352.794C768.211 352.489 767.947 352.245 767.604 352.065C767.265 351.884 766.862 351.793 766.394 351.793H763.811V355.502ZM763.811 350.431H766.151C766.543 350.431 766.896 350.355 767.208 350.205C767.525 350.054 767.776 349.843 767.96 349.571C768.149 349.296 768.243 348.972 768.243 348.599C768.243 348.12 768.075 347.719 767.74 347.395C767.404 347.071 766.89 346.909 766.196 346.909H763.811V350.431Z" fill="white"/>
<path id="a" d="M150.676 393H148.822L152.989 381.422H155.007L159.174 393H157.319L154.046 383.525H153.955L150.676 393ZM150.987 388.466H157.003V389.936H150.987V388.466Z" fill="white"/>
<path id="A - 01" d="M190 396C185.05 396 181 391.95 181 387C181 382.05 185.05 378 190 378C194.95 378 199 382.05 199 387C199 391.95 194.95 396 190 396Z" fill="#EA3446"/>
<path id="A - 02" d="M226 396C221.05 396 217 391.95 217 387C217 382.05 221.05 378 226 378C230.95 378 235 382.05 235 387C235 391.95 230.95 396 226 396Z" fill="#EA3446"/>
<path id="A - 03" d="M262 396C257.05 396 253 391.95 253 387C253 382.05 257.05 378 262 378C266.95 378 271 382.05 271 387C271 391.95 266.95 396 262 396Z" fill="#EA3446"/>
<path id="A - 04" d="M298 396C293.05 396 289 391.95 289 387C289 382.05 293.05 378 298 378C302.95 378 307 382.05 307 387C307 391.95 302.95 396 298 396Z" fill="#EA3446"/>
<path id="A - 05" d="M334 396C329.05 396 325 391.95 325 387C325 382.05 329.05 378 334 378C338.95 378 343 382.05 343 387C343 391.95 338.95 396 334 396Z" fill="#EA3446"/>
<path id="A - 06" d="M370 396C365.05 396 361 391.95 361 387C361 382.05 365.05 378 370 378C374.95 378 379 382.05 379 387C379 391.95 374.95 396 370 396Z" fill="#EA3446"/>
<path id="A - 07" d="M406 396C401.05 396 397 391.95 397 387C397 382.05 401.05 378 406 378C410.95 378 415 382.05 415 387C415 391.95 410.95 396 406 396Z" fill="#EA3446"/>
<path id="A - 8" d="M442 396C437.05 396 433 391.95 433 387C433 382.05 437.05 378 442 378C446.95 378 451 382.05 451 387C451 391.95 446.95 396 442 396Z" fill="#EA3446"/>
<path id="A - 9" d="M478 396C473.05 396 469 391.95 469 387C469 382.05 473.05 378 478 378C482.95 378 487 382.05 487 387C487 391.95 482.95 396 478 396Z" fill="#EA3446"/>
<path id="A - 10" d="M514 396C509.05 396 505 391.95 505 387C505 382.05 509.05 378 514 378C518.95 378 523 382.05 523 387C523 391.95 518.95 396 514 396Z" fill="#EA3446"/>
<path id="A - 11" d="M550 396C545.05 396 541 391.95 541 387C541 382.05 545.05 378 550 378C554.95 378 559 382.05 559 387C559 391.95 554.95 396 550 396Z" fill="#EA3446"/>
<path id="A - 12" d="M586 396C581.05 396 577 391.95 577 387C577 382.05 581.05 378 586 378C590.95 378 595 382.05 595 387C595 391.95 590.95 396 586 396Z" fill="#EA3446"/>
<path id="A - 13" d="M622 396C617.05 396 613 391.95 613 387C613 382.05 617.05 378 622 378C626.95 378 631 382.05 631 387C631 391.95 626.95 396 622 396Z" fill="#EA3446"/>
<path id="A - 14" d="M658 396C653.05 396 649 391.95 649 387C649 382.05 653.05 378 658 378C662.95 378 667 382.05 667 387C667 391.95 662.95 396 658 396Z" fill="#EA3446"/>
<path id="A - 15" d="M694 396C689.05 396 685 391.95 685 387C685 382.05 689.05 378 694 378C698.95 378 703 382.05 703 387C703 391.95 698.95 396 694 396Z" fill="#EA3446"/>
<path id="A - 16" d="M730 396C725.05 396 721 391.95 721 387C721 382.05 725.05 378 730 378C734.95 378 739 382.05 739 387C739 391.95 734.95 396 730 396Z" fill="#EA3446"/>
<path id="a_2" d="M762.676 393H760.822L764.989 381.422H767.007L771.174 393H769.319L766.046 383.525H765.955L762.676 393ZM762.987 388.466H769.003V389.936H762.987V388.466Z" fill="white"/>
<path id="C - 08" d="M405 324C400.05 324 396 319.95 396 315C396 310.05 400.05 306 405 306C409.95 306 414 310.05 414 315C414 319.95 409.95 324 405 324Z" fill="#EA3446"/>
<path id="C - 09" d="M441 324C436.05 324 432 319.95 432 315C432 310.05 436.05 306 441 306C445.95 306 450 310.05 450 315C450 319.95 445.95 324 441 324Z" fill="#EA3446"/>
<path id="C - 10" d="M477 324C472.05 324 468 319.95 468 315C468 310.05 472.05 306 477 306C481.95 306 486 310.05 486 315C486 319.95 481.95 324 477 324Z" fill="#EA3446"/>
<path id="C - 11" d="M513 324C508.05 324 504 319.95 504 315C504 310.05 508.05 306 513 306C517.95 306 522 310.05 522 315C522 319.95 517.95 324 513 324Z" fill="#EA3446"/>
<path id="C - 12" d="M549 324C544.05 324 540 319.95 540 315C540 310.05 544.05 306 549 306C553.95 306 558 310.05 558 315C558 319.95 553.95 324 549 324Z" fill="#EA3446"/>
<path id="C - 13" d="M585 324C580.05 324 576 319.95 576 315C576 310.05 580.05 306 585 306C589.95 306 594 310.05 594 315C594 319.95 589.95 324 585 324Z" fill="#EA3446"/>
<path id="C - 14" d="M621 324C616.05 324 612 319.95 612 315C612 310.05 616.05 306 621 306C625.95 306 630 310.05 630 315C630 319.95 625.95 324 621 324Z" fill="#EA3446"/>
<path id="C - 15" d="M657 324C652.05 324 648 319.95 648 315C648 310.05 652.05 306 657 306C661.95 306 666 310.05 666 315C666 319.95 661.95 324 657 324Z" fill="#EA3446"/>
<path id="C - 16" d="M693 324C688.05 324 684 319.95 684 315C684 310.05 688.05 306 693 306C697.95 306 702 310.05 702 315C702 319.95 697.95 324 693 324Z" fill="#EA3446"/>
<path id="C - 17" d="M729 324C724.05 324 720 319.95 720 315C720 310.05 724.05 306 729 306C733.95 306 738 310.05 738 315C738 319.95 733.95 324 729 324Z" fill="#EA3446"/>
<path id="c_2" d="M771.035 313.187H769.271C769.203 312.81 769.077 312.478 768.892 312.192C768.708 311.905 768.482 311.662 768.214 311.463C767.946 311.263 767.647 311.112 767.315 311.01C766.987 310.909 766.639 310.858 766.269 310.858C765.602 310.858 765.005 311.025 764.477 311.361C763.953 311.696 763.539 312.188 763.233 312.836C762.932 313.485 762.781 314.276 762.781 315.211C762.781 316.153 762.932 316.948 763.233 317.597C763.539 318.245 763.955 318.735 764.483 319.067C765.01 319.398 765.604 319.564 766.264 319.564C766.629 319.564 766.976 319.515 767.304 319.417C767.636 319.315 767.935 319.166 768.203 318.97C768.47 318.774 768.696 318.535 768.881 318.252C769.07 317.966 769.2 317.638 769.271 317.269L771.035 317.274C770.941 317.843 770.758 318.367 770.487 318.846C770.219 319.321 769.874 319.732 769.452 320.078C769.034 320.421 768.555 320.687 768.016 320.876C767.477 321.064 766.889 321.158 766.252 321.158C765.25 321.158 764.356 320.921 763.573 320.446C762.789 319.967 762.17 319.283 761.718 318.394C761.27 317.504 761.045 316.443 761.045 315.211C761.045 313.975 761.272 312.914 761.724 312.028C762.176 311.138 762.794 310.456 763.578 309.981C764.362 309.503 765.254 309.263 766.252 309.263C766.867 309.263 767.44 309.352 767.971 309.529C768.506 309.702 768.987 309.959 769.413 310.298C769.838 310.633 770.191 311.044 770.47 311.53C770.749 312.013 770.937 312.565 771.035 313.187Z" fill="white"/>
<g id="NS - 01">
<circle id="Ellipse 1" cx="122" cy="18" r="18" fill="#EA3446"/>
<path id="Vector" d="M126.28 20.8875C126.28 23.9475 123.791 26.4352 120.731 26.4352C117.671 26.4352 115.183 23.9475 115.183 20.8875C115.183 20.0088 115.392 19.1427 115.793 18.3606C116.194 17.5786 116.774 16.9031 117.488 16.3897L117.3 14.7322C115.143 15.9397 113.681 18.2453 113.681 20.8875C113.681 24.7755 116.843 27.9375 120.731 27.9375C124.028 27.9375 126.801 25.665 127.569 22.605L126.278 20.7975L126.28 20.8875ZM119.826 10.9005C120.302 10.9005 120.758 10.7115 121.095 10.375C121.431 10.0386 121.62 9.5823 121.62 9.1065C121.62 8.6307 121.431 8.17439 121.095 7.83795C120.758 7.50151 120.302 7.3125 119.826 7.3125C119.35 7.3125 118.894 7.50151 118.558 7.83795C118.221 8.17439 118.032 8.6307 118.032 9.1065C118.032 9.5823 118.221 10.0386 118.558 10.375C118.894 10.7115 119.35 10.9005 119.826 10.9005ZM131.391 23.0078L127.366 17.379C127.156 17.0842 126.805 16.944 126.447 16.9755C126.421 16.973 126.395 16.9715 126.368 16.971H121.768L121.654 15.9698H125.072C125.257 15.9613 125.431 15.8818 125.559 15.7479C125.687 15.6139 125.759 15.4358 125.759 15.2505C125.759 15.0652 125.687 14.8871 125.559 14.7531C125.431 14.6192 125.257 14.5397 125.072 14.5312H121.49L121.302 12.8872C121.276 12.6587 121.205 12.4375 121.094 12.2363C120.983 12.0351 120.833 11.8578 120.653 11.7145C120.473 11.5712 120.266 11.4648 120.045 11.4014C119.824 11.3379 119.593 11.3185 119.364 11.3445C119.136 11.3705 118.914 11.4412 118.713 11.5526C118.512 11.664 118.335 11.814 118.191 11.994C118.048 12.1739 117.942 12.3804 117.878 12.6014C117.815 12.8225 117.795 13.054 117.821 13.2825L118.35 17.925C118.398 18.3539 118.603 18.7498 118.926 19.0364C119.249 19.3231 119.666 19.4802 120.098 19.4775L120.107 19.479H126.125L129.577 24.306C129.905 24.7673 130.58 24.8513 131.081 24.492C131.581 24.1335 131.72 23.469 131.39 23.007L131.391 23.0078Z" fill="white"/>
</g>
<g id="NS - 02">
<circle id="Ellipse 1_2" cx="258" cy="18" r="18" fill="#EA3446"/>
<path id="Vector_2" d="M262.28 20.8875C262.28 23.9475 259.791 26.4352 256.731 26.4352C253.671 26.4352 251.183 23.9475 251.183 20.8875C251.183 20.0088 251.392 19.1427 251.793 18.3606C252.194 17.5786 252.774 16.9031 253.488 16.3897L253.3 14.7322C251.143 15.9397 249.681 18.2453 249.681 20.8875C249.681 24.7755 252.843 27.9375 256.731 27.9375C260.028 27.9375 262.801 25.665 263.569 22.605L262.278 20.7975L262.28 20.8875ZM255.826 10.9005C256.302 10.9005 256.758 10.7115 257.095 10.375C257.431 10.0386 257.62 9.5823 257.62 9.1065C257.62 8.6307 257.431 8.17439 257.095 7.83795C256.758 7.50151 256.302 7.3125 255.826 7.3125C255.35 7.3125 254.894 7.50151 254.558 7.83795C254.221 8.17439 254.032 8.6307 254.032 9.1065C254.032 9.5823 254.221 10.0386 254.558 10.375C254.894 10.7115 255.35 10.9005 255.826 10.9005ZM267.391 23.0078L263.366 17.379C263.156 17.0842 262.805 16.944 262.447 16.9755C262.421 16.973 262.395 16.9715 262.368 16.971H257.768L257.654 15.9698H261.072C261.257 15.9613 261.431 15.8818 261.559 15.7479C261.687 15.6139 261.759 15.4358 261.759 15.2505C261.759 15.0652 261.687 14.8871 261.559 14.7531C261.431 14.6192 261.257 14.5397 261.072 14.5312H257.49L257.302 12.8872C257.276 12.6587 257.205 12.4375 257.094 12.2363C256.983 12.0351 256.833 11.8578 256.653 11.7145C256.473 11.5712 256.266 11.4648 256.045 11.4014C255.824 11.3379 255.593 11.3185 255.364 11.3445C255.136 11.3705 254.914 11.4412 254.713 11.5526C254.512 11.664 254.335 11.814 254.191 11.994C254.048 12.1739 253.942 12.3804 253.878 12.6014C253.815 12.8225 253.795 13.054 253.821 13.2825L254.35 17.925C254.398 18.3539 254.603 18.7498 254.926 19.0364C255.249 19.3231 255.666 19.4802 256.098 19.4775L256.107 19.479H262.125L265.577 24.306C265.905 24.7673 266.58 24.8513 267.081 24.492C267.581 24.1335 267.72 23.469 267.39 23.007L267.391 23.0078Z" fill="white"/>
</g>
<g id="NS - 03">
<circle id="Ellipse 1_3" cx="394" cy="18" r="18" fill="#EA3446"/>
<path id="Vector_3" d="M398.28 20.8875C398.28 23.9475 395.791 26.4352 392.731 26.4352C389.671 26.4352 387.183 23.9475 387.183 20.8875C387.183 20.0088 387.392 19.1427 387.793 18.3606C388.194 17.5786 388.774 16.9031 389.488 16.3897L389.3 14.7322C387.143 15.9397 385.681 18.2453 385.681 20.8875C385.681 24.7755 388.843 27.9375 392.731 27.9375C396.028 27.9375 398.801 25.665 399.569 22.605L398.278 20.7975L398.28 20.8875ZM391.826 10.9005C392.302 10.9005 392.758 10.7115 393.095 10.375C393.431 10.0386 393.62 9.5823 393.62 9.1065C393.62 8.6307 393.431 8.17439 393.095 7.83795C392.758 7.50151 392.302 7.3125 391.826 7.3125C391.35 7.3125 390.894 7.50151 390.558 7.83795C390.221 8.17439 390.032 8.6307 390.032 9.1065C390.032 9.5823 390.221 10.0386 390.558 10.375C390.894 10.7115 391.35 10.9005 391.826 10.9005ZM403.391 23.0078L399.366 17.379C399.156 17.0842 398.805 16.944 398.447 16.9755C398.421 16.973 398.395 16.9715 398.368 16.971H393.768L393.654 15.9698H397.072C397.257 15.9613 397.431 15.8818 397.559 15.7479C397.687 15.6139 397.759 15.4358 397.759 15.2505C397.759 15.0652 397.687 14.8871 397.559 14.7531C397.431 14.6192 397.257 14.5397 397.072 14.5312H393.49L393.302 12.8872C393.276 12.6587 393.205 12.4375 393.094 12.2363C392.983 12.0351 392.833 11.8578 392.653 11.7145C392.473 11.5712 392.266 11.4648 392.045 11.4014C391.824 11.3379 391.593 11.3185 391.364 11.3445C391.136 11.3705 390.914 11.4412 390.713 11.5526C390.512 11.664 390.335 11.814 390.191 11.994C390.048 12.1739 389.942 12.3804 389.878 12.6014C389.815 12.8225 389.795 13.054 389.821 13.2825L390.35 17.925C390.398 18.3539 390.603 18.7498 390.926 19.0364C391.249 19.3231 391.666 19.4802 392.098 19.4775L392.107 19.479H398.125L401.577 24.306C401.905 24.7673 402.58 24.8513 403.081 24.492C403.581 24.1335 403.72 23.469 403.39 23.007L403.391 23.0078Z" fill="white"/>
</g>
<g id="NS - 04">
<circle id="Ellipse 1_4" cx="530" cy="18" r="18" fill="#EA3446"/>
<path id="Vector_4" d="M534.28 20.8875C534.28 23.9475 531.791 26.4352 528.731 26.4352C525.671 26.4352 523.183 23.9475 523.183 20.8875C523.183 20.0088 523.392 19.1427 523.793 18.3606C524.194 17.5786 524.774 16.9031 525.488 16.3897L525.3 14.7322C523.143 15.9397 521.681 18.2453 521.681 20.8875C521.681 24.7755 524.843 27.9375 528.731 27.9375C532.028 27.9375 534.801 25.665 535.569 22.605L534.278 20.7975L534.28 20.8875ZM527.826 10.9005C528.302 10.9005 528.758 10.7115 529.095 10.375C529.431 10.0386 529.62 9.5823 529.62 9.1065C529.62 8.6307 529.431 8.17439 529.095 7.83795C528.758 7.50151 528.302 7.3125 527.826 7.3125C527.35 7.3125 526.894 7.50151 526.558 7.83795C526.221 8.17439 526.032 8.6307 526.032 9.1065C526.032 9.5823 526.221 10.0386 526.558 10.375C526.894 10.7115 527.35 10.9005 527.826 10.9005ZM539.391 23.0078L535.366 17.379C535.156 17.0842 534.805 16.944 534.447 16.9755C534.421 16.973 534.395 16.9715 534.368 16.971H529.768L529.654 15.9698H533.072C533.257 15.9613 533.431 15.8818 533.559 15.7479C533.687 15.6139 533.759 15.4358 533.759 15.2505C533.759 15.0652 533.687 14.8871 533.559 14.7531C533.431 14.6192 533.257 14.5397 533.072 14.5312H529.49L529.302 12.8872C529.276 12.6587 529.205 12.4375 529.094 12.2363C528.983 12.0351 528.833 11.8578 528.653 11.7145C528.473 11.5712 528.266 11.4648 528.045 11.4014C527.824 11.3379 527.593 11.3185 527.364 11.3445C527.136 11.3705 526.914 11.4412 526.713 11.5526C526.512 11.664 526.335 11.814 526.191 11.994C526.048 12.1739 525.942 12.3804 525.878 12.6014C525.815 12.8225 525.795 13.054 525.821 13.2825L526.35 17.925C526.398 18.3539 526.603 18.7498 526.926 19.0364C527.249 19.3231 527.666 19.4802 528.098 19.4775L528.107 19.479H534.125L537.577 24.306C537.905 24.7673 538.58 24.8513 539.081 24.492C539.581 24.1335 539.72 23.469 539.39 23.007L539.391 23.0078Z" fill="white"/>
</g>
<g id="NS - 05">
<circle id="Ellipse 1_5" cx="657" cy="18" r="18" fill="#EA3446"/>
<path id="Vector_5" d="M661.28 20.8875C661.28 23.9475 658.791 26.4352 655.731 26.4352C652.671 26.4352 650.183 23.9475 650.183 20.8875C650.183 20.0088 650.392 19.1427 650.793 18.3606C651.194 17.5786 651.774 16.9031 652.488 16.3897L652.3 14.7322C650.143 15.9397 648.681 18.2453 648.681 20.8875C648.681 24.7755 651.843 27.9375 655.731 27.9375C659.028 27.9375 661.801 25.665 662.569 22.605L661.278 20.7975L661.28 20.8875ZM654.826 10.9005C655.302 10.9005 655.758 10.7115 656.095 10.375C656.431 10.0386 656.62 9.5823 656.62 9.1065C656.62 8.6307 656.431 8.17439 656.095 7.83795C655.758 7.50151 655.302 7.3125 654.826 7.3125C654.35 7.3125 653.894 7.50151 653.558 7.83795C653.221 8.17439 653.032 8.6307 653.032 9.1065C653.032 9.5823 653.221 10.0386 653.558 10.375C653.894 10.7115 654.35 10.9005 654.826 10.9005ZM666.391 23.0078L662.366 17.379C662.156 17.0842 661.805 16.944 661.447 16.9755C661.421 16.973 661.395 16.9715 661.368 16.971H656.768L656.654 15.9698H660.072C660.257 15.9613 660.431 15.8818 660.559 15.7479C660.687 15.6139 660.759 15.4358 660.759 15.2505C660.759 15.0652 660.687 14.8871 660.559 14.7531C660.431 14.6192 660.257 14.5397 660.072 14.5312H656.49L656.302 12.8872C656.276 12.6587 656.205 12.4375 656.094 12.2363C655.983 12.0351 655.833 11.8578 655.653 11.7145C655.473 11.5712 655.266 11.4648 655.045 11.4014C654.824 11.3379 654.593 11.3185 654.364 11.3445C654.136 11.3705 653.914 11.4412 653.713 11.5526C653.512 11.664 653.335 11.814 653.191 11.994C653.048 12.1739 652.942 12.3804 652.878 12.6014C652.815 12.8225 652.795 13.054 652.821 13.2825L653.35 17.925C653.398 18.3539 653.603 18.7498 653.926 19.0364C654.249 19.3231 654.666 19.4802 655.098 19.4775L655.107 19.479H661.125L664.577 24.306C664.905 24.7673 665.58 24.8513 666.081 24.492C666.581 24.1335 666.72 23.469 666.39 23.007L666.391 23.0078Z" fill="white"/>
</g>
</g>
</svg>
