<svg width="774" height="396" viewBox="0 0 774 396" fill="none" xmlns="http://www.w3.org/2000/svg">
<g id="209">
<path id="k" d="M4.98603 24V12.4217H6.73295V17.9508H6.87429L11.7306 12.4217H13.9298L9.26006 17.6342L13.9468 24H11.8437L8.1011 18.8271L6.73295 20.3987V24H4.98603Z" fill="white"/>
<path id="J - 01" d="M45 72C40.05 72 36 67.95 36 63C36 58.05 40.05 54 45 54C49.95 54 54 58.05 54 63C54 67.95 49.95 72 45 72Z" fill="#E7CB15"/>
<path id="J - 02" d="M81 72C76.05 72 72 67.95 72 63C72 58.05 76.05 54 81 54C85.95 54 90 58.05 90 63C90 67.95 85.95 72 81 72Z" fill="#E7CB15"/>
<path id="J - 03" d="M117 72C112.05 72 108 67.95 108 63C108 58.05 112.05 54 117 54C121.95 54 126 58.05 126 63C126 67.95 121.95 72 117 72Z" fill="#E7CB15"/>
<path id="J - 04" d="M153 72C148.05 72 144 67.95 144 63C144 58.05 148.05 54 153 54C157.95 54 162 58.05 162 63C162 67.95 157.95 72 153 72Z" fill="#E7CB15"/>
<path id="J - 05" d="M189 72C184.05 72 180 67.95 180 63C180 58.05 184.05 54 189 54C193.95 54 198 58.05 198 63C198 67.95 193.95 72 189 72Z" fill="#E7CB15"/>
<path id="J - 06" d="M225 72C220.05 72 216 67.95 216 63C216 58.05 220.05 54 225 54C229.95 54 234 58.05 234 63C234 67.95 229.95 72 225 72Z" fill="#E7CB15"/>
<path id="J - 07" d="M261 72C256.05 72 252 67.95 252 63C252 58.05 256.05 54 261 54C265.95 54 270 58.05 270 63C270 67.95 265.95 72 261 72Z" fill="#E7CB15"/>
<path id="J - 08" d="M297 72C292.05 72 288 67.95 288 63C288 58.05 292.05 54 297 54C301.95 54 306 58.05 306 63C306 67.95 301.95 72 297 72Z" fill="#E7CB15"/>
<path id="J - 09" d="M333 72C328.05 72 324 67.95 324 63C324 58.05 328.05 54 333 54C337.95 54 342 58.05 342 63C342 67.95 337.95 72 333 72Z" fill="#E7CB15"/>
<path id="J - 10" d="M369 72C364.05 72 360 67.95 360 63C360 58.05 364.05 54 369 54C373.95 54 378 58.05 378 63C378 67.95 373.95 72 369 72Z" fill="#E7CB15"/>
<path id="J - 11" d="M405 72C400.05 72 396 67.95 396 63C396 58.05 400.05 54 405 54C409.95 54 414 58.05 414 63C414 67.95 409.95 72 405 72Z" fill="#E7CB15"/>
<path id="J - 12" d="M441 72C436.05 72 432 67.95 432 63C432 58.05 436.05 54 441 54C445.95 54 450 58.05 450 63C450 67.95 445.95 72 441 72Z" fill="#E7CB15"/>
<path id="J - 13" d="M477 72C472.05 72 468 67.95 468 63C468 58.05 472.05 54 477 54C481.95 54 486 58.05 486 63C486 67.95 481.95 72 477 72Z" fill="#E7CB15"/>
<path id="J - 14" d="M513 72C508.05 72 504 67.95 504 63C504 58.05 508.05 54 513 54C517.95 54 522 58.05 522 63C522 67.95 517.95 72 513 72Z" fill="#E7CB15"/>
<path id="J - 15" d="M549 72C544.05 72 540 67.95 540 63C540 58.05 544.05 54 549 54C553.95 54 558 58.05 558 63C558 67.95 553.95 72 549 72Z" fill="#E7CB15"/>
<path id="J - 16" d="M585 72C580.05 72 576 67.95 576 63C576 58.05 580.05 54 585 54C589.95 54 594 58.05 594 63C594 67.95 589.95 72 585 72Z" fill="#E7CB15"/>
<path id="J - 17" d="M621 72C616.05 72 612 67.95 612 63C612 58.05 616.05 54 621 54C625.95 54 630 58.05 630 63C630 67.95 625.95 72 621 72Z" fill="#E7CB15"/>
<path id="J - 18" d="M657 72C652.05 72 648 67.95 648 63C648 58.05 652.05 54 657 54C661.95 54 666 58.05 666 63C666 67.95 661.95 72 657 72Z" fill="#E7CB15"/>
<path id="J - 19" d="M693 72C688.05 72 684 67.95 684 63C684 58.05 688.05 54 693 54C697.95 54 702 58.05 702 63C702 67.95 697.95 72 693 72Z" fill="#E7CB15"/>
<path id="J - 20" d="M729 72C724.05 72 720 67.95 720 63C720 58.05 724.05 54 729 54C733.95 54 738 58.05 738 63C738 67.95 733.95 72 729 72Z" fill="#E7CB15"/>
<path id="I - 01" d="M45 108C40.05 108 36 103.95 36 99C36 94.05 40.05 90 45 90C49.95 90 54 94.05 54 99C54 103.95 49.95 108 45 108Z" fill="#E7CB15"/>
<path id="I - 02" d="M81 108C76.05 108 72 103.95 72 99C72 94.05 76.05 90 81 90C85.95 90 90 94.05 90 99C90 103.95 85.95 108 81 108Z" fill="#E7CB15"/>
<path id="I - 03" d="M117 108C112.05 108 108 103.95 108 99C108 94.05 112.05 90 117 90C121.95 90 126 94.05 126 99C126 103.95 121.95 108 117 108Z" fill="#E7CB15"/>
<path id="I - 04" d="M153 108C148.05 108 144 103.95 144 99C144 94.05 148.05 90 153 90C157.95 90 162 94.05 162 99C162 103.95 157.95 108 153 108Z" fill="#E7CB15"/>
<path id="I - 05" d="M189 108C184.05 108 180 103.95 180 99C180 94.05 184.05 90 189 90C193.95 90 198 94.05 198 99C198 103.95 193.95 108 189 108Z" fill="#E7CB15"/>
<path id="I - 06" d="M225 108C220.05 108 216 103.95 216 99C216 94.05 220.05 90 225 90C229.95 90 234 94.05 234 99C234 103.95 229.95 108 225 108Z" fill="#E7CB15"/>
<path id="I - 07" d="M261 108C256.05 108 252 103.95 252 99C252 94.05 256.05 90 261 90C265.95 90 270 94.05 270 99C270 103.95 265.95 108 261 108Z" fill="#E7CB15"/>
<path id="I - 08" d="M297 108C292.05 108 288 103.95 288 99C288 94.05 292.05 90 297 90C301.95 90 306 94.05 306 99C306 103.95 301.95 108 297 108Z" fill="#E7CB15"/>
<path id="I - 09" d="M333 108C328.05 108 324 103.95 324 99C324 94.05 328.05 90 333 90C337.95 90 342 94.05 342 99C342 103.95 337.95 108 333 108Z" fill="#E7CB15"/>
<path id="I - 10" d="M369 108C364.05 108 360 103.95 360 99C360 94.05 364.05 90 369 90C373.95 90 378 94.05 378 99C378 103.95 373.95 108 369 108Z" fill="#E7CB15"/>
<path id="I - 11" d="M405 108C400.05 108 396 103.95 396 99C396 94.05 400.05 90 405 90C409.95 90 414 94.05 414 99C414 103.95 409.95 108 405 108Z" fill="#E7CB15"/>
<path id="I - 12" d="M441 108C436.05 108 432 103.95 432 99C432 94.05 436.05 90 441 90C445.95 90 450 94.05 450 99C450 103.95 445.95 108 441 108Z" fill="#E7CB15"/>
<path id="I - 13" d="M477 108C472.05 108 468 103.95 468 99C468 94.05 472.05 90 477 90C481.95 90 486 94.05 486 99C486 103.95 481.95 108 477 108Z" fill="#E7CB15"/>
<path id="I - 14" d="M513 108C508.05 108 504 103.95 504 99C504 94.05 508.05 90 513 90C517.95 90 522 94.05 522 99C522 103.95 517.95 108 513 108Z" fill="#E7CB15"/>
<path id="I - 15" d="M549 108C544.05 108 540 103.95 540 99C540 94.05 544.05 90 549 90C553.95 90 558 94.05 558 99C558 103.95 553.95 108 549 108Z" fill="#E7CB15"/>
<path id="I - 16" d="M585 108C580.05 108 576 103.95 576 99C576 94.05 580.05 90 585 90C589.95 90 594 94.05 594 99C594 103.95 589.95 108 585 108Z" fill="#E7CB15"/>
<path id="I - 17" d="M621 108C616.05 108 612 103.95 612 99C612 94.05 616.05 90 621 90C625.95 90 630 94.05 630 99C630 103.95 625.95 108 621 108Z" fill="#E7CB15"/>
<path id="I - 18" d="M657 108C652.05 108 648 103.95 648 99C648 94.05 652.05 90 657 90C661.95 90 666 94.05 666 99C666 103.95 661.95 108 657 108Z" fill="#E7CB15"/>
<path id="I - 19" d="M693 108C688.05 108 684 103.95 684 99C684 94.05 688.05 90 693 90C697.95 90 702 94.05 702 99C702 103.95 697.95 108 693 108Z" fill="#E7CB15"/>
<path id="H - 01" d="M45 144C40.05 144 36 139.95 36 135C36 130.05 40.05 126 45 126C49.95 126 54 130.05 54 135C54 139.95 49.95 144 45 144Z" fill="#E7CB15"/>
<path id="H - 02" d="M81 144C76.05 144 72 139.95 72 135C72 130.05 76.05 126 81 126C85.95 126 90 130.05 90 135C90 139.95 85.95 144 81 144Z" fill="#E7CB15"/>
<path id="H - 03" d="M117 144C112.05 144 108 139.95 108 135C108 130.05 112.05 126 117 126C121.95 126 126 130.05 126 135C126 139.95 121.95 144 117 144Z" fill="#E7CB15"/>
<path id="H - 04" d="M153 144C148.05 144 144 139.95 144 135C144 130.05 148.05 126 153 126C157.95 126 162 130.05 162 135C162 139.95 157.95 144 153 144Z" fill="#E7CB15"/>
<path id="H - 05" d="M189 144C184.05 144 180 139.95 180 135C180 130.05 184.05 126 189 126C193.95 126 198 130.05 198 135C198 139.95 193.95 144 189 144Z" fill="#E7CB15"/>
<path id="H - 06" d="M225 144C220.05 144 216 139.95 216 135C216 130.05 220.05 126 225 126C229.95 126 234 130.05 234 135C234 139.95 229.95 144 225 144Z" fill="#E7CB15"/>
<path id="H - 07" d="M261 144C256.05 144 252 139.95 252 135C252 130.05 256.05 126 261 126C265.95 126 270 130.05 270 135C270 139.95 265.95 144 261 144Z" fill="#E7CB15"/>
<path id="H - 08" d="M297 144C292.05 144 288 139.95 288 135C288 130.05 292.05 126 297 126C301.95 126 306 130.05 306 135C306 139.95 301.95 144 297 144Z" fill="#E7CB15"/>
<path id="H - 09" d="M333 144C328.05 144 324 139.95 324 135C324 130.05 328.05 126 333 126C337.95 126 342 130.05 342 135C342 139.95 337.95 144 333 144Z" fill="#E7CB15"/>
<path id="H - 10" d="M369 144C364.05 144 360 139.95 360 135C360 130.05 364.05 126 369 126C373.95 126 378 130.05 378 135C378 139.95 373.95 144 369 144Z" fill="#E7CB15"/>
<path id="H - 11" d="M405 144C400.05 144 396 139.95 396 135C396 130.05 400.05 126 405 126C409.95 126 414 130.05 414 135C414 139.95 409.95 144 405 144Z" fill="#E7CB15"/>
<path id="H - 12" d="M441 144C436.05 144 432 139.95 432 135C432 130.05 436.05 126 441 126C445.95 126 450 130.05 450 135C450 139.95 445.95 144 441 144Z" fill="#E7CB15"/>
<path id="H - 13" d="M477 144C472.05 144 468 139.95 468 135C468 130.05 472.05 126 477 126C481.95 126 486 130.05 486 135C486 139.95 481.95 144 477 144Z" fill="#E7CB15"/>
<path id="H - 14" d="M513 144C508.05 144 504 139.95 504 135C504 130.05 508.05 126 513 126C517.95 126 522 130.05 522 135C522 139.95 517.95 144 513 144Z" fill="#E7CB15"/>
<path id="H - 15" d="M549 144C544.05 144 540 139.95 540 135C540 130.05 544.05 126 549 126C553.95 126 558 130.05 558 135C558 139.95 553.95 144 549 144Z" fill="#E7CB15"/>
<path id="H - 16" d="M585 144C580.05 144 576 139.95 576 135C576 130.05 580.05 126 585 126C589.95 126 594 130.05 594 135C594 139.95 589.95 144 585 144Z" fill="#E7CB15"/>
<path id="H - 17" d="M621 144C616.05 144 612 139.95 612 135C612 130.05 616.05 126 621 126C625.95 126 630 130.05 630 135C630 139.95 625.95 144 621 144Z" fill="#E7CB15"/>
<path id="G - 01" d="M45 180C40.05 180 36 175.95 36 171C36 166.05 40.05 162 45 162C49.95 162 54 166.05 54 171C54 175.95 49.95 180 45 180Z" fill="#E7CB15"/>
<path id="G - 02" d="M81 180C76.05 180 72 175.95 72 171C72 166.05 76.05 162 81 162C85.95 162 90 166.05 90 171C90 175.95 85.95 180 81 180Z" fill="#E7CB15"/>
<path id="G - 03" d="M117 180C112.05 180 108 175.95 108 171C108 166.05 112.05 162 117 162C121.95 162 126 166.05 126 171C126 175.95 121.95 180 117 180Z" fill="#E7CB15"/>
<path id="G - 04" d="M153 180C148.05 180 144 175.95 144 171C144 166.05 148.05 162 153 162C157.95 162 162 166.05 162 171C162 175.95 157.95 180 153 180Z" fill="#E7CB15"/>
<path id="G - 05" d="M189 180C184.05 180 180 175.95 180 171C180 166.05 184.05 162 189 162C193.95 162 198 166.05 198 171C198 175.95 193.95 180 189 180Z" fill="#E7CB15"/>
<path id="G - 06" d="M225 180C220.05 180 216 175.95 216 171C216 166.05 220.05 162 225 162C229.95 162 234 166.05 234 171C234 175.95 229.95 180 225 180Z" fill="#E7CB15"/>
<path id="G - 07" d="M261 180C256.05 180 252 175.95 252 171C252 166.05 256.05 162 261 162C265.95 162 270 166.05 270 171C270 175.95 265.95 180 261 180Z" fill="#E7CB15"/>
<path id="G - 08" d="M297 180C292.05 180 288 175.95 288 171C288 166.05 292.05 162 297 162C301.95 162 306 166.05 306 171C306 175.95 301.95 180 297 180Z" fill="#E7CB15"/>
<path id="G - 09" d="M333 180C328.05 180 324 175.95 324 171C324 166.05 328.05 162 333 162C337.95 162 342 166.05 342 171C342 175.95 337.95 180 333 180Z" fill="#E7CB15"/>
<path id="G - 10" d="M369 180C364.05 180 360 175.95 360 171C360 166.05 364.05 162 369 162C373.95 162 378 166.05 378 171C378 175.95 373.95 180 369 180Z" fill="#E7CB15"/>
<path id="G - 11" d="M405 180C400.05 180 396 175.95 396 171C396 166.05 400.05 162 405 162C409.95 162 414 166.05 414 171C414 175.95 409.95 180 405 180Z" fill="#E7CB15"/>
<path id="G - 12" d="M441 180C436.05 180 432 175.95 432 171C432 166.05 436.05 162 441 162C445.95 162 450 166.05 450 171C450 175.95 445.95 180 441 180Z" fill="#E7CB15"/>
<path id="G - 13" d="M477 180C472.05 180 468 175.95 468 171C468 166.05 472.05 162 477 162C481.95 162 486 166.05 486 171C486 175.95 481.95 180 477 180Z" fill="#E7CB15"/>
<path id="G - 14" d="M513 180C508.05 180 504 175.95 504 171C504 166.05 508.05 162 513 162C517.95 162 522 166.05 522 171C522 175.95 517.95 180 513 180Z" fill="#E7CB15"/>
<path id="G - 15" d="M549 180C544.05 180 540 175.95 540 171C540 166.05 544.05 162 549 162C553.95 162 558 166.05 558 171C558 175.95 553.95 180 549 180Z" fill="#E7CB15"/>
<path id="G - 16" d="M585 180C580.05 180 576 175.95 576 171C576 166.05 580.05 162 585 162C589.95 162 594 166.05 594 171C594 175.95 589.95 180 585 180Z" fill="#E7CB15"/>
<path id="F - 01" d="M45 216C40.05 216 36 211.95 36 207C36 202.05 40.05 198 45 198C49.95 198 54 202.05 54 207C54 211.95 49.95 216 45 216Z" fill="#E7CB15"/>
<path id="F - 02" d="M81 216C76.05 216 72 211.95 72 207C72 202.05 76.05 198 81 198C85.95 198 90 202.05 90 207C90 211.95 85.95 216 81 216Z" fill="#E7CB15"/>
<path id="F - 03" d="M117 216C112.05 216 108 211.95 108 207C108 202.05 112.05 198 117 198C121.95 198 126 202.05 126 207C126 211.95 121.95 216 117 216Z" fill="#E7CB15"/>
<path id="F - 04" d="M153 216C148.05 216 144 211.95 144 207C144 202.05 148.05 198 153 198C157.95 198 162 202.05 162 207C162 211.95 157.95 216 153 216Z" fill="#E7CB15"/>
<path id="F - 05" d="M189 216C184.05 216 180 211.95 180 207C180 202.05 184.05 198 189 198C193.95 198 198 202.05 198 207C198 211.95 193.95 216 189 216Z" fill="#E7CB15"/>
<path id="F - 06" d="M225 216C220.05 216 216 211.95 216 207C216 202.05 220.05 198 225 198C229.95 198 234 202.05 234 207C234 211.95 229.95 216 225 216Z" fill="#E7CB15"/>
<path id="F - 07" d="M261 216C256.05 216 252 211.95 252 207C252 202.05 256.05 198 261 198C265.95 198 270 202.05 270 207C270 211.95 265.95 216 261 216Z" fill="#E7CB15"/>
<path id="F - 08" d="M297 216C292.05 216 288 211.95 288 207C288 202.05 292.05 198 297 198C301.95 198 306 202.05 306 207C306 211.95 301.95 216 297 216Z" fill="#E7CB15"/>
<path id="F - 09" d="M333 216C328.05 216 324 211.95 324 207C324 202.05 328.05 198 333 198C337.95 198 342 202.05 342 207C342 211.95 337.95 216 333 216Z" fill="#E7CB15"/>
<path id="F - 10" d="M369 216C364.05 216 360 211.95 360 207C360 202.05 364.05 198 369 198C373.95 198 378 202.05 378 207C378 211.95 373.95 216 369 216Z" fill="#E7CB15"/>
<path id="F - 11" d="M405 216C400.05 216 396 211.95 396 207C396 202.05 400.05 198 405 198C409.95 198 414 202.05 414 207C414 211.95 409.95 216 405 216Z" fill="#E7CB15"/>
<path id="F - 12" d="M441 216C436.05 216 432 211.95 432 207C432 202.05 436.05 198 441 198C445.95 198 450 202.05 450 207C450 211.95 445.95 216 441 216Z" fill="#E7CB15"/>
<path id="F - 13" d="M477 216C472.05 216 468 211.95 468 207C468 202.05 472.05 198 477 198C481.95 198 486 202.05 486 207C486 211.95 481.95 216 477 216Z" fill="#E7CB15"/>
<path id="F - 14" d="M513 216C508.05 216 504 211.95 504 207C504 202.05 508.05 198 513 198C517.95 198 522 202.05 522 207C522 211.95 517.95 216 513 216Z" fill="#E7CB15"/>
<path id="E - 01" d="M45 252C40.05 252 36 247.95 36 243C36 238.05 40.05 234 45 234C49.95 234 54 238.05 54 243C54 247.95 49.95 252 45 252Z" fill="#E7CB15"/>
<path id="E - 02" d="M81 252C76.05 252 72 247.95 72 243C72 238.05 76.05 234 81 234C85.95 234 90 238.05 90 243C90 247.95 85.95 252 81 252Z" fill="#E7CB15"/>
<path id="E - 03" d="M117 252C112.05 252 108 247.95 108 243C108 238.05 112.05 234 117 234C121.95 234 126 238.05 126 243C126 247.95 121.95 252 117 252Z" fill="#E7CB15"/>
<path id="E - 04" d="M153 252C148.05 252 144 247.95 144 243C144 238.05 148.05 234 153 234C157.95 234 162 238.05 162 243C162 247.95 157.95 252 153 252Z" fill="#E7CB15"/>
<path id="E - 05" d="M189 252C184.05 252 180 247.95 180 243C180 238.05 184.05 234 189 234C193.95 234 198 238.05 198 243C198 247.95 193.95 252 189 252Z" fill="#E7CB15"/>
<path id="E - 06" d="M225 252C220.05 252 216 247.95 216 243C216 238.05 220.05 234 225 234C229.95 234 234 238.05 234 243C234 247.95 229.95 252 225 252Z" fill="#E7CB15"/>
<path id="E - 07" d="M261 252C256.05 252 252 247.95 252 243C252 238.05 256.05 234 261 234C265.95 234 270 238.05 270 243C270 247.95 265.95 252 261 252Z" fill="#E7CB15"/>
<path id="E - 08" d="M297 252C292.05 252 288 247.95 288 243C288 238.05 292.05 234 297 234C301.95 234 306 238.05 306 243C306 247.95 301.95 252 297 252Z" fill="#E7CB15"/>
<path id="E - 09" d="M333 252C328.05 252 324 247.95 324 243C324 238.05 328.05 234 333 234C337.95 234 342 238.05 342 243C342 247.95 337.95 252 333 252Z" fill="#E7CB15"/>
<path id="E - 10" d="M369 252C364.05 252 360 247.95 360 243C360 238.05 364.05 234 369 234C373.95 234 378 238.05 378 243C378 247.95 373.95 252 369 252Z" fill="#E7CB15"/>
<path id="E - 11" d="M405 252C400.05 252 396 247.95 396 243C396 238.05 400.05 234 405 234C409.95 234 414 238.05 414 243C414 247.95 409.95 252 405 252Z" fill="#E7CB15"/>
<path id="E - 12" d="M441 252C436.05 252 432 247.95 432 243C432 238.05 436.05 234 441 234C445.95 234 450 238.05 450 243C450 247.95 445.95 252 441 252Z" fill="#E7CB15"/>
<path id="D - 01" d="M45 288C40.05 288 36 283.95 36 279C36 274.05 40.05 270 45 270C49.95 270 54 274.05 54 279C54 283.95 49.95 288 45 288Z" fill="#E7CB15"/>
<path id="D - 02" d="M81 288C76.05 288 72 283.95 72 279C72 274.05 76.05 270 81 270C85.95 270 90 274.05 90 279C90 283.95 85.95 288 81 288Z" fill="#E7CB15"/>
<path id="D - 03" d="M117 288C112.05 288 108 283.95 108 279C108 274.05 112.05 270 117 270C121.95 270 126 274.05 126 279C126 283.95 121.95 288 117 288Z" fill="#E7CB15"/>
<path id="D - 04" d="M153 288C148.05 288 144 283.95 144 279C144 274.05 148.05 270 153 270C157.95 270 162 274.05 162 279C162 283.95 157.95 288 153 288Z" fill="#E7CB15"/>
<path id="D - 05" d="M189 288C184.05 288 180 283.95 180 279C180 274.05 184.05 270 189 270C193.95 270 198 274.05 198 279C198 283.95 193.95 288 189 288Z" fill="#E7CB15"/>
<path id="D - 06" d="M225 288C220.05 288 216 283.95 216 279C216 274.05 220.05 270 225 270C229.95 270 234 274.05 234 279C234 283.95 229.95 288 225 288Z" fill="#E7CB15"/>
<path id="D - 07" d="M261 288C256.05 288 252 283.95 252 279C252 274.05 256.05 270 261 270C265.95 270 270 274.05 270 279C270 283.95 265.95 288 261 288Z" fill="#E7CB15"/>
<path id="D - 08" d="M297 288C292.05 288 288 283.95 288 279C288 274.05 292.05 270 297 270C301.95 270 306 274.05 306 279C306 283.95 301.95 288 297 288Z" fill="#E7CB15"/>
<path id="D - 09" d="M333 288C328.05 288 324 283.95 324 279C324 274.05 328.05 270 333 270C337.95 270 342 274.05 342 279C342 283.95 337.95 288 333 288Z" fill="#E7CB15"/>
<path id="D - 10" d="M369 288C364.05 288 360 283.95 360 279C360 274.05 364.05 270 369 270C373.95 270 378 274.05 378 279C378 283.95 373.95 288 369 288Z" fill="#E7CB15"/>
<path id="D - 11" d="M405 288C400.05 288 396 283.95 396 279C396 274.05 400.05 270 405 270C409.95 270 414 274.05 414 279C414 283.95 409.95 288 405 288Z" fill="#E7CB15"/>
<path id="C - 01" d="M45 324C40.05 324 36 319.95 36 315C36 310.05 40.05 306 45 306C49.95 306 54 310.05 54 315C54 319.95 49.95 324 45 324Z" fill="#E7CB15"/>
<path id="C - 02" d="M81 324C76.05 324 72 319.95 72 315C72 310.05 76.05 306 81 306C85.95 306 90 310.05 90 315C90 319.95 85.95 324 81 324Z" fill="#E7CB15"/>
<path id="C - 03" d="M117 324C112.05 324 108 319.95 108 315C108 310.05 112.05 306 117 306C121.95 306 126 310.05 126 315C126 319.95 121.95 324 117 324Z" fill="#E7CB15"/>
<path id="C - 04" d="M153 324C148.05 324 144 319.95 144 315C144 310.05 148.05 306 153 306C157.95 306 162 310.05 162 315C162 319.95 157.95 324 153 324Z" fill="#E7CB15"/>
<path id="C - 05" d="M189 324C184.05 324 180 319.95 180 315C180 310.05 184.05 306 189 306C193.95 306 198 310.05 198 315C198 319.95 193.95 324 189 324Z" fill="#E7CB15"/>
<path id="C - 06" d="M225 324C220.05 324 216 319.95 216 315C216 310.05 220.05 306 225 306C229.95 306 234 310.05 234 315C234 319.95 229.95 324 225 324Z" fill="#E7CB15"/>
<path id="C - 07" d="M261 324C256.05 324 252 319.95 252 315C252 310.05 256.05 306 261 306C265.95 306 270 310.05 270 315C270 319.95 265.95 324 261 324Z" fill="#E7CB15"/>
<path id="C - 08" d="M297 324C292.05 324 288 319.95 288 315C288 310.05 292.05 306 297 306C301.95 306 306 310.05 306 315C306 319.95 301.95 324 297 324Z" fill="#E7CB15"/>
<path id="C - 09" d="M333 324C328.05 324 324 319.95 324 315C324 310.05 328.05 306 333 306C337.95 306 342 310.05 342 315C342 319.95 337.95 324 333 324Z" fill="#E7CB15"/>
<path id="B - 01" d="M45 360C40.05 360 36 355.95 36 351C36 346.05 40.05 342 45 342C49.95 342 54 346.05 54 351C54 355.95 49.95 360 45 360Z" fill="#E7CB15"/>
<path id="B - 02" d="M81 360C76.05 360 72 355.95 72 351C72 346.05 76.05 342 81 342C85.95 342 90 346.05 90 351C90 355.95 85.95 360 81 360Z" fill="#E7CB15"/>
<path id="B - 03" d="M117 360C112.05 360 108 355.95 108 351C108 346.05 112.05 342 117 342C121.95 342 126 346.05 126 351C126 355.95 121.95 360 117 360Z" fill="#E7CB15"/>
<path id="B - 04" d="M153 360C148.05 360 144 355.95 144 351C144 346.05 148.05 342 153 342C157.95 342 162 346.05 162 351C162 355.95 157.95 360 153 360Z" fill="#E7CB15"/>
<path id="B - 05" d="M189 360C184.05 360 180 355.95 180 351C180 346.05 184.05 342 189 342C193.95 342 198 346.05 198 351C198 355.95 193.95 360 189 360Z" fill="#E7CB15"/>
<path id="B - 06" d="M225 360C220.05 360 216 355.95 216 351C216 346.05 220.05 342 225 342C229.95 342 234 346.05 234 351C234 355.95 229.95 360 225 360Z" fill="#E7CB15"/>
<path id="B - 07" d="M261 360C256.05 360 252 355.95 252 351C252 346.05 256.05 342 261 342C265.95 342 270 346.05 270 351C270 355.95 265.95 360 261 360Z" fill="#E7CB15"/>
<path id="A - 01" d="M45 396C40.05 396 36 391.95 36 387C36 382.05 40.05 378 45 378C49.95 378 54 382.05 54 387C54 391.95 49.95 396 45 396Z" fill="#E7CB15"/>
<path id="A - 02" d="M81 396C76.05 396 72 391.95 72 387C72 382.05 76.05 378 81 378C85.95 378 90 382.05 90 387C90 391.95 85.95 396 81 396Z" fill="#E7CB15"/>
<path id="A - 03" d="M117 396C112.05 396 108 391.95 108 387C108 382.05 112.05 378 117 378C121.95 378 126 382.05 126 387C126 391.95 121.95 396 117 396Z" fill="#E7CB15"/>
<path id="A - 04" d="M153 396C148.05 396 144 391.95 144 387C144 382.05 148.05 378 153 378C157.95 378 162 382.05 162 387C162 391.95 157.95 396 153 396Z" fill="#E7CB15"/>
<path id="A - 05" d="M189 396C184.05 396 180 391.95 180 387C180 382.05 184.05 378 189 378C193.95 378 198 382.05 198 387C198 391.95 193.95 396 189 396Z" fill="#E7CB15"/>
<path id="A - 06" d="M225 396C220.05 396 216 391.95 216 387C216 382.05 220.05 378 225 378C229.95 378 234 382.05 234 387C234 391.95 229.95 396 225 396Z" fill="#E7CB15"/>
<path id="k_2" d="M760.986 24V12.4217H762.733V17.9508H762.874L767.731 12.4217H769.93L765.26 17.6342L769.947 24H767.844L764.101 18.8271L762.733 20.3987V24H760.986Z" fill="white"/>
<path id="j" d="M10.3802 57.4217H12.1214V65.6305C12.1214 66.373 11.9744 67.0081 11.6805 67.5357C11.3902 68.0634 10.9813 68.4667 10.4537 68.7456C9.92599 69.0207 9.30788 69.1583 8.59931 69.1583C7.94727 69.1583 7.3612 69.0396 6.84108 68.8021C6.32472 68.5647 5.91579 68.2198 5.61427 67.7675C5.31652 67.3115 5.16764 66.7575 5.16764 66.1054H6.90326C6.90326 66.4258 6.97676 66.7028 7.12375 66.9365C7.27451 67.1702 7.47992 67.353 7.73998 67.4849C8.00381 67.613 8.30533 67.6771 8.64454 67.6771C9.0139 67.6771 9.32672 67.5998 9.58302 67.4453C9.84308 67.287 10.0409 67.0552 10.1766 66.7499C10.3123 66.4446 10.3802 66.0715 10.3802 65.6305V57.4217Z" fill="white"/>
<path id="j_2" d="M766.38 57.4217H768.121V65.6305C768.121 66.373 767.974 67.0081 767.68 67.5357C767.39 68.0634 766.981 68.4667 766.454 68.7456C765.926 69.0207 765.308 69.1583 764.599 69.1583C763.947 69.1583 763.361 69.0396 762.841 68.8021C762.325 68.5647 761.916 68.2198 761.614 67.7675C761.317 67.3115 761.168 66.7575 761.168 66.1054H762.903C762.903 66.4258 762.977 66.7028 763.124 66.9365C763.275 67.1702 763.48 67.353 763.74 67.4849C764.004 67.613 764.305 67.6771 764.645 67.6771C765.014 67.6771 765.327 67.5998 765.583 67.4453C765.843 67.287 766.041 67.0552 766.177 66.7499C766.312 66.4446 766.38 66.0715 766.38 65.6305V57.4217Z" fill="white"/>
<path id="i" d="M9.87346 93.4217V105H8.12654V93.4217H9.87346Z" fill="white"/>
<path id="h" d="M4.36414 141V129.422H6.11107V134.453H11.8833V129.422H13.6359V141H11.8833V135.951H6.11107V141H4.36414Z" fill="white"/>
<path id="g" d="M12.1455 169.079C12.0362 168.736 11.8892 168.429 11.7045 168.158C11.5236 167.883 11.3069 167.649 11.0543 167.457C10.8018 167.261 10.5135 167.112 10.1894 167.01C9.86899 166.909 9.51659 166.858 9.13215 166.858C8.48012 166.858 7.89215 167.025 7.36826 167.361C6.84437 167.696 6.42978 168.188 6.1245 168.836C5.82298 169.481 5.67222 170.27 5.67222 171.205C5.67222 172.144 5.82486 172.937 6.13015 173.585C6.43544 174.234 6.8538 174.725 7.38522 175.061C7.91665 175.396 8.52157 175.564 9.19999 175.564C9.82941 175.564 10.3778 175.436 10.8452 175.18C11.3163 174.923 11.68 174.561 11.9363 174.094C12.1963 173.623 12.3264 173.069 12.3264 172.432L12.7786 172.517H9.46571V171.075H14.0168V172.392C14.0168 173.365 13.8095 174.209 13.3949 174.925C12.9841 175.638 12.4149 176.188 11.6875 176.576C10.9639 176.964 10.1347 177.158 9.19999 177.158C8.15221 177.158 7.23258 176.917 6.44109 176.435C5.65337 175.952 5.03903 175.268 4.59806 174.382C4.15708 173.493 3.9366 172.438 3.9366 171.216C3.9366 170.293 4.06474 169.464 4.32104 168.729C4.57733 167.994 4.93727 167.37 5.40085 166.858C5.86821 166.341 6.41659 165.947 7.04601 165.676C7.6792 165.401 8.37081 165.263 9.12084 165.263C9.7465 165.263 10.3288 165.356 10.8678 165.54C11.4105 165.725 11.8929 165.987 12.3151 166.326C12.741 166.665 13.0934 167.069 13.3723 167.536C13.6512 168 13.8396 168.514 13.9376 169.079H12.1455Z" fill="white"/>
<path id="f" d="M5.60791 213V201.422H12.7878V202.925H7.35484V206.453H12.2734V207.951H7.35484V213H5.60791Z" fill="white"/>
<path id="e" d="M5.47576 249V237.422H12.7348V238.925H7.22269V242.453H12.356V243.951H7.22269V247.496H12.8027V249H5.47576Z" fill="white"/>
<path id="d" d="M8.27565 285H4.52739V273.422H8.39437C9.52884 273.422 10.5031 273.653 11.3172 274.117C12.1313 274.577 12.7551 275.238 13.1885 276.101C13.6257 276.961 13.8443 277.992 13.8443 279.194C13.8443 280.4 13.6238 281.436 13.1829 282.303C12.7457 283.17 12.1125 283.837 11.2833 284.305C10.4541 284.768 9.45157 285 8.27565 285ZM6.27431 283.474H8.17954C9.06148 283.474 9.79455 283.308 10.3787 282.976C10.9629 282.641 11.4001 282.156 11.6904 281.523C11.9806 280.886 12.1257 280.11 12.1257 279.194C12.1257 278.286 11.9806 277.515 11.6904 276.882C11.4039 276.248 10.9761 275.768 10.407 275.44C9.83789 275.112 9.13121 274.948 8.28695 274.948H6.27431V283.474Z" fill="white"/>
<path id="C" d="M14.0351 313.187H12.2712C12.2034 312.81 12.0771 312.478 11.8925 312.192C11.7078 311.905 11.4816 311.662 11.214 311.463C10.9464 311.263 10.6468 311.112 10.3151 311.01C9.98724 310.909 9.63861 310.858 9.26925 310.858C8.60214 310.858 8.00475 311.025 7.47709 311.361C6.9532 311.696 6.53861 312.188 6.23333 312.836C5.93181 313.485 5.78105 314.276 5.78105 315.211C5.78105 316.153 5.93181 316.948 6.23333 317.597C6.53861 318.245 6.95509 318.735 7.48275 319.067C8.0104 319.398 8.60402 319.564 9.26359 319.564C9.62919 319.564 9.97593 319.515 10.3038 319.417C10.6355 319.315 10.9351 319.166 11.2027 318.97C11.4703 318.774 11.6965 318.535 11.8812 318.252C12.0696 317.966 12.1996 317.638 12.2712 317.269L14.0351 317.274C13.9409 317.843 13.7581 318.367 13.4867 318.846C13.2191 319.321 12.8743 319.732 12.4522 320.078C12.0338 320.421 11.5551 320.687 11.0162 320.876C10.4772 321.064 9.88925 321.158 9.25229 321.158C8.24974 321.158 7.35649 320.921 6.57254 320.446C5.78859 319.967 5.17047 319.283 4.71819 318.394C4.26968 317.504 4.04543 316.443 4.04543 315.211C4.04543 313.975 4.27157 312.914 4.72385 312.028C5.17612 311.138 5.79424 310.456 6.57819 309.981C7.36214 309.503 8.2535 309.263 9.25229 309.263C9.86663 309.263 10.4395 309.352 10.9709 309.529C11.5061 309.702 11.9867 309.959 12.4126 310.298C12.8385 310.633 13.1909 311.044 13.4698 311.53C13.7487 312.013 13.9371 312.565 14.0351 313.187Z" fill="white"/>
<path id="b" d="M5.06376 357V345.422H9.30388C10.1255 345.422 10.8058 345.557 11.3448 345.829C11.8837 346.096 12.287 346.46 12.5546 346.92C12.8222 347.376 12.956 347.89 12.956 348.463C12.956 348.946 12.8675 349.353 12.6903 349.684C12.5132 350.012 12.2757 350.276 11.978 350.476C11.684 350.672 11.3599 350.815 11.0056 350.906V351.019C11.39 351.037 11.765 351.162 12.1306 351.392C12.5 351.618 12.8053 351.94 13.0465 352.358C13.2877 352.777 13.4083 353.286 13.4083 353.885C13.4083 354.477 13.2689 355.008 12.9899 355.479C12.7148 355.947 12.2889 356.318 11.7123 356.593C11.1356 356.864 10.3988 357 9.50175 357H5.06376ZM6.81069 355.502H9.33214C10.1689 355.502 10.7681 355.34 11.13 355.016C11.4918 354.691 11.6727 354.286 11.6727 353.8C11.6727 353.435 11.5803 353.099 11.3957 352.794C11.211 352.489 10.9472 352.245 10.6042 352.065C10.265 351.884 9.86169 351.793 9.39433 351.793H6.81069V355.502ZM6.81069 350.431H9.15123C9.54321 350.431 9.89561 350.355 10.2084 350.205C10.525 350.054 10.7757 349.843 10.9603 349.571C11.1488 349.296 11.243 348.972 11.243 348.599C11.243 348.12 11.0753 347.719 10.7399 347.395C10.4044 347.071 9.88995 346.909 9.19646 346.909H6.81069V350.431Z" fill="white"/>
<path id="a" d="M5.67646 393H3.82212L7.98873 381.422H10.007L14.1736 393H12.3193L9.04593 383.525H8.95548L5.67646 393ZM5.9874 388.466H12.0027V389.936H5.9874V388.466Z" fill="white"/>
<path id="i_2" d="M729.873 93.4217V105H728.127V93.4217H729.873Z" fill="white"/>
<path id="h_2" d="M652.364 141V129.422H654.111V134.453H659.883V129.422H661.636V141H659.883V135.951H654.111V141H652.364Z" fill="white"/>
<path id="g_2" d="M624.145 169.079C624.036 168.736 623.889 168.429 623.704 168.158C623.524 167.883 623.307 167.649 623.054 167.457C622.802 167.261 622.513 167.112 622.189 167.01C621.869 166.909 621.517 166.858 621.132 166.858C620.48 166.858 619.892 167.025 619.368 167.361C618.844 167.696 618.43 168.188 618.124 168.836C617.823 169.481 617.672 170.27 617.672 171.205C617.672 172.144 617.825 172.937 618.13 173.585C618.435 174.234 618.854 174.725 619.385 175.061C619.917 175.396 620.522 175.564 621.2 175.564C621.829 175.564 622.378 175.436 622.845 175.18C623.316 174.923 623.68 174.561 623.936 174.094C624.196 173.623 624.326 173.069 624.326 172.432L624.779 172.517H621.466V171.075H626.017V172.392C626.017 173.365 625.809 174.209 625.395 174.925C624.984 175.638 624.415 176.188 623.688 176.576C622.964 176.964 622.135 177.158 621.2 177.158C620.152 177.158 619.233 176.917 618.441 176.435C617.653 175.952 617.039 175.268 616.598 174.382C616.157 173.493 615.937 172.438 615.937 171.216C615.937 170.293 616.065 169.464 616.321 168.729C616.577 167.994 616.937 167.37 617.401 166.858C617.868 166.341 618.417 165.947 619.046 165.676C619.679 165.401 620.371 165.263 621.121 165.263C621.746 165.263 622.329 165.356 622.868 165.54C623.411 165.725 623.893 165.987 624.315 166.326C624.741 166.665 625.093 167.069 625.372 167.536C625.651 168 625.84 168.514 625.938 169.079H624.145Z" fill="white"/>
<path id="f_2" d="M545.608 213V201.422H552.788V202.925H547.355V206.453H552.273V207.951H547.355V213H545.608Z" fill="white"/>
<path id="e_2" d="M473.476 249V237.422H480.735V238.925H475.223V242.453H480.356V243.951H475.223V247.496H480.803V249H473.476Z" fill="white"/>
<path id="d_2" d="M440.276 285H436.527V273.422H440.394C441.529 273.422 442.503 273.653 443.317 274.117C444.131 274.577 444.755 275.238 445.189 276.101C445.626 276.961 445.844 277.992 445.844 279.194C445.844 280.4 445.624 281.436 445.183 282.303C444.746 283.17 444.112 283.837 443.283 284.305C442.454 284.768 441.452 285 440.276 285ZM438.274 283.474H440.18C441.061 283.474 441.795 283.308 442.379 282.976C442.963 282.641 443.4 282.156 443.69 281.523C443.981 280.886 444.126 280.11 444.126 279.194C444.126 278.286 443.981 277.515 443.69 276.882C443.404 276.248 442.976 275.768 442.407 275.44C441.838 275.112 441.131 274.948 440.287 274.948H438.274V283.474Z" fill="white"/>
<path id="b_2" d="M293.064 357V345.422H297.304C298.126 345.422 298.806 345.557 299.345 345.829C299.884 346.096 300.287 346.46 300.555 346.92C300.822 347.376 300.956 347.89 300.956 348.463C300.956 348.946 300.867 349.353 300.69 349.684C300.513 350.012 300.276 350.276 299.978 350.476C299.684 350.672 299.36 350.815 299.006 350.906V351.019C299.39 351.037 299.765 351.162 300.131 351.392C300.5 351.618 300.805 351.94 301.046 352.358C301.288 352.777 301.408 353.286 301.408 353.885C301.408 354.477 301.269 355.008 300.99 355.479C300.715 355.947 300.289 356.318 299.712 356.593C299.136 356.864 298.399 357 297.502 357H293.064ZM294.811 355.502H297.332C298.169 355.502 298.768 355.34 299.13 355.016C299.492 354.691 299.673 354.286 299.673 353.8C299.673 353.435 299.58 353.099 299.396 352.794C299.211 352.489 298.947 352.245 298.604 352.065C298.265 351.884 297.862 351.793 297.394 351.793H294.811V355.502ZM294.811 350.431H297.151C297.543 350.431 297.896 350.355 298.208 350.205C298.525 350.054 298.776 349.843 298.96 349.571C299.149 349.296 299.243 348.972 299.243 348.599C299.243 348.12 299.075 347.719 298.74 347.395C298.404 347.071 297.89 346.909 297.196 346.909H294.811V350.431Z" fill="white"/>
<path id="a_2" d="M257.676 393H255.822L259.989 381.422H262.007L266.174 393H264.319L261.046 383.525H260.955L257.676 393ZM257.987 388.466H264.003V389.936H257.987V388.466Z" fill="white"/>
<path id="c" d="M374.035 313.187H372.271C372.203 312.81 372.077 312.478 371.892 312.192C371.708 311.905 371.482 311.662 371.214 311.463C370.946 311.263 370.647 311.112 370.315 311.01C369.987 310.909 369.639 310.858 369.269 310.858C368.602 310.858 368.005 311.025 367.477 311.361C366.953 311.696 366.539 312.188 366.233 312.836C365.932 313.485 365.781 314.276 365.781 315.211C365.781 316.153 365.932 316.948 366.233 317.597C366.539 318.245 366.955 318.735 367.483 319.067C368.01 319.398 368.604 319.564 369.264 319.564C369.629 319.564 369.976 319.515 370.304 319.417C370.636 319.315 370.935 319.166 371.203 318.97C371.47 318.774 371.696 318.535 371.881 318.252C372.07 317.966 372.2 317.638 372.271 317.269L374.035 317.274C373.941 317.843 373.758 318.367 373.487 318.846C373.219 319.321 372.874 319.732 372.452 320.078C372.034 320.421 371.555 320.687 371.016 320.876C370.477 321.064 369.889 321.158 369.252 321.158C368.25 321.158 367.356 320.921 366.573 320.446C365.789 319.967 365.17 319.283 364.718 318.394C364.27 317.504 364.045 316.443 364.045 315.211C364.045 313.975 364.272 312.914 364.724 312.028C365.176 311.138 365.794 310.456 366.578 309.981C367.362 309.503 368.254 309.263 369.252 309.263C369.867 309.263 370.44 309.352 370.971 309.529C371.506 309.702 371.987 309.959 372.413 310.298C372.838 310.633 373.191 311.044 373.47 311.53C373.749 312.013 373.937 312.565 374.035 313.187Z" fill="white"/>
<g id="NS - 01">
<circle id="Ellipse 1" cx="122" cy="18" r="18" fill="#E7CB15"/>
<path id="Vector" d="M126.28 20.8875C126.28 23.9475 123.791 26.4352 120.731 26.4352C117.671 26.4352 115.183 23.9475 115.183 20.8875C115.183 20.0088 115.392 19.1427 115.793 18.3606C116.194 17.5786 116.774 16.9031 117.488 16.3897L117.3 14.7322C115.143 15.9397 113.681 18.2453 113.681 20.8875C113.681 24.7755 116.843 27.9375 120.731 27.9375C124.028 27.9375 126.801 25.665 127.569 22.605L126.278 20.7975L126.28 20.8875ZM119.826 10.9005C120.302 10.9005 120.758 10.7115 121.095 10.375C121.431 10.0386 121.62 9.5823 121.62 9.1065C121.62 8.6307 121.431 8.17439 121.095 7.83795C120.758 7.50151 120.302 7.3125 119.826 7.3125C119.35 7.3125 118.894 7.50151 118.558 7.83795C118.221 8.17439 118.032 8.6307 118.032 9.1065C118.032 9.5823 118.221 10.0386 118.558 10.375C118.894 10.7115 119.35 10.9005 119.826 10.9005ZM131.391 23.0078L127.366 17.379C127.156 17.0842 126.805 16.944 126.447 16.9755C126.421 16.973 126.395 16.9715 126.368 16.971H121.768L121.654 15.9698H125.072C125.257 15.9613 125.431 15.8818 125.559 15.7479C125.687 15.6139 125.759 15.4358 125.759 15.2505C125.759 15.0652 125.687 14.8871 125.559 14.7531C125.431 14.6192 125.257 14.5397 125.072 14.5312H121.49L121.302 12.8872C121.276 12.6587 121.205 12.4375 121.094 12.2363C120.983 12.0351 120.833 11.8578 120.653 11.7145C120.473 11.5712 120.266 11.4648 120.045 11.4014C119.824 11.3379 119.593 11.3185 119.364 11.3445C119.136 11.3705 118.914 11.4412 118.713 11.5526C118.512 11.664 118.335 11.814 118.191 11.994C118.048 12.1739 117.942 12.3804 117.878 12.6014C117.815 12.8225 117.795 13.054 117.821 13.2825L118.35 17.925C118.398 18.3539 118.603 18.7498 118.926 19.0364C119.249 19.3231 119.666 19.4802 120.098 19.4775L120.107 19.479H126.125L129.577 24.306C129.905 24.7673 130.58 24.8513 131.081 24.492C131.581 24.1335 131.72 23.469 131.39 23.007L131.391 23.0078Z" fill="black"/>
</g>
<g id="NS - 02">
<circle id="Ellipse 1_2" cx="258" cy="18" r="18" fill="#E7CB15"/>
<path id="Vector_2" d="M262.28 20.8875C262.28 23.9475 259.791 26.4352 256.731 26.4352C253.671 26.4352 251.183 23.9475 251.183 20.8875C251.183 20.0088 251.392 19.1427 251.793 18.3606C252.194 17.5786 252.774 16.9031 253.488 16.3897L253.3 14.7322C251.143 15.9397 249.681 18.2453 249.681 20.8875C249.681 24.7755 252.843 27.9375 256.731 27.9375C260.028 27.9375 262.801 25.665 263.569 22.605L262.278 20.7975L262.28 20.8875ZM255.826 10.9005C256.302 10.9005 256.758 10.7115 257.095 10.375C257.431 10.0386 257.62 9.5823 257.62 9.1065C257.62 8.6307 257.431 8.17439 257.095 7.83795C256.758 7.50151 256.302 7.3125 255.826 7.3125C255.35 7.3125 254.894 7.50151 254.558 7.83795C254.221 8.17439 254.032 8.6307 254.032 9.1065C254.032 9.5823 254.221 10.0386 254.558 10.375C254.894 10.7115 255.35 10.9005 255.826 10.9005ZM267.391 23.0078L263.366 17.379C263.156 17.0842 262.805 16.944 262.447 16.9755C262.421 16.973 262.395 16.9715 262.368 16.971H257.768L257.654 15.9698H261.072C261.257 15.9613 261.431 15.8818 261.559 15.7479C261.687 15.6139 261.759 15.4358 261.759 15.2505C261.759 15.0652 261.687 14.8871 261.559 14.7531C261.431 14.6192 261.257 14.5397 261.072 14.5312H257.49L257.302 12.8872C257.276 12.6587 257.205 12.4375 257.094 12.2363C256.983 12.0351 256.833 11.8578 256.653 11.7145C256.473 11.5712 256.266 11.4648 256.045 11.4014C255.824 11.3379 255.593 11.3185 255.364 11.3445C255.136 11.3705 254.914 11.4412 254.713 11.5526C254.512 11.664 254.335 11.814 254.191 11.994C254.048 12.1739 253.942 12.3804 253.878 12.6014C253.815 12.8225 253.795 13.054 253.821 13.2825L254.35 17.925C254.398 18.3539 254.603 18.7498 254.926 19.0364C255.249 19.3231 255.666 19.4802 256.098 19.4775L256.107 19.479H262.125L265.577 24.306C265.905 24.7673 266.58 24.8513 267.081 24.492C267.581 24.1335 267.72 23.469 267.39 23.007L267.391 23.0078Z" fill="black"/>
</g>
<g id="NS - 03">
<circle id="Ellipse 1_3" cx="394" cy="18" r="18" fill="#E7CB15"/>
<path id="Vector_3" d="M398.28 20.8875C398.28 23.9475 395.791 26.4352 392.731 26.4352C389.671 26.4352 387.183 23.9475 387.183 20.8875C387.183 20.0088 387.392 19.1427 387.793 18.3606C388.194 17.5786 388.774 16.9031 389.488 16.3897L389.3 14.7322C387.143 15.9397 385.681 18.2453 385.681 20.8875C385.681 24.7755 388.843 27.9375 392.731 27.9375C396.028 27.9375 398.801 25.665 399.569 22.605L398.278 20.7975L398.28 20.8875ZM391.826 10.9005C392.302 10.9005 392.758 10.7115 393.095 10.375C393.431 10.0386 393.62 9.5823 393.62 9.1065C393.62 8.6307 393.431 8.17439 393.095 7.83795C392.758 7.50151 392.302 7.3125 391.826 7.3125C391.35 7.3125 390.894 7.50151 390.558 7.83795C390.221 8.17439 390.032 8.6307 390.032 9.1065C390.032 9.5823 390.221 10.0386 390.558 10.375C390.894 10.7115 391.35 10.9005 391.826 10.9005ZM403.391 23.0078L399.366 17.379C399.156 17.0842 398.805 16.944 398.447 16.9755C398.421 16.973 398.395 16.9715 398.368 16.971H393.768L393.654 15.9698H397.072C397.257 15.9613 397.431 15.8818 397.559 15.7479C397.687 15.6139 397.759 15.4358 397.759 15.2505C397.759 15.0652 397.687 14.8871 397.559 14.7531C397.431 14.6192 397.257 14.5397 397.072 14.5312H393.49L393.302 12.8872C393.276 12.6587 393.205 12.4375 393.094 12.2363C392.983 12.0351 392.833 11.8578 392.653 11.7145C392.473 11.5712 392.266 11.4648 392.045 11.4014C391.824 11.3379 391.593 11.3185 391.364 11.3445C391.136 11.3705 390.914 11.4412 390.713 11.5526C390.512 11.664 390.335 11.814 390.191 11.994C390.048 12.1739 389.942 12.3804 389.878 12.6014C389.815 12.8225 389.795 13.054 389.821 13.2825L390.35 17.925C390.398 18.3539 390.603 18.7498 390.926 19.0364C391.249 19.3231 391.666 19.4802 392.098 19.4775L392.107 19.479H398.125L401.577 24.306C401.905 24.7673 402.58 24.8513 403.081 24.492C403.581 24.1335 403.72 23.469 403.39 23.007L403.391 23.0078Z" fill="black"/>
</g>
<g id="NS - 04">
<circle id="Ellipse 1_4" cx="530" cy="18" r="18" fill="#E7CB15"/>
<path id="Vector_4" d="M534.28 20.8875C534.28 23.9475 531.791 26.4352 528.731 26.4352C525.671 26.4352 523.183 23.9475 523.183 20.8875C523.183 20.0088 523.392 19.1427 523.793 18.3606C524.194 17.5786 524.774 16.9031 525.488 16.3897L525.3 14.7322C523.143 15.9397 521.681 18.2453 521.681 20.8875C521.681 24.7755 524.843 27.9375 528.731 27.9375C532.028 27.9375 534.801 25.665 535.569 22.605L534.278 20.7975L534.28 20.8875ZM527.826 10.9005C528.302 10.9005 528.758 10.7115 529.095 10.375C529.431 10.0386 529.62 9.5823 529.62 9.1065C529.62 8.6307 529.431 8.17439 529.095 7.83795C528.758 7.50151 528.302 7.3125 527.826 7.3125C527.35 7.3125 526.894 7.50151 526.558 7.83795C526.221 8.17439 526.032 8.6307 526.032 9.1065C526.032 9.5823 526.221 10.0386 526.558 10.375C526.894 10.7115 527.35 10.9005 527.826 10.9005ZM539.391 23.0078L535.366 17.379C535.156 17.0842 534.805 16.944 534.447 16.9755C534.421 16.973 534.395 16.9715 534.368 16.971H529.768L529.654 15.9698H533.072C533.257 15.9613 533.431 15.8818 533.559 15.7479C533.687 15.6139 533.759 15.4358 533.759 15.2505C533.759 15.0652 533.687 14.8871 533.559 14.7531C533.431 14.6192 533.257 14.5397 533.072 14.5312H529.49L529.302 12.8872C529.276 12.6587 529.205 12.4375 529.094 12.2363C528.983 12.0351 528.833 11.8578 528.653 11.7145C528.473 11.5712 528.266 11.4648 528.045 11.4014C527.824 11.3379 527.593 11.3185 527.364 11.3445C527.136 11.3705 526.914 11.4412 526.713 11.5526C526.512 11.664 526.335 11.814 526.191 11.994C526.048 12.1739 525.942 12.3804 525.878 12.6014C525.815 12.8225 525.795 13.054 525.821 13.2825L526.35 17.925C526.398 18.3539 526.603 18.7498 526.926 19.0364C527.249 19.3231 527.666 19.4802 528.098 19.4775L528.107 19.479H534.125L537.577 24.306C537.905 24.7673 538.58 24.8513 539.081 24.492C539.581 24.1335 539.72 23.469 539.39 23.007L539.391 23.0078Z" fill="black"/>
</g>
<g id="NS - 05">
<circle id="Ellipse 1_5" cx="657" cy="18" r="18" fill="#E7CB15"/>
<path id="Vector_5" d="M661.28 20.8875C661.28 23.9475 658.791 26.4352 655.731 26.4352C652.671 26.4352 650.183 23.9475 650.183 20.8875C650.183 20.0088 650.392 19.1427 650.793 18.3606C651.194 17.5786 651.774 16.9031 652.488 16.3897L652.3 14.7322C650.143 15.9397 648.681 18.2453 648.681 20.8875C648.681 24.7755 651.843 27.9375 655.731 27.9375C659.028 27.9375 661.801 25.665 662.569 22.605L661.278 20.7975L661.28 20.8875ZM654.826 10.9005C655.302 10.9005 655.758 10.7115 656.095 10.375C656.431 10.0386 656.62 9.5823 656.62 9.1065C656.62 8.6307 656.431 8.17439 656.095 7.83795C655.758 7.50151 655.302 7.3125 654.826 7.3125C654.35 7.3125 653.894 7.50151 653.558 7.83795C653.221 8.17439 653.032 8.6307 653.032 9.1065C653.032 9.5823 653.221 10.0386 653.558 10.375C653.894 10.7115 654.35 10.9005 654.826 10.9005ZM666.391 23.0078L662.366 17.379C662.156 17.0842 661.805 16.944 661.447 16.9755C661.421 16.973 661.395 16.9715 661.368 16.971H656.768L656.654 15.9698H660.072C660.257 15.9613 660.431 15.8818 660.559 15.7479C660.687 15.6139 660.759 15.4358 660.759 15.2505C660.759 15.0652 660.687 14.8871 660.559 14.7531C660.431 14.6192 660.257 14.5397 660.072 14.5312H656.49L656.302 12.8872C656.276 12.6587 656.205 12.4375 656.094 12.2363C655.983 12.0351 655.833 11.8578 655.653 11.7145C655.473 11.5712 655.266 11.4648 655.045 11.4014C654.824 11.3379 654.593 11.3185 654.364 11.3445C654.136 11.3705 653.914 11.4412 653.713 11.5526C653.512 11.664 653.335 11.814 653.191 11.994C653.048 12.1739 652.942 12.3804 652.878 12.6014C652.815 12.8225 652.795 13.054 652.821 13.2825L653.35 17.925C653.398 18.3539 653.603 18.7498 653.926 19.0364C654.249 19.3231 654.666 19.4802 655.098 19.4775L655.107 19.479H661.125L664.577 24.306C664.905 24.7673 665.58 24.8513 666.081 24.492C666.581 24.1335 666.72 23.469 666.39 23.007L666.391 23.0078Z" fill="black"/>
</g>
</g>
</svg>
