<svg width="919" height="378" viewBox="0 0 919 378" fill="none" xmlns="http://www.w3.org/2000/svg">
<g id="210">
<path id="k" d="M4.98603 15V3.42166H6.73295V8.95077H6.87429L11.7306 3.42166H13.9298L9.26006 8.63418L13.9468 15H11.8437L8.1011 9.82706L6.73295 11.3987V15H4.98603Z" fill="white"/>
<path id="K - 01" d="M45 18C40.05 18 36 13.95 36 9C36 4.05 40.05 0 45 0C49.95 0 54 4.05 54 9C54 13.95 49.95 18 45 18Z" fill="#921792"/>
<path id="K - 02" d="M81 18C76.05 18 72 13.95 72 9C72 4.05 76.05 0 81 0C85.95 0 90 4.05 90 9C90 13.95 85.95 18 81 18Z" fill="#921792"/>
<path id="K - 03" d="M117 18C112.05 18 108 13.95 108 9C108 4.05 112.05 0 117 0C121.95 0 126 4.05 126 9C126 13.95 121.95 18 117 18Z" fill="#921792"/>
<path id="K - 04" d="M153 18C148.05 18 144 13.95 144 9C144 4.05 148.05 0 153 0C157.95 0 162 4.05 162 9C162 13.95 157.95 18 153 18Z" fill="#921792"/>
<path id="K - 05" d="M189 18C184.05 18 180 13.95 180 9C180 4.05 184.05 0 189 0C193.95 0 198 4.05 198 9C198 13.95 193.95 18 189 18Z" fill="#921792"/>
<path id="K - 06" d="M225 18C220.05 18 216 13.95 216 9C216 4.05 220.05 0 225 0C229.95 0 234 4.05 234 9C234 13.95 229.95 18 225 18Z" fill="#921792"/>
<path id="K - 07" d="M261 18C256.05 18 252 13.95 252 9C252 4.05 256.05 0 261 0C265.95 0 270 4.05 270 9C270 13.95 265.95 18 261 18Z" fill="#921792"/>
<path id="K - 08" d="M297 18C292.05 18 288 13.95 288 9C288 4.05 292.05 0 297 0C301.95 0 306 4.05 306 9C306 13.95 301.95 18 297 18Z" fill="#921792"/>
<path id="K - 09" d="M333 18C328.05 18 324 13.95 324 9C324 4.05 328.05 0 333 0C337.95 0 342 4.05 342 9C342 13.95 337.95 18 333 18Z" fill="#921792"/>
<path id="K - 10" d="M369 18C364.05 18 360 13.95 360 9C360 4.05 364.05 0 369 0C373.95 0 378 4.05 378 9C378 13.95 373.95 18 369 18Z" fill="#921792"/>
<path id="K - 11" d="M405 18C400.05 18 396 13.95 396 9C396 4.05 400.05 0 405 0C409.95 0 414 4.05 414 9C414 13.95 409.95 18 405 18Z" fill="#921792"/>
<path id="K - 12" d="M441 18C436.05 18 432 13.95 432 9C432 4.05 436.05 0 441 0C445.95 0 450 4.05 450 9C450 13.95 445.95 18 441 18Z" fill="#921792"/>
<path id="K - 13" d="M477 18C472.05 18 468 13.95 468 9C468 4.05 472.05 0 477 0C481.95 0 486 4.05 486 9C486 13.95 481.95 18 477 18Z" fill="#921792"/>
<path id="K - 14" d="M513 18C508.05 18 504 13.95 504 9C504 4.05 508.05 0 513 0C517.95 0 522 4.05 522 9C522 13.95 517.95 18 513 18Z" fill="#921792"/>
<path id="K - 15" d="M549 18C544.05 18 540 13.95 540 9C540 4.05 544.05 0 549 0C553.95 0 558 4.05 558 9C558 13.95 553.95 18 549 18Z" fill="#921792"/>
<path id="K - 16" d="M585 18C580.05 18 576 13.95 576 9C576 4.05 580.05 0 585 0C589.95 0 594 4.05 594 9C594 13.95 589.95 18 585 18Z" fill="#921792"/>
<path id="K - 17" d="M621 18C616.05 18 612 13.95 612 9C612 4.05 616.05 0 621 0C625.95 0 630 4.05 630 9C630 13.95 625.95 18 621 18Z" fill="#921792"/>
<path id="K - 18" d="M657 18C652.05 18 648 13.95 648 9C648 4.05 652.05 0 657 0C661.95 0 666 4.05 666 9C666 13.95 661.95 18 657 18Z" fill="#921792"/>
<path id="K - 19" d="M693 18C688.05 18 684 13.95 684 9C684 4.05 688.05 0 693 0C697.95 0 702 4.05 702 9C702 13.95 697.95 18 693 18Z" fill="#921792"/>
<path id="K - 20" d="M729 18C724.05 18 720 13.95 720 9C720 4.05 724.05 0 729 0C733.95 0 738 4.05 738 9C738 13.95 733.95 18 729 18Z" fill="#921792"/>
<path id="K - 21" d="M765 18C760.05 18 756 13.95 756 9C756 4.05 760.05 0 765 0C769.95 0 774 4.05 774 9C774 13.95 769.95 18 765 18Z" fill="#921792"/>
<path id="K - 22" d="M801 18C796.05 18 792 13.95 792 9C792 4.05 796.05 0 801 0C805.95 0 810 4.05 810 9C810 13.95 805.95 18 801 18Z" fill="#921792"/>
<path id="K - 23" d="M837 18C832.05 18 828 13.95 828 9C828 4.05 832.05 0 837 0C841.95 0 846 4.05 846 9C846 13.95 841.95 18 837 18Z" fill="#921792"/>
<path id="K - 24" d="M873 18C868.05 18 864 13.95 864 9C864 4.05 868.05 0 873 0C877.95 0 882 4.05 882 9C882 13.95 877.95 18 873 18Z" fill="#921792"/>
<path id="J - 01" d="M45 54C40.05 54 36 49.95 36 45C36 40.05 40.05 36 45 36C49.95 36 54 40.05 54 45C54 49.95 49.95 54 45 54Z" fill="#921792"/>
<path id="J - 02" d="M81 54C76.05 54 72 49.95 72 45C72 40.05 76.05 36 81 36C85.95 36 90 40.05 90 45C90 49.95 85.95 54 81 54Z" fill="#921792"/>
<path id="J - 03" d="M117 54C112.05 54 108 49.95 108 45C108 40.05 112.05 36 117 36C121.95 36 126 40.05 126 45C126 49.95 121.95 54 117 54Z" fill="#921792"/>
<path id="J - 04" d="M153 54C148.05 54 144 49.95 144 45C144 40.05 148.05 36 153 36C157.95 36 162 40.05 162 45C162 49.95 157.95 54 153 54Z" fill="#921792"/>
<path id="J - 05" d="M189 54C184.05 54 180 49.95 180 45C180 40.05 184.05 36 189 36C193.95 36 198 40.05 198 45C198 49.95 193.95 54 189 54Z" fill="#921792"/>
<path id="J - 06" d="M225 54C220.05 54 216 49.95 216 45C216 40.05 220.05 36 225 36C229.95 36 234 40.05 234 45C234 49.95 229.95 54 225 54Z" fill="#921792"/>
<path id="J - 07" d="M261 54C256.05 54 252 49.95 252 45C252 40.05 256.05 36 261 36C265.95 36 270 40.05 270 45C270 49.95 265.95 54 261 54Z" fill="#921792"/>
<path id="J - 08" d="M297 54C292.05 54 288 49.95 288 45C288 40.05 292.05 36 297 36C301.95 36 306 40.05 306 45C306 49.95 301.95 54 297 54Z" fill="#921792"/>
<path id="J - 09" d="M333 54C328.05 54 324 49.95 324 45C324 40.05 328.05 36 333 36C337.95 36 342 40.05 342 45C342 49.95 337.95 54 333 54Z" fill="#921792"/>
<path id="J - 10" d="M369 54C364.05 54 360 49.95 360 45C360 40.05 364.05 36 369 36C373.95 36 378 40.05 378 45C378 49.95 373.95 54 369 54Z" fill="#921792"/>
<path id="J - 11" d="M405 54C400.05 54 396 49.95 396 45C396 40.05 400.05 36 405 36C409.95 36 414 40.05 414 45C414 49.95 409.95 54 405 54Z" fill="#921792"/>
<path id="J - 12" d="M441 54C436.05 54 432 49.95 432 45C432 40.05 436.05 36 441 36C445.95 36 450 40.05 450 45C450 49.95 445.95 54 441 54Z" fill="#921792"/>
<path id="J - 13" d="M477 54C472.05 54 468 49.95 468 45C468 40.05 472.05 36 477 36C481.95 36 486 40.05 486 45C486 49.95 481.95 54 477 54Z" fill="#921792"/>
<path id="J - 14" d="M513 54C508.05 54 504 49.95 504 45C504 40.05 508.05 36 513 36C517.95 36 522 40.05 522 45C522 49.95 517.95 54 513 54Z" fill="#921792"/>
<path id="J - 15" d="M549 54C544.05 54 540 49.95 540 45C540 40.05 544.05 36 549 36C553.95 36 558 40.05 558 45C558 49.95 553.95 54 549 54Z" fill="#921792"/>
<path id="J - 16" d="M585 54C580.05 54 576 49.95 576 45C576 40.05 580.05 36 585 36C589.95 36 594 40.05 594 45C594 49.95 589.95 54 585 54Z" fill="#921792"/>
<path id="J - 17" d="M621 54C616.05 54 612 49.95 612 45C612 40.05 616.05 36 621 36C625.95 36 630 40.05 630 45C630 49.95 625.95 54 621 54Z" fill="#921792"/>
<path id="J - 18" d="M657 54C652.05 54 648 49.95 648 45C648 40.05 652.05 36 657 36C661.95 36 666 40.05 666 45C666 49.95 661.95 54 657 54Z" fill="#921792"/>
<path id="J - 19" d="M693 54C688.05 54 684 49.95 684 45C684 40.05 688.05 36 693 36C697.95 36 702 40.05 702 45C702 49.95 697.95 54 693 54Z" fill="#921792"/>
<path id="J - 20" d="M729 54C724.05 54 720 49.95 720 45C720 40.05 724.05 36 729 36C733.95 36 738 40.05 738 45C738 49.95 733.95 54 729 54Z" fill="#921792"/>
<path id="J - 21" d="M765 54C760.05 54 756 49.95 756 45C756 40.05 760.05 36 765 36C769.95 36 774 40.05 774 45C774 49.95 769.95 54 765 54Z" fill="#921792"/>
<path id="J - 22" d="M801 54C796.05 54 792 49.95 792 45C792 40.05 796.05 36 801 36C805.95 36 810 40.05 810 45C810 49.95 805.95 54 801 54Z" fill="#921792"/>
<path id="J - 23" d="M837 54C832.05 54 828 49.95 828 45C828 40.05 832.05 36 837 36C841.95 36 846 40.05 846 45C846 49.95 841.95 54 837 54Z" fill="#921792"/>
<path id="J - 24" d="M873 54C868.05 54 864 49.95 864 45C864 40.05 868.05 36 873 36C877.95 36 882 40.05 882 45C882 49.95 877.95 54 873 54Z" fill="#921792"/>
<path id="I - 01" d="M45 90C40.05 90 36 85.95 36 81C36 76.05 40.05 72 45 72C49.95 72 54 76.05 54 81C54 85.95 49.95 90 45 90Z" fill="#921792"/>
<path id="I - 02" d="M81 90C76.05 90 72 85.95 72 81C72 76.05 76.05 72 81 72C85.95 72 90 76.05 90 81C90 85.95 85.95 90 81 90Z" fill="#921792"/>
<path id="I - 03" d="M117 90C112.05 90 108 85.95 108 81C108 76.05 112.05 72 117 72C121.95 72 126 76.05 126 81C126 85.95 121.95 90 117 90Z" fill="#921792"/>
<path id="I - 04" d="M153 90C148.05 90 144 85.95 144 81C144 76.05 148.05 72 153 72C157.95 72 162 76.05 162 81C162 85.95 157.95 90 153 90Z" fill="#921792"/>
<path id="I - 05" d="M189 90C184.05 90 180 85.95 180 81C180 76.05 184.05 72 189 72C193.95 72 198 76.05 198 81C198 85.95 193.95 90 189 90Z" fill="#921792"/>
<path id="I - 06" d="M225 90C220.05 90 216 85.95 216 81C216 76.05 220.05 72 225 72C229.95 72 234 76.05 234 81C234 85.95 229.95 90 225 90Z" fill="#921792"/>
<path id="I - 07" d="M261 90C256.05 90 252 85.95 252 81C252 76.05 256.05 72 261 72C265.95 72 270 76.05 270 81C270 85.95 265.95 90 261 90Z" fill="#921792"/>
<path id="I - 08" d="M297 90C292.05 90 288 85.95 288 81C288 76.05 292.05 72 297 72C301.95 72 306 76.05 306 81C306 85.95 301.95 90 297 90Z" fill="#921792"/>
<path id="I - 09" d="M333 90C328.05 90 324 85.95 324 81C324 76.05 328.05 72 333 72C337.95 72 342 76.05 342 81C342 85.95 337.95 90 333 90Z" fill="#921792"/>
<path id="I - 10" d="M369 90C364.05 90 360 85.95 360 81C360 76.05 364.05 72 369 72C373.95 72 378 76.05 378 81C378 85.95 373.95 90 369 90Z" fill="#921792"/>
<path id="I - 11" d="M405 90C400.05 90 396 85.95 396 81C396 76.05 400.05 72 405 72C409.95 72 414 76.05 414 81C414 85.95 409.95 90 405 90Z" fill="#921792"/>
<path id="I - 12" d="M441 90C436.05 90 432 85.95 432 81C432 76.05 436.05 72 441 72C445.95 72 450 76.05 450 81C450 85.95 445.95 90 441 90Z" fill="#921792"/>
<path id="I - 13" d="M477 90C472.05 90 468 85.95 468 81C468 76.05 472.05 72 477 72C481.95 72 486 76.05 486 81C486 85.95 481.95 90 477 90Z" fill="#921792"/>
<path id="I - 14" d="M513 90C508.05 90 504 85.95 504 81C504 76.05 508.05 72 513 72C517.95 72 522 76.05 522 81C522 85.95 517.95 90 513 90Z" fill="#921792"/>
<path id="I - 15" d="M549 90C544.05 90 540 85.95 540 81C540 76.05 544.05 72 549 72C553.95 72 558 76.05 558 81C558 85.95 553.95 90 549 90Z" fill="#921792"/>
<path id="I - 16" d="M585 90C580.05 90 576 85.95 576 81C576 76.05 580.05 72 585 72C589.95 72 594 76.05 594 81C594 85.95 589.95 90 585 90Z" fill="#921792"/>
<path id="I - 17" d="M621 90C616.05 90 612 85.95 612 81C612 76.05 616.05 72 621 72C625.95 72 630 76.05 630 81C630 85.95 625.95 90 621 90Z" fill="#921792"/>
<path id="I - 18" d="M657 90C652.05 90 648 85.95 648 81C648 76.05 652.05 72 657 72C661.95 72 666 76.05 666 81C666 85.95 661.95 90 657 90Z" fill="#921792"/>
<path id="I - 19" d="M693 90C688.05 90 684 85.95 684 81C684 76.05 688.05 72 693 72C697.95 72 702 76.05 702 81C702 85.95 697.95 90 693 90Z" fill="#921792"/>
<path id="I - 20" d="M729 90C724.05 90 720 85.95 720 81C720 76.05 724.05 72 729 72C733.95 72 738 76.05 738 81C738 85.95 733.95 90 729 90Z" fill="#921792"/>
<path id="I - 21" d="M765 90C760.05 90 756 85.95 756 81C756 76.05 760.05 72 765 72C769.95 72 774 76.05 774 81C774 85.95 769.95 90 765 90Z" fill="#921792"/>
<path id="I - 22" d="M801 90C796.05 90 792 85.95 792 81C792 76.05 796.05 72 801 72C805.95 72 810 76.05 810 81C810 85.95 805.95 90 801 90Z" fill="#921792"/>
<path id="I - 23" d="M837 90C832.05 90 828 85.95 828 81C828 76.05 832.05 72 837 72C841.95 72 846 76.05 846 81C846 85.95 841.95 90 837 90Z" fill="#921792"/>
<path id="H - 01" d="M45 126C40.05 126 36 121.95 36 117C36 112.05 40.05 108 45 108C49.95 108 54 112.05 54 117C54 121.95 49.95 126 45 126Z" fill="#921792"/>
<path id="H - 02" d="M81 126C76.05 126 72 121.95 72 117C72 112.05 76.05 108 81 108C85.95 108 90 112.05 90 117C90 121.95 85.95 126 81 126Z" fill="#921792"/>
<path id="H - 03" d="M117 126C112.05 126 108 121.95 108 117C108 112.05 112.05 108 117 108C121.95 108 126 112.05 126 117C126 121.95 121.95 126 117 126Z" fill="#921792"/>
<path id="H - 04" d="M153 126C148.05 126 144 121.95 144 117C144 112.05 148.05 108 153 108C157.95 108 162 112.05 162 117C162 121.95 157.95 126 153 126Z" fill="#921792"/>
<path id="H - 05" d="M189 126C184.05 126 180 121.95 180 117C180 112.05 184.05 108 189 108C193.95 108 198 112.05 198 117C198 121.95 193.95 126 189 126Z" fill="#921792"/>
<path id="H - 06" d="M225 126C220.05 126 216 121.95 216 117C216 112.05 220.05 108 225 108C229.95 108 234 112.05 234 117C234 121.95 229.95 126 225 126Z" fill="#921792"/>
<path id="H - 07" d="M261 126C256.05 126 252 121.95 252 117C252 112.05 256.05 108 261 108C265.95 108 270 112.05 270 117C270 121.95 265.95 126 261 126Z" fill="#921792"/>
<path id="H - 08" d="M297 126C292.05 126 288 121.95 288 117C288 112.05 292.05 108 297 108C301.95 108 306 112.05 306 117C306 121.95 301.95 126 297 126Z" fill="#921792"/>
<path id="H - 09" d="M333 126C328.05 126 324 121.95 324 117C324 112.05 328.05 108 333 108C337.95 108 342 112.05 342 117C342 121.95 337.95 126 333 126Z" fill="#921792"/>
<path id="H - 10" d="M369 126C364.05 126 360 121.95 360 117C360 112.05 364.05 108 369 108C373.95 108 378 112.05 378 117C378 121.95 373.95 126 369 126Z" fill="#921792"/>
<path id="H - 11" d="M405 126C400.05 126 396 121.95 396 117C396 112.05 400.05 108 405 108C409.95 108 414 112.05 414 117C414 121.95 409.95 126 405 126Z" fill="#921792"/>
<path id="H - 12" d="M441 126C436.05 126 432 121.95 432 117C432 112.05 436.05 108 441 108C445.95 108 450 112.05 450 117C450 121.95 445.95 126 441 126Z" fill="#921792"/>
<path id="H - 13" d="M477 126C472.05 126 468 121.95 468 117C468 112.05 472.05 108 477 108C481.95 108 486 112.05 486 117C486 121.95 481.95 126 477 126Z" fill="#921792"/>
<path id="H - 14" d="M513 126C508.05 126 504 121.95 504 117C504 112.05 508.05 108 513 108C517.95 108 522 112.05 522 117C522 121.95 517.95 126 513 126Z" fill="#921792"/>
<path id="H - 15" d="M549 126C544.05 126 540 121.95 540 117C540 112.05 544.05 108 549 108C553.95 108 558 112.05 558 117C558 121.95 553.95 126 549 126Z" fill="#921792"/>
<path id="H - 16" d="M585 126C580.05 126 576 121.95 576 117C576 112.05 580.05 108 585 108C589.95 108 594 112.05 594 117C594 121.95 589.95 126 585 126Z" fill="#921792"/>
<path id="H - 17" d="M621 126C616.05 126 612 121.95 612 117C612 112.05 616.05 108 621 108C625.95 108 630 112.05 630 117C630 121.95 625.95 126 621 126Z" fill="#921792"/>
<path id="H - 18" d="M657 126C652.05 126 648 121.95 648 117C648 112.05 652.05 108 657 108C661.95 108 666 112.05 666 117C666 121.95 661.95 126 657 126Z" fill="#921792"/>
<path id="H - 19" d="M693 126C688.05 126 684 121.95 684 117C684 112.05 688.05 108 693 108C697.95 108 702 112.05 702 117C702 121.95 697.95 126 693 126Z" fill="#921792"/>
<path id="H - 20" d="M729 126C724.05 126 720 121.95 720 117C720 112.05 724.05 108 729 108C733.95 108 738 112.05 738 117C738 121.95 733.95 126 729 126Z" fill="#921792"/>
<path id="H - 21" d="M765 126C760.05 126 756 121.95 756 117C756 112.05 760.05 108 765 108C769.95 108 774 112.05 774 117C774 121.95 769.95 126 765 126Z" fill="#921792"/>
<path id="H - 22" d="M801 126C796.05 126 792 121.95 792 117C792 112.05 796.05 108 801 108C805.95 108 810 112.05 810 117C810 121.95 805.95 126 801 126Z" fill="#921792"/>
<path id="G - 01" d="M45 162C40.05 162 36 157.95 36 153C36 148.05 40.05 144 45 144C49.95 144 54 148.05 54 153C54 157.95 49.95 162 45 162Z" fill="#921792"/>
<path id="G - 02" d="M81 162C76.05 162 72 157.95 72 153C72 148.05 76.05 144 81 144C85.95 144 90 148.05 90 153C90 157.95 85.95 162 81 162Z" fill="#921792"/>
<path id="G - 03" d="M117 162C112.05 162 108 157.95 108 153C108 148.05 112.05 144 117 144C121.95 144 126 148.05 126 153C126 157.95 121.95 162 117 162Z" fill="#921792"/>
<path id="G - 04" d="M153 162C148.05 162 144 157.95 144 153C144 148.05 148.05 144 153 144C157.95 144 162 148.05 162 153C162 157.95 157.95 162 153 162Z" fill="#921792"/>
<path id="G - 05" d="M189 162C184.05 162 180 157.95 180 153C180 148.05 184.05 144 189 144C193.95 144 198 148.05 198 153C198 157.95 193.95 162 189 162Z" fill="#921792"/>
<path id="G - 06" d="M225 162C220.05 162 216 157.95 216 153C216 148.05 220.05 144 225 144C229.95 144 234 148.05 234 153C234 157.95 229.95 162 225 162Z" fill="#921792"/>
<path id="G - 07" d="M261 162C256.05 162 252 157.95 252 153C252 148.05 256.05 144 261 144C265.95 144 270 148.05 270 153C270 157.95 265.95 162 261 162Z" fill="#921792"/>
<path id="G - 08" d="M297 162C292.05 162 288 157.95 288 153C288 148.05 292.05 144 297 144C301.95 144 306 148.05 306 153C306 157.95 301.95 162 297 162Z" fill="#921792"/>
<path id="G - 09" d="M333 162C328.05 162 324 157.95 324 153C324 148.05 328.05 144 333 144C337.95 144 342 148.05 342 153C342 157.95 337.95 162 333 162Z" fill="#921792"/>
<path id="G - 10" d="M369 162C364.05 162 360 157.95 360 153C360 148.05 364.05 144 369 144C373.95 144 378 148.05 378 153C378 157.95 373.95 162 369 162Z" fill="#921792"/>
<path id="G - 11" d="M405 162C400.05 162 396 157.95 396 153C396 148.05 400.05 144 405 144C409.95 144 414 148.05 414 153C414 157.95 409.95 162 405 162Z" fill="#921792"/>
<path id="G - 12" d="M441 162C436.05 162 432 157.95 432 153C432 148.05 436.05 144 441 144C445.95 144 450 148.05 450 153C450 157.95 445.95 162 441 162Z" fill="#921792"/>
<path id="G - 13" d="M477 162C472.05 162 468 157.95 468 153C468 148.05 472.05 144 477 144C481.95 144 486 148.05 486 153C486 157.95 481.95 162 477 162Z" fill="#921792"/>
<path id="G - 14" d="M513 162C508.05 162 504 157.95 504 153C504 148.05 508.05 144 513 144C517.95 144 522 148.05 522 153C522 157.95 517.95 162 513 162Z" fill="#921792"/>
<path id="G - 15" d="M549 162C544.05 162 540 157.95 540 153C540 148.05 544.05 144 549 144C553.95 144 558 148.05 558 153C558 157.95 553.95 162 549 162Z" fill="#921792"/>
<path id="G - 16" d="M585 162C580.05 162 576 157.95 576 153C576 148.05 580.05 144 585 144C589.95 144 594 148.05 594 153C594 157.95 589.95 162 585 162Z" fill="#921792"/>
<path id="G - 17" d="M621 162C616.05 162 612 157.95 612 153C612 148.05 616.05 144 621 144C625.95 144 630 148.05 630 153C630 157.95 625.95 162 621 162Z" fill="#921792"/>
<path id="G - 18" d="M657 162C652.05 162 648 157.95 648 153C648 148.05 652.05 144 657 144C661.95 144 666 148.05 666 153C666 157.95 661.95 162 657 162Z" fill="#921792"/>
<path id="G - 19" d="M693 162C688.05 162 684 157.95 684 153C684 148.05 688.05 144 693 144C697.95 144 702 148.05 702 153C702 157.95 697.95 162 693 162Z" fill="#921792"/>
<path id="G - 20" d="M729 162C724.05 162 720 157.95 720 153C720 148.05 724.05 144 729 144C733.95 144 738 148.05 738 153C738 157.95 733.95 162 729 162Z" fill="#921792"/>
<path id="G - 21" d="M765 162C760.05 162 756 157.95 756 153C756 148.05 760.05 144 765 144C769.95 144 774 148.05 774 153C774 157.95 769.95 162 765 162Z" fill="#921792"/>
<path id="G - 22" d="M801 162C796.05 162 792 157.95 792 153C792 148.05 796.05 144 801 144C805.95 144 810 148.05 810 153C810 157.95 805.95 162 801 162Z" fill="#921792"/>
<path id="F - 01" d="M45 198C40.05 198 36 193.95 36 189C36 184.05 40.05 180 45 180C49.95 180 54 184.05 54 189C54 193.95 49.95 198 45 198Z" fill="#921792"/>
<path id="F - 02" d="M81 198C76.05 198 72 193.95 72 189C72 184.05 76.05 180 81 180C85.95 180 90 184.05 90 189C90 193.95 85.95 198 81 198Z" fill="#921792"/>
<path id="F - 03" d="M117 198C112.05 198 108 193.95 108 189C108 184.05 112.05 180 117 180C121.95 180 126 184.05 126 189C126 193.95 121.95 198 117 198Z" fill="#921792"/>
<path id="F - 04" d="M153 198C148.05 198 144 193.95 144 189C144 184.05 148.05 180 153 180C157.95 180 162 184.05 162 189C162 193.95 157.95 198 153 198Z" fill="#921792"/>
<path id="F - 05" d="M189 198C184.05 198 180 193.95 180 189C180 184.05 184.05 180 189 180C193.95 180 198 184.05 198 189C198 193.95 193.95 198 189 198Z" fill="#921792"/>
<path id="F - 06" d="M225 198C220.05 198 216 193.95 216 189C216 184.05 220.05 180 225 180C229.95 180 234 184.05 234 189C234 193.95 229.95 198 225 198Z" fill="#921792"/>
<path id="F - 07" d="M261 198C256.05 198 252 193.95 252 189C252 184.05 256.05 180 261 180C265.95 180 270 184.05 270 189C270 193.95 265.95 198 261 198Z" fill="#921792"/>
<path id="F - 08" d="M297 198C292.05 198 288 193.95 288 189C288 184.05 292.05 180 297 180C301.95 180 306 184.05 306 189C306 193.95 301.95 198 297 198Z" fill="#921792"/>
<path id="F - 09" d="M333 198C328.05 198 324 193.95 324 189C324 184.05 328.05 180 333 180C337.95 180 342 184.05 342 189C342 193.95 337.95 198 333 198Z" fill="#921792"/>
<path id="F - 10" d="M369 198C364.05 198 360 193.95 360 189C360 184.05 364.05 180 369 180C373.95 180 378 184.05 378 189C378 193.95 373.95 198 369 198Z" fill="#921792"/>
<path id="F - 11" d="M405 198C400.05 198 396 193.95 396 189C396 184.05 400.05 180 405 180C409.95 180 414 184.05 414 189C414 193.95 409.95 198 405 198Z" fill="#921792"/>
<path id="F - 12" d="M441 198C436.05 198 432 193.95 432 189C432 184.05 436.05 180 441 180C445.95 180 450 184.05 450 189C450 193.95 445.95 198 441 198Z" fill="#921792"/>
<path id="F - 13" d="M477 198C472.05 198 468 193.95 468 189C468 184.05 472.05 180 477 180C481.95 180 486 184.05 486 189C486 193.95 481.95 198 477 198Z" fill="#921792"/>
<path id="F - 14" d="M513 198C508.05 198 504 193.95 504 189C504 184.05 508.05 180 513 180C517.95 180 522 184.05 522 189C522 193.95 517.95 198 513 198Z" fill="#921792"/>
<path id="F - 15" d="M549 198C544.05 198 540 193.95 540 189C540 184.05 544.05 180 549 180C553.95 180 558 184.05 558 189C558 193.95 553.95 198 549 198Z" fill="#921792"/>
<path id="F - 16" d="M585 198C580.05 198 576 193.95 576 189C576 184.05 580.05 180 585 180C589.95 180 594 184.05 594 189C594 193.95 589.95 198 585 198Z" fill="#921792"/>
<path id="F - 17" d="M621 198C616.05 198 612 193.95 612 189C612 184.05 616.05 180 621 180C625.95 180 630 184.05 630 189C630 193.95 625.95 198 621 198Z" fill="#921792"/>
<path id="F - 18" d="M657 198C652.05 198 648 193.95 648 189C648 184.05 652.05 180 657 180C661.95 180 666 184.05 666 189C666 193.95 661.95 198 657 198Z" fill="#921792"/>
<path id="F - 19" d="M693 198C688.05 198 684 193.95 684 189C684 184.05 688.05 180 693 180C697.95 180 702 184.05 702 189C702 193.95 697.95 198 693 198Z" fill="#921792"/>
<path id="F - 20" d="M729 198C724.05 198 720 193.95 720 189C720 184.05 724.05 180 729 180C733.95 180 738 184.05 738 189C738 193.95 733.95 198 729 198Z" fill="#921792"/>
<path id="F - 21" d="M765 198C760.05 198 756 193.95 756 189C756 184.05 760.05 180 765 180C769.95 180 774 184.05 774 189C774 193.95 769.95 198 765 198Z" fill="#921792"/>
<path id="E - 01" d="M45 234C40.05 234 36 229.95 36 225C36 220.05 40.05 216 45 216C49.95 216 54 220.05 54 225C54 229.95 49.95 234 45 234Z" fill="#921792"/>
<path id="E - 02" d="M81 234C76.05 234 72 229.95 72 225C72 220.05 76.05 216 81 216C85.95 216 90 220.05 90 225C90 229.95 85.95 234 81 234Z" fill="#921792"/>
<path id="E - 03" d="M117 234C112.05 234 108 229.95 108 225C108 220.05 112.05 216 117 216C121.95 216 126 220.05 126 225C126 229.95 121.95 234 117 234Z" fill="#921792"/>
<path id="E - 04" d="M153 234C148.05 234 144 229.95 144 225C144 220.05 148.05 216 153 216C157.95 216 162 220.05 162 225C162 229.95 157.95 234 153 234Z" fill="#921792"/>
<path id="E - 05" d="M189 234C184.05 234 180 229.95 180 225C180 220.05 184.05 216 189 216C193.95 216 198 220.05 198 225C198 229.95 193.95 234 189 234Z" fill="#921792"/>
<path id="E - 06" d="M225 234C220.05 234 216 229.95 216 225C216 220.05 220.05 216 225 216C229.95 216 234 220.05 234 225C234 229.95 229.95 234 225 234Z" fill="#921792"/>
<path id="E - 07" d="M261 234C256.05 234 252 229.95 252 225C252 220.05 256.05 216 261 216C265.95 216 270 220.05 270 225C270 229.95 265.95 234 261 234Z" fill="#921792"/>
<path id="E - 08" d="M297 234C292.05 234 288 229.95 288 225C288 220.05 292.05 216 297 216C301.95 216 306 220.05 306 225C306 229.95 301.95 234 297 234Z" fill="#921792"/>
<path id="E - 09" d="M333 234C328.05 234 324 229.95 324 225C324 220.05 328.05 216 333 216C337.95 216 342 220.05 342 225C342 229.95 337.95 234 333 234Z" fill="#921792"/>
<path id="E - 10" d="M369 234C364.05 234 360 229.95 360 225C360 220.05 364.05 216 369 216C373.95 216 378 220.05 378 225C378 229.95 373.95 234 369 234Z" fill="#921792"/>
<path id="E - 11" d="M405 234C400.05 234 396 229.95 396 225C396 220.05 400.05 216 405 216C409.95 216 414 220.05 414 225C414 229.95 409.95 234 405 234Z" fill="#921792"/>
<path id="E - 12" d="M441 234C436.05 234 432 229.95 432 225C432 220.05 436.05 216 441 216C445.95 216 450 220.05 450 225C450 229.95 445.95 234 441 234Z" fill="#921792"/>
<path id="E - 13" d="M477 234C472.05 234 468 229.95 468 225C468 220.05 472.05 216 477 216C481.95 216 486 220.05 486 225C486 229.95 481.95 234 477 234Z" fill="#921792"/>
<path id="E - 14" d="M513 234C508.05 234 504 229.95 504 225C504 220.05 508.05 216 513 216C517.95 216 522 220.05 522 225C522 229.95 517.95 234 513 234Z" fill="#921792"/>
<path id="E - 15" d="M549 234C544.05 234 540 229.95 540 225C540 220.05 544.05 216 549 216C553.95 216 558 220.05 558 225C558 229.95 553.95 234 549 234Z" fill="#921792"/>
<path id="E - 16" d="M585 234C580.05 234 576 229.95 576 225C576 220.05 580.05 216 585 216C589.95 216 594 220.05 594 225C594 229.95 589.95 234 585 234Z" fill="#921792"/>
<path id="E - 17" d="M621 234C616.05 234 612 229.95 612 225C612 220.05 616.05 216 621 216C625.95 216 630 220.05 630 225C630 229.95 625.95 234 621 234Z" fill="#921792"/>
<path id="E - 18" d="M657 234C652.05 234 648 229.95 648 225C648 220.05 652.05 216 657 216C661.95 216 666 220.05 666 225C666 229.95 661.95 234 657 234Z" fill="#921792"/>
<path id="E - 19" d="M693 234C688.05 234 684 229.95 684 225C684 220.05 688.05 216 693 216C697.95 216 702 220.05 702 225C702 229.95 697.95 234 693 234Z" fill="#921792"/>
<path id="E - 20" d="M729 234C724.05 234 720 229.95 720 225C720 220.05 724.05 216 729 216C733.95 216 738 220.05 738 225C738 229.95 733.95 234 729 234Z" fill="#921792"/>
<path id="E - 21" d="M765 234C760.05 234 756 229.95 756 225C756 220.05 760.05 216 765 216C769.95 216 774 220.05 774 225C774 229.95 769.95 234 765 234Z" fill="#921792"/>
<path id="D - 01" d="M45 270C40.05 270 36 265.95 36 261C36 256.05 40.05 252 45 252C49.95 252 54 256.05 54 261C54 265.95 49.95 270 45 270Z" fill="#921792"/>
<path id="D - 02" d="M81 270C76.05 270 72 265.95 72 261C72 256.05 76.05 252 81 252C85.95 252 90 256.05 90 261C90 265.95 85.95 270 81 270Z" fill="#921792"/>
<path id="D - 03" d="M117 270C112.05 270 108 265.95 108 261C108 256.05 112.05 252 117 252C121.95 252 126 256.05 126 261C126 265.95 121.95 270 117 270Z" fill="#921792"/>
<path id="D - 04" d="M153 270C148.05 270 144 265.95 144 261C144 256.05 148.05 252 153 252C157.95 252 162 256.05 162 261C162 265.95 157.95 270 153 270Z" fill="#921792"/>
<path id="D - 05" d="M189 270C184.05 270 180 265.95 180 261C180 256.05 184.05 252 189 252C193.95 252 198 256.05 198 261C198 265.95 193.95 270 189 270Z" fill="#921792"/>
<path id="D - 06" d="M225 270C220.05 270 216 265.95 216 261C216 256.05 220.05 252 225 252C229.95 252 234 256.05 234 261C234 265.95 229.95 270 225 270Z" fill="#921792"/>
<path id="D - 07" d="M261 270C256.05 270 252 265.95 252 261C252 256.05 256.05 252 261 252C265.95 252 270 256.05 270 261C270 265.95 265.95 270 261 270Z" fill="#921792"/>
<path id="D - 08" d="M297 270C292.05 270 288 265.95 288 261C288 256.05 292.05 252 297 252C301.95 252 306 256.05 306 261C306 265.95 301.95 270 297 270Z" fill="#921792"/>
<path id="D - 09" d="M333 270C328.05 270 324 265.95 324 261C324 256.05 328.05 252 333 252C337.95 252 342 256.05 342 261C342 265.95 337.95 270 333 270Z" fill="#921792"/>
<path id="D - 10" d="M369 270C364.05 270 360 265.95 360 261C360 256.05 364.05 252 369 252C373.95 252 378 256.05 378 261C378 265.95 373.95 270 369 270Z" fill="#921792"/>
<path id="D - 11" d="M405 270C400.05 270 396 265.95 396 261C396 256.05 400.05 252 405 252C409.95 252 414 256.05 414 261C414 265.95 409.95 270 405 270Z" fill="#921792"/>
<path id="D - 12" d="M441 270C436.05 270 432 265.95 432 261C432 256.05 436.05 252 441 252C445.95 252 450 256.05 450 261C450 265.95 445.95 270 441 270Z" fill="#921792"/>
<path id="D - 13" d="M477 270C472.05 270 468 265.95 468 261C468 256.05 472.05 252 477 252C481.95 252 486 256.05 486 261C486 265.95 481.95 270 477 270Z" fill="#921792"/>
<path id="D - 14" d="M513 270C508.05 270 504 265.95 504 261C504 256.05 508.05 252 513 252C517.95 252 522 256.05 522 261C522 265.95 517.95 270 513 270Z" fill="#921792"/>
<path id="D - 15" d="M549 270C544.05 270 540 265.95 540 261C540 256.05 544.05 252 549 252C553.95 252 558 256.05 558 261C558 265.95 553.95 270 549 270Z" fill="#921792"/>
<path id="D - 16" d="M585 270C580.05 270 576 265.95 576 261C576 256.05 580.05 252 585 252C589.95 252 594 256.05 594 261C594 265.95 589.95 270 585 270Z" fill="#921792"/>
<path id="D - 17" d="M621 270C616.05 270 612 265.95 612 261C612 256.05 616.05 252 621 252C625.95 252 630 256.05 630 261C630 265.95 625.95 270 621 270Z" fill="#921792"/>
<path id="D - 18" d="M657 270C652.05 270 648 265.95 648 261C648 256.05 652.05 252 657 252C661.95 252 666 256.05 666 261C666 265.95 661.95 270 657 270Z" fill="#921792"/>
<path id="D - 19" d="M693 270C688.05 270 684 265.95 684 261C684 256.05 688.05 252 693 252C697.95 252 702 256.05 702 261C702 265.95 697.95 270 693 270Z" fill="#921792"/>
<path id="D - 20" d="M729 270C724.05 270 720 265.95 720 261C720 256.05 724.05 252 729 252C733.95 252 738 256.05 738 261C738 265.95 733.95 270 729 270Z" fill="#921792"/>
<path id="C - 01" d="M45 306C40.05 306 36 301.95 36 297C36 292.05 40.05 288 45 288C49.95 288 54 292.05 54 297C54 301.95 49.95 306 45 306Z" fill="#921792"/>
<path id="C - 02" d="M81 306C76.05 306 72 301.95 72 297C72 292.05 76.05 288 81 288C85.95 288 90 292.05 90 297C90 301.95 85.95 306 81 306Z" fill="#921792"/>
<path id="C - 03" d="M117 306C112.05 306 108 301.95 108 297C108 292.05 112.05 288 117 288C121.95 288 126 292.05 126 297C126 301.95 121.95 306 117 306Z" fill="#921792"/>
<path id="C - 04" d="M153 306C148.05 306 144 301.95 144 297C144 292.05 148.05 288 153 288C157.95 288 162 292.05 162 297C162 301.95 157.95 306 153 306Z" fill="#921792"/>
<path id="C - 05" d="M189 306C184.05 306 180 301.95 180 297C180 292.05 184.05 288 189 288C193.95 288 198 292.05 198 297C198 301.95 193.95 306 189 306Z" fill="#921792"/>
<path id="C - 06" d="M225 306C220.05 306 216 301.95 216 297C216 292.05 220.05 288 225 288C229.95 288 234 292.05 234 297C234 301.95 229.95 306 225 306Z" fill="#921792"/>
<path id="C - 07" d="M261 306C256.05 306 252 301.95 252 297C252 292.05 256.05 288 261 288C265.95 288 270 292.05 270 297C270 301.95 265.95 306 261 306Z" fill="#921792"/>
<path id="C - 08" d="M297 306C292.05 306 288 301.95 288 297C288 292.05 292.05 288 297 288C301.95 288 306 292.05 306 297C306 301.95 301.95 306 297 306Z" fill="#921792"/>
<path id="C - 09" d="M333 306C328.05 306 324 301.95 324 297C324 292.05 328.05 288 333 288C337.95 288 342 292.05 342 297C342 301.95 337.95 306 333 306Z" fill="#921792"/>
<path id="C - 10" d="M369 306C364.05 306 360 301.95 360 297C360 292.05 364.05 288 369 288C373.95 288 378 292.05 378 297C378 301.95 373.95 306 369 306Z" fill="#921792"/>
<path id="B - 01" d="M405 342C400.05 342 396 337.95 396 333C396 328.05 400.05 324 405 324C409.95 324 414 328.05 414 333C414 337.95 409.95 342 405 342Z" fill="#921792"/>
<path id="B - 02" d="M441 342C436.05 342 432 337.95 432 333C432 328.05 436.05 324 441 324C445.95 324 450 328.05 450 333C450 337.95 445.95 342 441 342Z" fill="#921792"/>
<path id="B - 03" d="M477 342C472.05 342 468 337.95 468 333C468 328.05 472.05 324 477 324C481.95 324 486 328.05 486 333C486 337.95 481.95 342 477 342Z" fill="#921792"/>
<path id="B - 04" d="M513 342C508.05 342 504 337.95 504 333C504 328.05 508.05 324 513 324C517.95 324 522 328.05 522 333C522 337.95 517.95 342 513 342Z" fill="#921792"/>
<path id="B - 05" d="M549 342C544.05 342 540 337.95 540 333C540 328.05 544.05 324 549 324C553.95 324 558 328.05 558 333C558 337.95 553.95 342 549 342Z" fill="#921792"/>
<path id="B - 06" d="M585 342C580.05 342 576 337.95 576 333C576 328.05 580.05 324 585 324C589.95 324 594 328.05 594 333C594 337.95 589.95 342 585 342Z" fill="#921792"/>
<path id="B - 07" d="M621 342C616.05 342 612 337.95 612 333C612 328.05 616.05 324 621 324C625.95 324 630 328.05 630 333C630 337.95 625.95 342 621 342Z" fill="#921792"/>
<path id="B - 08" d="M657 342C652.05 342 648 337.95 648 333C648 328.05 652.05 324 657 324C661.95 324 666 328.05 666 333C666 337.95 661.95 342 657 342Z" fill="#921792"/>
<path id="B - 09" d="M693 342C688.05 342 684 337.95 684 333C684 328.05 688.05 324 693 324C697.95 324 702 328.05 702 333C702 337.95 697.95 342 693 342Z" fill="#921792"/>
<path id="A - 01" d="M405 378C400.05 378 396 373.95 396 369C396 364.05 400.05 360 405 360C409.95 360 414 364.05 414 369C414 373.95 409.95 378 405 378Z" fill="#921792"/>
<path id="A - 02" d="M441 378C436.05 378 432 373.95 432 369C432 364.05 436.05 360 441 360C445.95 360 450 364.05 450 369C450 373.95 445.95 378 441 378Z" fill="#921792"/>
<path id="A - 03" d="M477 378C472.05 378 468 373.95 468 369C468 364.05 472.05 360 477 360C481.95 360 486 364.05 486 369C486 373.95 481.95 378 477 378Z" fill="#921792"/>
<path id="A - 04" d="M513 378C508.05 378 504 373.95 504 369C504 364.05 508.05 360 513 360C517.95 360 522 364.05 522 369C522 373.95 517.95 378 513 378Z" fill="#921792"/>
<path id="A - 05" d="M549 378C544.05 378 540 373.95 540 369C540 364.05 544.05 360 549 360C553.95 360 558 364.05 558 369C558 373.95 553.95 378 549 378Z" fill="#921792"/>
<path id="A - 06" d="M585 378C580.05 378 576 373.95 576 369C576 364.05 580.05 360 585 360C589.95 360 594 364.05 594 369C594 373.95 589.95 378 585 378Z" fill="#921792"/>
<path id="A - 07" d="M621 378C616.05 378 612 373.95 612 369C612 364.05 616.05 360 621 360C625.95 360 630 364.05 630 369C630 373.95 625.95 378 621 378Z" fill="#921792"/>
<path id="A - 08" d="M657 378C652.05 378 648 373.95 648 369C648 364.05 652.05 360 657 360C661.95 360 666 364.05 666 369C666 373.95 661.95 378 657 378Z" fill="#921792"/>
<path id="A - 09" d="M693 378C688.05 378 684 373.95 684 369C684 364.05 688.05 360 693 360C697.95 360 702 364.05 702 369C702 373.95 697.95 378 693 378Z" fill="#921792"/>
<path id="B - 10" d="M729 342C724.05 342 720 337.95 720 333C720 328.05 724.05 324 729 324C733.95 324 738 328.05 738 333C738 337.95 733.95 342 729 342Z" fill="#921792"/>
<path id="C - 11" d="M405 306C400.05 306 396 301.95 396 297C396 292.05 400.05 288 405 288C409.95 288 414 292.05 414 297C414 301.95 409.95 306 405 306Z" fill="#921792"/>
<path id="C - 12" d="M441 306C436.05 306 432 301.95 432 297C432 292.05 436.05 288 441 288C445.95 288 450 292.05 450 297C450 301.95 445.95 306 441 306Z" fill="#921792"/>
<path id="C - 13" d="M477 306C472.05 306 468 301.95 468 297C468 292.05 472.05 288 477 288C481.95 288 486 292.05 486 297C486 301.95 481.95 306 477 306Z" fill="#921792"/>
<path id="C - 14" d="M513 306C508.05 306 504 301.95 504 297C504 292.05 508.05 288 513 288C517.95 288 522 292.05 522 297C522 301.95 517.95 306 513 306Z" fill="#921792"/>
<path id="C - 15" d="M549 306C544.05 306 540 301.95 540 297C540 292.05 544.05 288 549 288C553.95 288 558 292.05 558 297C558 301.95 553.95 306 549 306Z" fill="#921792"/>
<path id="C - 16" d="M585 306C580.05 306 576 301.95 576 297C576 292.05 580.05 288 585 288C589.95 288 594 292.05 594 297C594 301.95 589.95 306 585 306Z" fill="#921792"/>
<path id="C - 17" d="M621 306C616.05 306 612 301.95 612 297C612 292.05 616.05 288 621 288C625.95 288 630 292.05 630 297C630 301.95 625.95 306 621 306Z" fill="#921792"/>
<path id="C - 18" d="M657 306C652.05 306 648 301.95 648 297C648 292.05 652.05 288 657 288C661.95 288 666 292.05 666 297C666 301.95 661.95 306 657 306Z" fill="#921792"/>
<path id="C - 19" d="M693 306C688.05 306 684 301.95 684 297C684 292.05 688.05 288 693 288C697.95 288 702 292.05 702 297C702 301.95 697.95 306 693 306Z" fill="#921792"/>
<path id="C - 20" d="M729 306C724.05 306 720 301.95 720 297C720 292.05 724.05 288 729 288C733.95 288 738 292.05 738 297C738 301.95 733.95 306 729 306Z" fill="#921792"/>
<path id="D - 21" d="M765 270C760.05 270 756 265.95 756 261C756 256.05 760.05 252 765 252C769.95 252 774 256.05 774 261C774 265.95 769.95 270 765 270Z" fill="#921792"/>
<path id="F - 22" d="M801 198C796.05 198 792 193.95 792 189C792 184.05 796.05 180 801 180C805.95 180 810 184.05 810 189C810 193.95 805.95 198 801 198Z" fill="#921792"/>
<path id="H - 23" d="M837 126C832.05 126 828 121.95 828 117C828 112.05 832.05 108 837 108C841.95 108 846 112.05 846 117C846 121.95 841.95 126 837 126Z" fill="#921792"/>
<path id="k_2" d="M905.869 15V3.42166H907.616V8.95077H907.757L912.613 3.42166H914.813L910.143 8.63418L914.83 15H912.727L908.984 9.82706L907.616 11.3987V15H905.869Z" fill="white"/>
<path id="j" d="M10.3802 39.4217H12.1214V47.6305C12.1214 48.373 11.9744 49.0081 11.6805 49.5357C11.3902 50.0634 10.9813 50.4667 10.4537 50.7456C9.92599 51.0207 9.30788 51.1583 8.59931 51.1583C7.94727 51.1583 7.3612 51.0396 6.84108 50.8021C6.32472 50.5647 5.91579 50.2198 5.61427 49.7675C5.31652 49.3115 5.16764 48.7575 5.16764 48.1054H6.90326C6.90326 48.4258 6.97676 48.7028 7.12375 48.9365C7.27451 49.1702 7.47992 49.353 7.73998 49.4849C8.00381 49.613 8.30533 49.6771 8.64454 49.6771C9.0139 49.6771 9.32672 49.5998 9.58302 49.4453C9.84308 49.287 10.0409 49.0552 10.1766 48.7499C10.3123 48.4446 10.3802 48.0715 10.3802 47.6305V39.4217Z" fill="white"/>
<path id="j_2" d="M911.263 39.4217H913.004V47.6305C913.004 48.373 912.857 49.0081 912.563 49.5357C912.273 50.0634 911.864 50.4667 911.336 50.7456C910.809 51.0207 910.191 51.1583 909.482 51.1583C908.83 51.1583 908.244 51.0396 907.724 50.8021C907.208 50.5647 906.799 50.2198 906.497 49.7675C906.199 49.3115 906.05 48.7575 906.05 48.1054H907.786C907.786 48.4258 907.86 48.7028 908.007 48.9365C908.157 49.1702 908.363 49.353 908.623 49.4849C908.887 49.613 909.188 49.6771 909.527 49.6771C909.897 49.6771 910.21 49.5998 910.466 49.4453C910.726 49.287 910.924 49.0552 911.059 48.7499C911.195 48.4446 911.263 48.0715 911.263 47.6305V39.4217Z" fill="white"/>
<path id="i" d="M9.87346 75.4217V87H8.12654V75.4217H9.87346Z" fill="white"/>
<path id="h" d="M4.36414 123V111.422H6.11107V116.453H11.8833V111.422H13.6359V123H11.8833V117.951H6.11107V123H4.36414Z" fill="white"/>
<path id="g" d="M12.1455 151.079C12.0362 150.736 11.8892 150.429 11.7045 150.158C11.5236 149.883 11.3069 149.649 11.0543 149.457C10.8018 149.261 10.5135 149.112 10.1894 149.01C9.86899 148.909 9.51659 148.858 9.13215 148.858C8.48012 148.858 7.89215 149.025 7.36826 149.361C6.84437 149.696 6.42978 150.188 6.1245 150.836C5.82298 151.481 5.67222 152.27 5.67222 153.205C5.67222 154.144 5.82486 154.937 6.13015 155.585C6.43544 156.234 6.8538 156.725 7.38522 157.061C7.91665 157.396 8.52157 157.564 9.19999 157.564C9.82941 157.564 10.3778 157.436 10.8452 157.18C11.3163 156.923 11.68 156.561 11.9363 156.094C12.1963 155.623 12.3264 155.069 12.3264 154.432L12.7786 154.517H9.46571V153.075H14.0168V154.392C14.0168 155.365 13.8095 156.209 13.3949 156.925C12.9841 157.638 12.4149 158.188 11.6875 158.576C10.9639 158.964 10.1347 159.158 9.19999 159.158C8.15221 159.158 7.23258 158.917 6.44109 158.435C5.65337 157.952 5.03903 157.268 4.59806 156.382C4.15708 155.493 3.9366 154.438 3.9366 153.216C3.9366 152.293 4.06474 151.464 4.32104 150.729C4.57733 149.994 4.93727 149.37 5.40085 148.858C5.86821 148.341 6.41659 147.947 7.04601 147.676C7.6792 147.401 8.37081 147.263 9.12084 147.263C9.7465 147.263 10.3288 147.356 10.8678 147.54C11.4105 147.725 11.8929 147.987 12.3151 148.326C12.741 148.665 13.0934 149.069 13.3723 149.536C13.6512 150 13.8396 150.514 13.9376 151.079H12.1455Z" fill="white"/>
<path id="f" d="M5.60791 195V183.422H12.7878V184.925H7.35484V188.453H12.2734V189.951H7.35484V195H5.60791Z" fill="white"/>
<path id="e" d="M5.47576 231V219.422H12.7348V220.925H7.22269V224.453H12.356V225.951H7.22269V229.496H12.8027V231H5.47576Z" fill="white"/>
<path id="d" d="M8.27565 267H4.52739V255.422H8.39437C9.52884 255.422 10.5031 255.653 11.3172 256.117C12.1313 256.577 12.7551 257.238 13.1885 258.101C13.6257 258.961 13.8443 259.992 13.8443 261.194C13.8443 262.4 13.6238 263.436 13.1829 264.303C12.7457 265.17 12.1125 265.837 11.2833 266.305C10.4541 266.768 9.45157 267 8.27565 267ZM6.27431 265.474H8.17954C9.06148 265.474 9.79455 265.308 10.3787 264.976C10.9629 264.641 11.4001 264.156 11.6904 263.523C11.9806 262.886 12.1257 262.11 12.1257 261.194C12.1257 260.286 11.9806 259.515 11.6904 258.882C11.4039 258.248 10.9761 257.768 10.407 257.44C9.83789 257.112 9.13121 256.948 8.28695 256.948H6.27431V265.474Z" fill="white"/>
<path id="C" d="M14.0351 295.187H12.2712C12.2034 294.81 12.0771 294.478 11.8925 294.192C11.7078 293.905 11.4816 293.662 11.214 293.463C10.9464 293.263 10.6468 293.112 10.3151 293.01C9.98724 292.909 9.63861 292.858 9.26925 292.858C8.60214 292.858 8.00475 293.025 7.47709 293.361C6.9532 293.696 6.53861 294.188 6.23333 294.836C5.93181 295.485 5.78105 296.276 5.78105 297.211C5.78105 298.153 5.93181 298.948 6.23333 299.597C6.53861 300.245 6.95509 300.735 7.48275 301.067C8.0104 301.398 8.60402 301.564 9.26359 301.564C9.62919 301.564 9.97593 301.515 10.3038 301.417C10.6355 301.315 10.9351 301.166 11.2027 300.97C11.4703 300.774 11.6965 300.535 11.8812 300.252C12.0696 299.966 12.1996 299.638 12.2712 299.269L14.0351 299.274C13.9409 299.843 13.7581 300.367 13.4867 300.846C13.2191 301.321 12.8743 301.732 12.4522 302.078C12.0338 302.421 11.5551 302.687 11.0162 302.876C10.4772 303.064 9.88925 303.158 9.25229 303.158C8.24974 303.158 7.35649 302.921 6.57254 302.446C5.78859 301.967 5.17047 301.283 4.71819 300.394C4.26968 299.504 4.04543 298.443 4.04543 297.211C4.04543 295.975 4.27157 294.914 4.72385 294.028C5.17612 293.138 5.79424 292.456 6.57819 291.981C7.36214 291.503 8.2535 291.263 9.25229 291.263C9.86663 291.263 10.4395 291.352 10.9709 291.529C11.5061 291.702 11.9867 291.959 12.4126 292.298C12.8385 292.633 13.1909 293.044 13.4698 293.53C13.7487 294.013 13.9371 294.565 14.0351 295.187Z" fill="white"/>
<path id="b" d="M365.064 339V327.422H369.304C370.126 327.422 370.806 327.557 371.345 327.829C371.884 328.096 372.287 328.46 372.555 328.92C372.822 329.376 372.956 329.89 372.956 330.463C372.956 330.946 372.867 331.353 372.69 331.684C372.513 332.012 372.276 332.276 371.978 332.476C371.684 332.672 371.36 332.815 371.006 332.906V333.019C371.39 333.037 371.765 333.162 372.131 333.392C372.5 333.618 372.805 333.94 373.046 334.358C373.288 334.777 373.408 335.286 373.408 335.885C373.408 336.477 373.269 337.008 372.99 337.479C372.715 337.947 372.289 338.318 371.712 338.593C371.136 338.864 370.399 339 369.502 339H365.064ZM366.811 337.502H369.332C370.169 337.502 370.768 337.34 371.13 337.016C371.492 336.691 371.673 336.286 371.673 335.8C371.673 335.435 371.58 335.099 371.396 334.794C371.211 334.489 370.947 334.245 370.604 334.065C370.265 333.884 369.862 333.793 369.394 333.793H366.811V337.502ZM366.811 332.431H369.151C369.543 332.431 369.896 332.355 370.208 332.205C370.525 332.054 370.776 331.843 370.96 331.571C371.149 331.296 371.243 330.972 371.243 330.599C371.243 330.12 371.075 329.719 370.74 329.395C370.404 329.071 369.89 328.909 369.196 328.909H366.811V332.431Z" fill="white"/>
<path id="a" d="M365.676 375H363.822L367.989 363.422H370.007L374.174 375H372.319L369.046 365.525H368.955L365.676 375ZM365.987 370.466H372.003V371.936H365.987V370.466Z" fill="white"/>
<path id="i_2" d="M873.873 75.4217V87H872.127V75.4217H873.873Z" fill="white"/>
<path id="h_2" d="M868.364 123V111.422H870.111V116.453H875.883V111.422H877.636V123H875.883V117.951H870.111V123H868.364Z" fill="white"/>
<path id="g_2" d="M840.145 151.079C840.036 150.736 839.889 150.429 839.704 150.158C839.524 149.883 839.307 149.649 839.054 149.457C838.802 149.261 838.513 149.112 838.189 149.01C837.869 148.909 837.517 148.858 837.132 148.858C836.48 148.858 835.892 149.025 835.368 149.361C834.844 149.696 834.43 150.188 834.124 150.836C833.823 151.481 833.672 152.27 833.672 153.205C833.672 154.144 833.825 154.937 834.13 155.585C834.435 156.234 834.854 156.725 835.385 157.061C835.917 157.396 836.522 157.564 837.2 157.564C837.829 157.564 838.378 157.436 838.845 157.18C839.316 156.923 839.68 156.561 839.936 156.094C840.196 155.623 840.326 155.069 840.326 154.432L840.779 154.517H837.466V153.075H842.017V154.392C842.017 155.365 841.809 156.209 841.395 156.925C840.984 157.638 840.415 158.188 839.688 158.576C838.964 158.964 838.135 159.158 837.2 159.158C836.152 159.158 835.233 158.917 834.441 158.435C833.653 157.952 833.039 157.268 832.598 156.382C832.157 155.493 831.937 154.438 831.937 153.216C831.937 152.293 832.065 151.464 832.321 150.729C832.577 149.994 832.937 149.37 833.401 148.858C833.868 148.341 834.417 147.947 835.046 147.676C835.679 147.401 836.371 147.263 837.121 147.263C837.746 147.263 838.329 147.356 838.868 147.54C839.411 147.725 839.893 147.987 840.315 148.326C840.741 148.665 841.093 149.069 841.372 149.536C841.651 150 841.84 150.514 841.938 151.079H840.145Z" fill="white"/>
<path id="f_2" d="M833.608 195V183.422H840.788V184.925H835.355V188.453H840.273V189.951H835.355V195H833.608Z" fill="white"/>
<path id="e_2" d="M797.476 231V219.422H804.735V220.925H799.223V224.453H804.356V225.951H799.223V229.496H804.803V231H797.476Z" fill="white"/>
<path id="d_2" d="M800.276 267H796.527V255.422H800.394C801.529 255.422 802.503 255.653 803.317 256.117C804.131 256.577 804.755 257.238 805.189 258.101C805.626 258.961 805.844 259.992 805.844 261.194C805.844 262.4 805.624 263.436 805.183 264.303C804.746 265.17 804.112 265.837 803.283 266.305C802.454 266.768 801.452 267 800.276 267ZM798.274 265.474H800.18C801.061 265.474 801.795 265.308 802.379 264.976C802.963 264.641 803.4 264.156 803.69 263.523C803.981 262.886 804.126 262.11 804.126 261.194C804.126 260.286 803.981 259.515 803.69 258.882C803.404 258.248 802.976 257.768 802.407 257.44C801.838 257.112 801.131 256.948 800.287 256.948H798.274V265.474Z" fill="white"/>
<path id="b_2" d="M761.064 339V327.422H765.304C766.126 327.422 766.806 327.557 767.345 327.829C767.884 328.096 768.287 328.46 768.555 328.92C768.822 329.376 768.956 329.89 768.956 330.463C768.956 330.946 768.867 331.353 768.69 331.684C768.513 332.012 768.276 332.276 767.978 332.476C767.684 332.672 767.36 332.815 767.006 332.906V333.019C767.39 333.037 767.765 333.162 768.131 333.392C768.5 333.618 768.805 333.94 769.046 334.358C769.288 334.777 769.408 335.286 769.408 335.885C769.408 336.477 769.269 337.008 768.99 337.479C768.715 337.947 768.289 338.318 767.712 338.593C767.136 338.864 766.399 339 765.502 339H761.064ZM762.811 337.502H765.332C766.169 337.502 766.768 337.34 767.13 337.016C767.492 336.691 767.673 336.286 767.673 335.8C767.673 335.435 767.58 335.099 767.396 334.794C767.211 334.489 766.947 334.245 766.604 334.065C766.265 333.884 765.862 333.793 765.394 333.793H762.811V337.502ZM762.811 332.431H765.151C765.543 332.431 765.896 332.355 766.208 332.205C766.525 332.054 766.776 331.843 766.96 331.571C767.149 331.296 767.243 330.972 767.243 330.599C767.243 330.12 767.075 329.719 766.74 329.395C766.404 329.071 765.89 328.909 765.196 328.909H762.811V332.431Z" fill="white"/>
<path id="a_2" d="M725.676 375H723.822L727.989 363.422H730.007L734.174 375H732.319L729.046 365.525H728.955L725.676 375ZM725.987 370.466H732.003V371.936H725.987V370.466Z" fill="white"/>
<path id="c" d="M770.035 295.187H768.271C768.203 294.81 768.077 294.478 767.892 294.192C767.708 293.905 767.482 293.662 767.214 293.463C766.946 293.263 766.647 293.112 766.315 293.01C765.987 292.909 765.639 292.858 765.269 292.858C764.602 292.858 764.005 293.025 763.477 293.361C762.953 293.696 762.539 294.188 762.233 294.836C761.932 295.485 761.781 296.276 761.781 297.211C761.781 298.153 761.932 298.948 762.233 299.597C762.539 300.245 762.955 300.735 763.483 301.067C764.01 301.398 764.604 301.564 765.264 301.564C765.629 301.564 765.976 301.515 766.304 301.417C766.636 301.315 766.935 301.166 767.203 300.97C767.47 300.774 767.696 300.535 767.881 300.252C768.07 299.966 768.2 299.638 768.271 299.269L770.035 299.274C769.941 299.843 769.758 300.367 769.487 300.846C769.219 301.321 768.874 301.732 768.452 302.078C768.034 302.421 767.555 302.687 767.016 302.876C766.477 303.064 765.889 303.158 765.252 303.158C764.25 303.158 763.356 302.921 762.573 302.446C761.789 301.967 761.17 301.283 760.718 300.394C760.27 299.504 760.045 298.443 760.045 297.211C760.045 295.975 760.272 294.914 760.724 294.028C761.176 293.138 761.794 292.456 762.578 291.981C763.362 291.503 764.254 291.263 765.252 291.263C765.867 291.263 766.44 291.352 766.971 291.529C767.506 291.702 767.987 291.959 768.413 292.298C768.838 292.633 769.191 293.044 769.47 293.53C769.749 294.013 769.937 294.565 770.035 295.187Z" fill="white"/>
</g>
</svg>
