<svg width="655" height="378" viewBox="0 0 655 378" fill="none" xmlns="http://www.w3.org/2000/svg">
<g id="211">
<path id="k" d="M1.98603 15V3.42166H3.73295V8.95077H3.87429L8.73063 3.42166H10.9298L6.26006 8.63418L10.9468 15H8.8437L5.1011 9.82706L3.73295 11.3987V15H1.98603Z" fill="white"/>
<path id="k_2" d="M644.869 15V3.42166H646.616V8.95077H646.757L651.613 3.42166H653.813L649.143 8.63418L653.83 15H651.727L647.984 9.82706L646.616 11.3987V15H644.869Z" fill="white"/>
<path id="j" d="M7.38016 39.4217H9.12143V47.6305C9.12143 48.373 8.97444 49.0081 8.68046 49.5357C8.39025 50.0634 7.98131 50.4667 7.45365 50.7456C6.92599 51.0207 6.30788 51.1583 5.59931 51.1583C4.94727 51.1583 4.3612 51.0396 3.84108 50.8021C3.32472 50.5647 2.91579 50.2198 2.61427 49.7675C2.31652 49.3115 2.16764 48.7575 2.16764 48.1054H3.90326C3.90326 48.4258 3.97676 48.7028 4.12375 48.9365C4.27451 49.1702 4.47992 49.353 4.73998 49.4849C5.00381 49.613 5.30533 49.6771 5.64454 49.6771C6.0139 49.6771 6.32672 49.5998 6.58302 49.4453C6.84308 49.287 7.04095 49.0552 7.17663 48.7499C7.31232 48.4446 7.38016 48.0715 7.38016 47.6305V39.4217Z" fill="white"/>
<path id="J - 01" d="M39.8828 54C34.9328 54 30.8828 49.95 30.8828 45C30.8828 40.05 34.9328 36 39.8828 36C44.8328 36 48.8828 40.05 48.8828 45C48.8828 49.95 44.8328 54 39.8828 54Z" fill="#921792"/>
<path id="J - 02" d="M75.8828 54C70.9328 54 66.8828 49.95 66.8828 45C66.8828 40.05 70.9328 36 75.8828 36C80.8328 36 84.8828 40.05 84.8828 45C84.8828 49.95 80.8328 54 75.8828 54Z" fill="#921792"/>
<path id="J - 03" d="M111.883 54C106.933 54 102.883 49.95 102.883 45C102.883 40.05 106.933 36 111.883 36C116.833 36 120.883 40.05 120.883 45C120.883 49.95 116.833 54 111.883 54Z" fill="#921792"/>
<path id="J - 04" d="M147.883 54C142.933 54 138.883 49.95 138.883 45C138.883 40.05 142.933 36 147.883 36C152.833 36 156.883 40.05 156.883 45C156.883 49.95 152.833 54 147.883 54Z" fill="#921792"/>
<path id="J - 05" d="M183.883 54C178.933 54 174.883 49.95 174.883 45C174.883 40.05 178.933 36 183.883 36C188.833 36 192.883 40.05 192.883 45C192.883 49.95 188.833 54 183.883 54Z" fill="#921792"/>
<path id="J - 06" d="M219.883 54C214.933 54 210.883 49.95 210.883 45C210.883 40.05 214.933 36 219.883 36C224.833 36 228.883 40.05 228.883 45C228.883 49.95 224.833 54 219.883 54Z" fill="#921792"/>
<path id="J - 07" d="M255.883 54C250.933 54 246.883 49.95 246.883 45C246.883 40.05 250.933 36 255.883 36C260.833 36 264.883 40.05 264.883 45C264.883 49.95 260.833 54 255.883 54Z" fill="#921792"/>
<path id="J - 08" d="M291.883 54C286.933 54 282.883 49.95 282.883 45C282.883 40.05 286.933 36 291.883 36C296.833 36 300.883 40.05 300.883 45C300.883 49.95 296.833 54 291.883 54Z" fill="#921792"/>
<path id="J - 09" d="M327.883 54C322.933 54 318.883 49.95 318.883 45C318.883 40.05 322.933 36 327.883 36C332.833 36 336.883 40.05 336.883 45C336.883 49.95 332.833 54 327.883 54Z" fill="#921792"/>
<path id="J - 10" d="M363.883 54C358.933 54 354.883 49.95 354.883 45C354.883 40.05 358.933 36 363.883 36C368.833 36 372.883 40.05 372.883 45C372.883 49.95 368.833 54 363.883 54Z" fill="#921792"/>
<path id="J - 11" d="M399.883 54C394.933 54 390.883 49.95 390.883 45C390.883 40.05 394.933 36 399.883 36C404.833 36 408.883 40.05 408.883 45C408.883 49.95 404.833 54 399.883 54Z" fill="#921792"/>
<path id="J - 12" d="M435.883 54C430.933 54 426.883 49.95 426.883 45C426.883 40.05 430.933 36 435.883 36C440.833 36 444.883 40.05 444.883 45C444.883 49.95 440.833 54 435.883 54Z" fill="#921792"/>
<path id="J - 13" d="M471.883 54C466.933 54 462.883 49.95 462.883 45C462.883 40.05 466.933 36 471.883 36C476.833 36 480.883 40.05 480.883 45C480.883 49.95 476.833 54 471.883 54Z" fill="#921792"/>
<path id="J - 14" d="M507.883 54C502.933 54 498.883 49.95 498.883 45C498.883 40.05 502.933 36 507.883 36C512.833 36 516.883 40.05 516.883 45C516.883 49.95 512.833 54 507.883 54Z" fill="#921792"/>
<path id="J - 15" d="M543.883 54C538.933 54 534.883 49.95 534.883 45C534.883 40.05 538.933 36 543.883 36C548.833 36 552.883 40.05 552.883 45C552.883 49.95 548.833 54 543.883 54Z" fill="#921792"/>
<path id="J - 16" d="M579.883 54C574.933 54 570.883 49.95 570.883 45C570.883 40.05 574.933 36 579.883 36C584.833 36 588.883 40.05 588.883 45C588.883 49.95 584.833 54 579.883 54Z" fill="#921792"/>
<path id="J - 17" d="M615.883 54C610.933 54 606.883 49.95 606.883 45C606.883 40.05 610.933 36 615.883 36C620.833 36 624.883 40.05 624.883 45C624.883 49.95 620.833 54 615.883 54Z" fill="#921792"/>
<path id="j_2" d="M650.263 39.4217H652.004V47.6305C652.004 48.373 651.857 49.0081 651.563 49.5357C651.273 50.0634 650.864 50.4667 650.336 50.7456C649.809 51.0207 649.191 51.1583 648.482 51.1583C647.83 51.1583 647.244 51.0396 646.724 50.8021C646.208 50.5647 645.799 50.2198 645.497 49.7675C645.199 49.3115 645.05 48.7575 645.05 48.1054H646.786C646.786 48.4258 646.86 48.7028 647.007 48.9365C647.157 49.1702 647.363 49.353 647.623 49.4849C647.887 49.613 648.188 49.6771 648.527 49.6771C648.897 49.6771 649.21 49.5998 649.466 49.4453C649.726 49.287 649.924 49.0552 650.059 48.7499C650.195 48.4446 650.263 48.0715 650.263 47.6305V39.4217Z" fill="white"/>
<path id="i" d="M6.87346 75.4217V87H5.12654V75.4217H6.87346Z" fill="white"/>
<path id="I - 01" d="M39 90C34.05 90 30 85.95 30 81C30 76.05 34.05 72 39 72C43.95 72 48 76.05 48 81C48 85.95 43.95 90 39 90Z" fill="#921792"/>
<path id="I - 02" d="M75 90C70.05 90 66 85.95 66 81C66 76.05 70.05 72 75 72C79.95 72 84 76.05 84 81C84 85.95 79.95 90 75 90Z" fill="#921792"/>
<path id="I - 03" d="M111 90C106.05 90 102 85.95 102 81C102 76.05 106.05 72 111 72C115.95 72 120 76.05 120 81C120 85.95 115.95 90 111 90Z" fill="#921792"/>
<path id="I - 04" d="M147 90C142.05 90 138 85.95 138 81C138 76.05 142.05 72 147 72C151.95 72 156 76.05 156 81C156 85.95 151.95 90 147 90Z" fill="#921792"/>
<path id="I - 05" d="M183 90C178.05 90 174 85.95 174 81C174 76.05 178.05 72 183 72C187.95 72 192 76.05 192 81C192 85.95 187.95 90 183 90Z" fill="#921792"/>
<path id="I - 06" d="M219 90C214.05 90 210 85.95 210 81C210 76.05 214.05 72 219 72C223.95 72 228 76.05 228 81C228 85.95 223.95 90 219 90Z" fill="#921792"/>
<path id="I - 07" d="M255 90C250.05 90 246 85.95 246 81C246 76.05 250.05 72 255 72C259.95 72 264 76.05 264 81C264 85.95 259.95 90 255 90Z" fill="#921792"/>
<path id="I - 08" d="M291 90C286.05 90 282 85.95 282 81C282 76.05 286.05 72 291 72C295.95 72 300 76.05 300 81C300 85.95 295.95 90 291 90Z" fill="#921792"/>
<path id="I - 09" d="M327 90C322.05 90 318 85.95 318 81C318 76.05 322.05 72 327 72C331.95 72 336 76.05 336 81C336 85.95 331.95 90 327 90Z" fill="#921792"/>
<path id="I - 10" d="M363 90C358.05 90 354 85.95 354 81C354 76.05 358.05 72 363 72C367.95 72 372 76.05 372 81C372 85.95 367.95 90 363 90Z" fill="#921792"/>
<path id="I - 11" d="M399 90C394.05 90 390 85.95 390 81C390 76.05 394.05 72 399 72C403.95 72 408 76.05 408 81C408 85.95 403.95 90 399 90Z" fill="#921792"/>
<path id="I - 12" d="M435 90C430.05 90 426 85.95 426 81C426 76.05 430.05 72 435 72C439.95 72 444 76.05 444 81C444 85.95 439.95 90 435 90Z" fill="#921792"/>
<path id="I - 13" d="M471 90C466.05 90 462 85.95 462 81C462 76.05 466.05 72 471 72C475.95 72 480 76.05 480 81C480 85.95 475.95 90 471 90Z" fill="#921792"/>
<path id="I - 14" d="M507 90C502.05 90 498 85.95 498 81C498 76.05 502.05 72 507 72C511.95 72 516 76.05 516 81C516 85.95 511.95 90 507 90Z" fill="#921792"/>
<path id="I - 15" d="M543 90C538.05 90 534 85.95 534 81C534 76.05 538.05 72 543 72C547.95 72 552 76.05 552 81C552 85.95 547.95 90 543 90Z" fill="#921792"/>
<path id="I - 16" d="M579 90C574.05 90 570 85.95 570 81C570 76.05 574.05 72 579 72C583.95 72 588 76.05 588 81C588 85.95 583.95 90 579 90Z" fill="#921792"/>
<path id="I - 17" d="M615 90C610.05 90 606 85.95 606 81C606 76.05 610.05 72 615 72C619.95 72 624 76.05 624 81C624 85.95 619.95 90 615 90Z" fill="#921792"/>
<path id="i_2" d="M648.873 75.4217V87H647.127V75.4217H648.873Z" fill="white"/>
<path id="h" d="M1.36414 123V111.422H3.11107V116.453H8.88328V111.422H10.6359V123H8.88328V117.951H3.11107V123H1.36414Z" fill="white"/>
<path id="H - 01" d="M39 126C34.05 126 30 121.95 30 117C30 112.05 34.05 108 39 108C43.95 108 48 112.05 48 117C48 121.95 43.95 126 39 126Z" fill="#921792"/>
<path id="H - 02" d="M75 126C70.05 126 66 121.95 66 117C66 112.05 70.05 108 75 108C79.95 108 84 112.05 84 117C84 121.95 79.95 126 75 126Z" fill="#921792"/>
<path id="H - 03" d="M111 126C106.05 126 102 121.95 102 117C102 112.05 106.05 108 111 108C115.95 108 120 112.05 120 117C120 121.95 115.95 126 111 126Z" fill="#921792"/>
<path id="H - 04" d="M147 126C142.05 126 138 121.95 138 117C138 112.05 142.05 108 147 108C151.95 108 156 112.05 156 117C156 121.95 151.95 126 147 126Z" fill="#921792"/>
<path id="H - 05" d="M183 126C178.05 126 174 121.95 174 117C174 112.05 178.05 108 183 108C187.95 108 192 112.05 192 117C192 121.95 187.95 126 183 126Z" fill="#921792"/>
<path id="H - 06" d="M219 126C214.05 126 210 121.95 210 117C210 112.05 214.05 108 219 108C223.95 108 228 112.05 228 117C228 121.95 223.95 126 219 126Z" fill="#921792"/>
<path id="H - 07" d="M255 126C250.05 126 246 121.95 246 117C246 112.05 250.05 108 255 108C259.95 108 264 112.05 264 117C264 121.95 259.95 126 255 126Z" fill="#921792"/>
<path id="H - 08" d="M291 126C286.05 126 282 121.95 282 117C282 112.05 286.05 108 291 108C295.95 108 300 112.05 300 117C300 121.95 295.95 126 291 126Z" fill="#921792"/>
<path id="H - 09" d="M327 126C322.05 126 318 121.95 318 117C318 112.05 322.05 108 327 108C331.95 108 336 112.05 336 117C336 121.95 331.95 126 327 126Z" fill="#921792"/>
<path id="H - 10" d="M363 126C358.05 126 354 121.95 354 117C354 112.05 358.05 108 363 108C367.95 108 372 112.05 372 117C372 121.95 367.95 126 363 126Z" fill="#921792"/>
<path id="H - 11" d="M399 126C394.05 126 390 121.95 390 117C390 112.05 394.05 108 399 108C403.95 108 408 112.05 408 117C408 121.95 403.95 126 399 126Z" fill="#921792"/>
<path id="H - 12" d="M435 126C430.05 126 426 121.95 426 117C426 112.05 430.05 108 435 108C439.95 108 444 112.05 444 117C444 121.95 439.95 126 435 126Z" fill="#921792"/>
<path id="H - 13" d="M471 126C466.05 126 462 121.95 462 117C462 112.05 466.05 108 471 108C475.95 108 480 112.05 480 117C480 121.95 475.95 126 471 126Z" fill="#921792"/>
<path id="H - 14" d="M507 126C502.05 126 498 121.95 498 117C498 112.05 502.05 108 507 108C511.95 108 516 112.05 516 117C516 121.95 511.95 126 507 126Z" fill="#921792"/>
<path id="H - 15" d="M543 126C538.05 126 534 121.95 534 117C534 112.05 538.05 108 543 108C547.95 108 552 112.05 552 117C552 121.95 547.95 126 543 126Z" fill="#921792"/>
<path id="H - 16" d="M579 126C574.05 126 570 121.95 570 117C570 112.05 574.05 108 579 108C583.95 108 588 112.05 588 117C588 121.95 583.95 126 579 126Z" fill="#921792"/>
<path id="H - 17" d="M615 126C610.05 126 606 121.95 606 117C606 112.05 610.05 108 615 108C619.95 108 624 112.05 624 117C624 121.95 619.95 126 615 126Z" fill="#921792"/>
<path id="h_2" d="M643.364 123V111.422H645.111V116.453H650.883V111.422H652.636V123H650.883V117.951H645.111V123H643.364Z" fill="white"/>
<path id="g" d="M9.14546 151.079C9.03616 150.736 8.88917 150.429 8.70449 150.158C8.52357 149.883 8.30686 149.649 8.05433 149.457C7.80181 149.261 7.51348 149.112 7.18935 149.01C6.86899 148.909 6.51659 148.858 6.13215 148.858C5.48012 148.858 4.89215 149.025 4.36826 149.361C3.84437 149.696 3.42978 150.188 3.1245 150.836C2.82298 151.481 2.67222 152.27 2.67222 153.205C2.67222 154.144 2.82486 154.937 3.13015 155.585C3.43544 156.234 3.8538 156.725 4.38522 157.061C4.91665 157.396 5.52157 157.564 6.19999 157.564C6.82941 157.564 7.3778 157.436 7.84516 157.18C8.31628 156.923 8.67999 156.561 8.93628 156.094C9.19634 155.623 9.32637 155.069 9.32637 154.432L9.77865 154.517H6.46571V153.075H11.0168V154.392C11.0168 155.365 10.8095 156.209 10.3949 156.925C9.98406 157.638 9.41494 158.188 8.68753 158.576C7.96388 158.964 7.1347 159.158 6.19999 159.158C5.15221 159.158 4.23258 158.917 3.44109 158.435C2.65337 157.952 2.03903 157.268 1.59806 156.382C1.15708 155.493 0.936598 154.438 0.936598 153.216C0.936598 152.293 1.06474 151.464 1.32104 150.729C1.57733 149.994 1.93727 149.37 2.40085 148.858C2.86821 148.341 3.41659 147.947 4.04601 147.676C4.6792 147.401 5.37081 147.263 6.12084 147.263C6.7465 147.263 7.3288 147.356 7.86777 147.54C8.4105 147.725 8.89293 147.987 9.31506 148.326C9.74096 148.665 10.0934 149.069 10.3723 149.536C10.6512 150 10.8396 150.514 10.9376 151.079H9.14546Z" fill="white"/>
<path id="G - 01" d="M39 162C34.05 162 30 157.95 30 153C30 148.05 34.05 144 39 144C43.95 144 48 148.05 48 153C48 157.95 43.95 162 39 162Z" fill="#921792"/>
<path id="G - 02" d="M75 162C70.05 162 66 157.95 66 153C66 148.05 70.05 144 75 144C79.95 144 84 148.05 84 153C84 157.95 79.95 162 75 162Z" fill="#921792"/>
<path id="G - 03" d="M111 162C106.05 162 102 157.95 102 153C102 148.05 106.05 144 111 144C115.95 144 120 148.05 120 153C120 157.95 115.95 162 111 162Z" fill="#921792"/>
<path id="G - 04" d="M147 162C142.05 162 138 157.95 138 153C138 148.05 142.05 144 147 144C151.95 144 156 148.05 156 153C156 157.95 151.95 162 147 162Z" fill="#921792"/>
<path id="G - 05" d="M183 162C178.05 162 174 157.95 174 153C174 148.05 178.05 144 183 144C187.95 144 192 148.05 192 153C192 157.95 187.95 162 183 162Z" fill="#921792"/>
<path id="G - 06" d="M219 162C214.05 162 210 157.95 210 153C210 148.05 214.05 144 219 144C223.95 144 228 148.05 228 153C228 157.95 223.95 162 219 162Z" fill="#921792"/>
<path id="G - 07" d="M255 162C250.05 162 246 157.95 246 153C246 148.05 250.05 144 255 144C259.95 144 264 148.05 264 153C264 157.95 259.95 162 255 162Z" fill="#921792"/>
<path id="G - 08" d="M291 162C286.05 162 282 157.95 282 153C282 148.05 286.05 144 291 144C295.95 144 300 148.05 300 153C300 157.95 295.95 162 291 162Z" fill="#921792"/>
<path id="G - 09" d="M327 162C322.05 162 318 157.95 318 153C318 148.05 322.05 144 327 144C331.95 144 336 148.05 336 153C336 157.95 331.95 162 327 162Z" fill="#921792"/>
<path id="G - 10" d="M363 162C358.05 162 354 157.95 354 153C354 148.05 358.05 144 363 144C367.95 144 372 148.05 372 153C372 157.95 367.95 162 363 162Z" fill="#921792"/>
<path id="G - 11" d="M399 162C394.05 162 390 157.95 390 153C390 148.05 394.05 144 399 144C403.95 144 408 148.05 408 153C408 157.95 403.95 162 399 162Z" fill="#921792"/>
<path id="G - 12" d="M435 162C430.05 162 426 157.95 426 153C426 148.05 430.05 144 435 144C439.95 144 444 148.05 444 153C444 157.95 439.95 162 435 162Z" fill="#921792"/>
<path id="G - 13" d="M471 162C466.05 162 462 157.95 462 153C462 148.05 466.05 144 471 144C475.95 144 480 148.05 480 153C480 157.95 475.95 162 471 162Z" fill="#921792"/>
<path id="G - 14" d="M507 162C502.05 162 498 157.95 498 153C498 148.05 502.05 144 507 144C511.95 144 516 148.05 516 153C516 157.95 511.95 162 507 162Z" fill="#921792"/>
<path id="G - 15" d="M543 162C538.05 162 534 157.95 534 153C534 148.05 538.05 144 543 144C547.95 144 552 148.05 552 153C552 157.95 547.95 162 543 162Z" fill="#921792"/>
<path id="G - 16" d="M579 162C574.05 162 570 157.95 570 153C570 148.05 574.05 144 579 144C583.95 144 588 148.05 588 153C588 157.95 583.95 162 579 162Z" fill="#921792"/>
<path id="G - 17" d="M615 162C610.05 162 606 157.95 606 153C606 148.05 610.05 144 615 144C619.95 144 624 148.05 624 153C624 157.95 619.95 162 615 162Z" fill="#921792"/>
<path id="g_2" d="M651.145 151.079C651.036 150.736 650.889 150.429 650.704 150.158C650.524 149.883 650.307 149.649 650.054 149.457C649.802 149.261 649.513 149.112 649.189 149.01C648.869 148.909 648.517 148.858 648.132 148.858C647.48 148.858 646.892 149.025 646.368 149.361C645.844 149.696 645.43 150.188 645.124 150.836C644.823 151.481 644.672 152.27 644.672 153.205C644.672 154.144 644.825 154.937 645.13 155.585C645.435 156.234 645.854 156.725 646.385 157.061C646.917 157.396 647.522 157.564 648.2 157.564C648.829 157.564 649.378 157.436 649.845 157.18C650.316 156.923 650.68 156.561 650.936 156.094C651.196 155.623 651.326 155.069 651.326 154.432L651.779 154.517H648.466V153.075H653.017V154.392C653.017 155.365 652.809 156.209 652.395 156.925C651.984 157.638 651.415 158.188 650.688 158.576C649.964 158.964 649.135 159.158 648.2 159.158C647.152 159.158 646.233 158.917 645.441 158.435C644.653 157.952 644.039 157.268 643.598 156.382C643.157 155.493 642.937 154.438 642.937 153.216C642.937 152.293 643.065 151.464 643.321 150.729C643.577 149.994 643.937 149.37 644.401 148.858C644.868 148.341 645.417 147.947 646.046 147.676C646.679 147.401 647.371 147.263 648.121 147.263C648.746 147.263 649.329 147.356 649.868 147.54C650.411 147.725 650.893 147.987 651.315 148.326C651.741 148.665 652.093 149.069 652.372 149.536C652.651 150 652.84 150.514 652.938 151.079H651.145Z" fill="white"/>
<path id="f" d="M2.60791 195V183.422H9.78783V184.925H4.35484V188.453H9.27337V189.951H4.35484V195H2.60791Z" fill="white"/>
<path id="F - 01" d="M39 198C34.05 198 30 193.95 30 189C30 184.05 34.05 180 39 180C43.95 180 48 184.05 48 189C48 193.95 43.95 198 39 198Z" fill="#921792"/>
<path id="F - 02" d="M75 198C70.05 198 66 193.95 66 189C66 184.05 70.05 180 75 180C79.95 180 84 184.05 84 189C84 193.95 79.95 198 75 198Z" fill="#921792"/>
<path id="F - 03" d="M111 198C106.05 198 102 193.95 102 189C102 184.05 106.05 180 111 180C115.95 180 120 184.05 120 189C120 193.95 115.95 198 111 198Z" fill="#921792"/>
<path id="F - 04" d="M147 198C142.05 198 138 193.95 138 189C138 184.05 142.05 180 147 180C151.95 180 156 184.05 156 189C156 193.95 151.95 198 147 198Z" fill="#921792"/>
<path id="F - 05" d="M183 198C178.05 198 174 193.95 174 189C174 184.05 178.05 180 183 180C187.95 180 192 184.05 192 189C192 193.95 187.95 198 183 198Z" fill="#921792"/>
<path id="F - 06" d="M219 198C214.05 198 210 193.95 210 189C210 184.05 214.05 180 219 180C223.95 180 228 184.05 228 189C228 193.95 223.95 198 219 198Z" fill="#921792"/>
<path id="F - 07" d="M255 198C250.05 198 246 193.95 246 189C246 184.05 250.05 180 255 180C259.95 180 264 184.05 264 189C264 193.95 259.95 198 255 198Z" fill="#921792"/>
<path id="F - 08" d="M291 198C286.05 198 282 193.95 282 189C282 184.05 286.05 180 291 180C295.95 180 300 184.05 300 189C300 193.95 295.95 198 291 198Z" fill="#921792"/>
<path id="F - 09" d="M327 198C322.05 198 318 193.95 318 189C318 184.05 322.05 180 327 180C331.95 180 336 184.05 336 189C336 193.95 331.95 198 327 198Z" fill="#921792"/>
<path id="F - 10" d="M363 198C358.05 198 354 193.95 354 189C354 184.05 358.05 180 363 180C367.95 180 372 184.05 372 189C372 193.95 367.95 198 363 198Z" fill="#921792"/>
<path id="F - 11" d="M399 198C394.05 198 390 193.95 390 189C390 184.05 394.05 180 399 180C403.95 180 408 184.05 408 189C408 193.95 403.95 198 399 198Z" fill="#921792"/>
<path id="F - 12" d="M435 198C430.05 198 426 193.95 426 189C426 184.05 430.05 180 435 180C439.95 180 444 184.05 444 189C444 193.95 439.95 198 435 198Z" fill="#921792"/>
<path id="F - 13" d="M471 198C466.05 198 462 193.95 462 189C462 184.05 466.05 180 471 180C475.95 180 480 184.05 480 189C480 193.95 475.95 198 471 198Z" fill="#921792"/>
<path id="F - 14" d="M507 198C502.05 198 498 193.95 498 189C498 184.05 502.05 180 507 180C511.95 180 516 184.05 516 189C516 193.95 511.95 198 507 198Z" fill="#921792"/>
<path id="F - 15" d="M543 198C538.05 198 534 193.95 534 189C534 184.05 538.05 180 543 180C547.95 180 552 184.05 552 189C552 193.95 547.95 198 543 198Z" fill="#921792"/>
<path id="F - 16" d="M579 198C574.05 198 570 193.95 570 189C570 184.05 574.05 180 579 180C583.95 180 588 184.05 588 189C588 193.95 583.95 198 579 198Z" fill="#921792"/>
<path id="F - 17" d="M615 198C610.05 198 606 193.95 606 189C606 184.05 610.05 180 615 180C619.95 180 624 184.05 624 189C624 193.95 619.95 198 615 198Z" fill="#921792"/>
<path id="f_2" d="M644.608 195V183.422H651.788V184.925H646.355V188.453H651.273V189.951H646.355V195H644.608Z" fill="white"/>
<path id="e" d="M2.47576 231V219.422H9.73483V220.925H4.22269V224.453H9.35605V225.951H4.22269V229.496H9.80267V231H2.47576Z" fill="white"/>
<path id="E - 01" d="M39 234C34.05 234 30 229.95 30 225C30 220.05 34.05 216 39 216C43.95 216 48 220.05 48 225C48 229.95 43.95 234 39 234Z" fill="#921792"/>
<path id="E - 02" d="M75 234C70.05 234 66 229.95 66 225C66 220.05 70.05 216 75 216C79.95 216 84 220.05 84 225C84 229.95 79.95 234 75 234Z" fill="#921792"/>
<path id="E - 03" d="M111 234C106.05 234 102 229.95 102 225C102 220.05 106.05 216 111 216C115.95 216 120 220.05 120 225C120 229.95 115.95 234 111 234Z" fill="#921792"/>
<path id="E - 04" d="M147 234C142.05 234 138 229.95 138 225C138 220.05 142.05 216 147 216C151.95 216 156 220.05 156 225C156 229.95 151.95 234 147 234Z" fill="#921792"/>
<path id="E - 05" d="M183 234C178.05 234 174 229.95 174 225C174 220.05 178.05 216 183 216C187.95 216 192 220.05 192 225C192 229.95 187.95 234 183 234Z" fill="#921792"/>
<path id="E - 06" d="M219 234C214.05 234 210 229.95 210 225C210 220.05 214.05 216 219 216C223.95 216 228 220.05 228 225C228 229.95 223.95 234 219 234Z" fill="#921792"/>
<path id="E - 07" d="M255 234C250.05 234 246 229.95 246 225C246 220.05 250.05 216 255 216C259.95 216 264 220.05 264 225C264 229.95 259.95 234 255 234Z" fill="#921792"/>
<path id="E - 08" d="M291 234C286.05 234 282 229.95 282 225C282 220.05 286.05 216 291 216C295.95 216 300 220.05 300 225C300 229.95 295.95 234 291 234Z" fill="#921792"/>
<path id="E - 09" d="M327 234C322.05 234 318 229.95 318 225C318 220.05 322.05 216 327 216C331.95 216 336 220.05 336 225C336 229.95 331.95 234 327 234Z" fill="#921792"/>
<path id="E - 10" d="M363 234C358.05 234 354 229.95 354 225C354 220.05 358.05 216 363 216C367.95 216 372 220.05 372 225C372 229.95 367.95 234 363 234Z" fill="#921792"/>
<path id="E - 11" d="M399 234C394.05 234 390 229.95 390 225C390 220.05 394.05 216 399 216C403.95 216 408 220.05 408 225C408 229.95 403.95 234 399 234Z" fill="#921792"/>
<path id="E - 12" d="M435 234C430.05 234 426 229.95 426 225C426 220.05 430.05 216 435 216C439.95 216 444 220.05 444 225C444 229.95 439.95 234 435 234Z" fill="#921792"/>
<path id="E - 13" d="M471 234C466.05 234 462 229.95 462 225C462 220.05 466.05 216 471 216C475.95 216 480 220.05 480 225C480 229.95 475.95 234 471 234Z" fill="#921792"/>
<path id="E - 14" d="M507 234C502.05 234 498 229.95 498 225C498 220.05 502.05 216 507 216C511.95 216 516 220.05 516 225C516 229.95 511.95 234 507 234Z" fill="#921792"/>
<path id="E - 15" d="M543 234C538.05 234 534 229.95 534 225C534 220.05 538.05 216 543 216C547.95 216 552 220.05 552 225C552 229.95 547.95 234 543 234Z" fill="#921792"/>
<path id="E - 16" d="M579 234C574.05 234 570 229.95 570 225C570 220.05 574.05 216 579 216C583.95 216 588 220.05 588 225C588 229.95 583.95 234 579 234Z" fill="#921792"/>
<path id="E - 17" d="M615 234C610.05 234 606 229.95 606 225C606 220.05 610.05 216 615 216C619.95 216 624 220.05 624 225C624 229.95 619.95 234 615 234Z" fill="#921792"/>
<path id="e_2" d="M644.476 231V219.422H651.735V220.925H646.223V224.453H651.356V225.951H646.223V229.496H651.803V231H644.476Z" fill="white"/>
<path id="d" d="M5.27565 267H1.52739V255.422H5.39437C6.52884 255.422 7.50312 255.653 8.31722 256.117C9.13132 256.577 9.75509 257.238 10.1885 258.101C10.6257 258.961 10.8443 259.992 10.8443 261.194C10.8443 262.4 10.6238 263.436 10.1829 264.303C9.74567 265.17 9.11248 265.837 8.2833 266.305C7.45412 266.768 6.45157 267 5.27565 267ZM3.27431 265.474H5.17954C6.06148 265.474 6.79455 265.308 7.37874 264.976C7.96294 264.641 8.40014 264.156 8.69035 263.523C8.98056 262.886 9.12567 262.11 9.12567 261.194C9.12567 260.286 8.98056 259.515 8.69035 258.882C8.40391 258.248 7.97613 257.768 7.40701 257.44C6.83789 257.112 6.13121 256.948 5.28695 256.948H3.27431V265.474Z" fill="white"/>
<path id="D - 01" d="M39 270C34.05 270 30 265.95 30 261C30 256.05 34.05 252 39 252C43.95 252 48 256.05 48 261C48 265.95 43.95 270 39 270Z" fill="#921792"/>
<path id="D - 02" d="M75 270C70.05 270 66 265.95 66 261C66 256.05 70.05 252 75 252C79.95 252 84 256.05 84 261C84 265.95 79.95 270 75 270Z" fill="#921792"/>
<path id="D - 03" d="M111 270C106.05 270 102 265.95 102 261C102 256.05 106.05 252 111 252C115.95 252 120 256.05 120 261C120 265.95 115.95 270 111 270Z" fill="#921792"/>
<path id="D - 04" d="M147 270C142.05 270 138 265.95 138 261C138 256.05 142.05 252 147 252C151.95 252 156 256.05 156 261C156 265.95 151.95 270 147 270Z" fill="#921792"/>
<path id="D - 05" d="M183 270C178.05 270 174 265.95 174 261C174 256.05 178.05 252 183 252C187.95 252 192 256.05 192 261C192 265.95 187.95 270 183 270Z" fill="#921792"/>
<path id="D - 06" d="M219 270C214.05 270 210 265.95 210 261C210 256.05 214.05 252 219 252C223.95 252 228 256.05 228 261C228 265.95 223.95 270 219 270Z" fill="#921792"/>
<path id="D - 07" d="M255 270C250.05 270 246 265.95 246 261C246 256.05 250.05 252 255 252C259.95 252 264 256.05 264 261C264 265.95 259.95 270 255 270Z" fill="#921792"/>
<path id="D - 08" d="M291 270C286.05 270 282 265.95 282 261C282 256.05 286.05 252 291 252C295.95 252 300 256.05 300 261C300 265.95 295.95 270 291 270Z" fill="#921792"/>
<path id="D - 09" d="M327 270C322.05 270 318 265.95 318 261C318 256.05 322.05 252 327 252C331.95 252 336 256.05 336 261C336 265.95 331.95 270 327 270Z" fill="#921792"/>
<path id="D - 10" d="M363 270C358.05 270 354 265.95 354 261C354 256.05 358.05 252 363 252C367.95 252 372 256.05 372 261C372 265.95 367.95 270 363 270Z" fill="#921792"/>
<path id="D - 11" d="M399 270C394.05 270 390 265.95 390 261C390 256.05 394.05 252 399 252C403.95 252 408 256.05 408 261C408 265.95 403.95 270 399 270Z" fill="#921792"/>
<path id="D - 12" d="M435 270C430.05 270 426 265.95 426 261C426 256.05 430.05 252 435 252C439.95 252 444 256.05 444 261C444 265.95 439.95 270 435 270Z" fill="#921792"/>
<path id="D - 13" d="M471 270C466.05 270 462 265.95 462 261C462 256.05 466.05 252 471 252C475.95 252 480 256.05 480 261C480 265.95 475.95 270 471 270Z" fill="#921792"/>
<path id="D - 14" d="M507 270C502.05 270 498 265.95 498 261C498 256.05 502.05 252 507 252C511.95 252 516 256.05 516 261C516 265.95 511.95 270 507 270Z" fill="#921792"/>
<path id="D - 15" d="M543 270C538.05 270 534 265.95 534 261C534 256.05 538.05 252 543 252C547.95 252 552 256.05 552 261C552 265.95 547.95 270 543 270Z" fill="#921792"/>
<path id="D - 16" d="M579 270C574.05 270 570 265.95 570 261C570 256.05 574.05 252 579 252C583.95 252 588 256.05 588 261C588 265.95 583.95 270 579 270Z" fill="#921792"/>
<path id="D - 17" d="M615 270C610.05 270 606 265.95 606 261C606 256.05 610.05 252 615 252C619.95 252 624 256.05 624 261C624 265.95 619.95 270 615 270Z" fill="#921792"/>
<path id="d_2" d="M647.276 267H643.527V255.422H647.394C648.529 255.422 649.503 255.653 650.317 256.117C651.131 256.577 651.755 257.238 652.189 258.101C652.626 258.961 652.844 259.992 652.844 261.194C652.844 262.4 652.624 263.436 652.183 264.303C651.746 265.17 651.112 265.837 650.283 266.305C649.454 266.768 648.452 267 647.276 267ZM645.274 265.474H647.18C648.061 265.474 648.795 265.308 649.379 264.976C649.963 264.641 650.4 264.156 650.69 263.523C650.981 262.886 651.126 262.11 651.126 261.194C651.126 260.286 650.981 259.515 650.69 258.882C650.404 258.248 649.976 257.768 649.407 257.44C648.838 257.112 648.131 256.948 647.287 256.948H645.274V265.474Z" fill="white"/>
<path id="c" d="M11.0351 295.187H9.27125C9.20341 294.81 9.07714 294.478 8.89246 294.192C8.70778 293.905 8.48164 293.662 8.21405 293.463C7.94645 293.263 7.64681 293.112 7.31514 293.01C6.98724 292.909 6.63861 292.858 6.26925 292.858C5.60214 292.858 5.00475 293.025 4.47709 293.361C3.9532 293.696 3.53861 294.188 3.23333 294.836C2.93181 295.485 2.78105 296.276 2.78105 297.211C2.78105 298.153 2.93181 298.948 3.23333 299.597C3.53861 300.245 3.95509 300.735 4.48275 301.067C5.0104 301.398 5.60402 301.564 6.26359 301.564C6.62919 301.564 6.97593 301.515 7.30383 301.417C7.63551 301.315 7.93514 301.166 8.20274 300.97C8.47034 300.774 8.69648 300.535 8.88116 300.252C9.06961 299.966 9.19964 299.638 9.27125 299.269L11.0351 299.274C10.9409 299.843 10.7581 300.367 10.4867 300.846C10.2191 301.321 9.87429 301.732 9.45216 302.078C9.0338 302.421 8.55514 302.687 8.01617 302.876C7.47721 303.064 6.88925 303.158 6.25229 303.158C5.24974 303.158 4.35649 302.921 3.57254 302.446C2.78859 301.967 2.17047 301.283 1.71819 300.394C1.26968 299.504 1.04543 298.443 1.04543 297.211C1.04543 295.975 1.27157 294.914 1.72385 294.028C2.17612 293.138 2.79424 292.456 3.57819 291.981C4.36214 291.503 5.2535 291.263 6.25229 291.263C6.86663 291.263 7.43952 291.352 7.97095 291.529C8.50614 291.702 8.98669 291.959 9.41258 292.298C9.83848 292.633 10.1909 293.044 10.4698 293.53C10.7487 294.013 10.9371 294.565 11.0351 295.187Z" fill="white"/>
<path id="C - 01" d="M39 306C34.05 306 30 301.95 30 297C30 292.05 34.05 288 39 288C43.95 288 48 292.05 48 297C48 301.95 43.95 306 39 306Z" fill="#921792"/>
<path id="C - 02" d="M75 306C70.05 306 66 301.95 66 297C66 292.05 70.05 288 75 288C79.95 288 84 292.05 84 297C84 301.95 79.95 306 75 306Z" fill="#921792"/>
<path id="C - 03" d="M111 306C106.05 306 102 301.95 102 297C102 292.05 106.05 288 111 288C115.95 288 120 292.05 120 297C120 301.95 115.95 306 111 306Z" fill="#921792"/>
<path id="C - 04" d="M147 306C142.05 306 138 301.95 138 297C138 292.05 142.05 288 147 288C151.95 288 156 292.05 156 297C156 301.95 151.95 306 147 306Z" fill="#921792"/>
<path id="C - 05" d="M183 306C178.05 306 174 301.95 174 297C174 292.05 178.05 288 183 288C187.95 288 192 292.05 192 297C192 301.95 187.95 306 183 306Z" fill="#921792"/>
<path id="C - 06" d="M219 306C214.05 306 210 301.95 210 297C210 292.05 214.05 288 219 288C223.95 288 228 292.05 228 297C228 301.95 223.95 306 219 306Z" fill="#921792"/>
<path id="C - 07" d="M255 306C250.05 306 246 301.95 246 297C246 292.05 250.05 288 255 288C259.95 288 264 292.05 264 297C264 301.95 259.95 306 255 306Z" fill="#921792"/>
<path id="b" d="M2.06376 339V327.422H6.30388C7.12551 327.422 7.80582 327.557 8.34478 327.829C8.88375 328.096 9.28703 328.46 9.55463 328.92C9.82223 329.376 9.95603 329.89 9.95603 330.463C9.95603 330.946 9.86745 331.353 9.69031 331.684C9.51317 332.012 9.27572 332.276 8.97797 332.476C8.68399 332.672 8.35986 332.815 8.00557 332.906V333.019C8.39001 333.037 8.76502 333.162 9.13062 333.392C9.49998 333.618 9.80527 333.94 10.0465 334.358C10.2877 334.777 10.4083 335.286 10.4083 335.885C10.4083 336.477 10.2689 337.008 9.98995 337.479C9.71481 337.947 9.28891 338.318 8.71226 338.593C8.1356 338.864 7.39877 339 6.50175 339H2.06376ZM3.81069 337.502H6.33214C7.16886 337.502 7.76813 337.34 8.12995 337.016C8.49177 336.691 8.67269 336.286 8.67269 335.8C8.67269 335.435 8.58034 335.099 8.39566 334.794C8.21098 334.489 7.94715 334.245 7.60418 334.065C7.26497 333.884 6.86169 333.793 6.39433 333.793H3.81069V337.502ZM3.81069 332.431H6.15123C6.54321 332.431 6.89561 332.355 7.20843 332.205C7.52503 332.054 7.77567 331.843 7.96035 331.571C8.1488 331.296 8.24302 330.972 8.24302 330.599C8.24302 330.12 8.0753 329.719 7.73986 329.395C7.40442 329.071 6.88995 328.909 6.19646 328.909H3.81069V332.431Z" fill="white"/>
<path id="B -01" d="M39 342C34.05 342 30 337.95 30 333C30 328.05 34.05 324 39 324C43.95 324 48 328.05 48 333C48 337.95 43.95 342 39 342Z" fill="#921792"/>
<path id="B -02" d="M75 342C70.05 342 66 337.95 66 333C66 328.05 70.05 324 75 324C79.95 324 84 328.05 84 333C84 337.95 79.95 342 75 342Z" fill="#921792"/>
<path id="B -03" d="M111 342C106.05 342 102 337.95 102 333C102 328.05 106.05 324 111 324C115.95 324 120 328.05 120 333C120 337.95 115.95 342 111 342Z" fill="#921792"/>
<path id="B -04" d="M147 342C142.05 342 138 337.95 138 333C138 328.05 142.05 324 147 324C151.95 324 156 328.05 156 333C156 337.95 151.95 342 147 342Z" fill="#921792"/>
<path id="B -05" d="M183 342C178.05 342 174 337.95 174 333C174 328.05 178.05 324 183 324C187.95 324 192 328.05 192 333C192 337.95 187.95 342 183 342Z" fill="#921792"/>
<path id="B -06" d="M219 342C214.05 342 210 337.95 210 333C210 328.05 214.05 324 219 324C223.95 324 228 328.05 228 333C228 337.95 223.95 342 219 342Z" fill="#921792"/>
<path id="B -07" d="M255 342C250.05 342 246 337.95 246 333C246 328.05 250.05 324 255 324C259.95 324 264 328.05 264 333C264 337.95 259.95 342 255 342Z" fill="#921792"/>
<path id="b_2" d="M284.064 339V327.422H288.304C289.126 327.422 289.806 327.557 290.345 327.829C290.884 328.096 291.287 328.46 291.555 328.92C291.822 329.376 291.956 329.89 291.956 330.463C291.956 330.946 291.867 331.353 291.69 331.684C291.513 332.012 291.276 332.276 290.978 332.476C290.684 332.672 290.36 332.815 290.006 332.906V333.019C290.39 333.037 290.765 333.162 291.131 333.392C291.5 333.618 291.805 333.94 292.046 334.358C292.288 334.777 292.408 335.286 292.408 335.885C292.408 336.477 292.269 337.008 291.99 337.479C291.715 337.947 291.289 338.318 290.712 338.593C290.136 338.864 289.399 339 288.502 339H284.064ZM285.811 337.502H288.332C289.169 337.502 289.768 337.34 290.13 337.016C290.492 336.691 290.673 336.286 290.673 335.8C290.673 335.435 290.58 335.099 290.396 334.794C290.211 334.489 289.947 334.245 289.604 334.065C289.265 333.884 288.862 333.793 288.394 333.793H285.811V337.502ZM285.811 332.431H288.151C288.543 332.431 288.896 332.355 289.208 332.205C289.525 332.054 289.776 331.843 289.96 331.571C290.149 331.296 290.243 330.972 290.243 330.599C290.243 330.12 290.075 329.719 289.74 329.395C289.404 329.071 288.89 328.909 288.196 328.909H285.811V332.431Z" fill="white"/>
<path id="a" d="M2.67646 375H0.822115L4.98873 363.422H7.00703L11.1736 375H9.3193L6.04593 365.525H5.95548L2.67646 375ZM2.9874 370.466H9.00271V371.936H2.9874V370.466Z" fill="white"/>
<path id="A - 01" d="M39 378C34.05 378 30 373.95 30 369C30 364.05 34.05 360 39 360C43.95 360 48 364.05 48 369C48 373.95 43.95 378 39 378Z" fill="#921792"/>
<path id="A - 02" d="M75 378C70.05 378 66 373.95 66 369C66 364.05 70.05 360 75 360C79.95 360 84 364.05 84 369C84 373.95 79.95 378 75 378Z" fill="#921792"/>
<path id="A - 03" d="M111 378C106.05 378 102 373.95 102 369C102 364.05 106.05 360 111 360C115.95 360 120 364.05 120 369C120 373.95 115.95 378 111 378Z" fill="#921792"/>
<path id="A - 04" d="M147 378C142.05 378 138 373.95 138 369C138 364.05 142.05 360 147 360C151.95 360 156 364.05 156 369C156 373.95 151.95 378 147 378Z" fill="#921792"/>
<path id="A - 05" d="M183 378C178.05 378 174 373.95 174 369C174 364.05 178.05 360 183 360C187.95 360 192 364.05 192 369C192 373.95 187.95 378 183 378Z" fill="#921792"/>
<path id="A - 06" d="M219 378C214.05 378 210 373.95 210 369C210 364.05 214.05 360 219 360C223.95 360 228 364.05 228 369C228 373.95 223.95 378 219 378Z" fill="#921792"/>
<path id="A - 07" d="M255 378C250.05 378 246 373.95 246 369C246 364.05 250.05 360 255 360C259.95 360 264 364.05 264 369C264 373.95 259.95 378 255 378Z" fill="#921792"/>
<path id="a_2" d="M284.676 375H282.822L286.989 363.422H289.007L293.174 375H291.319L288.046 365.525H287.955L284.676 375ZM284.987 370.466H291.003V371.936H284.987V370.466Z" fill="white"/>
<path id="C - 08" d="M291 306C286.05 306 282 301.95 282 297C282 292.05 286.05 288 291 288C295.95 288 300 292.05 300 297C300 301.95 295.95 306 291 306Z" fill="#921792"/>
<path id="C - 09" d="M327 306C322.05 306 318 301.95 318 297C318 292.05 322.05 288 327 288C331.95 288 336 292.05 336 297C336 301.95 331.95 306 327 306Z" fill="#921792"/>
<path id="C - 10" d="M363 306C358.05 306 354 301.95 354 297C354 292.05 358.05 288 363 288C367.95 288 372 292.05 372 297C372 301.95 367.95 306 363 306Z" fill="#921792"/>
<path id="C - 11" d="M399 306C394.05 306 390 301.95 390 297C390 292.05 394.05 288 399 288C403.95 288 408 292.05 408 297C408 301.95 403.95 306 399 306Z" fill="#921792"/>
<path id="C - 12" d="M435 306C430.05 306 426 301.95 426 297C426 292.05 430.05 288 435 288C439.95 288 444 292.05 444 297C444 301.95 439.95 306 435 306Z" fill="#921792"/>
<path id="C - 13" d="M471 306C466.05 306 462 301.95 462 297C462 292.05 466.05 288 471 288C475.95 288 480 292.05 480 297C480 301.95 475.95 306 471 306Z" fill="#921792"/>
<path id="C - 14" d="M507 306C502.05 306 498 301.95 498 297C498 292.05 502.05 288 507 288C511.95 288 516 292.05 516 297C516 301.95 511.95 306 507 306Z" fill="#921792"/>
<path id="C - 15" d="M543 306C538.05 306 534 301.95 534 297C534 292.05 538.05 288 543 288C547.95 288 552 292.05 552 297C552 301.95 547.95 306 543 306Z" fill="#921792"/>
<path id="C - 16" d="M579 306C574.05 306 570 301.95 570 297C570 292.05 574.05 288 579 288C583.95 288 588 292.05 588 297C588 301.95 583.95 306 579 306Z" fill="#921792"/>
<path id="C - 17" d="M615 306C610.05 306 606 301.95 606 297C606 292.05 610.05 288 615 288C619.95 288 624 292.05 624 297C624 301.95 619.95 306 615 306Z" fill="#921792"/>
<path id="c_2" d="M653.035 295.187H651.271C651.203 294.81 651.077 294.478 650.892 294.192C650.708 293.905 650.482 293.662 650.214 293.463C649.946 293.263 649.647 293.112 649.315 293.01C648.987 292.909 648.639 292.858 648.269 292.858C647.602 292.858 647.005 293.025 646.477 293.361C645.953 293.696 645.539 294.188 645.233 294.836C644.932 295.485 644.781 296.276 644.781 297.211C644.781 298.153 644.932 298.948 645.233 299.597C645.539 300.245 645.955 300.735 646.483 301.067C647.01 301.398 647.604 301.564 648.264 301.564C648.629 301.564 648.976 301.515 649.304 301.417C649.636 301.315 649.935 301.166 650.203 300.97C650.47 300.774 650.696 300.535 650.881 300.252C651.07 299.966 651.2 299.638 651.271 299.269L653.035 299.274C652.941 299.843 652.758 300.367 652.487 300.846C652.219 301.321 651.874 301.732 651.452 302.078C651.034 302.421 650.555 302.687 650.016 302.876C649.477 303.064 648.889 303.158 648.252 303.158C647.25 303.158 646.356 302.921 645.573 302.446C644.789 301.967 644.17 301.283 643.718 300.394C643.27 299.504 643.045 298.443 643.045 297.211C643.045 295.975 643.272 294.914 643.724 294.028C644.176 293.138 644.794 292.456 645.578 291.981C646.362 291.503 647.254 291.263 648.252 291.263C648.867 291.263 649.44 291.352 649.971 291.529C650.506 291.702 650.987 291.959 651.413 292.298C651.838 292.633 652.191 293.044 652.47 293.53C652.749 294.013 652.937 294.565 653.035 295.187Z" fill="white"/>
</g>
</svg>
