<svg width="701" height="385" viewBox="0 0 701 385" fill="none" xmlns="http://www.w3.org/2000/svg">
<g id="213">
<path id="k" d="M689.715 17.2744V5.69608H691.462V11.2252H691.603L696.46 5.69608H698.659L693.989 10.9086L698.676 17.2744H696.573L692.83 12.1015L691.462 13.6731V17.2744H689.715Z" fill="white"/>
<path id="j" d="M695.109 43.2156H696.85V51.4245C696.85 52.167 696.703 52.802 696.409 53.3297C696.119 53.8574 695.71 54.2606 695.183 54.5395C694.655 54.8147 694.037 54.9522 693.328 54.9522C692.676 54.9522 692.09 54.8335 691.57 54.5961C691.054 54.3586 690.645 54.0138 690.343 53.5615C690.045 53.1054 689.897 52.5514 689.897 51.8994H691.632C691.632 52.2197 691.706 52.4967 691.853 52.7304C692.003 52.9641 692.209 53.1469 692.469 53.2788C692.733 53.407 693.034 53.471 693.373 53.471C693.743 53.471 694.056 53.3938 694.312 53.2392C694.572 53.0809 694.77 52.8491 694.906 52.5439C695.041 52.2386 695.109 51.8654 695.109 51.4245V43.2156Z" fill="white"/>
<path id="i" d="M694.602 79.5984V91.1768H692.855V79.5984H694.602Z" fill="white"/>
<path id="h" d="M689.093 127.56V115.982H690.84V121.013H696.612V115.982H698.365V127.56H696.612V122.511H690.84V127.56H689.093Z" fill="white"/>
<path id="g" d="M696.874 156.022C696.765 155.679 696.618 155.372 696.433 155.101C696.252 154.826 696.036 154.592 695.783 154.4C695.531 154.204 695.242 154.055 694.918 153.953C694.598 153.851 694.245 153.801 693.861 153.801C693.209 153.801 692.621 153.968 692.097 154.304C691.573 154.639 691.159 155.131 690.853 155.779C690.552 156.424 690.401 157.213 690.401 158.148C690.401 159.087 690.554 159.88 690.859 160.528C691.164 161.176 691.583 161.668 692.114 162.004C692.646 162.339 693.25 162.507 693.929 162.507C694.558 162.507 695.107 162.379 695.574 162.122C696.045 161.866 696.409 161.504 696.665 161.037C696.925 160.566 697.055 160.012 697.055 159.375L697.508 159.46H694.195V158.018H698.746V159.335C698.746 160.308 698.538 161.152 698.124 161.868C697.713 162.58 697.144 163.131 696.416 163.519C695.693 163.907 694.864 164.101 693.929 164.101C692.881 164.101 691.961 163.86 691.17 163.378C690.382 162.895 689.768 162.211 689.327 161.325C688.886 160.436 688.665 159.381 688.665 158.159C688.665 157.236 688.794 156.407 689.05 155.672C689.306 154.937 689.666 154.313 690.13 153.801C690.597 153.284 691.145 152.89 691.775 152.619C692.408 152.344 693.1 152.206 693.85 152.206C694.475 152.206 695.058 152.299 695.597 152.483C696.139 152.668 696.622 152.93 697.044 153.269C697.47 153.608 697.822 154.012 698.101 154.479C698.38 154.943 698.569 155.457 698.666 156.022H696.874Z" fill="white"/>
<path id="f" d="M690.337 200.325V188.747H697.517V190.251H692.084V193.778H697.002V195.277H692.084V200.325H690.337Z" fill="white"/>
<path id="e" d="M690.205 236.708V225.13H697.464V226.633H691.952V230.161H697.085V231.659H691.952V235.204H697.532V236.708H690.205Z" fill="white"/>
<path id="d" d="M693.005 273.091H689.256V261.512H693.123C694.258 261.512 695.232 261.744 696.046 262.208C696.86 262.668 697.484 263.329 697.917 264.192C698.355 265.052 698.573 266.082 698.573 267.285C698.573 268.491 698.353 269.527 697.912 270.394C697.475 271.261 696.841 271.928 696.012 272.395C695.183 272.859 694.18 273.091 693.005 273.091ZM691.003 271.564H692.908C693.79 271.564 694.523 271.399 695.108 271.067C695.692 270.731 696.129 270.247 696.419 269.614C696.709 268.977 696.855 268.201 696.855 267.285C696.855 266.376 696.709 265.606 696.419 264.972C696.133 264.339 695.705 263.859 695.136 263.531C694.567 263.203 693.86 263.039 693.016 263.039H691.003V271.564Z" fill="white"/>
<path id="c" d="M698.764 301.661H697C696.932 301.284 696.806 300.952 696.621 300.666C696.437 300.38 696.211 300.136 695.943 299.937C695.675 299.737 695.376 299.586 695.044 299.484C694.716 299.383 694.367 299.332 693.998 299.332C693.331 299.332 692.734 299.499 692.206 299.835C691.682 300.17 691.267 300.662 690.962 301.31C690.661 301.959 690.51 302.75 690.51 303.685C690.51 304.627 690.661 305.422 690.962 306.071C691.267 306.719 691.684 307.209 692.212 307.541C692.739 307.872 693.333 308.038 693.992 308.038C694.358 308.038 694.705 307.989 695.033 307.891C695.364 307.789 695.664 307.641 695.932 307.445C696.199 307.249 696.425 307.009 696.61 306.727C696.798 306.44 696.929 306.112 697 305.743L698.764 305.748C698.67 306.318 698.487 306.841 698.216 307.32C697.948 307.795 697.603 308.206 697.181 308.553C696.763 308.896 696.284 309.161 695.745 309.35C695.206 309.538 694.618 309.632 693.981 309.632C692.979 309.632 692.085 309.395 691.301 308.92C690.517 308.441 689.899 307.757 689.447 306.868C688.999 305.978 688.774 304.917 688.774 303.685C688.774 302.449 689 301.388 689.453 300.502C689.905 299.613 690.523 298.93 691.307 298.455C692.091 297.977 692.982 297.737 693.981 297.737C694.596 297.737 695.168 297.826 695.7 298.003C696.235 298.177 696.716 298.433 697.141 298.772C697.567 299.108 697.92 299.518 698.199 300.005C698.478 300.487 698.666 301.039 698.764 301.661Z" fill="white"/>
<path id="k_2" d="M148.427 15V3.42166H150.174V8.95077H150.316L155.172 3.42166H157.371L152.701 8.63418L157.388 15H155.285L151.542 9.82706L150.174 11.3987V15H148.427Z" fill="white"/>
<path id="j_2" d="M153.821 40.9417H155.563V49.1505C155.563 49.893 155.416 50.5281 155.122 51.0558C154.832 51.5834 154.423 51.9867 153.895 52.2656C153.367 52.5407 152.749 52.6783 152.041 52.6783C151.389 52.6783 150.802 52.5596 150.282 52.3221C149.766 52.0847 149.357 51.7398 149.056 51.2876C148.758 50.8315 148.609 50.2775 148.609 49.6254H150.345C150.345 49.9458 150.418 50.2228 150.565 50.4565C150.716 50.6902 150.921 50.873 151.181 51.0049C151.445 51.133 151.747 51.1971 152.086 51.1971C152.455 51.1971 152.768 51.1198 153.024 50.9653C153.284 50.807 153.482 50.5752 153.618 50.2699C153.754 49.9646 153.821 49.5915 153.821 49.1505V40.9417Z" fill="white"/>
<path id="i_2" d="M153.315 77.3245V88.9028H151.568V77.3245H153.315Z" fill="white"/>
<path id="h_2" d="M147.805 125.286V113.707H149.552V118.739H155.325V113.707H157.077V125.286H155.325V120.237H149.552V125.286H147.805Z" fill="white"/>
<path id="g_2" d="M155.587 153.748C155.477 153.405 155.33 153.098 155.146 152.826C154.965 152.551 154.748 152.318 154.496 152.125C154.243 151.929 153.955 151.781 153.631 151.679C153.31 151.577 152.958 151.526 152.573 151.526C151.921 151.526 151.333 151.694 150.81 152.029C150.286 152.365 149.871 152.857 149.566 153.505C149.264 154.149 149.114 154.939 149.114 155.874C149.114 156.812 149.266 157.605 149.571 158.254C149.877 158.902 150.295 159.394 150.827 159.729C151.358 160.065 151.963 160.232 152.641 160.232C153.271 160.232 153.819 160.104 154.286 159.848C154.758 159.592 155.121 159.23 155.378 158.763C155.638 158.291 155.768 157.737 155.768 157.1L156.22 157.185H152.907V155.744H157.458V157.061C157.458 158.033 157.251 158.878 156.836 159.594C156.425 160.306 155.856 160.856 155.129 161.244C154.405 161.633 153.576 161.827 152.641 161.827C151.593 161.827 150.674 161.586 149.882 161.103C149.095 160.621 148.48 159.937 148.039 159.051C147.598 158.161 147.378 157.106 147.378 155.885C147.378 154.962 147.506 154.132 147.762 153.397C148.019 152.662 148.379 152.039 148.842 151.526C149.309 151.01 149.858 150.616 150.487 150.345C151.12 150.069 151.812 149.932 152.562 149.932C153.188 149.932 153.77 150.024 154.309 150.209C154.852 150.394 155.334 150.655 155.756 150.995C156.182 151.334 156.535 151.737 156.814 152.205C157.092 152.668 157.281 153.183 157.379 153.748H155.587Z" fill="white"/>
<path id="f_2" d="M149.049 198.051V186.473H156.229V187.977H150.796V191.505H155.715V193.003H150.796V198.051H149.049Z" fill="white"/>
<path id="e_2" d="M148.917 234.434V222.855H156.176V224.359H150.664V227.887H155.797V229.385H150.664V232.93H156.244V234.434H148.917Z" fill="white"/>
<path id="d_2" d="M151.717 270.816H147.969V259.238H151.836C152.97 259.238 153.944 259.47 154.759 259.933C155.573 260.393 156.196 261.055 156.63 261.918C157.067 262.777 157.286 263.808 157.286 265.01C157.286 266.216 157.065 267.253 156.624 268.12C156.187 268.987 155.554 269.654 154.725 270.121C153.895 270.585 152.893 270.816 151.717 270.816ZM149.716 269.29H151.621C152.503 269.29 153.236 269.124 153.82 268.792C154.404 268.457 154.841 267.973 155.132 267.34C155.422 266.703 155.567 265.926 155.567 265.01C155.567 264.102 155.422 263.331 155.132 262.698C154.845 262.065 154.417 261.584 153.848 261.256C153.279 260.928 152.572 260.765 151.728 260.765H149.716V269.29Z" fill="white"/>
<path id="c_2" d="M157.476 299.386H155.713C155.645 299.009 155.518 298.678 155.334 298.391C155.149 298.105 154.923 297.862 154.655 297.662C154.388 297.462 154.088 297.311 153.756 297.21C153.429 297.108 153.08 297.057 152.711 297.057C152.043 297.057 151.446 297.225 150.918 297.56C150.394 297.895 149.98 298.387 149.675 299.036C149.373 299.684 149.222 300.475 149.222 301.41C149.222 302.352 149.373 303.148 149.675 303.796C149.98 304.444 150.396 304.934 150.924 305.266C151.452 305.597 152.045 305.763 152.705 305.763C153.07 305.763 153.417 305.714 153.745 305.616C154.077 305.514 154.376 305.366 154.644 305.17C154.912 304.974 155.138 304.734 155.322 304.452C155.511 304.165 155.641 303.837 155.713 303.468L157.476 303.474C157.382 304.043 157.199 304.567 156.928 305.045C156.66 305.52 156.316 305.931 155.893 306.278C155.475 306.621 154.996 306.886 154.457 307.075C153.918 307.263 153.331 307.358 152.694 307.358C151.691 307.358 150.798 307.12 150.014 306.645C149.23 306.167 148.612 305.482 148.159 304.593C147.711 303.703 147.487 302.643 147.487 301.41C147.487 300.174 147.713 299.113 148.165 298.227C148.617 297.338 149.236 296.655 150.019 296.181C150.803 295.702 151.695 295.463 152.694 295.463C153.308 295.463 153.881 295.551 154.412 295.728C154.947 295.902 155.428 296.158 155.854 296.497C156.28 296.833 156.632 297.243 156.911 297.73C157.19 298.212 157.378 298.764 157.476 299.386Z" fill="white"/>
<path id="B" d="M148.505 343.583V332.004H152.745C153.567 332.004 154.247 332.14 154.786 332.411C155.325 332.679 155.728 333.043 155.996 333.502C156.264 333.958 156.397 334.473 156.397 335.046C156.397 335.528 156.309 335.935 156.132 336.267C155.954 336.595 155.717 336.859 155.419 337.058C155.125 337.254 154.801 337.398 154.447 337.488V337.601C154.831 337.62 155.206 337.744 155.572 337.974C155.941 338.2 156.247 338.523 156.488 338.941C156.729 339.359 156.85 339.868 156.85 340.467C156.85 341.059 156.71 341.591 156.431 342.062C156.156 342.529 155.73 342.9 155.154 343.175C154.577 343.447 153.84 343.583 152.943 343.583H148.505ZM150.252 342.084H152.773C153.61 342.084 154.209 341.922 154.571 341.598C154.933 341.274 155.114 340.869 155.114 340.383C155.114 340.017 155.022 339.682 154.837 339.376C154.652 339.071 154.388 338.828 154.045 338.647C153.706 338.466 153.303 338.376 152.836 338.376H150.252V342.084ZM150.252 337.013H152.593C152.984 337.013 153.337 336.938 153.65 336.787C153.966 336.636 154.217 336.425 154.402 336.154C154.59 335.879 154.684 335.555 154.684 335.181C154.684 334.703 154.517 334.301 154.181 333.977C153.846 333.653 153.331 333.491 152.638 333.491H150.252V337.013Z" fill="white"/>
<path id="B_2" d="M329.505 343.583V332.004H333.745C334.567 332.004 335.247 332.14 335.786 332.411C336.325 332.679 336.728 333.043 336.996 333.502C337.264 333.958 337.397 334.473 337.397 335.046C337.397 335.528 337.309 335.935 337.132 336.267C336.954 336.595 336.717 336.859 336.419 337.058C336.125 337.254 335.801 337.398 335.447 337.488V337.601C335.831 337.62 336.206 337.744 336.572 337.974C336.941 338.2 337.247 338.523 337.488 338.941C337.729 339.359 337.85 339.868 337.85 340.467C337.85 341.059 337.71 341.591 337.431 342.062C337.156 342.529 336.73 342.9 336.154 343.175C335.577 343.447 334.84 343.583 333.943 343.583H329.505ZM331.252 342.084H333.773C334.61 342.084 335.209 341.922 335.571 341.598C335.933 341.274 336.114 340.869 336.114 340.383C336.114 340.017 336.022 339.682 335.837 339.376C335.652 339.071 335.388 338.828 335.045 338.647C334.706 338.466 334.303 338.376 333.836 338.376H331.252V342.084ZM331.252 337.013H333.593C333.984 337.013 334.337 336.938 334.65 336.787C334.966 336.636 335.217 336.425 335.402 336.154C335.59 335.879 335.684 335.555 335.684 335.181C335.684 334.703 335.517 334.301 335.181 333.977C334.846 333.653 334.331 333.491 333.638 333.491H331.252V337.013Z" fill="white"/>
<path id="A" d="M149.118 379.965H147.263L151.43 368.387H153.448L157.615 379.965H155.761L152.487 370.49H152.397L149.118 379.965ZM149.429 375.431H155.444V376.901H149.429V375.431Z" fill="white"/>
<path id="A_2" d="M330.118 379.965H328.263L332.43 368.387H334.448L338.615 379.965H336.761L333.487 370.49H333.397L330.118 379.965ZM330.429 375.431H336.444V376.901H330.429V375.431Z" fill="white"/>
<path id="K - 14" d="M660.098 20.4689C655.095 20.4689 651.001 16.3752 651.001 11.3717C651.001 6.36818 655.095 2.27441 660.098 2.27441C665.102 2.27441 669.196 6.36818 669.196 11.3717C669.196 16.3752 665.102 20.4689 660.098 20.4689Z" fill="#4ED784"/>
<path id="K - 13" d="M623.709 20.4689C618.705 20.4689 614.611 16.3752 614.611 11.3717C614.611 6.36818 618.705 2.27441 623.709 2.27441C628.712 2.27441 632.806 6.36818 632.806 11.3717C632.806 16.3752 628.712 20.4689 623.709 20.4689Z" fill="#4ED784"/>
<path id="K - 12" d="M587.319 20.4689C582.316 20.4689 578.222 16.3752 578.222 11.3717C578.222 6.36818 582.316 2.27441 587.319 2.27441C592.323 2.27441 596.417 6.36818 596.417 11.3717C596.417 16.3752 592.323 20.4689 587.319 20.4689Z" fill="#4ED784"/>
<path id="K - 11" d="M550.93 20.4689C545.927 20.4689 541.833 16.3752 541.833 11.3717C541.833 6.36818 545.927 2.27441 550.93 2.27441C555.934 2.27441 560.028 6.36818 560.028 11.3717C560.028 16.3752 555.934 20.4689 550.93 20.4689Z" fill="#4ED784"/>
<path id="K - 10" d="M514.541 20.4689C509.538 20.4689 505.444 16.3752 505.444 11.3717C505.444 6.36818 509.538 2.27441 514.541 2.27441C519.545 2.27441 523.638 6.36818 523.638 11.3717C523.638 16.3752 519.545 20.4689 514.541 20.4689Z" fill="#4ED784"/>
<path id="K - 09" d="M478.152 20.4689C473.149 20.4689 469.055 16.3752 469.055 11.3717C469.055 6.36818 473.149 2.27441 478.152 2.27441C483.156 2.27441 487.25 6.36818 487.25 11.3717C487.25 16.3752 483.156 20.4689 478.152 20.4689Z" fill="#4ED784"/>
<path id="K - 08" d="M441.763 20.4689C436.76 20.4689 432.666 16.3752 432.666 11.3717C432.666 6.36818 436.76 2.27441 441.763 2.27441C446.767 2.27441 450.861 6.36818 450.861 11.3717C450.861 16.3752 446.767 20.4689 441.763 20.4689Z" fill="#4ED784"/>
<path id="K - 07" d="M405.375 20.4689C400.371 20.4689 396.277 16.3752 396.277 11.3717C396.277 6.36818 400.371 2.27441 405.375 2.27441C410.378 2.27441 414.472 6.36818 414.472 11.3717C414.472 16.3752 410.378 20.4689 405.375 20.4689Z" fill="#4ED784"/>
<path id="K - 06" d="M368.985 20.4689C363.982 20.4689 359.888 16.3752 359.888 11.3717C359.888 6.36818 363.982 2.27441 368.985 2.27441C373.989 2.27441 378.083 6.36818 378.083 11.3717C378.083 16.3752 373.989 20.4689 368.985 20.4689Z" fill="#4ED784"/>
<path id="K - 05" d="M332.596 20.4689C327.593 20.4689 323.499 16.3752 323.499 11.3717C323.499 6.36818 327.593 2.27441 332.596 2.27441C337.6 2.27441 341.694 6.36818 341.694 11.3717C341.694 16.3752 337.6 20.4689 332.596 20.4689Z" fill="#4ED784"/>
<path id="J - 14" d="M660.098 56.8576C655.095 56.8576 651.001 52.7638 651.001 47.7603C651.001 42.7569 655.095 38.6631 660.098 38.6631C665.102 38.6631 669.196 42.7569 669.196 47.7603C669.196 52.7638 665.102 56.8576 660.098 56.8576Z" fill="#4ED784"/>
<path id="J - 13" d="M623.709 56.8576C618.705 56.8576 614.611 52.7638 614.611 47.7603C614.611 42.7569 618.705 38.6631 623.709 38.6631C628.712 38.6631 632.806 42.7569 632.806 47.7603C632.806 52.7638 628.712 56.8576 623.709 56.8576Z" fill="#4ED784"/>
<path id="J - 12" d="M587.319 56.8576C582.316 56.8576 578.222 52.7638 578.222 47.7603C578.222 42.7569 582.316 38.6631 587.319 38.6631C592.323 38.6631 596.417 42.7569 596.417 47.7603C596.417 52.7638 592.323 56.8576 587.319 56.8576Z" fill="#4ED784"/>
<path id="J - 11" d="M550.93 56.8576C545.927 56.8576 541.833 52.7638 541.833 47.7603C541.833 42.7569 545.927 38.6631 550.93 38.6631C555.934 38.6631 560.028 42.7569 560.028 47.7603C560.028 52.7638 555.934 56.8576 550.93 56.8576Z" fill="#4ED784"/>
<path id="J - 10" d="M514.541 56.8576C509.538 56.8576 505.444 52.7638 505.444 47.7603C505.444 42.7569 509.538 38.6631 514.541 38.6631C519.545 38.6631 523.638 42.7569 523.638 47.7603C523.638 52.7638 519.545 56.8576 514.541 56.8576Z" fill="#4ED784"/>
<path id="J - 09" d="M478.152 56.8576C473.149 56.8576 469.055 52.7638 469.055 47.7603C469.055 42.7569 473.149 38.6631 478.152 38.6631C483.156 38.6631 487.25 42.7569 487.25 47.7603C487.25 52.7638 483.156 56.8576 478.152 56.8576Z" fill="#4ED784"/>
<path id="J - 08" d="M441.763 56.8576C436.76 56.8576 432.666 52.7638 432.666 47.7603C432.666 42.7569 436.76 38.6631 441.763 38.6631C446.767 38.6631 450.861 42.7569 450.861 47.7603C450.861 52.7638 446.767 56.8576 441.763 56.8576Z" fill="#4ED784"/>
<path id="J - 07" d="M405.375 56.8576C400.371 56.8576 396.277 52.7638 396.277 47.7603C396.277 42.7569 400.371 38.6631 405.375 38.6631C410.378 38.6631 414.472 42.7569 414.472 47.7603C414.472 52.7638 410.378 56.8576 405.375 56.8576Z" fill="#4ED784"/>
<path id="J - 06" d="M368.985 56.8576C363.982 56.8576 359.888 52.7638 359.888 47.7603C359.888 42.7569 363.982 38.6631 368.985 38.6631C373.989 38.6631 378.083 42.7569 378.083 47.7603C378.083 52.7638 373.989 56.8576 368.985 56.8576Z" fill="#4ED784"/>
<path id="J - 05" d="M332.596 56.8576C327.593 56.8576 323.499 52.7638 323.499 47.7603C323.499 42.7569 327.593 38.6631 332.596 38.6631C337.6 38.6631 341.694 42.7569 341.694 47.7603C341.694 52.7638 337.6 56.8576 332.596 56.8576Z" fill="#4ED784"/>
<path id="I - 14" d="M660.098 93.2468C655.095 93.2468 651.001 89.153 651.001 84.1495C651.001 79.146 655.095 75.0522 660.098 75.0522C665.102 75.0522 669.196 79.146 669.196 84.1495C669.196 89.153 665.102 93.2468 660.098 93.2468Z" fill="#4ED784"/>
<path id="I - 13" d="M623.709 93.2468C618.705 93.2468 614.611 89.153 614.611 84.1495C614.611 79.146 618.705 75.0522 623.709 75.0522C628.712 75.0522 632.806 79.146 632.806 84.1495C632.806 89.153 628.712 93.2468 623.709 93.2468Z" fill="#4ED784"/>
<path id="I - 12" d="M587.319 93.2468C582.316 93.2468 578.222 89.153 578.222 84.1495C578.222 79.146 582.316 75.0522 587.319 75.0522C592.323 75.0522 596.417 79.146 596.417 84.1495C596.417 89.153 592.323 93.2468 587.319 93.2468Z" fill="#4ED784"/>
<path id="I - 11" d="M550.93 93.2468C545.927 93.2468 541.833 89.153 541.833 84.1495C541.833 79.146 545.927 75.0522 550.93 75.0522C555.934 75.0522 560.028 79.146 560.028 84.1495C560.028 89.153 555.934 93.2468 550.93 93.2468Z" fill="#4ED784"/>
<path id="I - 10" d="M514.541 93.2468C509.538 93.2468 505.444 89.153 505.444 84.1495C505.444 79.146 509.538 75.0522 514.541 75.0522C519.545 75.0522 523.638 79.146 523.638 84.1495C523.638 89.153 519.545 93.2468 514.541 93.2468Z" fill="#4ED784"/>
<path id="I - 09" d="M478.152 93.2468C473.149 93.2468 469.055 89.153 469.055 84.1495C469.055 79.146 473.149 75.0522 478.152 75.0522C483.156 75.0522 487.25 79.146 487.25 84.1495C487.25 89.153 483.156 93.2468 478.152 93.2468Z" fill="#4ED784"/>
<path id="I - 08" d="M441.763 93.2468C436.76 93.2468 432.666 89.153 432.666 84.1495C432.666 79.146 436.76 75.0522 441.763 75.0522C446.767 75.0522 450.861 79.146 450.861 84.1495C450.861 89.153 446.767 93.2468 441.763 93.2468Z" fill="#4ED784"/>
<path id="I - 07" d="M405.375 93.2468C400.371 93.2468 396.277 89.153 396.277 84.1495C396.277 79.146 400.371 75.0522 405.375 75.0522C410.378 75.0522 414.472 79.146 414.472 84.1495C414.472 89.153 410.378 93.2468 405.375 93.2468Z" fill="#4ED784"/>
<path id="I - 06" d="M368.985 93.2468C363.982 93.2468 359.888 89.153 359.888 84.1495C359.888 79.146 363.982 75.0522 368.985 75.0522C373.989 75.0522 378.083 79.146 378.083 84.1495C378.083 89.153 373.989 93.2468 368.985 93.2468Z" fill="#4ED784"/>
<path id="I - 05" d="M332.596 93.2468C327.593 93.2468 323.499 89.153 323.499 84.1495C323.499 79.146 327.593 75.0522 332.596 75.0522C337.6 75.0522 341.694 79.146 341.694 84.1495C341.694 89.153 337.6 93.2468 332.596 93.2468Z" fill="#4ED784"/>
<path id="K - 04" d="M296.105 20.4689C291.101 20.4689 287.007 16.3752 287.007 11.3717C287.007 6.36818 291.101 2.27441 296.105 2.27441C301.108 2.27441 305.202 6.36818 305.202 11.3717C305.202 16.3752 301.108 20.4689 296.105 20.4689Z" fill="#4ED784"/>
<path id="K - 03" d="M259.716 20.4689C254.712 20.4689 250.619 16.3752 250.619 11.3717C250.619 6.36818 254.712 2.27441 259.716 2.27441C264.719 2.27441 268.813 6.36818 268.813 11.3717C268.813 16.3752 264.719 20.4689 259.716 20.4689Z" fill="#4ED784"/>
<path id="K - 02" d="M223.326 20.4689C218.323 20.4689 214.229 16.3752 214.229 11.3717C214.229 6.36818 218.323 2.27441 223.326 2.27441C228.33 2.27441 232.424 6.36818 232.424 11.3717C232.424 16.3752 228.33 20.4689 223.326 20.4689Z" fill="#4ED784"/>
<path id="K - 01" d="M186.938 20.4689C181.934 20.4689 177.84 16.3752 177.84 11.3717C177.84 6.36818 181.934 2.27441 186.938 2.27441C191.941 2.27441 196.035 6.36818 196.035 11.3717C196.035 16.3752 191.941 20.4689 186.938 20.4689Z" fill="#4ED784"/>
<path id="J - 04" d="M296.105 56.8576C291.101 56.8576 287.007 52.7638 287.007 47.7603C287.007 42.7569 291.101 38.6631 296.105 38.6631C301.108 38.6631 305.202 42.7569 305.202 47.7603C305.202 52.7638 301.108 56.8576 296.105 56.8576Z" fill="#4ED784"/>
<path id="J - 03" d="M259.716 56.8576C254.712 56.8576 250.619 52.7638 250.619 47.7603C250.619 42.7569 254.712 38.6631 259.716 38.6631C264.719 38.6631 268.813 42.7569 268.813 47.7603C268.813 52.7638 264.719 56.8576 259.716 56.8576Z" fill="#4ED784"/>
<path id="J - 02" d="M223.326 56.8576C218.323 56.8576 214.229 52.7638 214.229 47.7603C214.229 42.7569 218.323 38.6631 223.326 38.6631C228.33 38.6631 232.424 42.7569 232.424 47.7603C232.424 52.7638 228.33 56.8576 223.326 56.8576Z" fill="#4ED784"/>
<path id="J - 01" d="M186.938 56.8576C181.934 56.8576 177.84 52.7638 177.84 47.7603C177.84 42.7569 181.934 38.6631 186.938 38.6631C191.941 38.6631 196.035 42.7569 196.035 47.7603C196.035 52.7638 191.941 56.8576 186.938 56.8576Z" fill="#4ED784"/>
<path id="I - 04" d="M296.105 93.2468C291.101 93.2468 287.007 89.153 287.007 84.1495C287.007 79.146 291.101 75.0522 296.105 75.0522C301.108 75.0522 305.202 79.146 305.202 84.1495C305.202 89.153 301.108 93.2468 296.105 93.2468Z" fill="#4ED784"/>
<path id="I - 03" d="M259.716 93.2468C254.712 93.2468 250.619 89.153 250.619 84.1495C250.619 79.146 254.712 75.0522 259.716 75.0522C264.719 75.0522 268.813 79.146 268.813 84.1495C268.813 89.153 264.719 93.2468 259.716 93.2468Z" fill="#4ED784"/>
<path id="I - 02" d="M223.326 93.2468C218.323 93.2468 214.229 89.153 214.229 84.1495C214.229 79.146 218.323 75.0522 223.326 75.0522C228.33 75.0522 232.424 79.146 232.424 84.1495C232.424 89.153 228.33 93.2468 223.326 93.2468Z" fill="#4ED784"/>
<path id="I - 01" d="M186.938 93.2468C181.934 93.2468 177.84 89.153 177.84 84.1495C177.84 79.146 181.934 75.0522 186.938 75.0522C191.941 75.0522 196.035 79.146 196.035 84.1495C196.035 89.153 191.941 93.2468 186.938 93.2468Z" fill="#4ED784"/>
<path id="H - 14" d="M660.098 129.727C655.095 129.727 651.001 125.633 651.001 120.63C651.001 115.626 655.095 111.533 660.098 111.533C665.102 111.533 669.196 115.626 669.196 120.63C669.196 125.633 665.102 129.727 660.098 129.727Z" fill="#4ED784"/>
<path id="H - 13" d="M623.709 129.727C618.705 129.727 614.611 125.633 614.611 120.63C614.611 115.626 618.705 111.533 623.709 111.533C628.712 111.533 632.806 115.626 632.806 120.63C632.806 125.633 628.712 129.727 623.709 129.727Z" fill="#4ED784"/>
<path id="H - 12" d="M587.319 129.727C582.316 129.727 578.222 125.633 578.222 120.63C578.222 115.626 582.316 111.533 587.319 111.533C592.323 111.533 596.417 115.626 596.417 120.63C596.417 125.633 592.323 129.727 587.319 129.727Z" fill="#4ED784"/>
<path id="H - 11" d="M550.93 129.727C545.927 129.727 541.833 125.633 541.833 120.63C541.833 115.626 545.927 111.533 550.93 111.533C555.934 111.533 560.028 115.626 560.028 120.63C560.028 125.633 555.934 129.727 550.93 129.727Z" fill="#4ED784"/>
<path id="H - 10" d="M514.541 129.727C509.538 129.727 505.444 125.633 505.444 120.63C505.444 115.626 509.538 111.533 514.541 111.533C519.545 111.533 523.638 115.626 523.638 120.63C523.638 125.633 519.545 129.727 514.541 129.727Z" fill="#4ED784"/>
<path id="H - 09" d="M478.152 129.727C473.149 129.727 469.055 125.633 469.055 120.63C469.055 115.626 473.149 111.533 478.152 111.533C483.156 111.533 487.25 115.626 487.25 120.63C487.25 125.633 483.156 129.727 478.152 129.727Z" fill="#4ED784"/>
<path id="H - 08" d="M441.763 129.727C436.76 129.727 432.666 125.633 432.666 120.63C432.666 115.626 436.76 111.533 441.763 111.533C446.767 111.533 450.861 115.626 450.861 120.63C450.861 125.633 446.767 129.727 441.763 129.727Z" fill="#4ED784"/>
<path id="H - 07" d="M405.375 129.727C400.371 129.727 396.277 125.633 396.277 120.63C396.277 115.626 400.371 111.533 405.375 111.533C410.378 111.533 414.472 115.626 414.472 120.63C414.472 125.633 410.378 129.727 405.375 129.727Z" fill="#4ED784"/>
<path id="H - 06" d="M368.985 129.727C363.982 129.727 359.888 125.633 359.888 120.63C359.888 115.626 363.982 111.533 368.985 111.533C373.989 111.533 378.083 115.626 378.083 120.63C378.083 125.633 373.989 129.727 368.985 129.727Z" fill="#4ED784"/>
<path id="H - 05" d="M332.596 129.727C327.593 129.727 323.499 125.633 323.499 120.63C323.499 115.626 327.593 111.533 332.596 111.533C337.6 111.533 341.694 115.626 341.694 120.63C341.694 125.633 337.6 129.727 332.596 129.727Z" fill="#4ED784"/>
<path id="G - 14" d="M660.098 166.116C655.095 166.116 651.001 162.022 651.001 157.019C651.001 152.015 655.095 147.921 660.098 147.921C665.102 147.921 669.196 152.015 669.196 157.019C669.196 162.022 665.102 166.116 660.098 166.116Z" fill="#4ED784"/>
<path id="G - 13" d="M623.709 166.116C618.705 166.116 614.611 162.022 614.611 157.019C614.611 152.015 618.705 147.921 623.709 147.921C628.712 147.921 632.806 152.015 632.806 157.019C632.806 162.022 628.712 166.116 623.709 166.116Z" fill="#4ED784"/>
<path id="G - 12" d="M587.319 166.116C582.316 166.116 578.222 162.022 578.222 157.019C578.222 152.015 582.316 147.921 587.319 147.921C592.323 147.921 596.417 152.015 596.417 157.019C596.417 162.022 592.323 166.116 587.319 166.116Z" fill="#4ED784"/>
<path id="G - 11" d="M550.93 166.116C545.927 166.116 541.833 162.022 541.833 157.019C541.833 152.015 545.927 147.921 550.93 147.921C555.934 147.921 560.028 152.015 560.028 157.019C560.028 162.022 555.934 166.116 550.93 166.116Z" fill="#4ED784"/>
<path id="G - 10" d="M514.541 166.116C509.538 166.116 505.444 162.022 505.444 157.019C505.444 152.015 509.538 147.921 514.541 147.921C519.545 147.921 523.638 152.015 523.638 157.019C523.638 162.022 519.545 166.116 514.541 166.116Z" fill="#4ED784"/>
<path id="G - 09" d="M478.152 166.116C473.149 166.116 469.055 162.022 469.055 157.019C469.055 152.015 473.149 147.921 478.152 147.921C483.156 147.921 487.25 152.015 487.25 157.019C487.25 162.022 483.156 166.116 478.152 166.116Z" fill="#4ED784"/>
<path id="G - 08" d="M441.763 166.116C436.76 166.116 432.666 162.022 432.666 157.019C432.666 152.015 436.76 147.921 441.763 147.921C446.767 147.921 450.861 152.015 450.861 157.019C450.861 162.022 446.767 166.116 441.763 166.116Z" fill="#4ED784"/>
<path id="G - 07" d="M405.375 166.116C400.371 166.116 396.277 162.022 396.277 157.019C396.277 152.015 400.371 147.921 405.375 147.921C410.378 147.921 414.472 152.015 414.472 157.019C414.472 162.022 410.378 166.116 405.375 166.116Z" fill="#4ED784"/>
<path id="G - 06" d="M368.985 166.116C363.982 166.116 359.888 162.022 359.888 157.019C359.888 152.015 363.982 147.921 368.985 147.921C373.989 147.921 378.083 152.015 378.083 157.019C378.083 162.022 373.989 166.116 368.985 166.116Z" fill="#4ED784"/>
<path id="G - 05" d="M332.596 166.116C327.593 166.116 323.499 162.022 323.499 157.019C323.499 152.015 327.593 147.921 332.596 147.921C337.6 147.921 341.694 152.015 341.694 157.019C341.694 162.022 337.6 166.116 332.596 166.116Z" fill="#4ED784"/>
<path id="F - 12" d="M587.319 202.506C582.316 202.506 578.222 198.412 578.222 193.408C578.222 188.405 582.316 184.311 587.319 184.311C592.323 184.311 596.417 188.405 596.417 193.408C596.417 198.412 592.323 202.506 587.319 202.506Z" fill="#4ED784"/>
<path id="F - 13" d="M624.097 202.506C619.094 202.506 615 198.412 615 193.408C615 188.405 619.094 184.311 624.097 184.311C629.101 184.311 633.195 188.405 633.195 193.408C633.195 198.412 629.101 202.506 624.097 202.506Z" fill="#4ED784"/>
<path id="F - 14" d="M660.097 202.506C655.094 202.506 651 198.412 651 193.408C651 188.405 655.094 184.311 660.097 184.311C665.101 184.311 669.195 188.405 669.195 193.408C669.195 198.412 665.101 202.506 660.097 202.506Z" fill="#4ED784"/>
<path id="F - 11" d="M550.93 202.506C545.927 202.506 541.833 198.412 541.833 193.408C541.833 188.405 545.927 184.311 550.93 184.311C555.934 184.311 560.028 188.405 560.028 193.408C560.028 198.412 555.934 202.506 550.93 202.506Z" fill="#4ED784"/>
<path id="F - 10" d="M514.541 202.506C509.538 202.506 505.444 198.412 505.444 193.408C505.444 188.405 509.538 184.311 514.541 184.311C519.545 184.311 523.638 188.405 523.638 193.408C523.638 198.412 519.545 202.506 514.541 202.506Z" fill="#4ED784"/>
<path id="F - 09" d="M478.152 202.506C473.149 202.506 469.055 198.412 469.055 193.408C469.055 188.405 473.149 184.311 478.152 184.311C483.156 184.311 487.25 188.405 487.25 193.408C487.25 198.412 483.156 202.506 478.152 202.506Z" fill="#4ED784"/>
<path id="F - 08" d="M441.763 202.506C436.76 202.506 432.666 198.412 432.666 193.408C432.666 188.405 436.76 184.311 441.763 184.311C446.767 184.311 450.861 188.405 450.861 193.408C450.861 198.412 446.767 202.506 441.763 202.506Z" fill="#4ED784"/>
<path id="F - 07" d="M405.375 202.506C400.371 202.506 396.277 198.412 396.277 193.408C396.277 188.405 400.371 184.311 405.375 184.311C410.378 184.311 414.472 188.405 414.472 193.408C414.472 198.412 410.378 202.506 405.375 202.506Z" fill="#4ED784"/>
<path id="F - 06" d="M368.985 202.506C363.982 202.506 359.888 198.412 359.888 193.408C359.888 188.405 363.982 184.311 368.985 184.311C373.989 184.311 378.083 188.405 378.083 193.408C378.083 198.412 373.989 202.506 368.985 202.506Z" fill="#4ED784"/>
<path id="F - 05" d="M332.596 202.506C327.593 202.506 323.499 198.412 323.499 193.408C323.499 188.405 327.593 184.311 332.596 184.311C337.6 184.311 341.694 188.405 341.694 193.408C341.694 198.412 337.6 202.506 332.596 202.506Z" fill="#4ED784"/>
<path id="H - 04" d="M296.105 129.727C291.101 129.727 287.007 125.633 287.007 120.63C287.007 115.626 291.101 111.533 296.105 111.533C301.108 111.533 305.202 115.626 305.202 120.63C305.202 125.633 301.108 129.727 296.105 129.727Z" fill="#4ED784"/>
<path id="H - 03" d="M259.716 129.727C254.712 129.727 250.619 125.633 250.619 120.63C250.619 115.626 254.712 111.533 259.716 111.533C264.719 111.533 268.813 115.626 268.813 120.63C268.813 125.633 264.719 129.727 259.716 129.727Z" fill="#4ED784"/>
<path id="H - 02" d="M223.326 129.727C218.323 129.727 214.229 125.633 214.229 120.63C214.229 115.626 218.323 111.533 223.326 111.533C228.33 111.533 232.424 115.626 232.424 120.63C232.424 125.633 228.33 129.727 223.326 129.727Z" fill="#4ED784"/>
<path id="H - 01" d="M186.938 129.727C181.934 129.727 177.84 125.633 177.84 120.63C177.84 115.626 181.934 111.533 186.938 111.533C191.941 111.533 196.035 115.626 196.035 120.63C196.035 125.633 191.941 129.727 186.938 129.727Z" fill="#4ED784"/>
<path id="G - 04" d="M296.105 166.116C291.101 166.116 287.007 162.022 287.007 157.019C287.007 152.015 291.101 147.921 296.105 147.921C301.108 147.921 305.202 152.015 305.202 157.019C305.202 162.022 301.108 166.116 296.105 166.116Z" fill="#4ED784"/>
<path id="G - 03" d="M259.716 166.116C254.712 166.116 250.619 162.022 250.619 157.019C250.619 152.015 254.712 147.921 259.716 147.921C264.719 147.921 268.813 152.015 268.813 157.019C268.813 162.022 264.719 166.116 259.716 166.116Z" fill="#4ED784"/>
<path id="G - 02" d="M223.326 166.116C218.323 166.116 214.229 162.022 214.229 157.019C214.229 152.015 218.323 147.921 223.326 147.921C228.33 147.921 232.424 152.015 232.424 157.019C232.424 162.022 228.33 166.116 223.326 166.116Z" fill="#4ED784"/>
<path id="G - 01" d="M186.938 166.116C181.934 166.116 177.84 162.022 177.84 157.019C177.84 152.015 181.934 147.921 186.938 147.921C191.941 147.921 196.035 152.015 196.035 157.019C196.035 162.022 191.941 166.116 186.938 166.116Z" fill="#4ED784"/>
<path id="F - 04" d="M296.105 202.506C291.101 202.506 287.007 198.412 287.007 193.408C287.007 188.405 291.101 184.311 296.105 184.311C301.108 184.311 305.202 188.405 305.202 193.408C305.202 198.412 301.108 202.506 296.105 202.506Z" fill="#4ED784"/>
<path id="F - 03" d="M259.716 202.506C254.712 202.506 250.619 198.412 250.619 193.408C250.619 188.405 254.712 184.311 259.716 184.311C264.719 184.311 268.813 188.405 268.813 193.408C268.813 198.412 264.719 202.506 259.716 202.506Z" fill="#4ED784"/>
<path id="F - 02" d="M223.326 202.506C218.323 202.506 214.229 198.412 214.229 193.408C214.229 188.405 218.323 184.311 223.326 184.311C228.33 184.311 232.424 188.405 232.424 193.408C232.424 198.412 228.33 202.506 223.326 202.506Z" fill="#4ED784"/>
<path id="F - 01" d="M186.938 202.506C181.934 202.506 177.84 198.412 177.84 193.408C177.84 188.405 181.934 184.311 186.938 184.311C191.941 184.311 196.035 188.405 196.035 193.408C196.035 198.412 191.941 202.506 186.938 202.506Z" fill="#4ED784"/>
<path id="E - 12" d="M587.319 238.735C582.316 238.735 578.222 234.641 578.222 229.638C578.222 224.634 582.316 220.541 587.319 220.541C592.323 220.541 596.417 224.634 596.417 229.638C596.417 234.641 592.323 238.735 587.319 238.735Z" fill="#4ED784"/>
<path id="E - 13" d="M624.097 238.735C619.094 238.735 615 234.641 615 229.638C615 224.634 619.094 220.541 624.097 220.541C629.101 220.541 633.195 224.634 633.195 229.638C633.195 234.641 629.101 238.735 624.097 238.735Z" fill="#4ED784"/>
<path id="E - 14" d="M660.097 238.735C655.094 238.735 651 234.641 651 229.638C651 224.634 655.094 220.541 660.097 220.541C665.101 220.541 669.195 224.634 669.195 229.638C669.195 234.641 665.101 238.735 660.097 238.735Z" fill="#4ED784"/>
<path id="out - 01" d="M118.097 238.803C113.094 238.803 109 234.709 109 229.706C109 224.702 113.094 220.608 118.097 220.608C123.101 220.608 127.195 224.702 127.195 229.706C127.195 234.709 123.101 238.803 118.097 238.803Z" fill="#4ED784"/>
<path id="out - 02" d="M118.097 275.192C113.094 275.192 109 271.098 109 266.095C109 261.091 113.094 256.998 118.097 256.998C123.101 256.998 127.195 261.091 127.195 266.095C127.195 271.098 123.101 275.192 118.097 275.192Z" fill="#4ED784"/>
<path id="out - 03" d="M118.097 311.582C113.094 311.582 109 307.488 109 302.484C109 297.481 113.094 293.387 118.097 293.387C123.101 293.387 127.195 297.481 127.195 302.484C127.195 307.488 123.101 311.582 118.097 311.582Z" fill="#4ED784"/>
<path id="out - 04" d="M118.097 347.97C113.094 347.97 109 343.877 109 338.873C109 333.87 113.094 329.776 118.097 329.776C123.101 329.776 127.195 333.87 127.195 338.873C127.195 343.877 123.101 347.97 118.097 347.97Z" fill="#4ED784"/>
<path id="out - 05" d="M9.09726 384.36C4.09377 384.36 0 380.266 0 375.262C0 370.259 4.09377 366.165 9.09726 366.165C14.1008 366.165 18.1945 370.259 18.1945 375.262C18.1945 380.266 14.1008 384.36 9.09726 384.36Z" fill="#4ED784"/>
<path id="out - 06" d="M81.8751 384.36C76.8716 384.36 72.7778 380.266 72.7778 375.262C72.7778 370.259 76.8716 366.165 81.8751 366.165C86.8786 366.165 90.9724 370.259 90.9724 375.262C90.9724 380.266 86.8786 384.36 81.8751 384.36Z" fill="#4ED784"/>
<path id="out - 07" d="M45.4864 384.36C40.4829 384.36 36.3892 380.266 36.3892 375.262C36.3892 370.259 40.4829 366.165 45.4864 366.165C50.4899 366.165 54.5837 370.259 54.5837 375.262C54.5837 380.266 50.4899 384.36 45.4864 384.36Z" fill="#4ED784"/>
<path id="out - 08" d="M118.264 384.36C113.261 384.36 109.167 380.266 109.167 375.262C109.167 370.259 113.261 366.165 118.264 366.165C123.268 366.165 127.362 370.259 127.362 375.262C127.362 380.266 123.268 384.36 118.264 384.36Z" fill="#4ED784"/>
<path id="E - 11" d="M550.93 238.735C545.927 238.735 541.833 234.641 541.833 229.638C541.833 224.634 545.927 220.541 550.93 220.541C555.934 220.541 560.028 224.634 560.028 229.638C560.028 234.641 555.934 238.735 550.93 238.735Z" fill="#4ED784"/>
<path id="E - 10" d="M514.541 238.735C509.538 238.735 505.444 234.641 505.444 229.638C505.444 224.634 509.538 220.541 514.541 220.541C519.545 220.541 523.638 224.634 523.638 229.638C523.638 234.641 519.545 238.735 514.541 238.735Z" fill="#4ED784"/>
<path id="E - 09" d="M478.152 238.735C473.149 238.735 469.055 234.641 469.055 229.638C469.055 224.634 473.149 220.541 478.152 220.541C483.156 220.541 487.25 224.634 487.25 229.638C487.25 234.641 483.156 238.735 478.152 238.735Z" fill="#4ED784"/>
<path id="E - 08" d="M441.763 238.735C436.76 238.735 432.666 234.641 432.666 229.638C432.666 224.634 436.76 220.541 441.763 220.541C446.767 220.541 450.861 224.634 450.861 229.638C450.861 234.641 446.767 238.735 441.763 238.735Z" fill="#4ED784"/>
<path id="E - 07" d="M405.375 238.735C400.371 238.735 396.277 234.641 396.277 229.638C396.277 224.634 400.371 220.541 405.375 220.541C410.378 220.541 414.472 224.634 414.472 229.638C414.472 234.641 410.378 238.735 405.375 238.735Z" fill="#4ED784"/>
<path id="E - 06" d="M368.985 238.735C363.982 238.735 359.888 234.641 359.888 229.638C359.888 224.634 363.982 220.541 368.985 220.541C373.989 220.541 378.083 224.634 378.083 229.638C378.083 234.641 373.989 238.735 368.985 238.735Z" fill="#4ED784"/>
<path id="E - 05" d="M332.596 238.735C327.593 238.735 323.499 234.641 323.499 229.638C323.499 224.634 327.593 220.541 332.596 220.541C337.6 220.541 341.694 224.634 341.694 229.638C341.694 234.641 337.6 238.735 332.596 238.735Z" fill="#4ED784"/>
<path id="D - 12" d="M587.319 275.124C582.316 275.124 578.222 271.03 578.222 266.027C578.222 261.023 582.316 256.93 587.319 256.93C592.323 256.93 596.417 261.023 596.417 266.027C596.417 271.03 592.323 275.124 587.319 275.124Z" fill="#4ED784"/>
<path id="D - 13" d="M621.097 275.124C616.094 275.124 612 271.03 612 266.027C612 261.023 616.094 256.93 621.097 256.93C626.101 256.93 630.195 261.023 630.195 266.027C630.195 271.03 626.101 275.124 621.097 275.124Z" fill="#4ED784"/>
<path id="D - 14" d="M660.097 275.124C655.094 275.124 651 271.03 651 266.027C651 261.023 655.094 256.93 660.097 256.93C665.101 256.93 669.195 261.023 669.195 266.027C669.195 271.03 665.101 275.124 660.097 275.124Z" fill="#4ED784"/>
<path id="D - 11" d="M550.93 275.124C545.927 275.124 541.833 271.03 541.833 266.027C541.833 261.023 545.927 256.93 550.93 256.93C555.934 256.93 560.028 261.023 560.028 266.027C560.028 271.03 555.934 275.124 550.93 275.124Z" fill="#4ED784"/>
<path id="D - 10" d="M514.541 275.124C509.538 275.124 505.444 271.03 505.444 266.027C505.444 261.023 509.538 256.93 514.541 256.93C519.545 256.93 523.638 261.023 523.638 266.027C523.638 271.03 519.545 275.124 514.541 275.124Z" fill="#4ED784"/>
<path id="D - 09" d="M478.152 275.124C473.149 275.124 469.055 271.03 469.055 266.027C469.055 261.023 473.149 256.93 478.152 256.93C483.156 256.93 487.25 261.023 487.25 266.027C487.25 271.03 483.156 275.124 478.152 275.124Z" fill="#4ED784"/>
<path id="D - 08" d="M441.763 275.124C436.76 275.124 432.666 271.03 432.666 266.027C432.666 261.023 436.76 256.93 441.763 256.93C446.767 256.93 450.861 261.023 450.861 266.027C450.861 271.03 446.767 275.124 441.763 275.124Z" fill="#4ED784"/>
<path id="D - 07" d="M405.375 275.124C400.371 275.124 396.277 271.03 396.277 266.027C396.277 261.023 400.371 256.93 405.375 256.93C410.378 256.93 414.472 261.023 414.472 266.027C414.472 271.03 410.378 275.124 405.375 275.124Z" fill="#4ED784"/>
<path id="D - 06" d="M368.985 275.124C363.982 275.124 359.888 271.03 359.888 266.027C359.888 261.023 363.982 256.93 368.985 256.93C373.989 256.93 378.083 261.023 378.083 266.027C378.083 271.03 373.989 275.124 368.985 275.124Z" fill="#4ED784"/>
<path id="D - 05" d="M332.596 275.124C327.593 275.124 323.499 271.03 323.499 266.027C323.499 261.023 327.593 256.93 332.596 256.93C337.6 256.93 341.694 261.023 341.694 266.027C341.694 271.03 337.6 275.124 332.596 275.124Z" fill="#4ED784"/>
<path id="C - 12" d="M587.319 311.513C582.316 311.513 578.222 307.42 578.222 302.416C578.222 297.413 582.316 293.319 587.319 293.319C592.323 293.319 596.417 297.413 596.417 302.416C596.417 307.42 592.323 311.513 587.319 311.513Z" fill="#4ED784"/>
<path id="C - 13" d="M621.097 311.513C616.094 311.513 612 307.42 612 302.416C612 297.413 616.094 293.319 621.097 293.319C626.101 293.319 630.195 297.413 630.195 302.416C630.195 307.42 626.101 311.513 621.097 311.513Z" fill="#4ED784"/>
<path id="C - 14" d="M660.097 311.513C655.094 311.513 651 307.42 651 302.416C651 297.413 655.094 293.319 660.097 293.319C665.101 293.319 669.195 297.413 669.195 302.416C669.195 307.42 665.101 311.513 660.097 311.513Z" fill="#4ED784"/>
<path id="C - 11" d="M550.93 311.513C545.927 311.513 541.833 307.42 541.833 302.416C541.833 297.413 545.927 293.319 550.93 293.319C555.934 293.319 560.028 297.413 560.028 302.416C560.028 307.42 555.934 311.513 550.93 311.513Z" fill="#4ED784"/>
<path id="C - 10" d="M514.541 311.513C509.538 311.513 505.444 307.42 505.444 302.416C505.444 297.413 509.538 293.319 514.541 293.319C519.545 293.319 523.638 297.413 523.638 302.416C523.638 307.42 519.545 311.513 514.541 311.513Z" fill="#4ED784"/>
<path id="C - 09" d="M478.152 311.513C473.149 311.513 469.055 307.42 469.055 302.416C469.055 297.413 473.149 293.319 478.152 293.319C483.156 293.319 487.25 297.413 487.25 302.416C487.25 307.42 483.156 311.513 478.152 311.513Z" fill="#4ED784"/>
<path id="C - 08" d="M441.763 311.513C436.76 311.513 432.666 307.42 432.666 302.416C432.666 297.413 436.76 293.319 441.763 293.319C446.767 293.319 450.861 297.413 450.861 302.416C450.861 307.42 446.767 311.513 441.763 311.513Z" fill="#4ED784"/>
<path id="C - 07" d="M405.375 311.513C400.371 311.513 396.277 307.42 396.277 302.416C396.277 297.413 400.371 293.319 405.375 293.319C410.378 293.319 414.472 297.413 414.472 302.416C414.472 307.42 410.378 311.513 405.375 311.513Z" fill="#4ED784"/>
<path id="C - 06" d="M368.985 311.513C363.982 311.513 359.888 307.42 359.888 302.416C359.888 297.413 363.982 293.319 368.985 293.319C373.989 293.319 378.083 297.413 378.083 302.416C378.083 307.42 373.989 311.513 368.985 311.513Z" fill="#4ED784"/>
<path id="C - 05" d="M332.596 311.513C327.593 311.513 323.499 307.42 323.499 302.416C323.499 297.413 327.593 293.319 332.596 293.319C337.6 293.319 341.694 297.413 341.694 302.416C341.694 307.42 337.6 311.513 332.596 311.513Z" fill="#4ED784"/>
<path id="E - 04" d="M296.105 238.735C291.101 238.735 287.007 234.641 287.007 229.638C287.007 224.634 291.101 220.541 296.105 220.541C301.108 220.541 305.202 224.634 305.202 229.638C305.202 234.641 301.108 238.735 296.105 238.735Z" fill="#4ED784"/>
<path id="E - 03" d="M259.716 238.735C254.712 238.735 250.619 234.641 250.619 229.638C250.619 224.634 254.712 220.541 259.716 220.541C264.719 220.541 268.813 224.634 268.813 229.638C268.813 234.641 264.719 238.735 259.716 238.735Z" fill="#4ED784"/>
<path id="E - 02" d="M223.326 238.735C218.323 238.735 214.229 234.641 214.229 229.638C214.229 224.634 218.323 220.541 223.326 220.541C228.33 220.541 232.424 224.634 232.424 229.638C232.424 234.641 228.33 238.735 223.326 238.735Z" fill="#4ED784"/>
<path id="E - 01" d="M186.938 238.735C181.934 238.735 177.84 234.641 177.84 229.638C177.84 224.634 181.934 220.541 186.938 220.541C191.941 220.541 196.035 224.634 196.035 229.638C196.035 234.641 191.941 238.735 186.938 238.735Z" fill="#4ED784"/>
<path id="D - 04" d="M296.105 275.124C291.101 275.124 287.007 271.03 287.007 266.027C287.007 261.023 291.101 256.93 296.105 256.93C301.108 256.93 305.202 261.023 305.202 266.027C305.202 271.03 301.108 275.124 296.105 275.124Z" fill="#4ED784"/>
<path id="D - 03" d="M259.716 275.124C254.712 275.124 250.619 271.03 250.619 266.027C250.619 261.023 254.712 256.93 259.716 256.93C264.719 256.93 268.813 261.023 268.813 266.027C268.813 271.03 264.719 275.124 259.716 275.124Z" fill="#4ED784"/>
<path id="D - 02" d="M223.326 275.124C218.323 275.124 214.229 271.03 214.229 266.027C214.229 261.023 218.323 256.93 223.326 256.93C228.33 256.93 232.424 261.023 232.424 266.027C232.424 271.03 228.33 275.124 223.326 275.124Z" fill="#4ED784"/>
<path id="D - 01" d="M186.938 275.124C181.934 275.124 177.84 271.03 177.84 266.027C177.84 261.023 181.934 256.93 186.938 256.93C191.941 256.93 196.035 261.023 196.035 266.027C196.035 271.03 191.941 275.124 186.938 275.124Z" fill="#4ED784"/>
<path id="C - 04" d="M296.105 311.513C291.101 311.513 287.007 307.42 287.007 302.416C287.007 297.413 291.101 293.319 296.105 293.319C301.108 293.319 305.202 297.413 305.202 302.416C305.202 307.42 301.108 311.513 296.105 311.513Z" fill="#4ED784"/>
<path id="C - 03" d="M259.716 311.513C254.712 311.513 250.619 307.42 250.619 302.416C250.619 297.413 254.712 293.319 259.716 293.319C264.719 293.319 268.813 297.413 268.813 302.416C268.813 307.42 264.719 311.513 259.716 311.513Z" fill="#4ED784"/>
<path id="C - 02" d="M223.326 311.513C218.323 311.513 214.229 307.42 214.229 302.416C214.229 297.413 218.323 293.319 223.326 293.319C228.33 293.319 232.424 297.413 232.424 302.416C232.424 307.42 228.33 311.513 223.326 311.513Z" fill="#4ED784"/>
<path id="C - 01" d="M186.938 311.513C181.934 311.513 177.84 307.42 177.84 302.416C177.84 297.413 181.934 293.319 186.938 293.319C191.941 293.319 196.035 297.413 196.035 302.416C196.035 307.42 191.941 311.513 186.938 311.513Z" fill="#4ED784"/>
<path id="B - 03" d="M261.596 347.777C256.593 347.777 252.499 343.683 252.499 338.68C252.499 333.676 256.593 329.583 261.596 329.583C266.6 329.583 270.694 333.676 270.694 338.68C270.694 343.683 266.6 347.777 261.596 347.777Z" fill="#4ED784"/>
<path id="B - 04" d="M296.097 347.777C291.094 347.777 287 343.683 287 338.68C287 333.676 291.094 329.583 296.097 329.583C301.101 329.583 305.195 333.676 305.195 338.68C305.195 343.683 301.101 347.777 296.097 347.777Z" fill="#4ED784"/>
<path id="B - 02" d="M225.208 347.777C220.204 347.777 216.11 343.683 216.11 338.68C216.11 333.676 220.204 329.583 225.208 329.583C230.211 329.583 234.305 333.676 234.305 338.68C234.305 343.683 230.211 347.777 225.208 347.777Z" fill="#4ED784"/>
<path id="B - 01" d="M188.819 347.777C183.815 347.777 179.722 343.683 179.722 338.68C179.722 333.676 183.815 329.583 188.819 329.583C193.822 329.583 197.916 333.676 197.916 338.68C197.916 343.683 193.822 347.777 188.819 347.777Z" fill="#4ED784"/>
<path id="A - 03" d="M261.596 384.166C256.593 384.166 252.499 380.072 252.499 375.068C252.499 370.065 256.593 365.971 261.596 365.971C266.6 365.971 270.694 370.065 270.694 375.068C270.694 380.072 266.6 384.166 261.596 384.166Z" fill="#4ED784"/>
<path id="A - 04" d="M296.097 384.166C291.094 384.166 287 380.072 287 375.068C287 370.065 291.094 365.971 296.097 365.971C301.101 365.971 305.195 370.065 305.195 375.068C305.195 380.072 301.101 384.166 296.097 384.166Z" fill="#4ED784"/>
<path id="A - 02" d="M225.208 384.166C220.204 384.166 216.11 380.072 216.11 375.068C216.11 370.065 220.204 365.971 225.208 365.971C230.211 365.971 234.305 370.065 234.305 375.068C234.305 380.072 230.211 384.166 225.208 384.166Z" fill="#4ED784"/>
<path id="A - 01" d="M188.819 384.166C183.815 384.166 179.722 380.072 179.722 375.068C179.722 370.065 183.815 365.971 188.819 365.971C193.822 365.971 197.916 370.065 197.916 375.068C197.916 380.072 193.822 384.166 188.819 384.166Z" fill="#4ED784"/>
</g>
</svg>
