<svg width="1200" height="251" viewBox="0 0 1200 251" fill="none" xmlns="http://www.w3.org/2000/svg">
<g id="Sector B">
<path id="A - 01" d="M449 19C444.05 19 440 14.95 440 10C440 5.05 444.05 1 449 1C453.95 1 458 5.05 458 10C458 14.95 453.95 19 449 19Z" fill="#FFA983"/>
<path id="A - 02" d="M474 19C469.05 19 465 14.95 465 10C465 5.05 469.05 1 474 1C478.95 1 483 5.05 483 10C483 14.95 478.95 19 474 19Z" fill="#FFA983"/>
<path id="A - 03" d="M499 19C494.05 19 490 14.95 490 10C490 5.05 494.05 1 499 1C503.95 1 508 5.05 508 10C508 14.95 503.95 19 499 19Z" fill="#FFA983"/>
<path id="A - 04" d="M524 19C519.05 19 515 14.95 515 10C515 5.05 519.05 1 524 1C528.95 1 533 5.05 533 10C533 14.95 528.95 19 524 19Z" fill="#FFA983"/>
<path id="A - 05" d="M549 19C544.05 19 540 14.95 540 10C540 5.05 544.05 1 549 1C553.95 1 558 5.05 558 10C558 14.95 553.95 19 549 19Z" fill="#FFA983"/>
<path id="A - 06" d="M574 19C569.05 19 565 14.95 565 10C565 5.05 569.05 1 574 1C578.95 1 583 5.05 583 10C583 14.95 578.95 19 574 19Z" fill="#FFA983"/>
<path id="B - 01" d="M424 45C419.05 45 415 40.95 415 36C415 31.05 419.05 27 424 27C428.95 27 433 31.05 433 36C433 40.95 428.95 45 424 45Z" fill="#FFA983"/>
<path id="B - 02" d="M449 45C444.05 45 440 40.95 440 36C440 31.05 444.05 27 449 27C453.95 27 458 31.05 458 36C458 40.95 453.95 45 449 45Z" fill="#FFA983"/>
<path id="B - 03" d="M474 45C469.05 45 465 40.95 465 36C465 31.05 469.05 27 474 27C478.95 27 483 31.05 483 36C483 40.95 478.95 45 474 45Z" fill="#FFA983"/>
<path id="B - 04" d="M499 45C494.05 45 490 40.95 490 36C490 31.05 494.05 27 499 27C503.95 27 508 31.05 508 36C508 40.95 503.95 45 499 45Z" fill="#FFA983"/>
<path id="B - 05" d="M524 45C519.05 45 515 40.95 515 36C515 31.05 519.05 27 524 27C528.95 27 533 31.05 533 36C533 40.95 528.95 45 524 45Z" fill="#FFA983"/>
<path id="B - 06" d="M549 45C544.05 45 540 40.95 540 36C540 31.05 544.05 27 549 27C553.95 27 558 31.05 558 36C558 40.95 553.95 45 549 45Z" fill="#FFA983"/>
<path id="B - 07" d="M574 45C569.05 45 565 40.95 565 36C565 31.05 569.05 27 574 27C578.95 27 583 31.05 583 36C583 40.95 578.95 45 574 45Z" fill="#FFA983"/>
<path id="B - 08" d="M599 45C594.05 45 590 40.95 590 36C590 31.05 594.05 27 599 27C603.95 27 608 31.05 608 36C608 40.95 603.95 45 599 45Z" fill="#FFA983"/>
<path id="B - 09" d="M624 45C619.05 45 615 40.95 615 36C615 31.05 619.05 27 624 27C628.95 27 633 31.05 633 36C633 40.95 628.95 45 624 45Z" fill="#FFA983"/>
<path id="B - 10" d="M649 45C644.05 45 640 40.95 640 36C640 31.05 644.05 27 649 27C653.95 27 658 31.05 658 36C658 40.95 653.95 45 649 45Z" fill="#FFA983"/>
<path id="B - 11" d="M674 45C669.05 45 665 40.95 665 36C665 31.05 669.05 27 674 27C678.95 27 683 31.05 683 36C683 40.95 678.95 45 674 45Z" fill="#FFA983"/>
<path id="B - 12" d="M699 45C694.05 45 690 40.95 690 36C690 31.05 694.05 27 699 27C703.95 27 708 31.05 708 36C708 40.95 703.95 45 699 45Z" fill="#FFA983"/>
<path id="C - 01" d="M374 71C369.05 71 365 66.95 365 62C365 57.05 369.05 53 374 53C378.95 53 383 57.05 383 62C383 66.95 378.95 71 374 71Z" fill="#FFA983"/>
<path id="C - 02" d="M399 71C394.05 71 390 66.95 390 62C390 57.05 394.05 53 399 53C403.95 53 408 57.05 408 62C408 66.95 403.95 71 399 71Z" fill="#FFA983"/>
<path id="C - 03" d="M424 71C419.05 71 415 66.95 415 62C415 57.05 419.05 53 424 53C428.95 53 433 57.05 433 62C433 66.95 428.95 71 424 71Z" fill="#FFA983"/>
<path id="C - 04" d="M449 71C444.05 71 440 66.95 440 62C440 57.05 444.05 53 449 53C453.95 53 458 57.05 458 62C458 66.95 453.95 71 449 71Z" fill="#FFA983"/>
<path id="C - 05" d="M474 71C469.05 71 465 66.95 465 62C465 57.05 469.05 53 474 53C478.95 53 483 57.05 483 62C483 66.95 478.95 71 474 71Z" fill="#FFA983"/>
<path id="C - 06" d="M499 71C494.05 71 490 66.95 490 62C490 57.05 494.05 53 499 53C503.95 53 508 57.05 508 62C508 66.95 503.95 71 499 71Z" fill="#FFA983"/>
<path id="C - 07" d="M524 71C519.05 71 515 66.95 515 62C515 57.05 519.05 53 524 53C528.95 53 533 57.05 533 62C533 66.95 528.95 71 524 71Z" fill="#FFA983"/>
<path id="C - 08" d="M549 71C544.05 71 540 66.95 540 62C540 57.05 544.05 53 549 53C553.95 53 558 57.05 558 62C558 66.95 553.95 71 549 71Z" fill="#FFA983"/>
<path id="C - 09" d="M574 71C569.05 71 565 66.95 565 62C565 57.05 569.05 53 574 53C578.95 53 583 57.05 583 62C583 66.95 578.95 71 574 71Z" fill="#FFA983"/>
<path id="C - 10" d="M599 71C594.05 71 590 66.95 590 62C590 57.05 594.05 53 599 53C603.95 53 608 57.05 608 62C608 66.95 603.95 71 599 71Z" fill="#FFA983"/>
<path id="C - 11" d="M624 71C619.05 71 615 66.95 615 62C615 57.05 619.05 53 624 53C628.95 53 633 57.05 633 62C633 66.95 628.95 71 624 71Z" fill="#FFA983"/>
<path id="C - 12" d="M749 71C744.05 71 740 66.95 740 62C740 57.05 744.05 53 749 53C753.95 53 758 57.05 758 62C758 66.95 753.95 71 749 71Z" fill="#FFA983"/>
<path id="C - 13" d="M649 71C644.05 71 640 66.95 640 62C640 57.05 644.05 53 649 53C653.95 53 658 57.05 658 62C658 66.95 653.95 71 649 71Z" fill="#FFA983"/>
<path id="C - 14" d="M774 71C769.05 71 765 66.95 765 62C765 57.05 769.05 53 774 53C778.95 53 783 57.05 783 62C783 66.95 778.95 71 774 71Z" fill="#FFA983"/>
<path id="C - 15" d="M674 71C669.05 71 665 66.95 665 62C665 57.05 669.05 53 674 53C678.95 53 683 57.05 683 62C683 66.95 678.95 71 674 71Z" fill="#FFA983"/>
<path id="C - 16" d="M799 71C794.05 71 790 66.95 790 62C790 57.05 794.05 53 799 53C803.95 53 808 57.05 808 62C808 66.95 803.95 71 799 71Z" fill="#FFA983"/>
<path id="C - 17" d="M699 71C694.05 71 690 66.95 690 62C690 57.05 694.05 53 699 53C703.95 53 708 57.05 708 62C708 66.95 703.95 71 699 71Z" fill="#FFA983"/>
<path id="C - 18" d="M824 71C819.05 71 815 66.95 815 62C815 57.05 819.05 53 824 53C828.95 53 833 57.05 833 62C833 66.95 828.95 71 824 71Z" fill="#FFA983"/>
<path id="C - 19" d="M724 71C719.05 71 715 66.95 715 62C715 57.05 719.05 53 724 53C728.95 53 733 57.05 733 62C733 66.95 728.95 71 724 71Z" fill="#FFA983"/>
<path id="D - 01" d="M324 97C319.05 97 315 92.95 315 88C315 83.05 319.05 79 324 79C328.95 79 333 83.05 333 88C333 92.95 328.95 97 324 97Z" fill="#FFA983"/>
<path id="D - 02" d="M349 97C344.05 97 340 92.95 340 88C340 83.05 344.05 79 349 79C353.95 79 358 83.05 358 88C358 92.95 353.95 97 349 97Z" fill="#FFA983"/>
<path id="D - 03" d="M374 97C369.05 97 365 92.95 365 88C365 83.05 369.05 79 374 79C378.95 79 383 83.05 383 88C383 92.95 378.95 97 374 97Z" fill="#FFA983"/>
<path id="D - 04" d="M399 97C394.05 97 390 92.95 390 88C390 83.05 394.05 79 399 79C403.95 79 408 83.05 408 88C408 92.95 403.95 97 399 97Z" fill="#FFA983"/>
<path id="D - 05" d="M424 97C419.05 97 415 92.95 415 88C415 83.05 419.05 79 424 79C428.95 79 433 83.05 433 88C433 92.95 428.95 97 424 97Z" fill="#FFA983"/>
<path id="D - 06" d="M449 97C444.05 97 440 92.95 440 88C440 83.05 444.05 79 449 79C453.95 79 458 83.05 458 88C458 92.95 453.95 97 449 97Z" fill="#FFA983"/>
<path id="D - 07" d="M474 97C469.05 97 465 92.95 465 88C465 83.05 469.05 79 474 79C478.95 79 483 83.05 483 88C483 92.95 478.95 97 474 97Z" fill="#FFA983"/>
<path id="D - 08" d="M499 97C494.05 97 490 92.95 490 88C490 83.05 494.05 79 499 79C503.95 79 508 83.05 508 88C508 92.95 503.95 97 499 97Z" fill="#FFA983"/>
<path id="D - 09" d="M524 97C519.05 97 515 92.95 515 88C515 83.05 519.05 79 524 79C528.95 79 533 83.05 533 88C533 92.95 528.95 97 524 97Z" fill="#FFA983"/>
<path id="D - 10" d="M549 97C544.05 97 540 92.95 540 88C540 83.05 544.05 79 549 79C553.95 79 558 83.05 558 88C558 92.95 553.95 97 549 97Z" fill="#FFA983"/>
<path id="D - 11" d="M574 97C569.05 97 565 92.95 565 88C565 83.05 569.05 79 574 79C578.95 79 583 83.05 583 88C583 92.95 578.95 97 574 97Z" fill="#FFA983"/>
<path id="E - 01" d="M274 123C269.05 123 265 118.95 265 114C265 109.05 269.05 105 274 105C278.95 105 283 109.05 283 114C283 118.95 278.95 123 274 123Z" fill="#FFA983"/>
<path id="E - 02" d="M299 123C294.05 123 290 118.95 290 114C290 109.05 294.05 105 299 105C303.95 105 308 109.05 308 114C308 118.95 303.95 123 299 123Z" fill="#FFA983"/>
<path id="E - 03" d="M324 123C319.05 123 315 118.95 315 114C315 109.05 319.05 105 324 105C328.95 105 333 109.05 333 114C333 118.95 328.95 123 324 123Z" fill="#FFA983"/>
<path id="E - 04" d="M349 123C344.05 123 340 118.95 340 114C340 109.05 344.05 105 349 105C353.95 105 358 109.05 358 114C358 118.95 353.95 123 349 123Z" fill="#FFA983"/>
<path id="E - 05" d="M374 123C369.05 123 365 118.95 365 114C365 109.05 369.05 105 374 105C378.95 105 383 109.05 383 114C383 118.95 378.95 123 374 123Z" fill="#FFA983"/>
<path id="E - 06" d="M399 123C394.05 123 390 118.95 390 114C390 109.05 394.05 105 399 105C403.95 105 408 109.05 408 114C408 118.95 403.95 123 399 123Z" fill="#FFA983"/>
<path id="E - 07" d="M424 123C419.05 123 415 118.95 415 114C415 109.05 419.05 105 424 105C428.95 105 433 109.05 433 114C433 118.95 428.95 123 424 123Z" fill="#FFA983"/>
<path id="E - 08" d="M449 123C444.05 123 440 118.95 440 114C440 109.05 444.05 105 449 105C453.95 105 458 109.05 458 114C458 118.95 453.95 123 449 123Z" fill="#FFA983"/>
<path id="E - 09" d="M474 123C469.05 123 465 118.95 465 114C465 109.05 469.05 105 474 105C478.95 105 483 109.05 483 114C483 118.95 478.95 123 474 123Z" fill="#FFA983"/>
<path id="E - 10" d="M499 123C494.05 123 490 118.95 490 114C490 109.05 494.05 105 499 105C503.95 105 508 109.05 508 114C508 118.95 503.95 123 499 123Z" fill="#FFA983"/>
<path id="E - 11" d="M524 123C519.05 123 515 118.95 515 114C515 109.05 519.05 105 524 105C528.95 105 533 109.05 533 114C533 118.95 528.95 123 524 123Z" fill="#FFA983"/>
<path id="E - 12" d="M674 123C669.05 123 665 118.95 665 114C665 109.05 669.05 105 674 105C678.95 105 683 109.05 683 114C683 118.95 678.95 123 674 123Z" fill="#FFA983"/>
<path id="E - 13" d="M699 123C694.05 123 690 118.95 690 114C690 109.05 694.05 105 699 105C703.95 105 708 109.05 708 114C708 118.95 703.95 123 699 123Z" fill="#FFA983"/>
<path id="E - 14" d="M724 123C719.05 123 715 118.95 715 114C715 109.05 719.05 105 724 105C728.95 105 733 109.05 733 114C733 118.95 728.95 123 724 123Z" fill="#FFA983"/>
<path id="E - 15" d="M749 123C744.05 123 740 118.95 740 114C740 109.05 744.05 105 749 105C753.95 105 758 109.05 758 114C758 118.95 753.95 123 749 123Z" fill="#FFA983"/>
<path id="E - 16" d="M774 123C769.05 123 765 118.95 765 114C765 109.05 769.05 105 774 105C778.95 105 783 109.05 783 114C783 118.95 778.95 123 774 123Z" fill="#FFA983"/>
<path id="E - 17" d="M799 123C794.05 123 790 118.95 790 114C790 109.05 794.05 105 799 105C803.95 105 808 109.05 808 114C808 118.95 803.95 123 799 123Z" fill="#FFA983"/>
<path id="E - 18" d="M824 123C819.05 123 815 118.95 815 114C815 109.05 819.05 105 824 105C828.95 105 833 109.05 833 114C833 118.95 828.95 123 824 123Z" fill="#FFA983"/>
<path id="E - 19" d="M849 123C844.05 123 840 118.95 840 114C840 109.05 844.05 105 849 105C853.95 105 858 109.05 858 114C858 118.95 853.95 123 849 123Z" fill="#FFA983"/>
<path id="E - 20" d="M874 123C869.05 123 865 118.95 865 114C865 109.05 869.05 105 874 105C878.95 105 883 109.05 883 114C883 118.95 878.95 123 874 123Z" fill="#FFA983"/>
<path id="E - 21" d="M899 123C894.05 123 890 118.95 890 114C890 109.05 894.05 105 899 105C903.95 105 908 109.05 908 114C908 118.95 903.95 123 899 123Z" fill="#FFA983"/>
<path id="E - 22" d="M924 123C919.05 123 915 118.95 915 114C915 109.05 919.05 105 924 105C928.95 105 933 109.05 933 114C933 118.95 928.95 123 924 123Z" fill="#FFA983"/>
<path id="F - 01" d="M224 149C219.05 149 215 144.95 215 140C215 135.05 219.05 131 224 131C228.95 131 233 135.05 233 140C233 144.95 228.95 149 224 149Z" fill="#FFA983"/>
<path id="F - 02" d="M249 149C244.05 149 240 144.95 240 140C240 135.05 244.05 131 249 131C253.95 131 258 135.05 258 140C258 144.95 253.95 149 249 149Z" fill="#FFA983"/>
<path id="F - 03" d="M274 149C269.05 149 265 144.95 265 140C265 135.05 269.05 131 274 131C278.95 131 283 135.05 283 140C283 144.95 278.95 149 274 149Z" fill="#FFA983"/>
<path id="F - 04" d="M299 149C294.05 149 290 144.95 290 140C290 135.05 294.05 131 299 131C303.95 131 308 135.05 308 140C308 144.95 303.95 149 299 149Z" fill="#FFA983"/>
<path id="F - 05" d="M324 149C319.05 149 315 144.95 315 140C315 135.05 319.05 131 324 131C328.95 131 333 135.05 333 140C333 144.95 328.95 149 324 149Z" fill="#FFA983"/>
<path id="F - 06" d="M349 149C344.05 149 340 144.95 340 140C340 135.05 344.05 131 349 131C353.95 131 358 135.05 358 140C358 144.95 353.95 149 349 149Z" fill="#FFA983"/>
<path id="F - 07" d="M374 149C369.05 149 365 144.95 365 140C365 135.05 369.05 131 374 131C378.95 131 383 135.05 383 140C383 144.95 378.95 149 374 149Z" fill="#FFA983"/>
<path id="F - 08" d="M399 149C394.05 149 390 144.95 390 140C390 135.05 394.05 131 399 131C403.95 131 408 135.05 408 140C408 144.95 403.95 149 399 149Z" fill="#FFA983"/>
<path id="F - 09" d="M424 149C419.05 149 415 144.95 415 140C415 135.05 419.05 131 424 131C428.95 131 433 135.05 433 140C433 144.95 428.95 149 424 149Z" fill="#FFA983"/>
<path id="F - 10" d="M449 149C444.05 149 440 144.95 440 140C440 135.05 444.05 131 449 131C453.95 131 458 135.05 458 140C458 144.95 453.95 149 449 149Z" fill="#FFA983"/>
<path id="F - 11" d="M474 149C469.05 149 465 144.95 465 140C465 135.05 469.05 131 474 131C478.95 131 483 135.05 483 140C483 144.95 478.95 149 474 149Z" fill="#FFA983"/>
<path id="F - 12" d="M499 149C494.05 149 490 144.95 490 140C490 135.05 494.05 131 499 131C503.95 131 508 135.05 508 140C508 144.95 503.95 149 499 149Z" fill="#FFA983"/>
<path id="F - 13" d="M524 149C519.05 149 515 144.95 515 140C515 135.05 519.05 131 524 131C528.95 131 533 135.05 533 140C533 144.95 528.95 149 524 149Z" fill="#FFA983"/>
<path id="F - 14" d="M674 149C669.05 149 665 144.95 665 140C665 135.05 669.05 131 674 131C678.95 131 683 135.05 683 140C683 144.95 678.95 149 674 149Z" fill="#FFA983"/>
<path id="F - 15" d="M699 149C694.05 149 690 144.95 690 140C690 135.05 694.05 131 699 131C703.95 131 708 135.05 708 140C708 144.95 703.95 149 699 149Z" fill="#FFA983"/>
<path id="F - 16" d="M724 149C719.05 149 715 144.95 715 140C715 135.05 719.05 131 724 131C728.95 131 733 135.05 733 140C733 144.95 728.95 149 724 149Z" fill="#FFA983"/>
<path id="F - 17" d="M749 149C744.05 149 740 144.95 740 140C740 135.05 744.05 131 749 131C753.95 131 758 135.05 758 140C758 144.95 753.95 149 749 149Z" fill="#FFA983"/>
<path id="F - 18" d="M774 149C769.05 149 765 144.95 765 140C765 135.05 769.05 131 774 131C778.95 131 783 135.05 783 140C783 144.95 778.95 149 774 149Z" fill="#FFA983"/>
<path id="F - 19" d="M799 149C794.05 149 790 144.95 790 140C790 135.05 794.05 131 799 131C803.95 131 808 135.05 808 140C808 144.95 803.95 149 799 149Z" fill="#FFA983"/>
<path id="F - 20" d="M824 149C819.05 149 815 144.95 815 140C815 135.05 819.05 131 824 131C828.95 131 833 135.05 833 140C833 144.95 828.95 149 824 149Z" fill="#FFA983"/>
<path id="F - 21" d="M849 149C844.05 149 840 144.95 840 140C840 135.05 844.05 131 849 131C853.95 131 858 135.05 858 140C858 144.95 853.95 149 849 149Z" fill="#FFA983"/>
<path id="F - 22" d="M874 149C869.05 149 865 144.95 865 140C865 135.05 869.05 131 874 131C878.95 131 883 135.05 883 140C883 144.95 878.95 149 874 149Z" fill="#FFA983"/>
<path id="F - 23" d="M899 149C894.05 149 890 144.95 890 140C890 135.05 894.05 131 899 131C903.95 131 908 135.05 908 140C908 144.95 903.95 149 899 149Z" fill="#FFA983"/>
<path id="F - 24" d="M924 149C919.05 149 915 144.95 915 140C915 135.05 919.05 131 924 131C928.95 131 933 135.05 933 140C933 144.95 928.95 149 924 149Z" fill="#FFA983"/>
<path id="F - 25" d="M949 149C944.05 149 940 144.95 940 140C940 135.05 944.05 131 949 131C953.95 131 958 135.05 958 140C958 144.95 953.95 149 949 149Z" fill="#FFA983"/>
<path id="F - 26" d="M974 149C969.05 149 965 144.95 965 140C965 135.05 969.05 131 974 131C978.95 131 983 135.05 983 140C983 144.95 978.95 149 974 149Z" fill="#FFA983"/>
<path id="G - 01" d="M174 174C169.05 174 165 169.95 165 165C165 160.05 169.05 156 174 156C178.95 156 183 160.05 183 165C183 169.95 178.95 174 174 174Z" fill="#FFA983"/>
<path id="G - 02" d="M199 174C194.05 174 190 169.95 190 165C190 160.05 194.05 156 199 156C203.95 156 208 160.05 208 165C208 169.95 203.95 174 199 174Z" fill="#FFA983"/>
<path id="G - 03" d="M224 174C219.05 174 215 169.95 215 165C215 160.05 219.05 156 224 156C228.95 156 233 160.05 233 165C233 169.95 228.95 174 224 174Z" fill="#FFA983"/>
<path id="G - 04" d="M249 174C244.05 174 240 169.95 240 165C240 160.05 244.05 156 249 156C253.95 156 258 160.05 258 165C258 169.95 253.95 174 249 174Z" fill="#FFA983"/>
<path id="G - 05" d="M274 174C269.05 174 265 169.95 265 165C265 160.05 269.05 156 274 156C278.95 156 283 160.05 283 165C283 169.95 278.95 174 274 174Z" fill="#FFA983"/>
<path id="G - 06" d="M299 174C294.05 174 290 169.95 290 165C290 160.05 294.05 156 299 156C303.95 156 308 160.05 308 165C308 169.95 303.95 174 299 174Z" fill="#FFA983"/>
<path id="G - 07" d="M324 174C319.05 174 315 169.95 315 165C315 160.05 319.05 156 324 156C328.95 156 333 160.05 333 165C333 169.95 328.95 174 324 174Z" fill="#FFA983"/>
<path id="G - 08" d="M349 174C344.05 174 340 169.95 340 165C340 160.05 344.05 156 349 156C353.95 156 358 160.05 358 165C358 169.95 353.95 174 349 174Z" fill="#FFA983"/>
<path id="G - 09" d="M374 174C369.05 174 365 169.95 365 165C365 160.05 369.05 156 374 156C378.95 156 383 160.05 383 165C383 169.95 378.95 174 374 174Z" fill="#FFA983"/>
<path id="G - 10" d="M399 174C394.05 174 390 169.95 390 165C390 160.05 394.05 156 399 156C403.95 156 408 160.05 408 165C408 169.95 403.95 174 399 174Z" fill="#FFA983"/>
<path id="G - 11" d="M424 174C419.05 174 415 169.95 415 165C415 160.05 419.05 156 424 156C428.95 156 433 160.05 433 165C433 169.95 428.95 174 424 174Z" fill="#FFA983"/>
<path id="G - 12" d="M449 174C444.05 174 440 169.95 440 165C440 160.05 444.05 156 449 156C453.95 156 458 160.05 458 165C458 169.95 453.95 174 449 174Z" fill="#FFA983"/>
<path id="G - 13" d="M474 174C469.05 174 465 169.95 465 165C465 160.05 469.05 156 474 156C478.95 156 483 160.05 483 165C483 169.95 478.95 174 474 174Z" fill="#FFA983"/>
<path id="G - 14" d="M499 174C494.05 174 490 169.95 490 165C490 160.05 494.05 156 499 156C503.95 156 508 160.05 508 165C508 169.95 503.95 174 499 174Z" fill="#FFA983"/>
<path id="G - 15" d="M524 174C519.05 174 515 169.95 515 165C515 160.05 519.05 156 524 156C528.95 156 533 160.05 533 165C533 169.95 528.95 174 524 174Z" fill="#FFA983"/>
<path id="G - 16" d="M674 174C669.05 174 665 169.95 665 165C665 160.05 669.05 156 674 156C678.95 156 683 160.05 683 165C683 169.95 678.95 174 674 174Z" fill="#FFA983"/>
<path id="G - 17" d="M699 174C694.05 174 690 169.95 690 165C690 160.05 694.05 156 699 156C703.95 156 708 160.05 708 165C708 169.95 703.95 174 699 174Z" fill="#FFA983"/>
<path id="G - 18" d="M724 174C719.05 174 715 169.95 715 165C715 160.05 719.05 156 724 156C728.95 156 733 160.05 733 165C733 169.95 728.95 174 724 174Z" fill="#FFA983"/>
<path id="G - 19" d="M749 174C744.05 174 740 169.95 740 165C740 160.05 744.05 156 749 156C753.95 156 758 160.05 758 165C758 169.95 753.95 174 749 174Z" fill="#FFA983"/>
<path id="G - 20" d="M774 174C769.05 174 765 169.95 765 165C765 160.05 769.05 156 774 156C778.95 156 783 160.05 783 165C783 169.95 778.95 174 774 174Z" fill="#FFA983"/>
<path id="G - 21" d="M799 174C794.05 174 790 169.95 790 165C790 160.05 794.05 156 799 156C803.95 156 808 160.05 808 165C808 169.95 803.95 174 799 174Z" fill="#FFA983"/>
<path id="G - 22" d="M824 174C819.05 174 815 169.95 815 165C815 160.05 819.05 156 824 156C828.95 156 833 160.05 833 165C833 169.95 828.95 174 824 174Z" fill="#FFA983"/>
<path id="G - 23" d="M849 174C844.05 174 840 169.95 840 165C840 160.05 844.05 156 849 156C853.95 156 858 160.05 858 165C858 169.95 853.95 174 849 174Z" fill="#FFA983"/>
<path id="G - 24" d="M874 174C869.05 174 865 169.95 865 165C865 160.05 869.05 156 874 156C878.95 156 883 160.05 883 165C883 169.95 878.95 174 874 174Z" fill="#FFA983"/>
<path id="G - 25" d="M899 174C894.05 174 890 169.95 890 165C890 160.05 894.05 156 899 156C903.95 156 908 160.05 908 165C908 169.95 903.95 174 899 174Z" fill="#FFA983"/>
<path id="G - 26" d="M924 174C919.05 174 915 169.95 915 165C915 160.05 919.05 156 924 156C928.95 156 933 160.05 933 165C933 169.95 928.95 174 924 174Z" fill="#FFA983"/>
<path id="G - 27" d="M949 174C944.05 174 940 169.95 940 165C940 160.05 944.05 156 949 156C953.95 156 958 160.05 958 165C958 169.95 953.95 174 949 174Z" fill="#FFA983"/>
<path id="G - 28" d="M974 174C969.05 174 965 169.95 965 165C965 160.05 969.05 156 974 156C978.95 156 983 160.05 983 165C983 169.95 978.95 174 974 174Z" fill="#FFA983"/>
<path id="G - 29" d="M999 174C994.05 174 990 169.95 990 165C990 160.05 994.05 156 999 156C1003.95 156 1008 160.05 1008 165C1008 169.95 1003.95 174 999 174Z" fill="#FFA983"/>
<path id="G - 30" d="M1024 174C1019.05 174 1015 169.95 1015 165C1015 160.05 1019.05 156 1024 156C1028.95 156 1033 160.05 1033 165C1033 169.95 1028.95 174 1024 174Z" fill="#FFA983"/>
<path id="H - 01" d="M124 199C119.05 199 115 194.95 115 190C115 185.05 119.05 181 124 181C128.95 181 133 185.05 133 190C133 194.95 128.95 199 124 199Z" fill="#FFA983"/>
<path id="H - 02" d="M149 199C144.05 199 140 194.95 140 190C140 185.05 144.05 181 149 181C153.95 181 158 185.05 158 190C158 194.95 153.95 199 149 199Z" fill="#FFA983"/>
<path id="H - 03" d="M174 199C169.05 199 165 194.95 165 190C165 185.05 169.05 181 174 181C178.95 181 183 185.05 183 190C183 194.95 178.95 199 174 199Z" fill="#FFA983"/>
<path id="H - 04" d="M199 199C194.05 199 190 194.95 190 190C190 185.05 194.05 181 199 181C203.95 181 208 185.05 208 190C208 194.95 203.95 199 199 199Z" fill="#FFA983"/>
<path id="H - 05" d="M224 199C219.05 199 215 194.95 215 190C215 185.05 219.05 181 224 181C228.95 181 233 185.05 233 190C233 194.95 228.95 199 224 199Z" fill="#FFA983"/>
<path id="H - 06" d="M249 199C244.05 199 240 194.95 240 190C240 185.05 244.05 181 249 181C253.95 181 258 185.05 258 190C258 194.95 253.95 199 249 199Z" fill="#FFA983"/>
<path id="H - 07" d="M274 199C269.05 199 265 194.95 265 190C265 185.05 269.05 181 274 181C278.95 181 283 185.05 283 190C283 194.95 278.95 199 274 199Z" fill="#FFA983"/>
<path id="H - 08" d="M299 199C294.05 199 290 194.95 290 190C290 185.05 294.05 181 299 181C303.95 181 308 185.05 308 190C308 194.95 303.95 199 299 199Z" fill="#FFA983"/>
<path id="H - 09" d="M324 199C319.05 199 315 194.95 315 190C315 185.05 319.05 181 324 181C328.95 181 333 185.05 333 190C333 194.95 328.95 199 324 199Z" fill="#FFA983"/>
<path id="H - 10" d="M349 199C344.05 199 340 194.95 340 190C340 185.05 344.05 181 349 181C353.95 181 358 185.05 358 190C358 194.95 353.95 199 349 199Z" fill="#FFA983"/>
<path id="H - 11" d="M374 199C369.05 199 365 194.95 365 190C365 185.05 369.05 181 374 181C378.95 181 383 185.05 383 190C383 194.95 378.95 199 374 199Z" fill="#FFA983"/>
<path id="H - 12" d="M399 199C394.05 199 390 194.95 390 190C390 185.05 394.05 181 399 181C403.95 181 408 185.05 408 190C408 194.95 403.95 199 399 199Z" fill="#FFA983"/>
<path id="H - 13" d="M424 199C419.05 199 415 194.95 415 190C415 185.05 419.05 181 424 181C428.95 181 433 185.05 433 190C433 194.95 428.95 199 424 199Z" fill="#FFA983"/>
<path id="H - 14" d="M449 199C444.05 199 440 194.95 440 190C440 185.05 444.05 181 449 181C453.95 181 458 185.05 458 190C458 194.95 453.95 199 449 199Z" fill="#FFA983"/>
<path id="H - 15" d="M474 199C469.05 199 465 194.95 465 190C465 185.05 469.05 181 474 181C478.95 181 483 185.05 483 190C483 194.95 478.95 199 474 199Z" fill="#FFA983"/>
<path id="H - 16" d="M499 199C494.05 199 490 194.95 490 190C490 185.05 494.05 181 499 181C503.95 181 508 185.05 508 190C508 194.95 503.95 199 499 199Z" fill="#FFA983"/>
<path id="H - 17" d="M524 199C519.05 199 515 194.95 515 190C515 185.05 519.05 181 524 181C528.95 181 533 185.05 533 190C533 194.95 528.95 199 524 199Z" fill="#FFA983"/>
<path id="H - 18" d="M674 199C669.05 199 665 194.95 665 190C665 185.05 669.05 181 674 181C678.95 181 683 185.05 683 190C683 194.95 678.95 199 674 199Z" fill="#FFA983"/>
<path id="H - 19" d="M699 199C694.05 199 690 194.95 690 190C690 185.05 694.05 181 699 181C703.95 181 708 185.05 708 190C708 194.95 703.95 199 699 199Z" fill="#FFA983"/>
<path id="H - 20" d="M724 199C719.05 199 715 194.95 715 190C715 185.05 719.05 181 724 181C728.95 181 733 185.05 733 190C733 194.95 728.95 199 724 199Z" fill="#FFA983"/>
<path id="H - 21" d="M749 199C744.05 199 740 194.95 740 190C740 185.05 744.05 181 749 181C753.95 181 758 185.05 758 190C758 194.95 753.95 199 749 199Z" fill="#FFA983"/>
<path id="H - 22" d="M774 199C769.05 199 765 194.95 765 190C765 185.05 769.05 181 774 181C778.95 181 783 185.05 783 190C783 194.95 778.95 199 774 199Z" fill="#FFA983"/>
<path id="H - 23" d="M799 199C794.05 199 790 194.95 790 190C790 185.05 794.05 181 799 181C803.95 181 808 185.05 808 190C808 194.95 803.95 199 799 199Z" fill="#FFA983"/>
<path id="H - 24" d="M824 199C819.05 199 815 194.95 815 190C815 185.05 819.05 181 824 181C828.95 181 833 185.05 833 190C833 194.95 828.95 199 824 199Z" fill="#FFA983"/>
<path id="H - 25" d="M849 199C844.05 199 840 194.95 840 190C840 185.05 844.05 181 849 181C853.95 181 858 185.05 858 190C858 194.95 853.95 199 849 199Z" fill="#FFA983"/>
<path id="H - 26" d="M874 199C869.05 199 865 194.95 865 190C865 185.05 869.05 181 874 181C878.95 181 883 185.05 883 190C883 194.95 878.95 199 874 199Z" fill="#FFA983"/>
<path id="H - 27" d="M899 199C894.05 199 890 194.95 890 190C890 185.05 894.05 181 899 181C903.95 181 908 185.05 908 190C908 194.95 903.95 199 899 199Z" fill="#FFA983"/>
<path id="H - 28" d="M924 199C919.05 199 915 194.95 915 190C915 185.05 919.05 181 924 181C928.95 181 933 185.05 933 190C933 194.95 928.95 199 924 199Z" fill="#FFA983"/>
<path id="H - 29" d="M949 199C944.05 199 940 194.95 940 190C940 185.05 944.05 181 949 181C953.95 181 958 185.05 958 190C958 194.95 953.95 199 949 199Z" fill="#FFA983"/>
<path id="H - 30" d="M974 199C969.05 199 965 194.95 965 190C965 185.05 969.05 181 974 181C978.95 181 983 185.05 983 190C983 194.95 978.95 199 974 199Z" fill="#FFA983"/>
<path id="H - 31" d="M999 199C994.05 199 990 194.95 990 190C990 185.05 994.05 181 999 181C1003.95 181 1008 185.05 1008 190C1008 194.95 1003.95 199 999 199Z" fill="#FFA983"/>
<path id="H - 32" d="M1024 199C1019.05 199 1015 194.95 1015 190C1015 185.05 1019.05 181 1024 181C1028.95 181 1033 185.05 1033 190C1033 194.95 1028.95 199 1024 199Z" fill="#FFA983"/>
<path id="H - 33" d="M1049 199C1044.05 199 1040 194.95 1040 190C1040 185.05 1044.05 181 1049 181C1053.95 181 1058 185.05 1058 190C1058 194.95 1053.95 199 1049 199Z" fill="#FFA983"/>
<path id="H - 34" d="M1074 199C1069.05 199 1065 194.95 1065 190C1065 185.05 1069.05 181 1074 181C1078.95 181 1083 185.05 1083 190C1083 194.95 1078.95 199 1074 199Z" fill="#FFA983"/>
<path id="I - 01" d="M74 224C69.05 224 65 219.95 65 215C65 210.05 69.05 206 74 206C78.95 206 83 210.05 83 215C83 219.95 78.95 224 74 224Z" fill="#FFA983"/>
<path id="I - 122" d="M99 224C94.05 224 90 219.95 90 215C90 210.05 94.05 206 99 206C103.95 206 108 210.05 108 215C108 219.95 103.95 224 99 224Z" fill="#FFA983"/>
<path id="I - 123" d="M124 224C119.05 224 115 219.95 115 215C115 210.05 119.05 206 124 206C128.95 206 133 210.05 133 215C133 219.95 128.95 224 124 224Z" fill="#FFA983"/>
<path id="I - 124" d="M149 224C144.05 224 140 219.95 140 215C140 210.05 144.05 206 149 206C153.95 206 158 210.05 158 215C158 219.95 153.95 224 149 224Z" fill="#FFA983"/>
<path id="I - 125" d="M174 224C169.05 224 165 219.95 165 215C165 210.05 169.05 206 174 206C178.95 206 183 210.05 183 215C183 219.95 178.95 224 174 224Z" fill="#FFA983"/>
<path id="I - 126" d="M199 224C194.05 224 190 219.95 190 215C190 210.05 194.05 206 199 206C203.95 206 208 210.05 208 215C208 219.95 203.95 224 199 224Z" fill="#FFA983"/>
<path id="I - 127" d="M224 224C219.05 224 215 219.95 215 215C215 210.05 219.05 206 224 206C228.95 206 233 210.05 233 215C233 219.95 228.95 224 224 224Z" fill="#FFA983"/>
<path id="I - 128" d="M249 224C244.05 224 240 219.95 240 215C240 210.05 244.05 206 249 206C253.95 206 258 210.05 258 215C258 219.95 253.95 224 249 224Z" fill="#FFA983"/>
<path id="I - 129" d="M274 224C269.05 224 265 219.95 265 215C265 210.05 269.05 206 274 206C278.95 206 283 210.05 283 215C283 219.95 278.95 224 274 224Z" fill="#FFA983"/>
<path id="I - 130" d="M299 224C294.05 224 290 219.95 290 215C290 210.05 294.05 206 299 206C303.95 206 308 210.05 308 215C308 219.95 303.95 224 299 224Z" fill="#FFA983"/>
<path id="I - 131" d="M324 224C319.05 224 315 219.95 315 215C315 210.05 319.05 206 324 206C328.95 206 333 210.05 333 215C333 219.95 328.95 224 324 224Z" fill="#FFA983"/>
<path id="I - 132" d="M349 224C344.05 224 340 219.95 340 215C340 210.05 344.05 206 349 206C353.95 206 358 210.05 358 215C358 219.95 353.95 224 349 224Z" fill="#FFA983"/>
<path id="I - 133" d="M374 224C369.05 224 365 219.95 365 215C365 210.05 369.05 206 374 206C378.95 206 383 210.05 383 215C383 219.95 378.95 224 374 224Z" fill="#FFA983"/>
<path id="I - 134" d="M399 224C394.05 224 390 219.95 390 215C390 210.05 394.05 206 399 206C403.95 206 408 210.05 408 215C408 219.95 403.95 224 399 224Z" fill="#FFA983"/>
<path id="I - 135" d="M424 224C419.05 224 415 219.95 415 215C415 210.05 419.05 206 424 206C428.95 206 433 210.05 433 215C433 219.95 428.95 224 424 224Z" fill="#FFA983"/>
<path id="I - 136" d="M449 224C444.05 224 440 219.95 440 215C440 210.05 444.05 206 449 206C453.95 206 458 210.05 458 215C458 219.95 453.95 224 449 224Z" fill="#FFA983"/>
<path id="I - 137" d="M474 224C469.05 224 465 219.95 465 215C465 210.05 469.05 206 474 206C478.95 206 483 210.05 483 215C483 219.95 478.95 224 474 224Z" fill="#FFA983"/>
<path id="I - 138" d="M499 224C494.05 224 490 219.95 490 215C490 210.05 494.05 206 499 206C503.95 206 508 210.05 508 215C508 219.95 503.95 224 499 224Z" fill="#FFA983"/>
<path id="I - 139" d="M524 224C519.05 224 515 219.95 515 215C515 210.05 519.05 206 524 206C528.95 206 533 210.05 533 215C533 219.95 528.95 224 524 224Z" fill="#FFA983"/>
<path id="I - 140" d="M674 224C669.05 224 665 219.95 665 215C665 210.05 669.05 206 674 206C678.95 206 683 210.05 683 215C683 219.95 678.95 224 674 224Z" fill="#FFA983"/>
<path id="I - 141" d="M699 224C694.05 224 690 219.95 690 215C690 210.05 694.05 206 699 206C703.95 206 708 210.05 708 215C708 219.95 703.95 224 699 224Z" fill="#FFA983"/>
<path id="I - 142" d="M724 224C719.05 224 715 219.95 715 215C715 210.05 719.05 206 724 206C728.95 206 733 210.05 733 215C733 219.95 728.95 224 724 224Z" fill="#FFA983"/>
<path id="I - 143" d="M749 224C744.05 224 740 219.95 740 215C740 210.05 744.05 206 749 206C753.95 206 758 210.05 758 215C758 219.95 753.95 224 749 224Z" fill="#FFA983"/>
<path id="I - 144" d="M774 224C769.05 224 765 219.95 765 215C765 210.05 769.05 206 774 206C778.95 206 783 210.05 783 215C783 219.95 778.95 224 774 224Z" fill="#FFA983"/>
<path id="I - 145" d="M799 224C794.05 224 790 219.95 790 215C790 210.05 794.05 206 799 206C803.95 206 808 210.05 808 215C808 219.95 803.95 224 799 224Z" fill="#FFA983"/>
<path id="I - 146" d="M824 224C819.05 224 815 219.95 815 215C815 210.05 819.05 206 824 206C828.95 206 833 210.05 833 215C833 219.95 828.95 224 824 224Z" fill="#FFA983"/>
<path id="I - 147" d="M849 224C844.05 224 840 219.95 840 215C840 210.05 844.05 206 849 206C853.95 206 858 210.05 858 215C858 219.95 853.95 224 849 224Z" fill="#FFA983"/>
<path id="I - 148" d="M874 224C869.05 224 865 219.95 865 215C865 210.05 869.05 206 874 206C878.95 206 883 210.05 883 215C883 219.95 878.95 224 874 224Z" fill="#FFA983"/>
<path id="I - 149" d="M899 224C894.05 224 890 219.95 890 215C890 210.05 894.05 206 899 206C903.95 206 908 210.05 908 215C908 219.95 903.95 224 899 224Z" fill="#FFA983"/>
<path id="I - 150" d="M924 224C919.05 224 915 219.95 915 215C915 210.05 919.05 206 924 206C928.95 206 933 210.05 933 215C933 219.95 928.95 224 924 224Z" fill="#FFA983"/>
<path id="I - 151" d="M949 224C944.05 224 940 219.95 940 215C940 210.05 944.05 206 949 206C953.95 206 958 210.05 958 215C958 219.95 953.95 224 949 224Z" fill="#FFA983"/>
<path id="I - 152" d="M974 224C969.05 224 965 219.95 965 215C965 210.05 969.05 206 974 206C978.95 206 983 210.05 983 215C983 219.95 978.95 224 974 224Z" fill="#FFA983"/>
<path id="I - 153" d="M999 224C994.05 224 990 219.95 990 215C990 210.05 994.05 206 999 206C1003.95 206 1008 210.05 1008 215C1008 219.95 1003.95 224 999 224Z" fill="#FFA983"/>
<path id="I - 154" d="M1024 224C1019.05 224 1015 219.95 1015 215C1015 210.05 1019.05 206 1024 206C1028.95 206 1033 210.05 1033 215C1033 219.95 1028.95 224 1024 224Z" fill="#FFA983"/>
<path id="I - 155" d="M1049 224C1044.05 224 1040 219.95 1040 215C1040 210.05 1044.05 206 1049 206C1053.95 206 1058 210.05 1058 215C1058 219.95 1053.95 224 1049 224Z" fill="#FFA983"/>
<path id="I - 156" d="M1074 224C1069.05 224 1065 219.95 1065 215C1065 210.05 1069.05 206 1074 206C1078.95 206 1083 210.05 1083 215C1083 219.95 1078.95 224 1074 224Z" fill="#FFA983"/>
<path id="I - 157" d="M1099 224C1094.05 224 1090 219.95 1090 215C1090 210.05 1094.05 206 1099 206C1103.95 206 1108 210.05 1108 215C1108 219.95 1103.95 224 1099 224Z" fill="#FFA983"/>
<path id="I - 158" d="M1124 224C1119.05 224 1115 219.95 1115 215C1115 210.05 1119.05 206 1124 206C1128.95 206 1133 210.05 1133 215C1133 219.95 1128.95 224 1124 224Z" fill="#FFA983"/>
<path id="J - 01" d="M25 249C20.05 249 16 244.95 16 240C16 235.05 20.05 231 25 231C29.95 231 34 235.05 34 240C34 244.95 29.95 249 25 249Z" fill="#FFA983"/>
<path id="J - 02" d="M50 249C45.05 249 41 244.95 41 240C41 235.05 45.05 231 50 231C54.95 231 59 235.05 59 240C59 244.95 54.95 249 50 249Z" fill="#FFA983"/>
<path id="J - 03" d="M74 249C69.05 249 65 244.95 65 240C65 235.05 69.05 231 74 231C78.95 231 83 235.05 83 240C83 244.95 78.95 249 74 249Z" fill="#FFA983"/>
<path id="J - 04" d="M98 249C93.05 249 89 244.95 89 240C89 235.05 93.05 231 98 231C102.95 231 107 235.05 107 240C107 244.95 102.95 249 98 249Z" fill="#FFA983"/>
<path id="J - 05" d="M124 249C119.05 249 115 244.95 115 240C115 235.05 119.05 231 124 231C128.95 231 133 235.05 133 240C133 244.95 128.95 249 124 249Z" fill="#FFA983"/>
<path id="J - 06" d="M149 249C144.05 249 140 244.95 140 240C140 235.05 144.05 231 149 231C153.95 231 158 235.05 158 240C158 244.95 153.95 249 149 249Z" fill="#FFA983"/>
<path id="J - 07" d="M174 249C169.05 249 165 244.95 165 240C165 235.05 169.05 231 174 231C178.95 231 183 235.05 183 240C183 244.95 178.95 249 174 249Z" fill="#FFA983"/>
<path id="J - 08" d="M198 249C193.05 249 189 244.95 189 240C189 235.05 193.05 231 198 231C202.95 231 207 235.05 207 240C207 244.95 202.95 249 198 249Z" fill="#FFA983"/>
<path id="J - 09" d="M224 249C219.05 249 215 244.95 215 240C215 235.05 219.05 231 224 231C228.95 231 233 235.05 233 240C233 244.95 228.95 249 224 249Z" fill="#FFA983"/>
<path id="J - 10" d="M249 249C244.05 249 240 244.95 240 240C240 235.05 244.05 231 249 231C253.95 231 258 235.05 258 240C258 244.95 253.95 249 249 249Z" fill="#FFA983"/>
<path id="J - 11" d="M273 249C268.05 249 264 244.95 264 240C264 235.05 268.05 231 273 231C277.95 231 282 235.05 282 240C282 244.95 277.95 249 273 249Z" fill="#FFA983"/>
<path id="J - 12" d="M299 249C294.05 249 290 244.95 290 240C290 235.05 294.05 231 299 231C303.95 231 308 235.05 308 240C308 244.95 303.95 249 299 249Z" fill="#FFA983"/>
<path id="J - 13" d="M324 249C319.05 249 315 244.95 315 240C315 235.05 319.05 231 324 231C328.95 231 333 235.05 333 240C333 244.95 328.95 249 324 249Z" fill="#FFA983"/>
<path id="J - 14" d="M349 249C344.05 249 340 244.95 340 240C340 235.05 344.05 231 349 231C353.95 231 358 235.05 358 240C358 244.95 353.95 249 349 249Z" fill="#FFA983"/>
<path id="J - 15" d="M374 249C369.05 249 365 244.95 365 240C365 235.05 369.05 231 374 231C378.95 231 383 235.05 383 240C383 244.95 378.95 249 374 249Z" fill="#FFA983"/>
<path id="J - 16" d="M399 249C394.05 249 390 244.95 390 240C390 235.05 394.05 231 399 231C403.95 231 408 235.05 408 240C408 244.95 403.95 249 399 249Z" fill="#FFA983"/>
<path id="J - 17" d="M424 249C419.05 249 415 244.95 415 240C415 235.05 419.05 231 424 231C428.95 231 433 235.05 433 240C433 244.95 428.95 249 424 249Z" fill="#FFA983"/>
<path id="J - 18" d="M449 249C444.05 249 440 244.95 440 240C440 235.05 444.05 231 449 231C453.95 231 458 235.05 458 240C458 244.95 453.95 249 449 249Z" fill="#FFA983"/>
<path id="J - 19" d="M474 249C469.05 249 465 244.95 465 240C465 235.05 469.05 231 474 231C478.95 231 483 235.05 483 240C483 244.95 478.95 249 474 249Z" fill="#FFA983"/>
<path id="J - 20" d="M499 249C494.05 249 490 244.95 490 240C490 235.05 494.05 231 499 231C503.95 231 508 235.05 508 240C508 244.95 503.95 249 499 249Z" fill="#FFA983"/>
<path id="J - 21" d="M524 249C519.05 249 515 244.95 515 240C515 235.05 519.05 231 524 231C528.95 231 533 235.05 533 240C533 244.95 528.95 249 524 249Z" fill="#FFA983"/>
<path id="J - 22" d="M674 249C669.05 249 665 244.95 665 240C665 235.05 669.05 231 674 231C678.95 231 683 235.05 683 240C683 244.95 678.95 249 674 249Z" fill="#FFA983"/>
<path id="J - 23" d="M699 249C694.05 249 690 244.95 690 240C690 235.05 694.05 231 699 231C703.95 231 708 235.05 708 240C708 244.95 703.95 249 699 249Z" fill="#FFA983"/>
<path id="J - 24" d="M724 249C719.05 249 715 244.95 715 240C715 235.05 719.05 231 724 231C728.95 231 733 235.05 733 240C733 244.95 728.95 249 724 249Z" fill="#FFA983"/>
<path id="J - 25" d="M749 249C744.05 249 740 244.95 740 240C740 235.05 744.05 231 749 231C753.95 231 758 235.05 758 240C758 244.95 753.95 249 749 249Z" fill="#FFA983"/>
<path id="J - 26" d="M774 249C769.05 249 765 244.95 765 240C765 235.05 769.05 231 774 231C778.95 231 783 235.05 783 240C783 244.95 778.95 249 774 249Z" fill="#FFA983"/>
<path id="J - 27" d="M799 249C794.05 249 790 244.95 790 240C790 235.05 794.05 231 799 231C803.95 231 808 235.05 808 240C808 244.95 803.95 249 799 249Z" fill="#FFA983"/>
<path id="J - 28" d="M824 249C819.05 249 815 244.95 815 240C815 235.05 819.05 231 824 231C828.95 231 833 235.05 833 240C833 244.95 828.95 249 824 249Z" fill="#FFA983"/>
<path id="J - 29" d="M849 249C844.05 249 840 244.95 840 240C840 235.05 844.05 231 849 231C853.95 231 858 235.05 858 240C858 244.95 853.95 249 849 249Z" fill="#FFA983"/>
<path id="J - 30" d="M874 249C869.05 249 865 244.95 865 240C865 235.05 869.05 231 874 231C878.95 231 883 235.05 883 240C883 244.95 878.95 249 874 249Z" fill="#FFA983"/>
<path id="J - 31" d="M899 249C894.05 249 890 244.95 890 240C890 235.05 894.05 231 899 231C903.95 231 908 235.05 908 240C908 244.95 903.95 249 899 249Z" fill="#FFA983"/>
<path id="J - 32" d="M924 249C919.05 249 915 244.95 915 240C915 235.05 919.05 231 924 231C928.95 231 933 235.05 933 240C933 244.95 928.95 249 924 249Z" fill="#FFA983"/>
<path id="J - 33" d="M949 249C944.05 249 940 244.95 940 240C940 235.05 944.05 231 949 231C953.95 231 958 235.05 958 240C958 244.95 953.95 249 949 249Z" fill="#FFA983"/>
<path id="J - 34" d="M974 249C969.05 249 965 244.95 965 240C965 235.05 969.05 231 974 231C978.95 231 983 235.05 983 240C983 244.95 978.95 249 974 249Z" fill="#FFA983"/>
<path id="J - 35" d="M999 249C994.05 249 990 244.95 990 240C990 235.05 994.05 231 999 231C1003.95 231 1008 235.05 1008 240C1008 244.95 1003.95 249 999 249Z" fill="#FFA983"/>
<path id="J - 36" d="M1024 249C1019.05 249 1015 244.95 1015 240C1015 235.05 1019.05 231 1024 231C1028.95 231 1033 235.05 1033 240C1033 244.95 1028.95 249 1024 249Z" fill="#FFA983"/>
<path id="J - 37" d="M1049 249C1044.05 249 1040 244.95 1040 240C1040 235.05 1044.05 231 1049 231C1053.95 231 1058 235.05 1058 240C1058 244.95 1053.95 249 1049 249Z" fill="#FFA983"/>
<path id="J - 38" d="M1074 249C1069.05 249 1065 244.95 1065 240C1065 235.05 1069.05 231 1074 231C1078.95 231 1083 235.05 1083 240C1083 244.95 1078.95 249 1074 249Z" fill="#FFA983"/>
<path id="J - 39" d="M1099 249C1094.05 249 1090 244.95 1090 240C1090 235.05 1094.05 231 1099 231C1103.95 231 1108 235.05 1108 240C1108 244.95 1103.95 249 1099 249Z" fill="#FFA983"/>
<path id="J - 40" d="M1124 249C1119.05 249 1115 244.95 1115 240C1115 235.05 1119.05 231 1124 231C1128.95 231 1133 235.05 1133 240C1133 244.95 1128.95 249 1124 249Z" fill="#FFA983"/>
<path id="J - 41" d="M1149 249C1144.05 249 1140 244.95 1140 240C1140 235.05 1144.05 231 1149 231C1153.95 231 1158 235.05 1158 240C1158 244.95 1153.95 249 1149 249Z" fill="#FFA983"/>
<path id="J - 42" d="M1174 249C1169.05 249 1165 244.95 1165 240C1165 235.05 1169.05 231 1174 231C1178.95 231 1183 235.05 1183 240C1183 244.95 1178.95 249 1174 249Z" fill="#FFA983"/>
<path id="D - 12" d="M699 97C694.05 97 690 92.95 690 88C690 83.05 694.05 79 699 79C703.95 79 708 83.05 708 88C708 92.95 703.95 97 699 97Z" fill="#FFA983"/>
<path id="D - 13" d="M799 97C794.05 97 790 92.95 790 88C790 83.05 794.05 79 799 79C803.95 79 808 83.05 808 88C808 92.95 803.95 97 799 97Z" fill="#FFA983"/>
<path id="D - 14" d="M599 97C594.05 97 590 92.95 590 88C590 83.05 594.05 79 599 79C603.95 79 608 83.05 608 88C608 92.95 603.95 97 599 97Z" fill="#FFA983"/>
<path id="D - 15" d="M724 97C719.05 97 715 92.95 715 88C715 83.05 719.05 79 724 79C728.95 79 733 83.05 733 88C733 92.95 728.95 97 724 97Z" fill="#FFA983"/>
<path id="D - 16" d="M824 97C819.05 97 815 92.95 815 88C815 83.05 819.05 79 824 79C828.95 79 833 83.05 833 88C833 92.95 828.95 97 824 97Z" fill="#FFA983"/>
<path id="D - 17" d="M624 97C619.05 97 615 92.95 615 88C615 83.05 619.05 79 624 79C628.95 79 633 83.05 633 88C633 92.95 628.95 97 624 97Z" fill="#FFA983"/>
<path id="D - 18" d="M749 97C744.05 97 740 92.95 740 88C740 83.05 744.05 79 749 79C753.95 79 758 83.05 758 88C758 92.95 753.95 97 749 97Z" fill="#FFA983"/>
<path id="D - 19" d="M849 97C844.05 97 840 92.95 840 88C840 83.05 844.05 79 849 79C853.95 79 858 83.05 858 88C858 92.95 853.95 97 849 97Z" fill="#FFA983"/>
<path id="D - 20" d="M649 97C644.05 97 640 92.95 640 88C640 83.05 644.05 79 649 79C653.95 79 658 83.05 658 88C658 92.95 653.95 97 649 97Z" fill="#FFA983"/>
<path id="D - 21" d="M774 97C769.05 97 765 92.95 765 88C765 83.05 769.05 79 774 79C778.95 79 783 83.05 783 88C783 92.95 778.95 97 774 97Z" fill="#FFA983"/>
<path id="D - 22" d="M874 97C869.05 97 865 92.95 865 88C865 83.05 869.05 79 874 79C878.95 79 883 83.05 883 88C883 92.95 878.95 97 874 97Z" fill="#FFA983"/>
<path id="D - 23" d="M674 97C669.05 97 665 92.95 665 88C665 83.05 669.05 79 674 79C678.95 79 683 83.05 683 88C683 92.95 678.95 97 674 97Z" fill="#FFA983"/>
<path id="B - 13" d="M724 45C719.05 45 715 40.95 715 36C715 31.05 719.05 27 724 27C728.95 27 733 31.05 733 36C733 40.95 728.95 45 724 45Z" fill="#FFA983"/>
<path id="B - 14" d="M749 45C744.05 45 740 40.95 740 36C740 31.05 744.05 27 749 27C753.95 27 758 31.05 758 36C758 40.95 753.95 45 749 45Z" fill="#FFA983"/>
<path id="B - 15" d="M774 45C769.05 45 765 40.95 765 36C765 31.05 769.05 27 774 27C778.95 27 783 31.05 783 36C783 40.95 778.95 45 774 45Z" fill="#FFA983"/>
<path id="A - 07" d="M599 19C594.05 19 590 14.95 590 10C590 5.05 594.05 1 599 1C603.95 1 608 5.05 608 10C608 14.95 603.95 19 599 19Z" fill="#FFA983"/>
<path id="A - 08" d="M624 19C619.05 19 615 14.95 615 10C615 5.05 619.05 1 624 1C628.95 1 633 5.05 633 10C633 14.95 628.95 19 624 19Z" fill="#FFA983"/>
<path id="A - 09" d="M649 19C644.05 19 640 14.95 640 10C640 5.05 644.05 1 649 1C653.95 1 658 5.05 658 10C658 14.95 653.95 19 649 19Z" fill="#FFA983"/>
<path id="A - 10" d="M674 19C669.05 19 665 14.95 665 10C665 5.05 669.05 1 674 1C678.95 1 683 5.05 683 10C683 14.95 678.95 19 674 19Z" fill="#FFA983"/>
<path id="A - 11" d="M699 19C694.05 19 690 14.95 690 10C690 5.05 694.05 1 699 1C703.95 1 708 5.05 708 10C708 14.95 703.95 19 699 19Z" fill="#FFA983"/>
<path id="A - 12" d="M724 19C719.05 19 715 14.95 715 10C715 5.05 719.05 1 724 1C728.95 1 733 5.05 733 10C733 14.95 728.95 19 724 19Z" fill="#FFA983"/>
<path id="A - 13" d="M749 19C744.05 19 740 14.95 740 10C740 5.05 744.05 1 749 1C753.95 1 758 5.05 758 10C758 14.95 753.95 19 749 19Z" fill="#FFA983"/>
<path id="A" d="M421.206 17H418.404L422.673 4.63636H426.041L430.303 17H427.502L424.405 7.46165H424.309L421.206 17ZM421.031 12.1403H427.647V14.1808H421.031V12.1403Z" fill="white"/>
<path id="B" d="M394.075 42V29.6364H399.025C399.934 29.6364 400.693 29.7712 401.301 30.0408C401.908 30.3105 402.365 30.6848 402.671 31.1637C402.977 31.6386 403.13 32.186 403.13 32.8058C403.13 33.2887 403.033 33.7133 402.84 34.0795C402.647 34.4418 402.381 34.7396 402.043 34.973C401.709 35.2024 401.327 35.3654 400.896 35.462V35.5827C401.367 35.6029 401.808 35.7357 402.218 35.9812C402.633 36.2267 402.969 36.5708 403.227 37.0135C403.484 37.4522 403.613 37.9754 403.613 38.5831C403.613 39.2391 403.45 39.8247 403.124 40.3398C402.802 40.851 402.325 41.2554 401.693 41.5533C401.061 41.8511 400.283 42 399.357 42H394.075ZM396.689 39.8629H398.82C399.548 39.8629 400.079 39.7241 400.413 39.4464C400.747 39.1647 400.914 38.7904 400.914 38.3235C400.914 37.9814 400.832 37.6796 400.667 37.418C400.502 37.1564 400.266 36.9511 399.961 36.8022C399.659 36.6533 399.299 36.5788 398.88 36.5788H396.689V39.8629ZM396.689 34.81H398.626C398.985 34.81 399.303 34.7476 399.58 34.6229C399.862 34.4941 400.083 34.313 400.244 34.0795C400.409 33.8461 400.492 33.5664 400.492 33.2404C400.492 32.7937 400.333 32.4335 400.015 32.1598C399.701 31.8861 399.254 31.7493 398.675 31.7493H396.689V34.81Z" fill="white"/>
<path id="C" d="M354.983 60.9648H352.339C352.291 60.6228 352.192 60.3189 352.043 60.0533C351.894 59.7836 351.703 59.5542 351.47 59.3651C351.236 59.1759 350.967 59.031 350.661 58.9304C350.359 58.8298 350.031 58.7795 349.677 58.7795C349.037 58.7795 348.48 58.9384 348.005 59.2564C347.53 59.5703 347.161 60.0291 346.9 60.6328C346.638 61.2325 346.507 61.9609 346.507 62.8182C346.507 63.6996 346.638 64.4401 346.9 65.0398C347.165 65.6394 347.536 66.0922 348.011 66.3981C348.486 66.704 349.035 66.8569 349.659 66.8569C350.009 66.8569 350.333 66.8106 350.631 66.718C350.933 66.6255 351.2 66.4906 351.434 66.3136C351.667 66.1325 351.86 65.9131 352.013 65.6555C352.17 65.398 352.279 65.1042 352.339 64.7741L354.983 64.7862C354.915 65.3537 354.744 65.901 354.47 66.4283C354.201 66.9515 353.836 67.4203 353.377 67.8349C352.923 68.2454 352.379 68.5714 351.748 68.8129C351.12 69.0503 350.409 69.169 349.616 69.169C348.514 69.169 347.528 68.9195 346.658 68.4205C345.793 67.9214 345.109 67.199 344.606 66.2532C344.107 65.3074 343.857 64.1624 343.857 62.8182C343.857 61.4699 344.111 60.3229 344.618 59.3771C345.125 58.4313 345.813 57.7109 346.683 57.2159C347.552 56.7169 348.53 56.4673 349.616 56.4673C350.333 56.4673 350.997 56.5679 351.609 56.7692C352.224 56.9704 352.77 57.2642 353.245 57.6506C353.72 58.0329 354.106 58.5018 354.404 59.0572C354.706 59.6126 354.899 60.2485 354.983 60.9648Z" fill="white"/>
<path id="C_2" d="M854.983 60.9648H852.339C852.291 60.6228 852.192 60.3189 852.043 60.0533C851.894 59.7836 851.703 59.5542 851.47 59.3651C851.236 59.1759 850.967 59.031 850.661 58.9304C850.359 58.8298 850.031 58.7795 849.677 58.7795C849.037 58.7795 848.48 58.9384 848.005 59.2564C847.53 59.5703 847.161 60.0291 846.9 60.6328C846.638 61.2325 846.507 61.9609 846.507 62.8182C846.507 63.6996 846.638 64.4401 846.9 65.0398C847.165 65.6394 847.536 66.0922 848.011 66.3981C848.486 66.704 849.035 66.8569 849.659 66.8569C850.009 66.8569 850.333 66.8106 850.631 66.718C850.933 66.6255 851.2 66.4906 851.434 66.3136C851.667 66.1325 851.86 65.9131 852.013 65.6555C852.17 65.398 852.279 65.1042 852.339 64.7741L854.983 64.7862C854.915 65.3537 854.744 65.901 854.47 66.4283C854.201 66.9515 853.836 67.4203 853.377 67.8349C852.923 68.2454 852.379 68.5714 851.748 68.8129C851.12 69.0503 850.409 69.169 849.616 69.169C848.514 69.169 847.528 68.9195 846.658 68.4205C845.793 67.9214 845.109 67.199 844.606 66.2532C844.107 65.3074 843.857 64.1624 843.857 62.8182C843.857 61.4699 844.111 60.3229 844.618 59.3771C845.125 58.4313 845.813 57.7109 846.683 57.2159C847.552 56.7169 848.53 56.4673 849.616 56.4673C850.333 56.4673 850.997 56.5679 851.609 56.7692C852.224 56.9704 852.77 57.2642 853.245 57.6506C853.72 58.0329 854.106 58.5018 854.404 59.0572C854.706 59.6126 854.899 60.2485 854.983 60.9648Z" fill="white"/>
<path id="D" d="M298.457 94H294.075V81.6364H298.494C299.737 81.6364 300.808 81.8839 301.705 82.3789C302.603 82.8699 303.293 83.5762 303.776 84.4979C304.263 85.4195 304.506 86.5223 304.506 87.8061C304.506 89.094 304.263 90.2008 303.776 91.1264C303.293 92.0521 302.599 92.7624 301.693 93.2575C300.792 93.7525 299.713 94 298.457 94ZM296.689 91.7603H298.349C299.121 91.7603 299.771 91.6235 300.299 91.3498C300.83 91.0721 301.228 90.6435 301.494 90.0639C301.764 89.4804 301.898 88.7277 301.898 87.8061C301.898 86.8925 301.764 86.146 301.494 85.5664C301.228 84.9869 300.832 84.5603 300.305 84.2866C299.777 84.0129 299.127 83.8761 298.355 83.8761H296.689V91.7603Z" fill="white"/>
<path id="D_2" d="M898.457 94H894.075V81.6364H898.494C899.737 81.6364 900.808 81.8839 901.705 82.3789C902.603 82.8699 903.293 83.5762 903.776 84.4979C904.263 85.4195 904.506 86.5223 904.506 87.8061C904.506 89.094 904.263 90.2008 903.776 91.1264C903.293 92.0521 902.599 92.7624 901.693 93.2575C900.792 93.7525 899.713 94 898.457 94ZM896.689 91.7603H898.349C899.121 91.7603 899.771 91.6235 900.299 91.3498C900.83 91.0721 901.228 90.6435 901.494 90.0639C901.764 89.4804 901.898 88.7277 901.898 87.8061C901.898 86.8925 901.764 86.146 901.494 85.5664C901.228 84.9869 900.832 84.5603 900.305 84.2866C899.777 84.0129 899.127 83.8761 898.355 83.8761H896.689V91.7603Z" fill="white"/>
<path id="E" d="M244.075 120V107.636H252.406V109.792H246.689V112.738H251.977V114.893H246.689V117.845H252.43V120H244.075Z" fill="white"/>
<path id="E_2" d="M945.075 120V107.636H953.406V109.792H947.689V112.738H952.977V114.893H947.689V117.845H953.43V120H945.075Z" fill="white"/>
<path id="F" d="M195.075 145V132.636H203.261V134.792H197.689V137.738H202.717V139.893H197.689V145H195.075Z" fill="white"/>
<path id="F_2" d="M995.075 145V132.636H1003.26V134.792H997.689V137.738H1002.72V139.893H997.689V145H995.075Z" fill="white"/>
<path id="G" d="M153.273 163.633C153.188 163.339 153.069 163.079 152.917 162.854C152.764 162.625 152.576 162.431 152.355 162.275C152.138 162.114 151.888 161.991 151.607 161.906C151.329 161.822 151.021 161.779 150.683 161.779C150.051 161.779 149.496 161.936 149.017 162.25C148.542 162.564 148.172 163.021 147.906 163.621C147.64 164.216 147.507 164.945 147.507 165.806C147.507 166.667 147.638 167.4 147.9 168.004C148.161 168.607 148.532 169.068 149.011 169.386C149.49 169.7 150.055 169.857 150.707 169.857C151.299 169.857 151.804 169.752 152.222 169.543C152.645 169.33 152.967 169.03 153.188 168.643C153.414 168.257 153.526 167.8 153.526 167.273L154.058 167.352H150.87V165.384H156.044V166.941C156.044 168.028 155.814 168.961 155.355 169.742C154.897 170.519 154.265 171.119 153.46 171.541C152.655 171.96 151.733 172.169 150.695 172.169C149.536 172.169 148.518 171.913 147.64 171.402C146.763 170.887 146.079 170.157 145.588 169.211C145.101 168.261 144.857 167.134 144.857 165.83C144.857 164.828 145.002 163.935 145.292 163.15C145.586 162.361 145.996 161.693 146.523 161.146C147.051 160.598 147.664 160.182 148.365 159.896C149.065 159.61 149.824 159.467 150.641 159.467C151.341 159.467 151.993 159.57 152.597 159.775C153.2 159.976 153.736 160.262 154.202 160.632C154.673 161.003 155.058 161.443 155.355 161.955C155.653 162.462 155.844 163.021 155.929 163.633H153.273Z" fill="white"/>
<path id="G_2" d="M1052.27 163.633C1052.19 163.339 1052.07 163.079 1051.92 162.854C1051.76 162.625 1051.58 162.431 1051.36 162.275C1051.14 162.114 1050.89 161.991 1050.61 161.906C1050.33 161.822 1050.02 161.779 1049.68 161.779C1049.05 161.779 1048.5 161.936 1048.02 162.25C1047.54 162.564 1047.17 163.021 1046.91 163.621C1046.64 164.216 1046.51 164.945 1046.51 165.806C1046.51 166.667 1046.64 167.4 1046.9 168.004C1047.16 168.607 1047.53 169.068 1048.01 169.386C1048.49 169.7 1049.06 169.857 1049.71 169.857C1050.3 169.857 1050.8 169.752 1051.22 169.543C1051.64 169.33 1051.97 169.03 1052.19 168.643C1052.41 168.257 1052.53 167.8 1052.53 167.273L1053.06 167.352H1049.87V165.384H1055.04V166.941C1055.04 168.028 1054.81 168.961 1054.36 169.742C1053.9 170.519 1053.26 171.119 1052.46 171.541C1051.65 171.96 1050.73 172.169 1049.69 172.169C1048.54 172.169 1047.52 171.913 1046.64 171.402C1045.76 170.887 1045.08 170.157 1044.59 169.211C1044.1 168.261 1043.86 167.134 1043.86 165.83C1043.86 164.828 1044 163.935 1044.29 163.15C1044.59 162.361 1045 161.693 1045.52 161.146C1046.05 160.598 1046.66 160.182 1047.36 159.896C1048.06 159.61 1048.82 159.467 1049.64 159.467C1050.34 159.467 1050.99 159.57 1051.6 159.775C1052.2 159.976 1052.74 160.262 1053.2 160.632C1053.67 161.003 1054.06 161.443 1054.36 161.955C1054.65 162.462 1054.84 163.021 1054.93 163.633H1052.27Z" fill="white"/>
<path id="H" d="M94.0746 196V183.636H96.6886V188.738H101.995V183.636H104.603V196H101.995V190.893H96.6886V196H94.0746Z" fill="white"/>
<path id="H_2" d="M1094.07 196V183.636H1096.69V188.738H1102V183.636H1104.6V196H1102V190.893H1096.69V196H1094.07Z" fill="white"/>
<path id="i" d="M50.6886 209.636V222H48.0746V209.636H50.6886Z" fill="white"/>
<path id="i_2" d="M1150.69 209.636V222H1148.07V209.636H1150.69Z" fill="white"/>
<path id="j" d="M6.02486 234.636H8.60867V243.257C8.60867 244.054 8.42957 244.746 8.07138 245.334C7.71721 245.921 7.2242 246.374 6.59233 246.692C5.96046 247.01 5.22597 247.169 4.38885 247.169C3.64429 247.169 2.96816 247.038 2.36044 246.777C1.75675 246.511 1.27782 246.109 0.923651 245.569C0.569484 245.026 0.394413 244.344 0.398438 243.523H3.00036C3.0084 243.849 3.07481 244.128 3.19957 244.362C3.32836 244.591 3.50343 244.768 3.72479 244.893C3.95017 245.014 4.21579 245.074 4.52166 245.074C4.84363 245.074 5.11529 245.006 5.33665 244.869C5.56203 244.728 5.73307 244.523 5.84979 244.253C5.9665 243.984 6.02486 243.652 6.02486 243.257V234.636Z" fill="white"/>
<path id="j_2" d="M1196.02 234.636H1198.61V243.257C1198.61 244.054 1198.43 244.746 1198.07 245.334C1197.72 245.921 1197.22 246.374 1196.59 246.692C1195.96 247.01 1195.23 247.169 1194.39 247.169C1193.64 247.169 1192.97 247.038 1192.36 246.777C1191.76 246.511 1191.28 246.109 1190.92 245.569C1190.57 245.026 1190.39 244.344 1190.4 243.523H1193C1193.01 243.849 1193.07 244.128 1193.2 244.362C1193.33 244.591 1193.5 244.768 1193.72 244.893C1193.95 245.014 1194.22 245.074 1194.52 245.074C1194.84 245.074 1195.12 245.006 1195.34 244.869C1195.56 244.728 1195.73 244.523 1195.85 244.253C1195.97 243.984 1196.02 243.652 1196.02 243.257V234.636Z" fill="white"/>
<path id="B_2" d="M794.075 42V29.6364H799.025C799.934 29.6364 800.693 29.7712 801.301 30.0408C801.908 30.3105 802.365 30.6848 802.671 31.1637C802.977 31.6386 803.13 32.186 803.13 32.8058C803.13 33.2887 803.033 33.7133 802.84 34.0795C802.647 34.4418 802.381 34.7396 802.043 34.973C801.709 35.2024 801.327 35.3654 800.896 35.462V35.5827C801.367 35.6029 801.808 35.7357 802.218 35.9812C802.633 36.2267 802.969 36.5708 803.227 37.0135C803.484 37.4522 803.613 37.9754 803.613 38.5831C803.613 39.2391 803.45 39.8247 803.124 40.3398C802.802 40.851 802.325 41.2554 801.693 41.5533C801.061 41.8511 800.283 42 799.357 42H794.075ZM796.689 39.8629H798.82C799.548 39.8629 800.079 39.7241 800.413 39.4464C800.747 39.1647 800.914 38.7904 800.914 38.3235C800.914 37.9814 800.832 37.6796 800.667 37.418C800.502 37.1564 800.266 36.9511 799.961 36.8022C799.659 36.6533 799.299 36.5788 798.88 36.5788H796.689V39.8629ZM796.689 34.81H798.626C798.985 34.81 799.303 34.7476 799.58 34.6229C799.862 34.4941 800.083 34.313 800.244 34.0795C800.409 33.8461 800.492 33.5664 800.492 33.2404C800.492 32.7937 800.333 32.4335 800.015 32.1598C799.701 31.8861 799.254 31.7493 798.675 31.7493H796.689V34.81Z" fill="white"/>
<path id="A_2" d="M771.206 17H768.404L772.673 4.63636H776.041L780.303 17H777.502L774.405 7.46165H774.309L771.206 17ZM771.031 12.1403H777.647V14.1808H771.031V12.1403Z" fill="white"/>
</g>
</svg>
