<svg width="582" height="349" viewBox="0 0 582 349" fill="none" xmlns="http://www.w3.org/2000/svg">
<g id="Sector A">
<path id="A - 01" d="M29.4141 19C24.4641 19 20.4141 14.95 20.4141 10C20.4141 5.05 24.4641 1 29.4141 1C34.3641 1 38.4141 5.05 38.4141 10C38.4141 14.95 34.3641 19 29.4141 19Z" fill="#4AC4C1"/>
<path id="A - 02" d="M54.8701 19C49.9201 19 45.8701 14.95 45.8701 10C45.8701 5.05 49.9201 1 54.8701 1C59.8201 1 63.8701 5.05 63.8701 10C63.8701 14.95 59.8201 19 54.8701 19Z" fill="#4AC4C1"/>
<path id="A - 03" d="M80.3262 19C75.3762 19 71.3262 14.95 71.3262 10C71.3262 5.05 75.3762 1 80.3262 1C85.2762 1 89.3262 5.05 89.3262 10C89.3262 14.95 85.2762 19 80.3262 19Z" fill="#4AC4C1"/>
<path id="A - 04" d="M105.781 19C100.831 19 96.7812 14.95 96.7812 10C96.7812 5.05 100.831 1 105.781 1C110.731 1 114.781 5.05 114.781 10C114.781 14.95 110.731 19 105.781 19Z" fill="#4AC4C1"/>
<path id="A - 05" d="M131.237 19C126.287 19 122.237 14.95 122.237 10C122.237 5.05 126.287 1 131.237 1C136.187 1 140.237 5.05 140.237 10C140.237 14.95 136.187 19 131.237 19Z" fill="#4AC4C1"/>
<path id="A - 06" d="M156.693 19C151.743 19 147.693 14.95 147.693 10C147.693 5.05 151.743 1 156.693 1C161.643 1 165.693 5.05 165.693 10C165.693 14.95 161.643 19 156.693 19Z" fill="#4AC4C1"/>
<path id="A - 07" d="M182.149 19C177.199 19 173.149 14.95 173.149 10C173.149 5.05 177.199 1 182.149 1C187.099 1 191.149 5.05 191.149 10C191.149 14.95 187.099 19 182.149 19Z" fill="#4AC4C1"/>
<path id="A - 08" d="M207.605 19C202.655 19 198.605 14.95 198.605 10C198.605 5.05 202.655 1 207.605 1C212.555 1 216.605 5.05 216.605 10C216.605 14.95 212.555 19 207.605 19Z" fill="#4AC4C1"/>
<path id="A - 09" d="M233.061 19C228.111 19 224.061 14.95 224.061 10C224.061 5.05 228.111 1 233.061 1C238.011 1 242.061 5.05 242.061 10C242.061 14.95 238.011 19 233.061 19Z" fill="#4AC4C1"/>
<path id="B - 13" d="M372.807 45.7107C367.857 45.7107 363.807 41.6607 363.807 36.7107C363.807 31.7607 367.857 27.7107 372.807 27.7107C377.757 27.7107 381.807 31.7607 381.807 36.7107C381.807 41.6607 377.757 45.7107 372.807 45.7107Z" fill="#4AC4C1"/>
<path id="B - 14" d="M398.263 45.7107C393.313 45.7107 389.263 41.6607 389.263 36.7107C389.263 31.7607 393.313 27.7107 398.263 27.7107C403.213 27.7107 407.263 31.7607 407.263 36.7107C407.263 41.6607 403.213 45.7107 398.263 45.7107Z" fill="#4AC4C1"/>
<path id="B - 15" d="M423.718 45.7107C418.768 45.7107 414.718 41.6607 414.718 36.7107C414.718 31.7607 418.768 27.7107 423.718 27.7107C428.668 27.7107 432.718 31.7607 432.718 36.7107C432.718 41.6607 428.668 45.7107 423.718 45.7107Z" fill="#4AC4C1"/>
<path id="B - 16" d="M449.174 45.7107C444.224 45.7107 440.174 41.6607 440.174 36.7107C440.174 31.7607 444.224 27.7107 449.174 27.7107C454.124 27.7107 458.174 31.7607 458.174 36.7107C458.174 41.6607 454.124 45.7107 449.174 45.7107Z" fill="#4AC4C1"/>
<path id="B - 17" d="M474.63 45.7107C469.68 45.7107 465.63 41.6607 465.63 36.7107C465.63 31.7607 469.68 27.7107 474.63 27.7107C479.58 27.7107 483.63 31.7607 483.63 36.7107C483.63 41.6607 479.58 45.7107 474.63 45.7107Z" fill="#4AC4C1"/>
<path id="B - 18" d="M500.086 45.7107C495.136 45.7107 491.086 41.6607 491.086 36.7107C491.086 31.7607 495.136 27.7107 500.086 27.7107C505.036 27.7107 509.086 31.7607 509.086 36.7107C509.086 41.6607 505.036 45.7107 500.086 45.7107Z" fill="#4AC4C1"/>
<path id="B - 19" d="M525.542 45.7107C520.592 45.7107 516.542 41.6607 516.542 36.7107C516.542 31.7607 520.592 27.7107 525.542 27.7107C530.492 27.7107 534.542 31.7607 534.542 36.7107C534.542 41.6607 530.492 45.7107 525.542 45.7107Z" fill="#4AC4C1"/>
<path id="B - 20" d="M550.997 45.7107C546.047 45.7107 541.997 41.6607 541.997 36.7107C541.997 31.7607 546.047 27.7107 550.997 27.7107C555.947 27.7107 559.997 31.7607 559.997 36.7107C559.997 41.6607 555.947 45.7107 550.997 45.7107Z" fill="#4AC4C1"/>
<path id="B - 01" d="M28 45.8701C23.05 45.8701 19 41.8201 19 36.8701C19 31.9201 23.05 27.8701 28 27.8701C32.95 27.8701 37 31.9201 37 36.8701C37 41.8201 32.95 45.8701 28 45.8701Z" fill="#4AC4C1"/>
<path id="B - 02" d="M53.4561 45.8701C48.5061 45.8701 44.4561 41.8201 44.4561 36.8701C44.4561 31.9201 48.5061 27.8701 53.4561 27.8701C58.4061 27.8701 62.4561 31.9201 62.4561 36.8701C62.4561 41.8201 58.4061 45.8701 53.4561 45.8701Z" fill="#4AC4C1"/>
<path id="B - 03" d="M78.9111 45.8701C73.9611 45.8701 69.9111 41.8201 69.9111 36.8701C69.9111 31.9201 73.9611 27.8701 78.9111 27.8701C83.8611 27.8701 87.9111 31.9201 87.9111 36.8701C87.9111 41.8201 83.8611 45.8701 78.9111 45.8701Z" fill="#4AC4C1"/>
<path id="B - 04" d="M104.367 45.8701C99.4172 45.8701 95.3672 41.8201 95.3672 36.8701C95.3672 31.9201 99.4172 27.8701 104.367 27.8701C109.317 27.8701 113.367 31.9201 113.367 36.8701C113.367 41.8201 109.317 45.8701 104.367 45.8701Z" fill="#4AC4C1"/>
<path id="B - 05" d="M129.823 45.8701C124.873 45.8701 120.823 41.8201 120.823 36.8701C120.823 31.9201 124.873 27.8701 129.823 27.8701C134.773 27.8701 138.823 31.9201 138.823 36.8701C138.823 41.8201 134.773 45.8701 129.823 45.8701Z" fill="#4AC4C1"/>
<path id="B - 06" d="M155.279 45.8701C150.329 45.8701 146.279 41.8201 146.279 36.8701C146.279 31.9201 150.329 27.8701 155.279 27.8701C160.229 27.8701 164.279 31.9201 164.279 36.8701C164.279 41.8201 160.229 45.8701 155.279 45.8701Z" fill="#4AC4C1"/>
<path id="B - 07" d="M180.735 45.8701C175.785 45.8701 171.735 41.8201 171.735 36.8701C171.735 31.9201 175.785 27.8701 180.735 27.8701C185.685 27.8701 189.735 31.9201 189.735 36.8701C189.735 41.8201 185.685 45.8701 180.735 45.8701Z" fill="#4AC4C1"/>
<path id="B - 08" d="M206.19 45.8701C201.24 45.8701 197.19 41.8201 197.19 36.8701C197.19 31.9201 201.24 27.8701 206.19 27.8701C211.14 27.8701 215.19 31.9201 215.19 36.8701C215.19 41.8201 211.14 45.8701 206.19 45.8701Z" fill="#4AC4C1"/>
<path id="B - 09" d="M231.646 45.8701C226.696 45.8701 222.646 41.8201 222.646 36.8701C222.646 31.9201 226.696 27.8701 231.646 27.8701C236.596 27.8701 240.646 31.9201 240.646 36.8701C240.646 41.8201 236.596 45.8701 231.646 45.8701Z" fill="#4AC4C1"/>
<path id="B - 10" d="M257.104 45.8701C252.154 45.8701 248.104 41.8201 248.104 36.8701C248.104 31.9201 252.154 27.8701 257.104 27.8701C262.054 27.8701 266.104 31.9201 266.104 36.8701C266.104 41.8201 262.054 45.8701 257.104 45.8701Z" fill="#4AC4C1"/>
<path id="B - 11" d="M282.559 45.8701C277.609 45.8701 273.559 41.8201 273.559 36.8701C273.559 31.9201 277.609 27.8701 282.559 27.8701C287.509 27.8701 291.559 31.9201 291.559 36.8701C291.559 41.8201 287.509 45.8701 282.559 45.8701Z" fill="#4AC4C1"/>
<path id="B - 12" d="M308.015 45.8701C303.065 45.8701 299.015 41.8201 299.015 36.8701C299.015 31.9201 303.065 27.8701 308.015 27.8701C312.965 27.8701 317.015 31.9201 317.015 36.8701C317.015 41.8201 312.965 45.8701 308.015 45.8701Z" fill="#4AC4C1"/>
<path id="C - 13" d="M372.351 72.5808C367.401 72.5808 363.351 68.5308 363.351 63.5808C363.351 58.6308 367.401 54.5808 372.351 54.5808C377.301 54.5808 381.351 58.6308 381.351 63.5808C381.351 68.5308 377.301 72.5808 372.351 72.5808Z" fill="#4AC4C1"/>
<path id="C - 14" d="M397.807 72.5808C392.857 72.5808 388.807 68.5308 388.807 63.5808C388.807 58.6308 392.857 54.5808 397.807 54.5808C402.757 54.5808 406.807 58.6308 406.807 63.5808C406.807 68.5308 402.757 72.5808 397.807 72.5808Z" fill="#4AC4C1"/>
<path id="C - 15" d="M423.262 72.5808C418.312 72.5808 414.262 68.5308 414.262 63.5808C414.262 58.6308 418.312 54.5808 423.262 54.5808C428.212 54.5808 432.262 58.6308 432.262 63.5808C432.262 68.5308 428.212 72.5808 423.262 72.5808Z" fill="#4AC4C1"/>
<path id="C - 16" d="M448.718 72.5808C443.768 72.5808 439.718 68.5308 439.718 63.5808C439.718 58.6308 443.768 54.5808 448.718 54.5808C453.668 54.5808 457.718 58.6308 457.718 63.5808C457.718 68.5308 453.668 72.5808 448.718 72.5808Z" fill="#4AC4C1"/>
<path id="C - 17" d="M474.174 72.5808C469.224 72.5808 465.174 68.5308 465.174 63.5808C465.174 58.6308 469.224 54.5808 474.174 54.5808C479.124 54.5808 483.174 58.6308 483.174 63.5808C483.174 68.5308 479.124 72.5808 474.174 72.5808Z" fill="#4AC4C1"/>
<path id="C - 18" d="M499.63 72.5808C494.68 72.5808 490.63 68.5308 490.63 63.5808C490.63 58.6308 494.68 54.5808 499.63 54.5808C504.58 54.5808 508.63 58.6308 508.63 63.5808C508.63 68.5308 504.58 72.5808 499.63 72.5808Z" fill="#4AC4C1"/>
<path id="C - 19" d="M525.086 72.5808C520.136 72.5808 516.086 68.5308 516.086 63.5808C516.086 58.6308 520.136 54.5808 525.086 54.5808C530.036 54.5808 534.086 58.6308 534.086 63.5808C534.086 68.5308 530.036 72.5808 525.086 72.5808Z" fill="#4AC4C1"/>
<path id="C - 20" d="M550.541 72.5808C545.591 72.5808 541.541 68.5308 541.541 63.5808C541.541 58.6308 545.591 54.5808 550.541 54.5808C555.491 54.5808 559.541 58.6308 559.541 63.5808C559.541 68.5308 555.491 72.5808 550.541 72.5808Z" fill="#4AC4C1"/>
<path id="C - 01" d="M28 71.3259C23.05 71.3259 19 67.2759 19 62.3259C19 57.3759 23.05 53.3259 28 53.3259C32.95 53.3259 37 57.3759 37 62.3259C37 67.2759 32.95 71.3259 28 71.3259Z" fill="#4AC4C1"/>
<path id="C - 02" d="M53.4561 71.3259C48.5061 71.3259 44.4561 67.2759 44.4561 62.3259C44.4561 57.3759 48.5061 53.3259 53.4561 53.3259C58.4061 53.3259 62.4561 57.3759 62.4561 62.3259C62.4561 67.2759 58.4061 71.3259 53.4561 71.3259Z" fill="#4AC4C1"/>
<path id="C - 03" d="M78.9111 71.3259C73.9611 71.3259 69.9111 67.2759 69.9111 62.3259C69.9111 57.3759 73.9611 53.3259 78.9111 53.3259C83.8611 53.3259 87.9111 57.3759 87.9111 62.3259C87.9111 67.2759 83.8611 71.3259 78.9111 71.3259Z" fill="#4AC4C1"/>
<path id="C - 04" d="M104.367 71.3259C99.4172 71.3259 95.3672 67.2759 95.3672 62.3259C95.3672 57.3759 99.4172 53.3259 104.367 53.3259C109.317 53.3259 113.367 57.3759 113.367 62.3259C113.367 67.2759 109.317 71.3259 104.367 71.3259Z" fill="#4AC4C1"/>
<path id="C - 05" d="M129.823 71.3259C124.873 71.3259 120.823 67.2759 120.823 62.3259C120.823 57.3759 124.873 53.3259 129.823 53.3259C134.773 53.3259 138.823 57.3759 138.823 62.3259C138.823 67.2759 134.773 71.3259 129.823 71.3259Z" fill="#4AC4C1"/>
<path id="C - 06" d="M155.279 71.3259C150.329 71.3259 146.279 67.2759 146.279 62.3259C146.279 57.3759 150.329 53.3259 155.279 53.3259C160.229 53.3259 164.279 57.3759 164.279 62.3259C164.279 67.2759 160.229 71.3259 155.279 71.3259Z" fill="#4AC4C1"/>
<path id="C - 07" d="M180.735 71.3259C175.785 71.3259 171.735 67.2759 171.735 62.3259C171.735 57.3759 175.785 53.3259 180.735 53.3259C185.685 53.3259 189.735 57.3759 189.735 62.3259C189.735 67.2759 185.685 71.3259 180.735 71.3259Z" fill="#4AC4C1"/>
<path id="C - 08" d="M206.19 71.3259C201.24 71.3259 197.19 67.2759 197.19 62.3259C197.19 57.3759 201.24 53.3259 206.19 53.3259C211.14 53.3259 215.19 57.3759 215.19 62.3259C215.19 67.2759 211.14 71.3259 206.19 71.3259Z" fill="#4AC4C1"/>
<path id="C - 09" d="M231.646 71.3259C226.696 71.3259 222.646 67.2759 222.646 62.3259C222.646 57.3759 226.696 53.3259 231.646 53.3259C236.596 53.3259 240.646 57.3759 240.646 62.3259C240.646 67.2759 236.596 71.3259 231.646 71.3259Z" fill="#4AC4C1"/>
<path id="C - 10" d="M257.104 71.3259C252.154 71.3259 248.104 67.2759 248.104 62.3259C248.104 57.3759 252.154 53.3259 257.104 53.3259C262.054 53.3259 266.104 57.3759 266.104 62.3259C266.104 67.2759 262.054 71.3259 257.104 71.3259Z" fill="#4AC4C1"/>
<path id="C - 11" d="M282.559 71.3259C277.609 71.3259 273.559 67.2759 273.559 62.3259C273.559 57.3759 277.609 53.3259 282.559 53.3259C287.509 53.3259 291.559 57.3759 291.559 62.3259C291.559 67.2759 287.509 71.3259 282.559 71.3259Z" fill="#4AC4C1"/>
<path id="C - 12" d="M308.015 71.3259C303.065 71.3259 299.015 67.2759 299.015 62.3259C299.015 57.3759 303.065 53.3259 308.015 53.3259C312.965 53.3259 317.015 57.3759 317.015 62.3259C317.015 67.2759 312.965 71.3259 308.015 71.3259Z" fill="#4AC4C1"/>
<path id="D - 13" d="M372.351 98.0366C367.401 98.0366 363.351 93.9866 363.351 89.0366C363.351 84.0866 367.401 80.0366 372.351 80.0366C377.301 80.0366 381.351 84.0866 381.351 89.0366C381.351 93.9866 377.301 98.0366 372.351 98.0366Z" fill="#4AC4C1"/>
<path id="D - 14" d="M397.807 98.0366C392.857 98.0366 388.807 93.9866 388.807 89.0366C388.807 84.0866 392.857 80.0366 397.807 80.0366C402.757 80.0366 406.807 84.0866 406.807 89.0366C406.807 93.9866 402.757 98.0366 397.807 98.0366Z" fill="#4AC4C1"/>
<path id="D - 15" d="M423.262 98.0366C418.312 98.0366 414.262 93.9866 414.262 89.0366C414.262 84.0866 418.312 80.0366 423.262 80.0366C428.212 80.0366 432.262 84.0866 432.262 89.0366C432.262 93.9866 428.212 98.0366 423.262 98.0366Z" fill="#4AC4C1"/>
<path id="D - 16" d="M448.718 98.0366C443.768 98.0366 439.718 93.9866 439.718 89.0366C439.718 84.0866 443.768 80.0366 448.718 80.0366C453.668 80.0366 457.718 84.0866 457.718 89.0366C457.718 93.9866 453.668 98.0366 448.718 98.0366Z" fill="#4AC4C1"/>
<path id="D - 17" d="M474.174 98.0366C469.224 98.0366 465.174 93.9866 465.174 89.0366C465.174 84.0866 469.224 80.0366 474.174 80.0366C479.124 80.0366 483.174 84.0866 483.174 89.0366C483.174 93.9866 479.124 98.0366 474.174 98.0366Z" fill="#4AC4C1"/>
<path id="D - 18" d="M499.63 98.0366C494.68 98.0366 490.63 93.9866 490.63 89.0366C490.63 84.0866 494.68 80.0366 499.63 80.0366C504.58 80.0366 508.63 84.0866 508.63 89.0366C508.63 93.9866 504.58 98.0366 499.63 98.0366Z" fill="#4AC4C1"/>
<path id="D - 19" d="M525.086 98.0366C520.136 98.0366 516.086 93.9866 516.086 89.0366C516.086 84.0866 520.136 80.0366 525.086 80.0366C530.036 80.0366 534.086 84.0866 534.086 89.0366C534.086 93.9866 530.036 98.0366 525.086 98.0366Z" fill="#4AC4C1"/>
<path id="D - 20" d="M550.541 98.0366C545.591 98.0366 541.541 93.9866 541.541 89.0366C541.541 84.0866 545.591 80.0366 550.541 80.0366C555.491 80.0366 559.541 84.0866 559.541 89.0366C559.541 93.9866 555.491 98.0366 550.541 98.0366Z" fill="#4AC4C1"/>
<path id="D - 01" d="M28 96.7817C23.05 96.7817 19 92.7317 19 87.7817C19 82.8317 23.05 78.7817 28 78.7817C32.95 78.7817 37 82.8317 37 87.7817C37 92.7317 32.95 96.7817 28 96.7817Z" fill="#4AC4C1"/>
<path id="D - 02" d="M53.4561 96.7817C48.5061 96.7817 44.4561 92.7317 44.4561 87.7817C44.4561 82.8317 48.5061 78.7817 53.4561 78.7817C58.4061 78.7817 62.4561 82.8317 62.4561 87.7817C62.4561 92.7317 58.4061 96.7817 53.4561 96.7817Z" fill="#4AC4C1"/>
<path id="D - 03" d="M78.9111 96.7817C73.9611 96.7817 69.9111 92.7317 69.9111 87.7817C69.9111 82.8317 73.9611 78.7817 78.9111 78.7817C83.8611 78.7817 87.9111 82.8317 87.9111 87.7817C87.9111 92.7317 83.8611 96.7817 78.9111 96.7817Z" fill="#4AC4C1"/>
<path id="D - 04" d="M104.367 96.7817C99.4172 96.7817 95.3672 92.7317 95.3672 87.7817C95.3672 82.8317 99.4172 78.7817 104.367 78.7817C109.317 78.7817 113.367 82.8317 113.367 87.7817C113.367 92.7317 109.317 96.7817 104.367 96.7817Z" fill="#4AC4C1"/>
<path id="D - 05" d="M129.823 96.7817C124.873 96.7817 120.823 92.7317 120.823 87.7817C120.823 82.8317 124.873 78.7817 129.823 78.7817C134.773 78.7817 138.823 82.8317 138.823 87.7817C138.823 92.7317 134.773 96.7817 129.823 96.7817Z" fill="#4AC4C1"/>
<path id="D - 06" d="M155.279 96.7817C150.329 96.7817 146.279 92.7317 146.279 87.7817C146.279 82.8317 150.329 78.7817 155.279 78.7817C160.229 78.7817 164.279 82.8317 164.279 87.7817C164.279 92.7317 160.229 96.7817 155.279 96.7817Z" fill="#4AC4C1"/>
<path id="D - 07" d="M180.735 96.7817C175.785 96.7817 171.735 92.7317 171.735 87.7817C171.735 82.8317 175.785 78.7817 180.735 78.7817C185.685 78.7817 189.735 82.8317 189.735 87.7817C189.735 92.7317 185.685 96.7817 180.735 96.7817Z" fill="#4AC4C1"/>
<path id="D - 08" d="M206.19 96.7817C201.24 96.7817 197.19 92.7317 197.19 87.7817C197.19 82.8317 201.24 78.7817 206.19 78.7817C211.14 78.7817 215.19 82.8317 215.19 87.7817C215.19 92.7317 211.14 96.7817 206.19 96.7817Z" fill="#4AC4C1"/>
<path id="D - 09" d="M231.646 96.7817C226.696 96.7817 222.646 92.7317 222.646 87.7817C222.646 82.8317 226.696 78.7817 231.646 78.7817C236.596 78.7817 240.646 82.8317 240.646 87.7817C240.646 92.7317 236.596 96.7817 231.646 96.7817Z" fill="#4AC4C1"/>
<path id="D - 10" d="M257.104 96.7817C252.154 96.7817 248.104 92.7317 248.104 87.7817C248.104 82.8317 252.154 78.7817 257.104 78.7817C262.054 78.7817 266.104 82.8317 266.104 87.7817C266.104 92.7317 262.054 96.7817 257.104 96.7817Z" fill="#4AC4C1"/>
<path id="D - 11" d="M282.559 96.7817C277.609 96.7817 273.559 92.7317 273.559 87.7817C273.559 82.8317 277.609 78.7817 282.559 78.7817C287.509 78.7817 291.559 82.8317 291.559 87.7817C291.559 92.7317 287.509 96.7817 282.559 96.7817Z" fill="#4AC4C1"/>
<path id="D - 12" d="M308.015 96.7817C303.065 96.7817 299.015 92.7317 299.015 87.7817C299.015 82.8317 303.065 78.7817 308.015 78.7817C312.965 78.7817 317.015 82.8317 317.015 87.7817C317.015 92.7317 312.965 96.7817 308.015 96.7817Z" fill="#4AC4C1"/>
<path id="E - 13" d="M372.351 123.492C367.401 123.492 363.351 119.442 363.351 114.492C363.351 109.542 367.401 105.492 372.351 105.492C377.301 105.492 381.351 109.542 381.351 114.492C381.351 119.442 377.301 123.492 372.351 123.492Z" fill="#4AC4C1"/>
<path id="E - 14" d="M397.807 123.492C392.857 123.492 388.807 119.442 388.807 114.492C388.807 109.542 392.857 105.492 397.807 105.492C402.757 105.492 406.807 109.542 406.807 114.492C406.807 119.442 402.757 123.492 397.807 123.492Z" fill="#4AC4C1"/>
<path id="E - 15" d="M423.262 123.492C418.312 123.492 414.262 119.442 414.262 114.492C414.262 109.542 418.312 105.492 423.262 105.492C428.212 105.492 432.262 109.542 432.262 114.492C432.262 119.442 428.212 123.492 423.262 123.492Z" fill="#4AC4C1"/>
<path id="E - 16" d="M448.718 123.492C443.768 123.492 439.718 119.442 439.718 114.492C439.718 109.542 443.768 105.492 448.718 105.492C453.668 105.492 457.718 109.542 457.718 114.492C457.718 119.442 453.668 123.492 448.718 123.492Z" fill="#4AC4C1"/>
<path id="E - 17" d="M474.174 123.492C469.224 123.492 465.174 119.442 465.174 114.492C465.174 109.542 469.224 105.492 474.174 105.492C479.124 105.492 483.174 109.542 483.174 114.492C483.174 119.442 479.124 123.492 474.174 123.492Z" fill="#4AC4C1"/>
<path id="E - 18" d="M499.63 123.492C494.68 123.492 490.63 119.442 490.63 114.492C490.63 109.542 494.68 105.492 499.63 105.492C504.58 105.492 508.63 109.542 508.63 114.492C508.63 119.442 504.58 123.492 499.63 123.492Z" fill="#4AC4C1"/>
<path id="E - 19" d="M525.086 123.492C520.136 123.492 516.086 119.442 516.086 114.492C516.086 109.542 520.136 105.492 525.086 105.492C530.036 105.492 534.086 109.542 534.086 114.492C534.086 119.442 530.036 123.492 525.086 123.492Z" fill="#4AC4C1"/>
<path id="E - 20" d="M550.541 123.492C545.591 123.492 541.541 119.442 541.541 114.492C541.541 109.542 545.591 105.492 550.541 105.492C555.491 105.492 559.541 109.542 559.541 114.492C559.541 119.442 555.491 123.492 550.541 123.492Z" fill="#4AC4C1"/>
<path id="E - 01" d="M29.4141 120.823C24.4641 120.823 20.4141 116.773 20.4141 111.823C20.4141 106.873 24.4641 102.823 29.4141 102.823C34.3641 102.823 38.4141 106.873 38.4141 111.823C38.4141 116.773 34.3641 120.823 29.4141 120.823Z" fill="#4AC4C1"/>
<path id="E - 02" d="M54.8701 120.823C49.9201 120.823 45.8701 116.773 45.8701 111.823C45.8701 106.873 49.9201 102.823 54.8701 102.823C59.8201 102.823 63.8701 106.873 63.8701 111.823C63.8701 116.773 59.8201 120.823 54.8701 120.823Z" fill="#4AC4C1"/>
<path id="E - 03" d="M80.3262 120.823C75.3762 120.823 71.3262 116.773 71.3262 111.823C71.3262 106.873 75.3762 102.823 80.3262 102.823C85.2762 102.823 89.3262 106.873 89.3262 111.823C89.3262 116.773 85.2762 120.823 80.3262 120.823Z" fill="#4AC4C1"/>
<path id="E - 04" d="M105.781 120.823C100.831 120.823 96.7812 116.773 96.7812 111.823C96.7812 106.873 100.831 102.823 105.781 102.823C110.731 102.823 114.781 106.873 114.781 111.823C114.781 116.773 110.731 120.823 105.781 120.823Z" fill="#4AC4C1"/>
<path id="E - 05" d="M131.237 120.823C126.287 120.823 122.237 116.773 122.237 111.823C122.237 106.873 126.287 102.823 131.237 102.823C136.187 102.823 140.237 106.873 140.237 111.823C140.237 116.773 136.187 120.823 131.237 120.823Z" fill="#4AC4C1"/>
<path id="E - 06" d="M156.693 120.823C151.743 120.823 147.693 116.773 147.693 111.823C147.693 106.873 151.743 102.823 156.693 102.823C161.643 102.823 165.693 106.873 165.693 111.823C165.693 116.773 161.643 120.823 156.693 120.823Z" fill="#4AC4C1"/>
<path id="E - 07" d="M182.149 120.823C177.199 120.823 173.149 116.773 173.149 111.823C173.149 106.873 177.199 102.823 182.149 102.823C187.099 102.823 191.149 106.873 191.149 111.823C191.149 116.773 187.099 120.823 182.149 120.823Z" fill="#4AC4C1"/>
<path id="E - 08" d="M207.605 120.823C202.655 120.823 198.605 116.773 198.605 111.823C198.605 106.873 202.655 102.823 207.605 102.823C212.555 102.823 216.605 106.873 216.605 111.823C216.605 116.773 212.555 120.823 207.605 120.823Z" fill="#4AC4C1"/>
<path id="F - 13" d="M372.351 147.534C367.401 147.534 363.351 143.484 363.351 138.534C363.351 133.584 367.401 129.534 372.351 129.534C377.301 129.534 381.351 133.584 381.351 138.534C381.351 143.484 377.301 147.534 372.351 147.534Z" fill="#4AC4C1"/>
<path id="F - 14" d="M397.807 147.534C392.857 147.534 388.807 143.484 388.807 138.534C388.807 133.584 392.857 129.534 397.807 129.534C402.757 129.534 406.807 133.584 406.807 138.534C406.807 143.484 402.757 147.534 397.807 147.534Z" fill="#4AC4C1"/>
<path id="F - 15" d="M423.263 147.534C418.313 147.534 414.263 143.484 414.263 138.534C414.263 133.584 418.313 129.534 423.263 129.534C428.213 129.534 432.263 133.584 432.263 138.534C432.263 143.484 428.213 147.534 423.263 147.534Z" fill="#4AC4C1"/>
<path id="F - 16" d="M448.718 147.534C443.768 147.534 439.718 143.484 439.718 138.534C439.718 133.584 443.768 129.534 448.718 129.534C453.668 129.534 457.718 133.584 457.718 138.534C457.718 143.484 453.668 147.534 448.718 147.534Z" fill="#4AC4C1"/>
<path id="F - 17" d="M474.174 147.534C469.224 147.534 465.174 143.484 465.174 138.534C465.174 133.584 469.224 129.534 474.174 129.534C479.124 129.534 483.174 133.584 483.174 138.534C483.174 143.484 479.124 147.534 474.174 147.534Z" fill="#4AC4C1"/>
<path id="F - 18" d="M499.63 147.534C494.68 147.534 490.63 143.484 490.63 138.534C490.63 133.584 494.68 129.534 499.63 129.534C504.58 129.534 508.63 133.584 508.63 138.534C508.63 143.484 504.58 147.534 499.63 147.534Z" fill="#4AC4C1"/>
<path id="F - 19" d="M525.086 147.534C520.136 147.534 516.086 143.484 516.086 138.534C516.086 133.584 520.136 129.534 525.086 129.534C530.036 129.534 534.086 133.584 534.086 138.534C534.086 143.484 530.036 147.534 525.086 147.534Z" fill="#4AC4C1"/>
<path id="F - 20" d="M550.542 147.534C545.592 147.534 541.542 143.484 541.542 138.534C541.542 133.584 545.592 129.534 550.542 129.534C555.492 129.534 559.542 133.584 559.542 138.534C559.542 143.484 555.492 147.534 550.542 147.534Z" fill="#4AC4C1"/>
<path id="E - 17_2" d="M233.061 120.823C228.111 120.823 224.061 116.773 224.061 111.823C224.061 106.873 228.111 102.823 233.061 102.823C238.011 102.823 242.061 106.873 242.061 111.823C242.061 116.773 238.011 120.823 233.061 120.823Z" fill="#4AC4C1"/>
<path id="E - 18_2" d="M258.518 120.823C253.568 120.823 249.518 116.773 249.518 111.823C249.518 106.873 253.568 102.823 258.518 102.823C263.468 102.823 267.518 106.873 267.518 111.823C267.518 116.773 263.468 120.823 258.518 120.823Z" fill="#4AC4C1"/>
<path id="E - 19_2" d="M283.973 120.823C279.023 120.823 274.973 116.773 274.973 111.823C274.973 106.873 279.023 102.823 283.973 102.823C288.923 102.823 292.973 106.873 292.973 111.823C292.973 116.773 288.923 120.823 283.973 120.823Z" fill="#4AC4C1"/>
<path id="E - 20_2" d="M309.429 120.823C304.479 120.823 300.429 116.773 300.429 111.823C300.429 106.873 304.479 102.823 309.429 102.823C314.379 102.823 318.429 106.873 318.429 111.823C318.429 116.773 314.379 120.823 309.429 120.823Z" fill="#4AC4C1"/>
<path id="F - 01" d="M29.4141 146.279C24.4641 146.279 20.4141 142.229 20.4141 137.279C20.4141 132.329 24.4641 128.279 29.4141 128.279C34.3641 128.279 38.4141 132.329 38.4141 137.279C38.4141 142.229 34.3641 146.279 29.4141 146.279Z" fill="#4AC4C1"/>
<path id="F - 02" d="M54.8701 146.279C49.9201 146.279 45.8701 142.229 45.8701 137.279C45.8701 132.329 49.9201 128.279 54.8701 128.279C59.8201 128.279 63.8701 132.329 63.8701 137.279C63.8701 142.229 59.8201 146.279 54.8701 146.279Z" fill="#4AC4C1"/>
<path id="F - 03" d="M80.3262 146.279C75.3762 146.279 71.3262 142.229 71.3262 137.279C71.3262 132.329 75.3762 128.279 80.3262 128.279C85.2762 128.279 89.3262 132.329 89.3262 137.279C89.3262 142.229 85.2762 146.279 80.3262 146.279Z" fill="#4AC4C1"/>
<path id="F - 04" d="M105.781 146.279C100.831 146.279 96.7812 142.229 96.7812 137.279C96.7812 132.329 100.831 128.279 105.781 128.279C110.731 128.279 114.781 132.329 114.781 137.279C114.781 142.229 110.731 146.279 105.781 146.279Z" fill="#4AC4C1"/>
<path id="F - 05" d="M131.237 146.279C126.287 146.279 122.237 142.229 122.237 137.279C122.237 132.329 126.287 128.279 131.237 128.279C136.187 128.279 140.237 132.329 140.237 137.279C140.237 142.229 136.187 146.279 131.237 146.279Z" fill="#4AC4C1"/>
<path id="F - 06" d="M156.693 146.279C151.743 146.279 147.693 142.229 147.693 137.279C147.693 132.329 151.743 128.279 156.693 128.279C161.643 128.279 165.693 132.329 165.693 137.279C165.693 142.229 161.643 146.279 156.693 146.279Z" fill="#4AC4C1"/>
<path id="F - 07" d="M182.149 146.279C177.199 146.279 173.149 142.229 173.149 137.279C173.149 132.329 177.199 128.279 182.149 128.279C187.099 128.279 191.149 132.329 191.149 137.279C191.149 142.229 187.099 146.279 182.149 146.279Z" fill="#4AC4C1"/>
<path id="F - 08" d="M207.605 146.279C202.655 146.279 198.605 142.229 198.605 137.279C198.605 132.329 202.655 128.279 207.605 128.279C212.555 128.279 216.605 132.329 216.605 137.279C216.605 142.229 212.555 146.279 207.605 146.279Z" fill="#4AC4C1"/>
<path id="F - 09" d="M233.061 146.279C228.111 146.279 224.061 142.229 224.061 137.279C224.061 132.329 228.111 128.279 233.061 128.279C238.011 128.279 242.061 132.329 242.061 137.279C242.061 142.229 238.011 146.279 233.061 146.279Z" fill="#4AC4C1"/>
<path id="F - 10" d="M258.518 146.279C253.568 146.279 249.518 142.229 249.518 137.279C249.518 132.329 253.568 128.279 258.518 128.279C263.468 128.279 267.518 132.329 267.518 137.279C267.518 142.229 263.468 146.279 258.518 146.279Z" fill="#4AC4C1"/>
<path id="F - 11" d="M283.973 146.279C279.023 146.279 274.973 142.229 274.973 137.279C274.973 132.329 279.023 128.279 283.973 128.279C288.923 128.279 292.973 132.329 292.973 137.279C292.973 142.229 288.923 146.279 283.973 146.279Z" fill="#4AC4C1"/>
<path id="F - 12" d="M309.429 146.279C304.479 146.279 300.429 142.229 300.429 137.279C300.429 132.329 304.479 128.279 309.429 128.279C314.379 128.279 318.429 132.329 318.429 137.279C318.429 142.229 314.379 146.279 309.429 146.279Z" fill="#4AC4C1"/>
<path id="G - 11" d="M372.351 172.99C367.401 172.99 363.351 168.94 363.351 163.99C363.351 159.04 367.401 154.99 372.351 154.99C377.301 154.99 381.351 159.04 381.351 163.99C381.351 168.94 377.301 172.99 372.351 172.99Z" fill="#4AC4C1"/>
<path id="G - 12" d="M397.807 172.99C392.857 172.99 388.807 168.94 388.807 163.99C388.807 159.04 392.857 154.99 397.807 154.99C402.757 154.99 406.807 159.04 406.807 163.99C406.807 168.94 402.757 172.99 397.807 172.99Z" fill="#4AC4C1"/>
<path id="G - 13" d="M423.263 172.99C418.313 172.99 414.263 168.94 414.263 163.99C414.263 159.04 418.313 154.99 423.263 154.99C428.213 154.99 432.263 159.04 432.263 163.99C432.263 168.94 428.213 172.99 423.263 172.99Z" fill="#4AC4C1"/>
<path id="G - 14" d="M448.719 172.99C443.769 172.99 439.719 168.94 439.719 163.99C439.719 159.04 443.769 154.99 448.719 154.99C453.669 154.99 457.719 159.04 457.719 163.99C457.719 168.94 453.669 172.99 448.719 172.99Z" fill="#4AC4C1"/>
<path id="G - 15" d="M474.174 172.99C469.224 172.99 465.174 168.94 465.174 163.99C465.174 159.04 469.224 154.99 474.174 154.99C479.124 154.99 483.174 159.04 483.174 163.99C483.174 168.94 479.124 172.99 474.174 172.99Z" fill="#4AC4C1"/>
<path id="G - 16" d="M499.63 172.99C494.68 172.99 490.63 168.94 490.63 163.99C490.63 159.04 494.68 154.99 499.63 154.99C504.58 154.99 508.63 159.04 508.63 163.99C508.63 168.94 504.58 172.99 499.63 172.99Z" fill="#4AC4C1"/>
<path id="G - 17" d="M525.086 172.99C520.136 172.99 516.086 168.94 516.086 163.99C516.086 159.04 520.136 154.99 525.086 154.99C530.036 154.99 534.086 159.04 534.086 163.99C534.086 168.94 530.036 172.99 525.086 172.99Z" fill="#4AC4C1"/>
<path id="G - 18" d="M550.542 172.99C545.592 172.99 541.542 168.94 541.542 163.99C541.542 159.04 545.592 154.99 550.542 154.99C555.492 154.99 559.542 159.04 559.542 163.99C559.542 168.94 555.492 172.99 550.542 172.99Z" fill="#4AC4C1"/>
<path id="G - 01" d="M80.3262 171.439C75.3762 171.439 71.3262 167.389 71.3262 162.439C71.3262 157.489 75.3762 153.439 80.3262 153.439C85.2762 153.439 89.3262 157.489 89.3262 162.439C89.3262 167.389 85.2762 171.439 80.3262 171.439Z" fill="#4AC4C1"/>
<path id="G - 02" d="M105.781 171.439C100.831 171.439 96.7812 167.389 96.7812 162.439C96.7812 157.489 100.831 153.439 105.781 153.439C110.731 153.439 114.781 157.489 114.781 162.439C114.781 167.389 110.731 171.439 105.781 171.439Z" fill="#4AC4C1"/>
<path id="G - 03" d="M131.237 171.439C126.287 171.439 122.237 167.389 122.237 162.439C122.237 157.489 126.287 153.439 131.237 153.439C136.187 153.439 140.237 157.489 140.237 162.439C140.237 167.389 136.187 171.439 131.237 171.439Z" fill="#4AC4C1"/>
<path id="G - 04" d="M156.693 171.439C151.743 171.439 147.693 167.389 147.693 162.439C147.693 157.489 151.743 153.439 156.693 153.439C161.643 153.439 165.693 157.489 165.693 162.439C165.693 167.389 161.643 171.439 156.693 171.439Z" fill="#4AC4C1"/>
<path id="G - 05" d="M182.149 171.439C177.199 171.439 173.149 167.389 173.149 162.439C173.149 157.489 177.199 153.439 182.149 153.439C187.099 153.439 191.149 157.489 191.149 162.439C191.149 167.389 187.099 171.439 182.149 171.439Z" fill="#4AC4C1"/>
<path id="G - 06" d="M207.605 171.439C202.655 171.439 198.605 167.389 198.605 162.439C198.605 157.489 202.655 153.439 207.605 153.439C212.555 153.439 216.605 157.489 216.605 162.439C216.605 167.389 212.555 171.439 207.605 171.439Z" fill="#4AC4C1"/>
<path id="G - 07" d="M233.061 171.439C228.111 171.439 224.061 167.389 224.061 162.439C224.061 157.489 228.111 153.439 233.061 153.439C238.011 153.439 242.061 157.489 242.061 162.439C242.061 167.389 238.011 171.439 233.061 171.439Z" fill="#4AC4C1"/>
<path id="G - 08" d="M258.518 171.439C253.568 171.439 249.518 167.389 249.518 162.439C249.518 157.489 253.568 153.439 258.518 153.439C263.468 153.439 267.518 157.489 267.518 162.439C267.518 167.389 263.468 171.439 258.518 171.439Z" fill="#4AC4C1"/>
<path id="G - 09" d="M283.973 171.439C279.023 171.439 274.973 167.389 274.973 162.439C274.973 157.489 279.023 153.439 283.973 153.439C288.923 153.439 292.973 157.489 292.973 162.439C292.973 167.389 288.923 171.439 283.973 171.439Z" fill="#4AC4C1"/>
<path id="G - 10" d="M309.429 171.439C304.479 171.439 300.429 167.389 300.429 162.439C300.429 157.489 304.479 153.439 309.429 153.439C314.379 153.439 318.429 157.489 318.429 162.439C318.429 167.389 314.379 171.439 309.429 171.439Z" fill="#4AC4C1"/>
<path id="H - 10" d="M372.351 198.149C367.401 198.149 363.351 194.099 363.351 189.149C363.351 184.199 367.401 180.149 372.351 180.149C377.301 180.149 381.351 184.199 381.351 189.149C381.351 194.099 377.301 198.149 372.351 198.149Z" fill="#4AC4C1"/>
<path id="H - 11" d="M397.807 198.149C392.857 198.149 388.807 194.099 388.807 189.149C388.807 184.199 392.857 180.149 397.807 180.149C402.757 180.149 406.807 184.199 406.807 189.149C406.807 194.099 402.757 198.149 397.807 198.149Z" fill="#4AC4C1"/>
<path id="H - 12" d="M423.263 198.149C418.313 198.149 414.263 194.099 414.263 189.149C414.263 184.199 418.313 180.149 423.263 180.149C428.213 180.149 432.263 184.199 432.263 189.149C432.263 194.099 428.213 198.149 423.263 198.149Z" fill="#4AC4C1"/>
<path id="H - 13" d="M448.719 198.149C443.769 198.149 439.719 194.099 439.719 189.149C439.719 184.199 443.769 180.149 448.719 180.149C453.669 180.149 457.719 184.199 457.719 189.149C457.719 194.099 453.669 198.149 448.719 198.149Z" fill="#4AC4C1"/>
<path id="H - 14" d="M474.174 198.149C469.224 198.149 465.174 194.099 465.174 189.149C465.174 184.199 469.224 180.149 474.174 180.149C479.124 180.149 483.174 184.199 483.174 189.149C483.174 194.099 479.124 198.149 474.174 198.149Z" fill="#4AC4C1"/>
<path id="H - 15" d="M499.63 198.149C494.68 198.149 490.63 194.099 490.63 189.149C490.63 184.199 494.68 180.149 499.63 180.149C504.58 180.149 508.63 184.199 508.63 189.149C508.63 194.099 504.58 198.149 499.63 198.149Z" fill="#4AC4C1"/>
<path id="H - 16" d="M525.086 198.149C520.136 198.149 516.086 194.099 516.086 189.149C516.086 184.199 520.136 180.149 525.086 180.149C530.036 180.149 534.086 184.199 534.086 189.149C534.086 194.099 530.036 198.149 525.086 198.149Z" fill="#4AC4C1"/>
<path id="H - 17" d="M550.542 198.149C545.592 198.149 541.542 194.099 541.542 189.149C541.542 184.199 545.592 180.149 550.542 180.149C555.492 180.149 559.542 184.199 559.542 189.149C559.542 194.099 555.492 198.149 550.542 198.149Z" fill="#4AC4C1"/>
<path id="H - 01" d="M105.781 196.711C100.831 196.711 96.7812 192.661 96.7812 187.711C96.7812 182.761 100.831 178.711 105.781 178.711C110.731 178.711 114.781 182.761 114.781 187.711C114.781 192.661 110.731 196.711 105.781 196.711Z" fill="#4AC4C1"/>
<path id="H - 02" d="M131.237 196.711C126.287 196.711 122.237 192.661 122.237 187.711C122.237 182.761 126.287 178.711 131.237 178.711C136.187 178.711 140.237 182.761 140.237 187.711C140.237 192.661 136.187 196.711 131.237 196.711Z" fill="#4AC4C1"/>
<path id="H - 03" d="M156.693 196.711C151.743 196.711 147.693 192.661 147.693 187.711C147.693 182.761 151.743 178.711 156.693 178.711C161.643 178.711 165.693 182.761 165.693 187.711C165.693 192.661 161.643 196.711 156.693 196.711Z" fill="#4AC4C1"/>
<path id="H - 04" d="M182.149 196.711C177.199 196.711 173.149 192.661 173.149 187.711C173.149 182.761 177.199 178.711 182.149 178.711C187.099 178.711 191.149 182.761 191.149 187.711C191.149 192.661 187.099 196.711 182.149 196.711Z" fill="#4AC4C1"/>
<path id="H - 05" d="M207.605 196.711C202.655 196.711 198.605 192.661 198.605 187.711C198.605 182.761 202.655 178.711 207.605 178.711C212.555 178.711 216.605 182.761 216.605 187.711C216.605 192.661 212.555 196.711 207.605 196.711Z" fill="#4AC4C1"/>
<path id="H - 06" d="M233.061 196.711C228.111 196.711 224.061 192.661 224.061 187.711C224.061 182.761 228.111 178.711 233.061 178.711C238.011 178.711 242.061 182.761 242.061 187.711C242.061 192.661 238.011 196.711 233.061 196.711Z" fill="#4AC4C1"/>
<path id="H - 07" d="M258.518 196.711C253.568 196.711 249.518 192.661 249.518 187.711C249.518 182.761 253.568 178.711 258.518 178.711C263.468 178.711 267.518 182.761 267.518 187.711C267.518 192.661 263.468 196.711 258.518 196.711Z" fill="#4AC4C1"/>
<path id="H - 08" d="M283.973 196.711C279.023 196.711 274.973 192.661 274.973 187.711C274.973 182.761 279.023 178.711 283.973 178.711C288.923 178.711 292.973 182.761 292.973 187.711C292.973 192.661 288.923 196.711 283.973 196.711Z" fill="#4AC4C1"/>
<path id="H - 09" d="M309.429 196.711C304.479 196.711 300.429 192.661 300.429 187.711C300.429 182.761 304.479 178.711 309.429 178.711C314.379 178.711 318.429 182.761 318.429 187.711C318.429 192.661 314.379 196.711 309.429 196.711Z" fill="#4AC4C1"/>
<path id="I - 08" d="M372.351 223.421C367.401 223.421 363.351 219.371 363.351 214.421C363.351 209.471 367.401 205.421 372.351 205.421C377.301 205.421 381.351 209.471 381.351 214.421C381.351 219.371 377.301 223.421 372.351 223.421Z" fill="#4AC4C1"/>
<path id="I - 09" d="M397.807 223.421C392.857 223.421 388.807 219.371 388.807 214.421C388.807 209.471 392.857 205.421 397.807 205.421C402.757 205.421 406.807 209.471 406.807 214.421C406.807 219.371 402.757 223.421 397.807 223.421Z" fill="#4AC4C1"/>
<path id="I - 10" d="M423.263 223.421C418.313 223.421 414.263 219.371 414.263 214.421C414.263 209.471 418.313 205.421 423.263 205.421C428.213 205.421 432.263 209.471 432.263 214.421C432.263 219.371 428.213 223.421 423.263 223.421Z" fill="#4AC4C1"/>
<path id="I - 11" d="M448.719 223.421C443.769 223.421 439.719 219.371 439.719 214.421C439.719 209.471 443.769 205.421 448.719 205.421C453.669 205.421 457.719 209.471 457.719 214.421C457.719 219.371 453.669 223.421 448.719 223.421Z" fill="#4AC4C1"/>
<path id="I - 12" d="M474.174 223.421C469.224 223.421 465.174 219.371 465.174 214.421C465.174 209.471 469.224 205.421 474.174 205.421C479.124 205.421 483.174 209.471 483.174 214.421C483.174 219.371 479.124 223.421 474.174 223.421Z" fill="#4AC4C1"/>
<path id="I - 13" d="M499.63 223.421C494.68 223.421 490.63 219.371 490.63 214.421C490.63 209.471 494.68 205.421 499.63 205.421C504.58 205.421 508.63 209.471 508.63 214.421C508.63 219.371 504.58 223.421 499.63 223.421Z" fill="#4AC4C1"/>
<path id="I - 14" d="M525.086 223.421C520.136 223.421 516.086 219.371 516.086 214.421C516.086 209.471 520.136 205.421 525.086 205.421C530.036 205.421 534.086 209.471 534.086 214.421C534.086 219.371 530.036 223.421 525.086 223.421Z" fill="#4AC4C1"/>
<path id="I - 15" d="M550.542 223.421C545.592 223.421 541.542 219.371 541.542 214.421C541.542 209.471 545.592 205.421 550.542 205.421C555.492 205.421 559.542 209.471 559.542 214.421C559.542 219.371 555.492 223.421 550.542 223.421Z" fill="#4AC4C1"/>
<path id="I - 01" d="M156.693 221.711C151.743 221.711 147.693 217.661 147.693 212.711C147.693 207.761 151.743 203.711 156.693 203.711C161.643 203.711 165.693 207.761 165.693 212.711C165.693 217.661 161.643 221.711 156.693 221.711Z" fill="#4AC4C1"/>
<path id="I - 02" d="M182.149 221.711C177.199 221.711 173.149 217.661 173.149 212.711C173.149 207.761 177.199 203.711 182.149 203.711C187.099 203.711 191.149 207.761 191.149 212.711C191.149 217.661 187.099 221.711 182.149 221.711Z" fill="#4AC4C1"/>
<path id="I - 03" d="M207.605 221.711C202.655 221.711 198.605 217.661 198.605 212.711C198.605 207.761 202.655 203.711 207.605 203.711C212.555 203.711 216.605 207.761 216.605 212.711C216.605 217.661 212.555 221.711 207.605 221.711Z" fill="#4AC4C1"/>
<path id="I - 04" d="M233.061 221.711C228.111 221.711 224.061 217.661 224.061 212.711C224.061 207.761 228.111 203.711 233.061 203.711C238.011 203.711 242.061 207.761 242.061 212.711C242.061 217.661 238.011 221.711 233.061 221.711Z" fill="#4AC4C1"/>
<path id="I - 05" d="M258.518 221.711C253.568 221.711 249.518 217.661 249.518 212.711C249.518 207.761 253.568 203.711 258.518 203.711C263.468 203.711 267.518 207.761 267.518 212.711C267.518 217.661 263.468 221.711 258.518 221.711Z" fill="#4AC4C1"/>
<path id="I - 06" d="M283.973 221.711C279.023 221.711 274.973 217.661 274.973 212.711C274.973 207.761 279.023 203.711 283.973 203.711C288.923 203.711 292.973 207.761 292.973 212.711C292.973 217.661 288.923 221.711 283.973 221.711Z" fill="#4AC4C1"/>
<path id="I - 07" d="M309.429 221.711C304.479 221.711 300.429 217.661 300.429 212.711C300.429 207.761 304.479 203.711 309.429 203.711C314.379 203.711 318.429 207.761 318.429 212.711C318.429 217.661 314.379 221.711 309.429 221.711Z" fill="#4AC4C1"/>
<path id="J - 06" d="M372.351 248.421C367.401 248.421 363.351 244.371 363.351 239.421C363.351 234.471 367.401 230.421 372.351 230.421C377.301 230.421 381.351 234.471 381.351 239.421C381.351 244.371 377.301 248.421 372.351 248.421Z" fill="#4AC4C1"/>
<path id="J - 07" d="M397.807 248.421C392.857 248.421 388.807 244.371 388.807 239.421C388.807 234.471 392.857 230.421 397.807 230.421C402.757 230.421 406.807 234.471 406.807 239.421C406.807 244.371 402.757 248.421 397.807 248.421Z" fill="#4AC4C1"/>
<path id="J - 08" d="M423.263 248.421C418.313 248.421 414.263 244.371 414.263 239.421C414.263 234.471 418.313 230.421 423.263 230.421C428.213 230.421 432.263 234.471 432.263 239.421C432.263 244.371 428.213 248.421 423.263 248.421Z" fill="#4AC4C1"/>
<path id="J - 09" d="M448.718 248.421C443.768 248.421 439.718 244.371 439.718 239.421C439.718 234.471 443.768 230.421 448.718 230.421C453.668 230.421 457.718 234.471 457.718 239.421C457.718 244.371 453.668 248.421 448.718 248.421Z" fill="#4AC4C1"/>
<path id="J - 10" d="M474.174 248.421C469.224 248.421 465.174 244.371 465.174 239.421C465.174 234.471 469.224 230.421 474.174 230.421C479.124 230.421 483.174 234.471 483.174 239.421C483.174 244.371 479.124 248.421 474.174 248.421Z" fill="#4AC4C1"/>
<path id="J - 11" d="M499.63 248.421C494.68 248.421 490.63 244.371 490.63 239.421C490.63 234.471 494.68 230.421 499.63 230.421C504.58 230.421 508.63 234.471 508.63 239.421C508.63 244.371 504.58 248.421 499.63 248.421Z" fill="#4AC4C1"/>
<path id="J - 12" d="M525.086 248.421C520.136 248.421 516.086 244.371 516.086 239.421C516.086 234.471 520.136 230.421 525.086 230.421C530.036 230.421 534.086 234.471 534.086 239.421C534.086 244.371 530.036 248.421 525.086 248.421Z" fill="#4AC4C1"/>
<path id="J - 13" d="M550.351 248.421C545.401 248.421 541.351 244.371 541.351 239.421C541.351 234.471 545.401 230.421 550.351 230.421C555.301 230.421 559.351 234.471 559.351 239.421C559.351 244.371 555.301 248.421 550.351 248.421Z" fill="#4AC4C1"/>
<path id="J - 01" d="M207.605 246.711C202.655 246.711 198.605 242.661 198.605 237.711C198.605 232.761 202.655 228.711 207.605 228.711C212.555 228.711 216.605 232.761 216.605 237.711C216.605 242.661 212.555 246.711 207.605 246.711Z" fill="#4AC4C1"/>
<path id="J - 02" d="M233.061 246.711C228.111 246.711 224.061 242.661 224.061 237.711C224.061 232.761 228.111 228.711 233.061 228.711C238.011 228.711 242.061 232.761 242.061 237.711C242.061 242.661 238.011 246.711 233.061 246.711Z" fill="#4AC4C1"/>
<path id="J - 03" d="M258.518 246.711C253.568 246.711 249.518 242.661 249.518 237.711C249.518 232.761 253.568 228.711 258.518 228.711C263.468 228.711 267.518 232.761 267.518 237.711C267.518 242.661 263.468 246.711 258.518 246.711Z" fill="#4AC4C1"/>
<path id="J - 04" d="M283.973 246.711C279.023 246.711 274.973 242.661 274.973 237.711C274.973 232.761 279.023 228.711 283.973 228.711C288.923 228.711 292.973 232.761 292.973 237.711C292.973 242.661 288.923 246.711 283.973 246.711Z" fill="#4AC4C1"/>
<path id="J - 05" d="M309.429 246.711C304.479 246.711 300.429 242.661 300.429 237.711C300.429 232.761 304.479 228.711 309.429 228.711C314.379 228.711 318.429 232.761 318.429 237.711C318.429 242.661 314.379 246.711 309.429 246.711Z" fill="#4AC4C1"/>
<path id="K - 04" d="M372.351 273.421C367.401 273.421 363.351 269.371 363.351 264.421C363.351 259.471 367.401 255.421 372.351 255.421C377.301 255.421 381.351 259.471 381.351 264.421C381.351 269.371 377.301 273.421 372.351 273.421Z" fill="#4AC4C1"/>
<path id="K - 05" d="M397.807 273.421C392.857 273.421 388.807 269.371 388.807 264.421C388.807 259.471 392.857 255.421 397.807 255.421C402.757 255.421 406.807 259.471 406.807 264.421C406.807 269.371 402.757 273.421 397.807 273.421Z" fill="#4AC4C1"/>
<path id="K - 06" d="M423.263 273.421C418.313 273.421 414.263 269.371 414.263 264.421C414.263 259.471 418.313 255.421 423.263 255.421C428.213 255.421 432.263 259.471 432.263 264.421C432.263 269.371 428.213 273.421 423.263 273.421Z" fill="#4AC4C1"/>
<path id="K - 07" d="M448.718 273.421C443.768 273.421 439.718 269.371 439.718 264.421C439.718 259.471 443.768 255.421 448.718 255.421C453.668 255.421 457.718 259.471 457.718 264.421C457.718 269.371 453.668 273.421 448.718 273.421Z" fill="#4AC4C1"/>
<path id="K - 08" d="M474.174 273.421C469.224 273.421 465.174 269.371 465.174 264.421C465.174 259.471 469.224 255.421 474.174 255.421C479.124 255.421 483.174 259.471 483.174 264.421C483.174 269.371 479.124 273.421 474.174 273.421Z" fill="#4AC4C1"/>
<path id="K - 09" d="M499.63 273.421C494.68 273.421 490.63 269.371 490.63 264.421C490.63 259.471 494.68 255.421 499.63 255.421C504.58 255.421 508.63 259.471 508.63 264.421C508.63 269.371 504.58 273.421 499.63 273.421Z" fill="#4AC4C1"/>
<path id="K - 10" d="M525.086 273.421C520.136 273.421 516.086 269.371 516.086 264.421C516.086 259.471 520.136 255.421 525.086 255.421C530.036 255.421 534.086 259.471 534.086 264.421C534.086 269.371 530.036 273.421 525.086 273.421Z" fill="#4AC4C1"/>
<path id="K - 11" d="M550.351 273.421C545.401 273.421 541.351 269.371 541.351 264.421C541.351 259.471 545.401 255.421 550.351 255.421C555.301 255.421 559.351 259.471 559.351 264.421C559.351 269.371 555.301 273.421 550.351 273.421Z" fill="#4AC4C1"/>
<path id="K - 01" d="M258.518 271.711C253.568 271.711 249.518 267.661 249.518 262.711C249.518 257.761 253.568 253.711 258.518 253.711C263.468 253.711 267.518 257.761 267.518 262.711C267.518 267.661 263.468 271.711 258.518 271.711Z" fill="#4AC4C1"/>
<path id="K - 02" d="M283.973 271.711C279.023 271.711 274.973 267.661 274.973 262.711C274.973 257.761 279.023 253.711 283.973 253.711C288.923 253.711 292.973 257.761 292.973 262.711C292.973 267.661 288.923 271.711 283.973 271.711Z" fill="#4AC4C1"/>
<path id="K - 03" d="M309.429 271.711C304.479 271.711 300.429 267.661 300.429 262.711C300.429 257.761 304.479 253.711 309.429 253.711C314.379 253.711 318.429 257.761 318.429 262.711C318.429 267.661 314.379 271.711 309.429 271.711Z" fill="#4AC4C1"/>
<path id="L - 03" d="M372.351 298.421C367.401 298.421 363.351 294.371 363.351 289.421C363.351 284.471 367.401 280.421 372.351 280.421C377.301 280.421 381.351 284.471 381.351 289.421C381.351 294.371 377.301 298.421 372.351 298.421Z" fill="#4AC4C1"/>
<path id="L - 04" d="M397.807 298.421C392.857 298.421 388.807 294.371 388.807 289.421C388.807 284.471 392.857 280.421 397.807 280.421C402.757 280.421 406.807 284.471 406.807 289.421C406.807 294.371 402.757 298.421 397.807 298.421Z" fill="#4AC4C1"/>
<path id="L - 05" d="M423.263 298.421C418.313 298.421 414.263 294.371 414.263 289.421C414.263 284.471 418.313 280.421 423.263 280.421C428.213 280.421 432.263 284.471 432.263 289.421C432.263 294.371 428.213 298.421 423.263 298.421Z" fill="#4AC4C1"/>
<path id="L - 06" d="M448.718 298.421C443.768 298.421 439.718 294.371 439.718 289.421C439.718 284.471 443.768 280.421 448.718 280.421C453.668 280.421 457.718 284.471 457.718 289.421C457.718 294.371 453.668 298.421 448.718 298.421Z" fill="#4AC4C1"/>
<path id="L - 07" d="M474.174 298.421C469.224 298.421 465.174 294.371 465.174 289.421C465.174 284.471 469.224 280.421 474.174 280.421C479.124 280.421 483.174 284.471 483.174 289.421C483.174 294.371 479.124 298.421 474.174 298.421Z" fill="#4AC4C1"/>
<path id="L - 08" d="M499.63 298.421C494.68 298.421 490.63 294.371 490.63 289.421C490.63 284.471 494.68 280.421 499.63 280.421C504.58 280.421 508.63 284.471 508.63 289.421C508.63 294.371 504.58 298.421 499.63 298.421Z" fill="#4AC4C1"/>
<path id="L - 09" d="M525.086 298.421C520.136 298.421 516.086 294.371 516.086 289.421C516.086 284.471 520.136 280.421 525.086 280.421C530.036 280.421 534.086 284.471 534.086 289.421C534.086 294.371 530.036 298.421 525.086 298.421Z" fill="#4AC4C1"/>
<path id="L - 10" d="M550.351 298.421C545.401 298.421 541.351 294.371 541.351 289.421C541.351 284.471 545.401 280.421 550.351 280.421C555.301 280.421 559.351 284.471 559.351 289.421C559.351 294.371 555.301 298.421 550.351 298.421Z" fill="#4AC4C1"/>
<path id="L - 01" d="M283.973 296.711C279.023 296.711 274.973 292.661 274.973 287.711C274.973 282.761 279.023 278.711 283.973 278.711C288.923 278.711 292.973 282.761 292.973 287.711C292.973 292.661 288.923 296.711 283.973 296.711Z" fill="#4AC4C1"/>
<path id="L - 02" d="M309.429 296.711C304.479 296.711 300.429 292.661 300.429 287.711C300.429 282.761 304.479 278.711 309.429 278.711C314.379 278.711 318.429 282.761 318.429 287.711C318.429 292.661 314.379 296.711 309.429 296.711Z" fill="#4AC4C1"/>
<path id="N - 01" d="M372.351 348.711C367.401 348.711 363.351 344.661 363.351 339.711C363.351 334.761 367.401 330.711 372.351 330.711C377.301 330.711 381.351 334.761 381.351 339.711C381.351 344.661 377.301 348.711 372.351 348.711Z" fill="#4AC4C1"/>
<path id="N - 02" d="M397.807 348.711C392.857 348.711 388.807 344.661 388.807 339.711C388.807 334.761 392.857 330.711 397.807 330.711C402.757 330.711 406.807 334.761 406.807 339.711C406.807 344.661 402.757 348.711 397.807 348.711Z" fill="#4AC4C1"/>
<path id="N - 03" d="M423.263 348.711C418.313 348.711 414.263 344.661 414.263 339.711C414.263 334.761 418.313 330.711 423.263 330.711C428.213 330.711 432.263 334.761 432.263 339.711C432.263 344.661 428.213 348.711 423.263 348.711Z" fill="#4AC4C1"/>
<path id="N - 04" d="M448.718 348.711C443.768 348.711 439.718 344.661 439.718 339.711C439.718 334.761 443.768 330.711 448.718 330.711C453.668 330.711 457.718 334.761 457.718 339.711C457.718 344.661 453.668 348.711 448.718 348.711Z" fill="#4AC4C1"/>
<path id="N - 05" d="M474.174 348.711C469.224 348.711 465.174 344.661 465.174 339.711C465.174 334.761 469.224 330.711 474.174 330.711C479.124 330.711 483.174 334.761 483.174 339.711C483.174 344.661 479.124 348.711 474.174 348.711Z" fill="#4AC4C1"/>
<path id="N - 06" d="M499.63 348.711C494.68 348.711 490.63 344.661 490.63 339.711C490.63 334.761 494.68 330.711 499.63 330.711C504.58 330.711 508.63 334.761 508.63 339.711C508.63 344.661 504.58 348.711 499.63 348.711Z" fill="#4AC4C1"/>
<path id="N - 07" d="M525.086 348.711C520.136 348.711 516.086 344.661 516.086 339.711C516.086 334.761 520.136 330.711 525.086 330.711C530.036 330.711 534.086 334.761 534.086 339.711C534.086 344.661 530.036 348.711 525.086 348.711Z" fill="#4AC4C1"/>
<path id="N - 08" d="M550.351 348.711C545.401 348.711 541.351 344.661 541.351 339.711C541.351 334.761 545.401 330.711 550.351 330.711C555.301 330.711 559.351 334.761 559.351 339.711C559.351 344.661 555.301 348.711 550.351 348.711Z" fill="#4AC4C1"/>
<path id="M - 01" d="M372.351 323.421C367.401 323.421 363.351 319.371 363.351 314.421C363.351 309.471 367.401 305.421 372.351 305.421C377.301 305.421 381.351 309.471 381.351 314.421C381.351 319.371 377.301 323.421 372.351 323.421Z" fill="#4AC4C1"/>
<path id="M - 02" d="M397.807 323.421C392.857 323.421 388.807 319.371 388.807 314.421C388.807 309.471 392.857 305.421 397.807 305.421C402.757 305.421 406.807 309.471 406.807 314.421C406.807 319.371 402.757 323.421 397.807 323.421Z" fill="#4AC4C1"/>
<path id="M - 03" d="M423.263 323.421C418.313 323.421 414.263 319.371 414.263 314.421C414.263 309.471 418.313 305.421 423.263 305.421C428.213 305.421 432.263 309.471 432.263 314.421C432.263 319.371 428.213 323.421 423.263 323.421Z" fill="#4AC4C1"/>
<path id="M - 04" d="M448.718 323.421C443.768 323.421 439.718 319.371 439.718 314.421C439.718 309.471 443.768 305.421 448.718 305.421C453.668 305.421 457.718 309.471 457.718 314.421C457.718 319.371 453.668 323.421 448.718 323.421Z" fill="#4AC4C1"/>
<path id="M - 05" d="M474.174 323.421C469.224 323.421 465.174 319.371 465.174 314.421C465.174 309.471 469.224 305.421 474.174 305.421C479.124 305.421 483.174 309.471 483.174 314.421C483.174 319.371 479.124 323.421 474.174 323.421Z" fill="#4AC4C1"/>
<path id="M - 06" d="M499.63 323.421C494.68 323.421 490.63 319.371 490.63 314.421C490.63 309.471 494.68 305.421 499.63 305.421C504.58 305.421 508.63 309.471 508.63 314.421C508.63 319.371 504.58 323.421 499.63 323.421Z" fill="#4AC4C1"/>
<path id="M - 07" d="M525.086 323.421C520.136 323.421 516.086 319.371 516.086 314.421C516.086 309.471 520.136 305.421 525.086 305.421C530.036 305.421 534.086 309.471 534.086 314.421C534.086 319.371 530.036 323.421 525.086 323.421Z" fill="#4AC4C1"/>
<path id="M - 08" d="M550.351 323.421C545.401 323.421 541.351 319.371 541.351 314.421C541.351 309.471 545.401 305.421 550.351 305.421C555.301 305.421 559.351 309.471 559.351 314.421C559.351 319.371 555.301 323.421 550.351 323.421Z" fill="#4AC4C1"/>
<path id="A" d="M3.20561 17H0.404474L4.67259 4.63636H8.04119L12.3033 17H9.50213L6.40519 7.46165H6.30859L3.20561 17ZM3.03054 12.1403H9.64702V14.1808H3.03054V12.1403Z" fill="white"/>
<path id="b" d="M1.07457 43V30.6364H6.02486C6.93442 30.6364 7.69306 30.7712 8.30078 31.0408C8.9085 31.3105 9.36529 31.6848 9.67117 32.1637C9.97704 32.6386 10.13 33.186 10.13 33.8058C10.13 34.2887 10.0334 34.7133 9.8402 35.0795C9.64702 35.4418 9.38139 35.7396 9.04332 35.973C8.70928 36.2024 8.32694 36.3654 7.89631 36.462V36.5827C8.36719 36.6029 8.80788 36.7357 9.2184 36.9812C9.63293 37.2267 9.96899 37.5708 10.2266 38.0135C10.4841 38.4522 10.6129 38.9754 10.6129 39.5831C10.6129 40.2391 10.4499 40.8247 10.1239 41.3398C9.80197 41.851 9.32505 42.2554 8.69318 42.5533C8.06132 42.8511 7.28255 43 6.35689 43H1.07457ZM3.68857 40.8629H5.8196C6.54806 40.8629 7.07931 40.7241 7.41335 40.4464C7.7474 40.1647 7.91442 39.7904 7.91442 39.3235C7.91442 38.9814 7.83191 38.6796 7.6669 38.418C7.50189 38.1564 7.26645 37.9511 6.96058 37.8022C6.65874 37.6533 6.29853 37.5788 5.87997 37.5788H3.68857V40.8629ZM3.68857 35.81H5.62642C5.98461 35.81 6.30256 35.7476 6.58026 35.6229C6.86198 35.4941 7.08333 35.313 7.24432 35.0795C7.40933 34.8461 7.49183 34.5664 7.49183 34.2404C7.49183 33.7937 7.33286 33.4335 7.01492 33.1598C6.70099 32.8861 6.25426 32.7493 5.67472 32.7493H3.68857V35.81Z" fill="white"/>
<path id="b_2" d="M569.075 43V30.6364H574.025C574.934 30.6364 575.693 30.7712 576.301 31.0408C576.908 31.3105 577.365 31.6848 577.671 32.1637C577.977 32.6386 578.13 33.186 578.13 33.8058C578.13 34.2887 578.033 34.7133 577.84 35.0795C577.647 35.4418 577.381 35.7396 577.043 35.973C576.709 36.2024 576.327 36.3654 575.896 36.462V36.5827C576.367 36.6029 576.808 36.7357 577.218 36.9812C577.633 37.2267 577.969 37.5708 578.227 38.0135C578.484 38.4522 578.613 38.9754 578.613 39.5831C578.613 40.2391 578.45 40.8247 578.124 41.3398C577.802 41.851 577.325 42.2554 576.693 42.5533C576.061 42.8511 575.283 43 574.357 43H569.075ZM571.689 40.8629H573.82C574.548 40.8629 575.079 40.7241 575.413 40.4464C575.747 40.1647 575.914 39.7904 575.914 39.3235C575.914 38.9814 575.832 38.6796 575.667 38.418C575.502 38.1564 575.266 37.9511 574.961 37.8022C574.659 37.6533 574.299 37.5788 573.88 37.5788H571.689V40.8629ZM571.689 35.81H573.626C573.985 35.81 574.303 35.7476 574.58 35.6229C574.862 35.4941 575.083 35.313 575.244 35.0795C575.409 34.8461 575.492 34.5664 575.492 34.2404C575.492 33.7937 575.333 33.4335 575.015 33.1598C574.701 32.8861 574.254 32.7493 573.675 32.7493H571.689V35.81Z" fill="white"/>
<path id="b_3" d="M336.075 43V30.6364H341.025C341.934 30.6364 342.693 30.7712 343.301 31.0408C343.908 31.3105 344.365 31.6848 344.671 32.1637C344.977 32.6386 345.13 33.186 345.13 33.8058C345.13 34.2887 345.033 34.7133 344.84 35.0795C344.647 35.4418 344.381 35.7396 344.043 35.973C343.709 36.2024 343.327 36.3654 342.896 36.462V36.5827C343.367 36.6029 343.808 36.7357 344.218 36.9812C344.633 37.2267 344.969 37.5708 345.227 38.0135C345.484 38.4522 345.613 38.9754 345.613 39.5831C345.613 40.2391 345.45 40.8247 345.124 41.3398C344.802 41.851 344.325 42.2554 343.693 42.5533C343.061 42.8511 342.283 43 341.357 43H336.075ZM338.689 40.8629H340.82C341.548 40.8629 342.079 40.7241 342.413 40.4464C342.747 40.1647 342.914 39.7904 342.914 39.3235C342.914 38.9814 342.832 38.6796 342.667 38.418C342.502 38.1564 342.266 37.9511 341.961 37.8022C341.659 37.6533 341.299 37.5788 340.88 37.5788H338.689V40.8629ZM338.689 35.81H340.626C340.985 35.81 341.303 35.7476 341.58 35.6229C341.862 35.4941 342.083 35.313 342.244 35.0795C342.409 34.8461 342.492 34.5664 342.492 34.2404C342.492 33.7937 342.333 33.4335 342.015 33.1598C341.701 32.8861 341.254 32.7493 340.675 32.7493H338.689V35.81Z" fill="white"/>
<path id="c" d="M11.9833 58.9648H9.33913C9.29084 58.6228 9.19224 58.3189 9.04332 58.0533C8.89441 57.7836 8.70324 57.5542 8.46982 57.3651C8.23639 57.1759 7.96674 57.031 7.66087 56.9304C7.35902 56.8298 7.03101 56.7795 6.67685 56.7795C6.03693 56.7795 5.47952 56.9384 5.00462 57.2564C4.52971 57.5703 4.16146 58.0291 3.89986 58.6328C3.63826 59.2325 3.50746 59.9609 3.50746 60.8182C3.50746 61.6996 3.63826 62.4401 3.89986 63.0398C4.16548 63.6394 4.53575 64.0922 5.01065 64.3981C5.48556 64.704 6.03492 64.8569 6.65874 64.8569C7.00888 64.8569 7.33286 64.8106 7.63068 64.718C7.93253 64.6255 8.20017 64.4906 8.43359 64.3136C8.66702 64.1325 8.8602 63.9131 9.01314 63.6555C9.1701 63.398 9.27876 63.1042 9.33913 62.7741L11.9833 62.7862C11.9149 63.3537 11.7438 63.901 11.4702 64.4283C11.2005 64.9515 10.8363 65.4203 10.3775 65.8349C9.9227 66.2454 9.37938 66.5714 8.74751 66.8129C8.11967 67.0503 7.40933 67.169 6.61648 67.169C5.51373 67.169 4.5277 66.9195 3.65838 66.4205C2.79309 65.9214 2.1089 65.199 1.60582 64.2532C1.10677 63.3074 0.857244 62.1624 0.857244 60.8182C0.857244 59.4699 1.1108 58.3229 1.6179 57.3771C2.125 56.4313 2.81321 55.7109 3.68253 55.2159C4.55185 54.7169 5.52983 54.4673 6.61648 54.4673C7.33286 54.4673 7.99692 54.5679 8.60867 54.7692C9.22443 54.9704 9.76977 55.2642 10.2447 55.6506C10.7196 56.0329 11.1059 56.5018 11.4038 57.0572C11.7056 57.6126 11.8988 58.2485 11.9833 58.9648Z" fill="white"/>
<path id="c_2" d="M578.983 58.9648H576.339C576.291 58.6228 576.192 58.3189 576.043 58.0533C575.894 57.7836 575.703 57.5542 575.47 57.3651C575.236 57.1759 574.967 57.031 574.661 56.9304C574.359 56.8298 574.031 56.7795 573.677 56.7795C573.037 56.7795 572.48 56.9384 572.005 57.2564C571.53 57.5703 571.161 58.0291 570.9 58.6328C570.638 59.2325 570.507 59.9609 570.507 60.8182C570.507 61.6996 570.638 62.4401 570.9 63.0398C571.165 63.6394 571.536 64.0922 572.011 64.3981C572.486 64.704 573.035 64.8569 573.659 64.8569C574.009 64.8569 574.333 64.8106 574.631 64.718C574.933 64.6255 575.2 64.4906 575.434 64.3136C575.667 64.1325 575.86 63.9131 576.013 63.6555C576.17 63.398 576.279 63.1042 576.339 62.7741L578.983 62.7862C578.915 63.3537 578.744 63.901 578.47 64.4283C578.201 64.9515 577.836 65.4203 577.377 65.8349C576.923 66.2454 576.379 66.5714 575.748 66.8129C575.12 67.0503 574.409 67.169 573.616 67.169C572.514 67.169 571.528 66.9195 570.658 66.4205C569.793 65.9214 569.109 65.199 568.606 64.2532C568.107 63.3074 567.857 62.1624 567.857 60.8182C567.857 59.4699 568.111 58.3229 568.618 57.3771C569.125 56.4313 569.813 55.7109 570.683 55.2159C571.552 54.7169 572.53 54.4673 573.616 54.4673C574.333 54.4673 574.997 54.5679 575.609 54.7692C576.224 54.9704 576.77 55.2642 577.245 55.6506C577.72 56.0329 578.106 56.5018 578.404 57.0572C578.706 57.6126 578.899 58.2485 578.983 58.9648Z" fill="white"/>
<path id="c_3" d="M345.983 58.9648H343.339C343.291 58.6228 343.192 58.3189 343.043 58.0533C342.894 57.7836 342.703 57.5542 342.47 57.3651C342.236 57.1759 341.967 57.031 341.661 56.9304C341.359 56.8298 341.031 56.7795 340.677 56.7795C340.037 56.7795 339.48 56.9384 339.005 57.2564C338.53 57.5703 338.161 58.0291 337.9 58.6328C337.638 59.2325 337.507 59.9609 337.507 60.8182C337.507 61.6996 337.638 62.4401 337.9 63.0398C338.165 63.6394 338.536 64.0922 339.011 64.3981C339.486 64.704 340.035 64.8569 340.659 64.8569C341.009 64.8569 341.333 64.8106 341.631 64.718C341.933 64.6255 342.2 64.4906 342.434 64.3136C342.667 64.1325 342.86 63.9131 343.013 63.6555C343.17 63.398 343.279 63.1042 343.339 62.7741L345.983 62.7862C345.915 63.3537 345.744 63.901 345.47 64.4283C345.201 64.9515 344.836 65.4203 344.377 65.8349C343.923 66.2454 343.379 66.5714 342.748 66.8129C342.12 67.0503 341.409 67.169 340.616 67.169C339.514 67.169 338.528 66.9195 337.658 66.4205C336.793 65.9214 336.109 65.199 335.606 64.2532C335.107 63.3074 334.857 62.1624 334.857 60.8182C334.857 59.4699 335.111 58.3229 335.618 57.3771C336.125 56.4313 336.813 55.7109 337.683 55.2159C338.552 54.7169 339.53 54.4673 340.616 54.4673C341.333 54.4673 341.997 54.5679 342.609 54.7692C343.224 54.9704 343.77 55.2642 344.245 55.6506C344.72 56.0329 345.106 56.5018 345.404 57.0572C345.706 57.6126 345.899 58.2485 345.983 58.9648Z" fill="white"/>
<path id="d" d="M5.45739 94H1.07457V81.6364H5.49361C6.73722 81.6364 7.80777 81.8839 8.70526 82.3789C9.60275 82.8699 10.293 83.5762 10.7759 84.4979C11.2629 85.4195 11.5064 86.5223 11.5064 87.8061C11.5064 89.094 11.2629 90.2008 10.7759 91.1264C10.293 92.0521 9.59872 92.7624 8.69318 93.2575C7.79167 93.7525 6.71307 94 5.45739 94ZM3.68857 91.7603H5.34872C6.12145 91.7603 6.77143 91.6235 7.29865 91.3498C7.8299 91.0721 8.22834 90.6435 8.49396 90.0639C8.76361 89.4804 8.89844 88.7277 8.89844 87.8061C8.89844 86.8925 8.76361 86.146 8.49396 85.5664C8.22834 84.9869 7.83191 84.5603 7.30469 84.2866C6.77746 84.0129 6.12749 83.8761 5.35476 83.8761H3.68857V91.7603Z" fill="white"/>
<path id="d_2" d="M572.457 94H568.075V81.6364H572.494C573.737 81.6364 574.808 81.8839 575.705 82.3789C576.603 82.8699 577.293 83.5762 577.776 84.4979C578.263 85.4195 578.506 86.5223 578.506 87.8061C578.506 89.094 578.263 90.2008 577.776 91.1264C577.293 92.0521 576.599 92.7624 575.693 93.2575C574.792 93.7525 573.713 94 572.457 94ZM570.689 91.7603H572.349C573.121 91.7603 573.771 91.6235 574.299 91.3498C574.83 91.0721 575.228 90.6435 575.494 90.0639C575.764 89.4804 575.898 88.7277 575.898 87.8061C575.898 86.8925 575.764 86.146 575.494 85.5664C575.228 84.9869 574.832 84.5603 574.305 84.2866C573.777 84.0129 573.127 83.8761 572.355 83.8761H570.689V91.7603Z" fill="white"/>
<path id="d_3" d="M339.457 94H335.075V81.6364H339.494C340.737 81.6364 341.808 81.8839 342.705 82.3789C343.603 82.8699 344.293 83.5762 344.776 84.4979C345.263 85.4195 345.506 86.5223 345.506 87.8061C345.506 89.094 345.263 90.2008 344.776 91.1264C344.293 92.0521 343.599 92.7624 342.693 93.2575C341.792 93.7525 340.713 94 339.457 94ZM337.689 91.7603H339.349C340.121 91.7603 340.771 91.6235 341.299 91.3498C341.83 91.0721 342.228 90.6435 342.494 90.0639C342.764 89.4804 342.898 88.7277 342.898 87.8061C342.898 86.8925 342.764 86.146 342.494 85.5664C342.228 84.9869 341.832 84.5603 341.305 84.2866C340.777 84.0129 340.127 83.8761 339.355 83.8761H337.689V91.7603Z" fill="white"/>
<path id="e" d="M1.07457 119V106.636H9.40554V108.792H3.68857V111.738H8.97692V113.893H3.68857V116.845H9.42969V119H1.07457Z" fill="white"/>
<path id="e_2" d="M569.075 119V106.636H577.406V108.792H571.689V111.738H576.977V113.893H571.689V116.845H577.43V119H569.075Z" fill="white"/>
<path id="e_3" d="M336.075 119V106.636H344.406V108.792H338.689V111.738H343.977V113.893H338.689V116.845H344.43V119H336.075Z" fill="white"/>
<path id="f" d="M1.07457 143V130.636H9.26065V132.792H3.68857V135.738H8.71733V137.893H3.68857V143H1.07457Z" fill="white"/>
<path id="f_2" d="M570.075 143V130.636H578.261V132.792H572.689V135.738H577.717V137.893H572.689V143H570.075Z" fill="white"/>
<path id="f_3" d="M337.075 143V130.636H345.261V132.792H339.689V135.738H344.717V137.893H339.689V143H337.075Z" fill="white"/>
<path id="g" d="M60.2727 159.633C60.1882 159.339 60.0695 159.079 59.9165 158.854C59.7636 158.625 59.5765 158.431 59.3551 158.275C59.1378 158.114 58.8883 157.991 58.6065 157.906C58.3288 157.822 58.021 157.779 57.6829 157.779C57.051 157.779 56.4956 157.936 56.0167 158.25C55.5418 158.564 55.1715 159.021 54.9059 159.621C54.6403 160.216 54.5075 160.945 54.5075 161.806C54.5075 162.667 54.6383 163.4 54.8999 164.004C55.1615 164.607 55.5317 165.068 56.0107 165.386C56.4896 165.7 57.055 165.857 57.707 165.857C58.2987 165.857 58.8037 165.752 59.2223 165.543C59.6449 165.33 59.9669 165.03 60.1882 164.643C60.4136 164.257 60.5263 163.8 60.5263 163.273L61.0575 163.352H57.87V161.384H63.0437V162.941C63.0437 164.028 62.8143 164.961 62.3555 165.742C61.8967 166.519 61.2648 167.119 60.4599 167.541C59.6549 167.96 58.7333 168.169 57.695 168.169C56.5359 168.169 55.5176 167.913 54.6403 167.402C53.7629 166.887 53.0787 166.157 52.5877 165.211C52.1007 164.261 51.8572 163.134 51.8572 161.83C51.8572 160.828 52.0021 159.935 52.2919 159.15C52.5857 158.361 52.9962 157.693 53.5234 157.146C54.0507 156.598 54.6644 156.182 55.3647 155.896C56.065 155.61 56.8236 155.467 57.6406 155.467C58.3409 155.467 58.9929 155.57 59.5966 155.775C60.2003 155.976 60.7356 156.262 61.2024 156.632C61.6733 157.003 62.0576 157.443 62.3555 157.955C62.6533 158.462 62.8445 159.021 62.929 159.633H60.2727Z" fill="white"/>
<path id="g_2" d="M576.273 159.633C576.188 159.339 576.069 159.079 575.917 158.854C575.764 158.625 575.576 158.431 575.355 158.275C575.138 158.114 574.888 157.991 574.607 157.906C574.329 157.822 574.021 157.779 573.683 157.779C573.051 157.779 572.496 157.936 572.017 158.25C571.542 158.564 571.172 159.021 570.906 159.621C570.64 160.216 570.507 160.945 570.507 161.806C570.507 162.667 570.638 163.4 570.9 164.004C571.161 164.607 571.532 165.068 572.011 165.386C572.49 165.7 573.055 165.857 573.707 165.857C574.299 165.857 574.804 165.752 575.222 165.543C575.645 165.33 575.967 165.03 576.188 164.643C576.414 164.257 576.526 163.8 576.526 163.273L577.058 163.352H573.87V161.384H579.044V162.941C579.044 164.028 578.814 164.961 578.355 165.742C577.897 166.519 577.265 167.119 576.46 167.541C575.655 167.96 574.733 168.169 573.695 168.169C572.536 168.169 571.518 167.913 570.64 167.402C569.763 166.887 569.079 166.157 568.588 165.211C568.101 164.261 567.857 163.134 567.857 161.83C567.857 160.828 568.002 159.935 568.292 159.15C568.586 158.361 568.996 157.693 569.523 157.146C570.051 156.598 570.664 156.182 571.365 155.896C572.065 155.61 572.824 155.467 573.641 155.467C574.341 155.467 574.993 155.57 575.597 155.775C576.2 155.976 576.736 156.262 577.202 156.632C577.673 157.003 578.058 157.443 578.355 157.955C578.653 158.462 578.844 159.021 578.929 159.633H576.273Z" fill="white"/>
<path id="g_3" d="M343.273 159.633C343.188 159.339 343.069 159.079 342.917 158.854C342.764 158.625 342.576 158.431 342.355 158.275C342.138 158.114 341.888 157.991 341.607 157.906C341.329 157.822 341.021 157.779 340.683 157.779C340.051 157.779 339.496 157.936 339.017 158.25C338.542 158.564 338.172 159.021 337.906 159.621C337.64 160.216 337.507 160.945 337.507 161.806C337.507 162.667 337.638 163.4 337.9 164.004C338.161 164.607 338.532 165.068 339.011 165.386C339.49 165.7 340.055 165.857 340.707 165.857C341.299 165.857 341.804 165.752 342.222 165.543C342.645 165.33 342.967 165.03 343.188 164.643C343.414 164.257 343.526 163.8 343.526 163.273L344.058 163.352H340.87V161.384H346.044V162.941C346.044 164.028 345.814 164.961 345.355 165.742C344.897 166.519 344.265 167.119 343.46 167.541C342.655 167.96 341.733 168.169 340.695 168.169C339.536 168.169 338.518 167.913 337.64 167.402C336.763 166.887 336.079 166.157 335.588 165.211C335.101 164.261 334.857 163.134 334.857 161.83C334.857 160.828 335.002 159.935 335.292 159.15C335.586 158.361 335.996 157.693 336.523 157.146C337.051 156.598 337.664 156.182 338.365 155.896C339.065 155.61 339.824 155.467 340.641 155.467C341.341 155.467 341.993 155.57 342.597 155.775C343.2 155.976 343.736 156.262 344.202 156.632C344.673 157.003 345.058 157.443 345.355 157.955C345.653 158.462 345.844 159.021 345.929 159.633H343.273Z" fill="white"/>
<path id="h" d="M80.0746 195V182.636H82.6886V187.738H87.995V182.636H90.603V195H87.995V189.893H82.6886V195H80.0746Z" fill="white"/>
<path id="h_2" d="M568.075 195V182.636H570.689V187.738H575.995V182.636H578.603V195H575.995V189.893H570.689V195H568.075Z" fill="white"/>
<path id="h_3" d="M335.075 195V182.636H337.689V187.738H342.995V182.636H345.603V195H342.995V189.893H337.689V195H335.075Z" fill="white"/>
<path id="i" d="M134.689 206.636V219H132.075V206.636H134.689Z" fill="white"/>
<path id="i_2" d="M574.689 206.636V219H572.075V206.636H574.689Z" fill="white"/>
<path id="i_3" d="M341.689 206.636V219H339.075V206.636H341.689Z" fill="white"/>
<path id="j" d="M183.025 232.636H185.609V241.257C185.609 242.054 185.43 242.746 185.071 243.334C184.717 243.921 184.224 244.374 183.592 244.692C182.96 245.01 182.226 245.169 181.389 245.169C180.644 245.169 179.968 245.038 179.36 244.777C178.757 244.511 178.278 244.109 177.924 243.569C177.569 243.026 177.394 242.344 177.398 241.523H180C180.008 241.849 180.075 242.128 180.2 242.362C180.328 242.591 180.503 242.768 180.725 242.893C180.95 243.014 181.216 243.074 181.522 243.074C181.844 243.074 182.115 243.006 182.337 242.869C182.562 242.728 182.733 242.523 182.85 242.253C182.967 241.984 183.025 241.652 183.025 241.257V232.636Z" fill="white"/>
<path id="j_2" d="M575.025 232.636H577.609V241.257C577.609 242.054 577.43 242.746 577.071 243.334C576.717 243.921 576.224 244.374 575.592 244.692C574.96 245.01 574.226 245.169 573.389 245.169C572.644 245.169 571.968 245.038 571.36 244.777C570.757 244.511 570.278 244.109 569.924 243.569C569.569 243.026 569.394 242.344 569.398 241.523H572C572.008 241.849 572.075 242.128 572.2 242.362C572.328 242.591 572.503 242.768 572.725 242.893C572.95 243.014 573.216 243.074 573.522 243.074C573.844 243.074 574.115 243.006 574.337 242.869C574.562 242.728 574.733 242.523 574.85 242.253C574.967 241.984 575.025 241.652 575.025 241.257V232.636Z" fill="white"/>
<path id="j_3" d="M342.025 232.636H344.609V241.257C344.609 242.054 344.43 242.746 344.071 243.334C343.717 243.921 343.224 244.374 342.592 244.692C341.96 245.01 341.226 245.169 340.389 245.169C339.644 245.169 338.968 245.038 338.36 244.777C337.757 244.511 337.278 244.109 336.924 243.569C336.569 243.026 336.394 242.344 336.398 241.523H339C339.008 241.849 339.075 242.128 339.2 242.362C339.328 242.591 339.503 242.768 339.725 242.893C339.95 243.014 340.216 243.074 340.522 243.074C340.844 243.074 341.115 243.006 341.337 242.869C341.562 242.728 341.733 242.523 341.85 242.253C341.967 241.984 342.025 241.652 342.025 241.257V232.636Z" fill="white"/>
<path id="k" d="M230.075 269V256.636H232.689V262.088H232.852L237.301 256.636H240.434L235.846 262.172L240.488 269H237.361L233.974 263.917L232.689 265.487V269H230.075Z" fill="white"/>
<path id="k_2" d="M569.075 269V256.636H571.689V262.088H571.852L576.301 256.636H579.434L574.846 262.172L579.488 269H576.361L572.974 263.917L571.689 265.487V269H569.075Z" fill="white"/>
<path id="k_3" d="M336.075 269V256.636H338.689V262.088H338.852L343.301 256.636H346.434L341.846 262.172L346.488 269H343.361L339.974 263.917L338.689 265.487V269H336.075Z" fill="white"/>
<path id="l" d="M255.075 294V281.636H257.689V291.845H262.989V294H255.075Z" fill="white"/>
<path id="l_2" d="M570.075 294V281.636H572.689V291.845H577.989V294H570.075Z" fill="white"/>
<path id="l_3" d="M337.075 294V281.636H339.689V291.845H344.989V294H337.075Z" fill="white"/>
<path id="m" d="M567.075 307.636H570.298L573.703 315.943H573.848L577.253 307.636H580.477V320H577.941V311.953H577.838L574.639 319.94H572.912L569.713 311.923H569.61V320H567.075V307.636Z" fill="white"/>
<path id="m_2" d="M334.075 307.636H337.298L340.703 315.943H340.848L344.253 307.636H347.477V320H344.941V311.953H344.838L341.639 319.94H339.912L336.713 311.923H336.61V320H334.075V307.636Z" fill="white"/>
<path id="n" d="M578.416 332.636V345H576.158L570.779 337.218H570.689V345H568.075V332.636H570.369L575.705 340.412H575.814V332.636H578.416Z" fill="white"/>
<path id="n_2" d="M345.416 332.636V345H343.158L337.779 337.218H337.689V345H335.075V332.636H337.369L342.705 340.412H342.814V332.636H345.416Z" fill="white"/>
<path id="A_2" d="M254.206 17H251.404L255.673 4.63636H259.041L263.303 17H260.502L257.405 7.46165H257.309L254.206 17ZM254.031 12.1403H260.647V14.1808H254.031V12.1403Z" fill="white"/>
</g>
</svg>
