<svg width="587" height="349" viewBox="0 0 587 349" fill="none" xmlns="http://www.w3.org/2000/svg">
<g id="Sector C">
<path id="A - 09" d="M555.583 1.28931C550.633 1.28931 546.583 5.33931 546.583 10.2893C546.583 15.2393 550.633 19.2893 555.583 19.2893C560.533 19.2893 564.583 15.2393 564.583 10.2893C564.583 5.33931 560.533 1.28931 555.583 1.28931Z" fill="#FF7887"/>
<path id="A - 08" d="M530.127 1.28931C525.177 1.28931 521.127 5.33931 521.127 10.2893C521.127 15.2393 525.177 19.2893 530.127 19.2893C535.077 19.2893 539.127 15.2393 539.127 10.2893C539.127 5.33931 535.077 1.28931 530.127 1.28931Z" fill="#FF7887"/>
<path id="A - 07" d="M504.671 1.28931C499.721 1.28931 495.671 5.33931 495.671 10.2893C495.671 15.2393 499.721 19.2893 504.671 19.2893C509.621 19.2893 513.671 15.2393 513.671 10.2893C513.671 5.33931 509.621 1.28931 504.671 1.28931Z" fill="#FF7887"/>
<path id="A - 06" d="M479.216 1.28931C474.266 1.28931 470.216 5.33931 470.216 10.2893C470.216 15.2393 474.266 19.2893 479.216 19.2893C484.166 19.2893 488.216 15.2393 488.216 10.2893C488.216 5.33931 484.166 1.28931 479.216 1.28931Z" fill="#FF7887"/>
<path id="A - 05" d="M453.76 1.28931C448.81 1.28931 444.76 5.33931 444.76 10.2893C444.76 15.2393 448.81 19.2893 453.76 19.2893C458.71 19.2893 462.76 15.2393 462.76 10.2893C462.76 5.33931 458.71 1.28931 453.76 1.28931Z" fill="#FF7887"/>
<path id="A - 04" d="M428.304 1.28931C423.354 1.28931 419.304 5.33931 419.304 10.2893C419.304 15.2393 423.354 19.2893 428.304 19.2893C433.254 19.2893 437.304 15.2393 437.304 10.2893C437.304 5.33931 433.254 1.28931 428.304 1.28931Z" fill="#FF7887"/>
<path id="A - 03" d="M402.848 1.28931C397.898 1.28931 393.848 5.33931 393.848 10.2893C393.848 15.2393 397.898 19.2893 402.848 19.2893C407.798 19.2893 411.848 15.2393 411.848 10.2893C411.848 5.33931 407.798 1.28931 402.848 1.28931Z" fill="#FF7887"/>
<path id="A - 02" d="M377.392 1.28931C372.442 1.28931 368.392 5.33931 368.392 10.2893C368.392 15.2393 372.442 19.2893 377.392 19.2893C382.342 19.2893 386.392 15.2393 386.392 10.2893C386.392 5.33931 382.342 1.28931 377.392 1.28931Z" fill="#FF7887"/>
<path id="A - 01" d="M351.937 1.28931C346.987 1.28931 342.937 5.33931 342.937 10.2893C342.937 15.2393 346.987 19.2893 351.937 19.2893C356.887 19.2893 360.937 15.2393 360.937 10.2893C360.937 5.33931 356.887 1.28931 351.937 1.28931Z" fill="#FF7887"/>
<path id="B - 08" d="M212.19 28C207.24 28 203.19 32.05 203.19 37C203.19 41.95 207.24 46 212.19 46C217.14 46 221.19 41.95 221.19 37C221.19 32.05 217.14 28 212.19 28Z" fill="#FF7887"/>
<path id="B - 07" d="M186.734 28C181.784 28 177.734 32.05 177.734 37C177.734 41.95 181.784 46 186.734 46C191.684 46 195.734 41.95 195.734 37C195.734 32.05 191.684 28 186.734 28Z" fill="#FF7887"/>
<path id="B - 06" d="M161.279 28C156.329 28 152.279 32.05 152.279 37C152.279 41.95 156.329 46 161.279 46C166.229 46 170.279 41.95 170.279 37C170.279 32.05 166.229 28 161.279 28Z" fill="#FF7887"/>
<path id="B - 05" d="M135.823 28C130.873 28 126.823 32.05 126.823 37C126.823 41.95 130.873 46 135.823 46C140.773 46 144.823 41.95 144.823 37C144.823 32.05 140.773 28 135.823 28Z" fill="#FF7887"/>
<path id="B - 04" d="M110.367 28C105.417 28 101.367 32.05 101.367 37C101.367 41.95 105.417 46 110.367 46C115.317 46 119.367 41.95 119.367 37C119.367 32.05 115.317 28 110.367 28Z" fill="#FF7887"/>
<path id="B - 03" d="M84.9111 28C79.9611 28 75.9111 32.05 75.9111 37C75.9111 41.95 79.9611 46 84.9111 46C89.8611 46 93.9111 41.95 93.9111 37C93.9111 32.05 89.8611 28 84.9111 28Z" fill="#FF7887"/>
<path id="B - 02" d="M59.4551 28C54.5051 28 50.4551 32.05 50.4551 37C50.4551 41.95 54.5051 46 59.4551 46C64.4051 46 68.4551 41.95 68.4551 37C68.4551 32.05 64.4051 28 59.4551 28Z" fill="#FF7887"/>
<path id="B - 01" d="M34 28C29.05 28 25 32.05 25 37C25 41.95 29.05 46 34 46C38.95 46 43 41.95 43 37C43 32.05 38.95 28 34 28Z" fill="#FF7887"/>
<path id="B - 20" d="M556.997 28.1594C552.047 28.1594 547.997 32.2094 547.997 37.1594C547.997 42.1094 552.047 46.1594 556.997 46.1594C561.947 46.1594 565.997 42.1094 565.997 37.1594C565.997 32.2094 561.947 28.1594 556.997 28.1594Z" fill="#FF7887"/>
<path id="B - 19" d="M531.541 28.1594C526.591 28.1594 522.541 32.2094 522.541 37.1594C522.541 42.1094 526.591 46.1594 531.541 46.1594C536.491 46.1594 540.541 42.1094 540.541 37.1594C540.541 32.2094 536.491 28.1594 531.541 28.1594Z" fill="#FF7887"/>
<path id="B - 18" d="M506.086 28.1594C501.136 28.1594 497.086 32.2094 497.086 37.1594C497.086 42.1094 501.136 46.1594 506.086 46.1594C511.036 46.1594 515.086 42.1094 515.086 37.1594C515.086 32.2094 511.036 28.1594 506.086 28.1594Z" fill="#FF7887"/>
<path id="B - 17" d="M480.63 28.1594C475.68 28.1594 471.63 32.2094 471.63 37.1594C471.63 42.1094 475.68 46.1594 480.63 46.1594C485.58 46.1594 489.63 42.1094 489.63 37.1594C489.63 32.2094 485.58 28.1594 480.63 28.1594Z" fill="#FF7887"/>
<path id="B - 16" d="M455.174 28.1594C450.224 28.1594 446.174 32.2094 446.174 37.1594C446.174 42.1094 450.224 46.1594 455.174 46.1594C460.124 46.1594 464.174 42.1094 464.174 37.1594C464.174 32.2094 460.124 28.1594 455.174 28.1594Z" fill="#FF7887"/>
<path id="B - 15" d="M429.718 28.1594C424.768 28.1594 420.718 32.2094 420.718 37.1594C420.718 42.1094 424.768 46.1594 429.718 46.1594C434.668 46.1594 438.718 42.1094 438.718 37.1594C438.718 32.2094 434.668 28.1594 429.718 28.1594Z" fill="#FF7887"/>
<path id="B - 14" d="M404.262 28.1594C399.312 28.1594 395.262 32.2094 395.262 37.1594C395.262 42.1094 399.312 46.1594 404.262 46.1594C409.212 46.1594 413.262 42.1094 413.262 37.1594C413.262 32.2094 409.212 28.1594 404.262 28.1594Z" fill="#FF7887"/>
<path id="B - 13" d="M378.807 28.1594C373.857 28.1594 369.807 32.2094 369.807 37.1594C369.807 42.1094 373.857 46.1594 378.807 46.1594C383.757 46.1594 387.807 42.1094 387.807 37.1594C387.807 32.2094 383.757 28.1594 378.807 28.1594Z" fill="#FF7887"/>
<path id="B - 12" d="M353.351 28.1594C348.401 28.1594 344.351 32.2094 344.351 37.1594C344.351 42.1094 348.401 46.1594 353.351 46.1594C358.301 46.1594 362.351 42.1094 362.351 37.1594C362.351 32.2094 358.301 28.1594 353.351 28.1594Z" fill="#FF7887"/>
<path id="B - 11" d="M327.894 28.1594C322.944 28.1594 318.894 32.2094 318.894 37.1594C318.894 42.1094 322.944 46.1594 327.894 46.1594C332.844 46.1594 336.894 42.1094 336.894 37.1594C336.894 32.2094 332.844 28.1594 327.894 28.1594Z" fill="#FF7887"/>
<path id="B - 10" d="M302.438 28.1594C297.488 28.1594 293.438 32.2094 293.438 37.1594C293.438 42.1094 297.488 46.1594 302.438 46.1594C307.388 46.1594 311.438 42.1094 311.438 37.1594C311.438 32.2094 307.388 28.1594 302.438 28.1594Z" fill="#FF7887"/>
<path id="B - 09" d="M276.982 28.1594C272.032 28.1594 267.982 32.2094 267.982 37.1594C267.982 42.1094 272.032 46.1594 276.982 46.1594C281.932 46.1594 285.982 42.1094 285.982 37.1594C285.982 32.2094 281.932 28.1594 276.982 28.1594Z" fill="#FF7887"/>
<path id="C - 08" d="M212.646 54.8701C207.696 54.8701 203.646 58.9201 203.646 63.8701C203.646 68.8201 207.696 72.8701 212.646 72.8701C217.596 72.8701 221.646 68.8201 221.646 63.8701C221.646 58.9201 217.596 54.8701 212.646 54.8701Z" fill="#FF7887"/>
<path id="C - 07" d="M187.19 54.8701C182.24 54.8701 178.19 58.9201 178.19 63.8701C178.19 68.8201 182.24 72.8701 187.19 72.8701C192.14 72.8701 196.19 68.8201 196.19 63.8701C196.19 58.9201 192.14 54.8701 187.19 54.8701Z" fill="#FF7887"/>
<path id="C - 06" d="M161.735 54.8701C156.785 54.8701 152.735 58.9201 152.735 63.8701C152.735 68.8201 156.785 72.8701 161.735 72.8701C166.685 72.8701 170.735 68.8201 170.735 63.8701C170.735 58.9201 166.685 54.8701 161.735 54.8701Z" fill="#FF7887"/>
<path id="C - 05" d="M136.279 54.8701C131.329 54.8701 127.279 58.9201 127.279 63.8701C127.279 68.8201 131.329 72.8701 136.279 72.8701C141.229 72.8701 145.279 68.8201 145.279 63.8701C145.279 58.9201 141.229 54.8701 136.279 54.8701Z" fill="#FF7887"/>
<path id="C - 04" d="M110.823 54.8701C105.873 54.8701 101.823 58.9201 101.823 63.8701C101.823 68.8201 105.873 72.8701 110.823 72.8701C115.773 72.8701 119.823 68.8201 119.823 63.8701C119.823 58.9201 115.773 54.8701 110.823 54.8701Z" fill="#FF7887"/>
<path id="C - 03" d="M85.3672 54.8701C80.4172 54.8701 76.3672 58.9201 76.3672 63.8701C76.3672 68.8201 80.4172 72.8701 85.3672 72.8701C90.3172 72.8701 94.3672 68.8201 94.3672 63.8701C94.3672 58.9201 90.3172 54.8701 85.3672 54.8701Z" fill="#FF7887"/>
<path id="C - 02" d="M59.9111 54.8701C54.9611 54.8701 50.9111 58.9201 50.9111 63.8701C50.9111 68.8201 54.9611 72.8701 59.9111 72.8701C64.8611 72.8701 68.9111 68.8201 68.9111 63.8701C68.9111 58.9201 64.8611 54.8701 59.9111 54.8701Z" fill="#FF7887"/>
<path id="C - 01" d="M34.4561 54.8701C29.5061 54.8701 25.4561 58.9201 25.4561 63.8701C25.4561 68.8201 29.5061 72.8701 34.4561 72.8701C39.4061 72.8701 43.4561 68.8201 43.4561 63.8701C43.4561 58.9201 39.4061 54.8701 34.4561 54.8701Z" fill="#FF7887"/>
<path id="C - 20" d="M556.997 53.6152C552.047 53.6152 547.997 57.6652 547.997 62.6152C547.997 67.5652 552.047 71.6152 556.997 71.6152C561.947 71.6152 565.997 67.5652 565.997 62.6152C565.997 57.6652 561.947 53.6152 556.997 53.6152Z" fill="#FF7887"/>
<path id="C - 19" d="M531.541 53.6152C526.591 53.6152 522.541 57.6652 522.541 62.6152C522.541 67.5652 526.591 71.6152 531.541 71.6152C536.491 71.6152 540.541 67.5652 540.541 62.6152C540.541 57.6652 536.491 53.6152 531.541 53.6152Z" fill="#FF7887"/>
<path id="C - 18" d="M506.086 53.6152C501.136 53.6152 497.086 57.6652 497.086 62.6152C497.086 67.5652 501.136 71.6152 506.086 71.6152C511.036 71.6152 515.086 67.5652 515.086 62.6152C515.086 57.6652 511.036 53.6152 506.086 53.6152Z" fill="#FF7887"/>
<path id="C - 17" d="M480.63 53.6152C475.68 53.6152 471.63 57.6652 471.63 62.6152C471.63 67.5652 475.68 71.6152 480.63 71.6152C485.58 71.6152 489.63 67.5652 489.63 62.6152C489.63 57.6652 485.58 53.6152 480.63 53.6152Z" fill="#FF7887"/>
<path id="C - 16" d="M455.174 53.6152C450.224 53.6152 446.174 57.6652 446.174 62.6152C446.174 67.5652 450.224 71.6152 455.174 71.6152C460.124 71.6152 464.174 67.5652 464.174 62.6152C464.174 57.6652 460.124 53.6152 455.174 53.6152Z" fill="#FF7887"/>
<path id="C - 15" d="M429.718 53.6152C424.768 53.6152 420.718 57.6652 420.718 62.6152C420.718 67.5652 424.768 71.6152 429.718 71.6152C434.668 71.6152 438.718 67.5652 438.718 62.6152C438.718 57.6652 434.668 53.6152 429.718 53.6152Z" fill="#FF7887"/>
<path id="C - 14" d="M404.262 53.6152C399.312 53.6152 395.262 57.6652 395.262 62.6152C395.262 67.5652 399.312 71.6152 404.262 71.6152C409.212 71.6152 413.262 67.5652 413.262 62.6152C413.262 57.6652 409.212 53.6152 404.262 53.6152Z" fill="#FF7887"/>
<path id="C - 13" d="M378.807 53.6152C373.857 53.6152 369.807 57.6652 369.807 62.6152C369.807 67.5652 373.857 71.6152 378.807 71.6152C383.757 71.6152 387.807 67.5652 387.807 62.6152C387.807 57.6652 383.757 53.6152 378.807 53.6152Z" fill="#FF7887"/>
<path id="C - 12" d="M353.351 53.6152C348.401 53.6152 344.351 57.6652 344.351 62.6152C344.351 67.5652 348.401 71.6152 353.351 71.6152C358.301 71.6152 362.351 67.5652 362.351 62.6152C362.351 57.6652 358.301 53.6152 353.351 53.6152Z" fill="#FF7887"/>
<path id="C - 11" d="M327.894 53.6152C322.944 53.6152 318.894 57.6652 318.894 62.6152C318.894 67.5652 322.944 71.6152 327.894 71.6152C332.844 71.6152 336.894 67.5652 336.894 62.6152C336.894 57.6652 332.844 53.6152 327.894 53.6152Z" fill="#FF7887"/>
<path id="C - 10" d="M302.438 53.6152C297.488 53.6152 293.438 57.6652 293.438 62.6152C293.438 67.5652 297.488 71.6152 302.438 71.6152C307.388 71.6152 311.438 67.5652 311.438 62.6152C311.438 57.6652 307.388 53.6152 302.438 53.6152Z" fill="#FF7887"/>
<path id="C - 09" d="M276.982 53.6152C272.032 53.6152 267.982 57.6652 267.982 62.6152C267.982 67.5652 272.032 71.6152 276.982 71.6152C281.932 71.6152 285.982 67.5652 285.982 62.6152C285.982 57.6652 281.932 53.6152 276.982 53.6152Z" fill="#FF7887"/>
<path id="D - 08" d="M212.646 80.3259C207.696 80.3259 203.646 84.3759 203.646 89.3259C203.646 94.2759 207.696 98.3259 212.646 98.3259C217.596 98.3259 221.646 94.2759 221.646 89.3259C221.646 84.3759 217.596 80.3259 212.646 80.3259Z" fill="#FF7887"/>
<path id="D - 07" d="M187.19 80.3259C182.24 80.3259 178.19 84.3759 178.19 89.3259C178.19 94.2759 182.24 98.3259 187.19 98.3259C192.14 98.3259 196.19 94.2759 196.19 89.3259C196.19 84.3759 192.14 80.3259 187.19 80.3259Z" fill="#FF7887"/>
<path id="D - 06" d="M161.735 80.3259C156.785 80.3259 152.735 84.3759 152.735 89.3259C152.735 94.2759 156.785 98.3259 161.735 98.3259C166.685 98.3259 170.735 94.2759 170.735 89.3259C170.735 84.3759 166.685 80.3259 161.735 80.3259Z" fill="#FF7887"/>
<path id="D - 05" d="M136.279 80.3259C131.329 80.3259 127.279 84.3759 127.279 89.3259C127.279 94.2759 131.329 98.3259 136.279 98.3259C141.229 98.3259 145.279 94.2759 145.279 89.3259C145.279 84.3759 141.229 80.3259 136.279 80.3259Z" fill="#FF7887"/>
<path id="D - 04" d="M110.823 80.3259C105.873 80.3259 101.823 84.3759 101.823 89.3259C101.823 94.2759 105.873 98.3259 110.823 98.3259C115.773 98.3259 119.823 94.2759 119.823 89.3259C119.823 84.3759 115.773 80.3259 110.823 80.3259Z" fill="#FF7887"/>
<path id="D - 03" d="M85.3672 80.3259C80.4172 80.3259 76.3672 84.3759 76.3672 89.3259C76.3672 94.2759 80.4172 98.3259 85.3672 98.3259C90.3172 98.3259 94.3672 94.2759 94.3672 89.3259C94.3672 84.3759 90.3172 80.3259 85.3672 80.3259Z" fill="#FF7887"/>
<path id="D - 02" d="M59.9111 80.3259C54.9611 80.3259 50.9111 84.3759 50.9111 89.3259C50.9111 94.2759 54.9611 98.3259 59.9111 98.3259C64.8611 98.3259 68.9111 94.2759 68.9111 89.3259C68.9111 84.3759 64.8611 80.3259 59.9111 80.3259Z" fill="#FF7887"/>
<path id="D - 01" d="M34.4561 80.3259C29.5061 80.3259 25.4561 84.3759 25.4561 89.3259C25.4561 94.2759 29.5061 98.3259 34.4561 98.3259C39.4061 98.3259 43.4561 94.2759 43.4561 89.3259C43.4561 84.3759 39.4061 80.3259 34.4561 80.3259Z" fill="#FF7887"/>
<path id="D - 20" d="M556.997 79.071C552.047 79.071 547.997 83.121 547.997 88.071C547.997 93.021 552.047 97.071 556.997 97.071C561.947 97.071 565.997 93.021 565.997 88.071C565.997 83.121 561.947 79.071 556.997 79.071Z" fill="#FF7887"/>
<path id="D - 19" d="M531.541 79.071C526.591 79.071 522.541 83.121 522.541 88.071C522.541 93.021 526.591 97.071 531.541 97.071C536.491 97.071 540.541 93.021 540.541 88.071C540.541 83.121 536.491 79.071 531.541 79.071Z" fill="#FF7887"/>
<path id="D - 18" d="M506.086 79.071C501.136 79.071 497.086 83.121 497.086 88.071C497.086 93.021 501.136 97.071 506.086 97.071C511.036 97.071 515.086 93.021 515.086 88.071C515.086 83.121 511.036 79.071 506.086 79.071Z" fill="#FF7887"/>
<path id="D - 17" d="M480.63 79.071C475.68 79.071 471.63 83.121 471.63 88.071C471.63 93.021 475.68 97.071 480.63 97.071C485.58 97.071 489.63 93.021 489.63 88.071C489.63 83.121 485.58 79.071 480.63 79.071Z" fill="#FF7887"/>
<path id="D - 16" d="M455.174 79.071C450.224 79.071 446.174 83.121 446.174 88.071C446.174 93.021 450.224 97.071 455.174 97.071C460.124 97.071 464.174 93.021 464.174 88.071C464.174 83.121 460.124 79.071 455.174 79.071Z" fill="#FF7887"/>
<path id="D - 15" d="M429.718 79.071C424.768 79.071 420.718 83.121 420.718 88.071C420.718 93.021 424.768 97.071 429.718 97.071C434.668 97.071 438.718 93.021 438.718 88.071C438.718 83.121 434.668 79.071 429.718 79.071Z" fill="#FF7887"/>
<path id="D - 14" d="M404.262 79.071C399.312 79.071 395.262 83.121 395.262 88.071C395.262 93.021 399.312 97.071 404.262 97.071C409.212 97.071 413.262 93.021 413.262 88.071C413.262 83.121 409.212 79.071 404.262 79.071Z" fill="#FF7887"/>
<path id="D - 13" d="M378.807 79.071C373.857 79.071 369.807 83.121 369.807 88.071C369.807 93.021 373.857 97.071 378.807 97.071C383.757 97.071 387.807 93.021 387.807 88.071C387.807 83.121 383.757 79.071 378.807 79.071Z" fill="#FF7887"/>
<path id="D - 12" d="M353.351 79.071C348.401 79.071 344.351 83.121 344.351 88.071C344.351 93.021 348.401 97.071 353.351 97.071C358.301 97.071 362.351 93.021 362.351 88.071C362.351 83.121 358.301 79.071 353.351 79.071Z" fill="#FF7887"/>
<path id="D - 11" d="M327.894 79.071C322.944 79.071 318.894 83.121 318.894 88.071C318.894 93.021 322.944 97.071 327.894 97.071C332.844 97.071 336.894 93.021 336.894 88.071C336.894 83.121 332.844 79.071 327.894 79.071Z" fill="#FF7887"/>
<path id="D - 10" d="M302.438 79.071C297.488 79.071 293.438 83.121 293.438 88.071C293.438 93.021 297.488 97.071 302.438 97.071C307.388 97.071 311.438 93.021 311.438 88.071C311.438 83.121 307.388 79.071 302.438 79.071Z" fill="#FF7887"/>
<path id="D - 09" d="M276.982 79.071C272.032 79.071 267.982 83.121 267.982 88.071C267.982 93.021 272.032 97.071 276.982 97.071C281.932 97.071 285.982 93.021 285.982 88.071C285.982 83.121 281.932 79.071 276.982 79.071Z" fill="#FF7887"/>
<path id="E - 08" d="M212.646 105.782C207.696 105.782 203.646 109.832 203.646 114.782C203.646 119.732 207.696 123.782 212.646 123.782C217.596 123.782 221.646 119.732 221.646 114.782C221.646 109.832 217.596 105.782 212.646 105.782Z" fill="#FF7887"/>
<path id="E - 07" d="M187.19 105.782C182.24 105.782 178.19 109.832 178.19 114.782C178.19 119.732 182.24 123.782 187.19 123.782C192.14 123.782 196.19 119.732 196.19 114.782C196.19 109.832 192.14 105.782 187.19 105.782Z" fill="#FF7887"/>
<path id="E - 06" d="M161.735 105.782C156.785 105.782 152.735 109.832 152.735 114.782C152.735 119.732 156.785 123.782 161.735 123.782C166.685 123.782 170.735 119.732 170.735 114.782C170.735 109.832 166.685 105.782 161.735 105.782Z" fill="#FF7887"/>
<path id="E - 05" d="M136.279 105.782C131.329 105.782 127.279 109.832 127.279 114.782C127.279 119.732 131.329 123.782 136.279 123.782C141.229 123.782 145.279 119.732 145.279 114.782C145.279 109.832 141.229 105.782 136.279 105.782Z" fill="#FF7887"/>
<path id="E - 04" d="M110.823 105.782C105.873 105.782 101.823 109.832 101.823 114.782C101.823 119.732 105.873 123.782 110.823 123.782C115.773 123.782 119.823 119.732 119.823 114.782C119.823 109.832 115.773 105.782 110.823 105.782Z" fill="#FF7887"/>
<path id="E - 03" d="M85.3672 105.782C80.4172 105.782 76.3672 109.832 76.3672 114.782C76.3672 119.732 80.4172 123.782 85.3672 123.782C90.3172 123.782 94.3672 119.732 94.3672 114.782C94.3672 109.832 90.3172 105.782 85.3672 105.782Z" fill="#FF7887"/>
<path id="E - 02" d="M59.9111 105.782C54.9611 105.782 50.9111 109.832 50.9111 114.782C50.9111 119.732 54.9611 123.782 59.9111 123.782C64.8611 123.782 68.9111 119.732 68.9111 114.782C68.9111 109.832 64.8611 105.782 59.9111 105.782Z" fill="#FF7887"/>
<path id="E - 01" d="M34.4561 105.782C29.5061 105.782 25.4561 109.832 25.4561 114.782C25.4561 119.732 29.5061 123.782 34.4561 123.782C39.4061 123.782 43.4561 119.732 43.4561 114.782C43.4561 109.832 39.4061 105.782 34.4561 105.782Z" fill="#FF7887"/>
<path id="F - 08" d="M212.646 129.823C207.696 129.823 203.646 133.873 203.646 138.823C203.646 143.773 207.696 147.823 212.646 147.823C217.596 147.823 221.646 143.773 221.646 138.823C221.646 133.873 217.596 129.823 212.646 129.823Z" fill="#FF7887"/>
<path id="F - 07" d="M187.19 129.823C182.24 129.823 178.19 133.873 178.19 138.823C178.19 143.773 182.24 147.823 187.19 147.823C192.14 147.823 196.19 143.773 196.19 138.823C196.19 133.873 192.14 129.823 187.19 129.823Z" fill="#FF7887"/>
<path id="F - 06" d="M161.734 129.823C156.784 129.823 152.734 133.873 152.734 138.823C152.734 143.773 156.784 147.823 161.734 147.823C166.684 147.823 170.734 143.773 170.734 138.823C170.734 133.873 166.684 129.823 161.734 129.823Z" fill="#FF7887"/>
<path id="F - 05" d="M136.279 129.823C131.329 129.823 127.279 133.873 127.279 138.823C127.279 143.773 131.329 147.823 136.279 147.823C141.229 147.823 145.279 143.773 145.279 138.823C145.279 133.873 141.229 129.823 136.279 129.823Z" fill="#FF7887"/>
<path id="F - 04" d="M110.823 129.823C105.873 129.823 101.823 133.873 101.823 138.823C101.823 143.773 105.873 147.823 110.823 147.823C115.773 147.823 119.823 143.773 119.823 138.823C119.823 133.873 115.773 129.823 110.823 129.823Z" fill="#FF7887"/>
<path id="F - 03" d="M85.3672 129.823C80.4172 129.823 76.3672 133.873 76.3672 138.823C76.3672 143.773 80.4172 147.823 85.3672 147.823C90.3172 147.823 94.3672 143.773 94.3672 138.823C94.3672 133.873 90.3172 129.823 85.3672 129.823Z" fill="#FF7887"/>
<path id="F - 02" d="M59.9111 129.823C54.9611 129.823 50.9111 133.873 50.9111 138.823C50.9111 143.773 54.9611 147.823 59.9111 147.823C64.8611 147.823 68.9111 143.773 68.9111 138.823C68.9111 133.873 64.8611 129.823 59.9111 129.823Z" fill="#FF7887"/>
<path id="F - 01" d="M34.4551 129.823C29.5051 129.823 25.4551 133.873 25.4551 138.823C25.4551 143.773 29.5051 147.823 34.4551 147.823C39.4051 147.823 43.4551 143.773 43.4551 138.823C43.4551 133.873 39.4051 129.823 34.4551 129.823Z" fill="#FF7887"/>
<path id="E - 20" d="M555.583 103.113C550.633 103.113 546.583 107.163 546.583 112.113C546.583 117.063 550.633 121.113 555.583 121.113C560.533 121.113 564.583 117.063 564.583 112.113C564.583 107.163 560.533 103.113 555.583 103.113Z" fill="#FF7887"/>
<path id="E - 19" d="M530.127 103.113C525.177 103.113 521.127 107.163 521.127 112.113C521.127 117.063 525.177 121.113 530.127 121.113C535.077 121.113 539.127 117.063 539.127 112.113C539.127 107.163 535.077 103.113 530.127 103.113Z" fill="#FF7887"/>
<path id="E - 18" d="M504.671 103.113C499.721 103.113 495.671 107.163 495.671 112.113C495.671 117.063 499.721 121.113 504.671 121.113C509.621 121.113 513.671 117.063 513.671 112.113C513.671 107.163 509.621 103.113 504.671 103.113Z" fill="#FF7887"/>
<path id="E - 17" d="M479.216 103.113C474.266 103.113 470.216 107.163 470.216 112.113C470.216 117.063 474.266 121.113 479.216 121.113C484.166 121.113 488.216 117.063 488.216 112.113C488.216 107.163 484.166 103.113 479.216 103.113Z" fill="#FF7887"/>
<path id="E - 16" d="M453.76 103.113C448.81 103.113 444.76 107.163 444.76 112.113C444.76 117.063 448.81 121.113 453.76 121.113C458.71 121.113 462.76 117.063 462.76 112.113C462.76 107.163 458.71 103.113 453.76 103.113Z" fill="#FF7887"/>
<path id="E - 15" d="M428.304 103.113C423.354 103.113 419.304 107.163 419.304 112.113C419.304 117.063 423.354 121.113 428.304 121.113C433.254 121.113 437.304 117.063 437.304 112.113C437.304 107.163 433.254 103.113 428.304 103.113Z" fill="#FF7887"/>
<path id="E - 14" d="M402.848 103.113C397.898 103.113 393.848 107.163 393.848 112.113C393.848 117.063 397.898 121.113 402.848 121.113C407.798 121.113 411.848 117.063 411.848 112.113C411.848 107.163 407.798 103.113 402.848 103.113Z" fill="#FF7887"/>
<path id="E - 13" d="M377.392 103.113C372.442 103.113 368.392 107.163 368.392 112.113C368.392 117.063 372.442 121.113 377.392 121.113C382.342 121.113 386.392 117.063 386.392 112.113C386.392 107.163 382.342 103.113 377.392 103.113Z" fill="#FF7887"/>
<path id="E - 12" d="M351.937 103.113C346.987 103.113 342.937 107.163 342.937 112.113C342.937 117.063 346.987 121.113 351.937 121.113C356.887 121.113 360.937 117.063 360.937 112.113C360.937 107.163 356.887 103.113 351.937 103.113Z" fill="#FF7887"/>
<path id="E - 11" d="M326.48 103.113C321.53 103.113 317.48 107.163 317.48 112.113C317.48 117.063 321.53 121.113 326.48 121.113C331.43 121.113 335.48 117.063 335.48 112.113C335.48 107.163 331.43 103.113 326.48 103.113Z" fill="#FF7887"/>
<path id="E - 10" d="M301.024 103.113C296.074 103.113 292.024 107.163 292.024 112.113C292.024 117.063 296.074 121.113 301.024 121.113C305.974 121.113 310.024 117.063 310.024 112.113C310.024 107.163 305.974 103.113 301.024 103.113Z" fill="#FF7887"/>
<path id="E - 09" d="M275.568 103.113C270.618 103.113 266.568 107.163 266.568 112.113C266.568 117.063 270.618 121.113 275.568 121.113C280.518 121.113 284.568 117.063 284.568 112.113C284.568 107.163 280.518 103.113 275.568 103.113Z" fill="#FF7887"/>
<path id="F - 20" d="M555.583 128.569C550.633 128.569 546.583 132.619 546.583 137.569C546.583 142.519 550.633 146.569 555.583 146.569C560.533 146.569 564.583 142.519 564.583 137.569C564.583 132.619 560.533 128.569 555.583 128.569Z" fill="#FF7887"/>
<path id="F - 19" d="M530.127 128.569C525.177 128.569 521.127 132.619 521.127 137.569C521.127 142.519 525.177 146.569 530.127 146.569C535.077 146.569 539.127 142.519 539.127 137.569C539.127 132.619 535.077 128.569 530.127 128.569Z" fill="#FF7887"/>
<path id="F - 18" d="M504.671 128.569C499.721 128.569 495.671 132.619 495.671 137.569C495.671 142.519 499.721 146.569 504.671 146.569C509.621 146.569 513.671 142.519 513.671 137.569C513.671 132.619 509.621 128.569 504.671 128.569Z" fill="#FF7887"/>
<path id="F - 17" d="M479.216 128.569C474.266 128.569 470.216 132.619 470.216 137.569C470.216 142.519 474.266 146.569 479.216 146.569C484.166 146.569 488.216 142.519 488.216 137.569C488.216 132.619 484.166 128.569 479.216 128.569Z" fill="#FF7887"/>
<path id="F - 16" d="M453.76 128.569C448.81 128.569 444.76 132.619 444.76 137.569C444.76 142.519 448.81 146.569 453.76 146.569C458.71 146.569 462.76 142.519 462.76 137.569C462.76 132.619 458.71 128.569 453.76 128.569Z" fill="#FF7887"/>
<path id="F - 15" d="M428.304 128.569C423.354 128.569 419.304 132.619 419.304 137.569C419.304 142.519 423.354 146.569 428.304 146.569C433.254 146.569 437.304 142.519 437.304 137.569C437.304 132.619 433.254 128.569 428.304 128.569Z" fill="#FF7887"/>
<path id="F - 14" d="M402.848 128.569C397.898 128.569 393.848 132.619 393.848 137.569C393.848 142.519 397.898 146.569 402.848 146.569C407.798 146.569 411.848 142.519 411.848 137.569C411.848 132.619 407.798 128.569 402.848 128.569Z" fill="#FF7887"/>
<path id="F - 13" d="M377.392 128.569C372.442 128.569 368.392 132.619 368.392 137.569C368.392 142.519 372.442 146.569 377.392 146.569C382.342 146.569 386.392 142.519 386.392 137.569C386.392 132.619 382.342 128.569 377.392 128.569Z" fill="#FF7887"/>
<path id="F - 12" d="M351.937 128.569C346.987 128.569 342.937 132.619 342.937 137.569C342.937 142.519 346.987 146.569 351.937 146.569C356.887 146.569 360.937 142.519 360.937 137.569C360.937 132.619 356.887 128.569 351.937 128.569Z" fill="#FF7887"/>
<path id="F - 11" d="M326.48 128.569C321.53 128.569 317.48 132.619 317.48 137.569C317.48 142.519 321.53 146.569 326.48 146.569C331.43 146.569 335.48 142.519 335.48 137.569C335.48 132.619 331.43 128.569 326.48 128.569Z" fill="#FF7887"/>
<path id="F - 10" d="M301.024 128.569C296.074 128.569 292.024 132.619 292.024 137.569C292.024 142.519 296.074 146.569 301.024 146.569C305.974 146.569 310.024 142.519 310.024 137.569C310.024 132.619 305.974 128.569 301.024 128.569Z" fill="#FF7887"/>
<path id="F - 09" d="M275.568 128.569C270.618 128.569 266.568 132.619 266.568 137.569C266.568 142.519 270.618 146.569 275.568 146.569C280.518 146.569 284.568 142.519 284.568 137.569C284.568 132.619 280.518 128.569 275.568 128.569Z" fill="#FF7887"/>
<path id="G - 08" d="M212.646 155.279C207.696 155.279 203.646 159.329 203.646 164.279C203.646 169.229 207.696 173.279 212.646 173.279C217.596 173.279 221.646 169.229 221.646 164.279C221.646 159.329 217.596 155.279 212.646 155.279Z" fill="#FF7887"/>
<path id="G - 07" d="M187.19 155.279C182.24 155.279 178.19 159.329 178.19 164.279C178.19 169.229 182.24 173.279 187.19 173.279C192.14 173.279 196.19 169.229 196.19 164.279C196.19 159.329 192.14 155.279 187.19 155.279Z" fill="#FF7887"/>
<path id="G - 06" d="M161.734 155.279C156.784 155.279 152.734 159.329 152.734 164.279C152.734 169.229 156.784 173.279 161.734 173.279C166.684 173.279 170.734 169.229 170.734 164.279C170.734 159.329 166.684 155.279 161.734 155.279Z" fill="#FF7887"/>
<path id="G - 05" d="M136.278 155.279C131.328 155.279 127.278 159.329 127.278 164.279C127.278 169.229 131.328 173.279 136.278 173.279C141.228 173.279 145.278 169.229 145.278 164.279C145.278 159.329 141.228 155.279 136.278 155.279Z" fill="#FF7887"/>
<path id="G - 04" d="M110.823 155.279C105.873 155.279 101.823 159.329 101.823 164.279C101.823 169.229 105.873 173.279 110.823 173.279C115.773 173.279 119.823 169.229 119.823 164.279C119.823 159.329 115.773 155.279 110.823 155.279Z" fill="#FF7887"/>
<path id="G - 03" d="M85.3667 155.279C80.4167 155.279 76.3667 159.329 76.3667 164.279C76.3667 169.229 80.4167 173.279 85.3667 173.279C90.3167 173.279 94.3667 169.229 94.3667 164.279C94.3667 159.329 90.3167 155.279 85.3667 155.279Z" fill="#FF7887"/>
<path id="G - 02" d="M59.9106 155.279C54.9606 155.279 50.9106 159.329 50.9106 164.279C50.9106 169.229 54.9606 173.279 59.9106 173.279C64.8606 173.279 68.9106 169.229 68.9106 164.279C68.9106 159.329 64.8606 155.279 59.9106 155.279Z" fill="#FF7887"/>
<path id="G - 01" d="M34.4551 155.279C29.5051 155.279 25.4551 159.329 25.4551 164.279C25.4551 169.229 29.5051 173.279 34.4551 173.279C39.4051 173.279 43.4551 169.229 43.4551 164.279C43.4551 159.329 39.4051 155.279 34.4551 155.279Z" fill="#FF7887"/>
<path id="G - 18" d="M504.671 153.728C499.721 153.728 495.671 157.778 495.671 162.728C495.671 167.678 499.721 171.728 504.671 171.728C509.621 171.728 513.671 167.678 513.671 162.728C513.671 157.778 509.621 153.728 504.671 153.728Z" fill="#FF7887"/>
<path id="G - 17" d="M479.216 153.728C474.266 153.728 470.216 157.778 470.216 162.728C470.216 167.678 474.266 171.728 479.216 171.728C484.166 171.728 488.216 167.678 488.216 162.728C488.216 157.778 484.166 153.728 479.216 153.728Z" fill="#FF7887"/>
<path id="G - 16" d="M453.76 153.728C448.81 153.728 444.76 157.778 444.76 162.728C444.76 167.678 448.81 171.728 453.76 171.728C458.71 171.728 462.76 167.678 462.76 162.728C462.76 157.778 458.71 153.728 453.76 153.728Z" fill="#FF7887"/>
<path id="G - 15" d="M428.304 153.728C423.354 153.728 419.304 157.778 419.304 162.728C419.304 167.678 423.354 171.728 428.304 171.728C433.254 171.728 437.304 167.678 437.304 162.728C437.304 157.778 433.254 153.728 428.304 153.728Z" fill="#FF7887"/>
<path id="G - 14" d="M402.848 153.728C397.898 153.728 393.848 157.778 393.848 162.728C393.848 167.678 397.898 171.728 402.848 171.728C407.798 171.728 411.848 167.678 411.848 162.728C411.848 157.778 407.798 153.728 402.848 153.728Z" fill="#FF7887"/>
<path id="G - 13" d="M377.392 153.728C372.442 153.728 368.392 157.778 368.392 162.728C368.392 167.678 372.442 171.728 377.392 171.728C382.342 171.728 386.392 167.678 386.392 162.728C386.392 157.778 382.342 153.728 377.392 153.728Z" fill="#FF7887"/>
<path id="G - 12" d="M351.937 153.728C346.987 153.728 342.937 157.778 342.937 162.728C342.937 167.678 346.987 171.728 351.937 171.728C356.887 171.728 360.937 167.678 360.937 162.728C360.937 157.778 356.887 153.728 351.937 153.728Z" fill="#FF7887"/>
<path id="G - 11" d="M326.48 153.728C321.53 153.728 317.48 157.778 317.48 162.728C317.48 167.678 321.53 171.728 326.48 171.728C331.43 171.728 335.48 167.678 335.48 162.728C335.48 157.778 331.43 153.728 326.48 153.728Z" fill="#FF7887"/>
<path id="G - 10" d="M301.024 153.728C296.074 153.728 292.024 157.778 292.024 162.728C292.024 167.678 296.074 171.728 301.024 171.728C305.974 171.728 310.024 167.678 310.024 162.728C310.024 157.778 305.974 153.728 301.024 153.728Z" fill="#FF7887"/>
<path id="G - 09" d="M275.568 153.728C270.618 153.728 266.568 157.778 266.568 162.728C266.568 167.678 270.618 171.728 275.568 171.728C280.518 171.728 284.568 167.678 284.568 162.728C284.568 157.778 280.518 153.728 275.568 153.728Z" fill="#FF7887"/>
<path id="H - 08" d="M212.646 180.439C207.696 180.439 203.646 184.489 203.646 189.439C203.646 194.389 207.696 198.439 212.646 198.439C217.596 198.439 221.646 194.389 221.646 189.439C221.646 184.489 217.596 180.439 212.646 180.439Z" fill="#FF7887"/>
<path id="H - 07" d="M187.19 180.439C182.24 180.439 178.19 184.489 178.19 189.439C178.19 194.389 182.24 198.439 187.19 198.439C192.14 198.439 196.19 194.389 196.19 189.439C196.19 184.489 192.14 180.439 187.19 180.439Z" fill="#FF7887"/>
<path id="H - 06" d="M161.734 180.439C156.784 180.439 152.734 184.489 152.734 189.439C152.734 194.389 156.784 198.439 161.734 198.439C166.684 198.439 170.734 194.389 170.734 189.439C170.734 184.489 166.684 180.439 161.734 180.439Z" fill="#FF7887"/>
<path id="H - 05" d="M136.278 180.439C131.328 180.439 127.278 184.489 127.278 189.439C127.278 194.389 131.328 198.439 136.278 198.439C141.228 198.439 145.278 194.389 145.278 189.439C145.278 184.489 141.228 180.439 136.278 180.439Z" fill="#FF7887"/>
<path id="H - 04" d="M110.823 180.439C105.873 180.439 101.823 184.489 101.823 189.439C101.823 194.389 105.873 198.439 110.823 198.439C115.773 198.439 119.823 194.389 119.823 189.439C119.823 184.489 115.773 180.439 110.823 180.439Z" fill="#FF7887"/>
<path id="H - 03" d="M85.3667 180.439C80.4167 180.439 76.3667 184.489 76.3667 189.439C76.3667 194.389 80.4167 198.439 85.3667 198.439C90.3167 198.439 94.3667 194.389 94.3667 189.439C94.3667 184.489 90.3167 180.439 85.3667 180.439Z" fill="#FF7887"/>
<path id="H - 02" d="M59.9106 180.439C54.9606 180.439 50.9106 184.489 50.9106 189.439C50.9106 194.389 54.9606 198.439 59.9106 198.439C64.8606 198.439 68.9106 194.389 68.9106 189.439C68.9106 184.489 64.8606 180.439 59.9106 180.439Z" fill="#FF7887"/>
<path id="H - 01" d="M34.4551 180.439C29.5051 180.439 25.4551 184.489 25.4551 189.439C25.4551 194.389 29.5051 198.439 34.4551 198.439C39.4051 198.439 43.4551 194.389 43.4551 189.439C43.4551 184.489 39.4051 180.439 34.4551 180.439Z" fill="#FF7887"/>
<path id="H - 17" d="M479.216 179C474.266 179 470.216 183.05 470.216 188C470.216 192.95 474.266 197 479.216 197C484.166 197 488.216 192.95 488.216 188C488.216 183.05 484.166 179 479.216 179Z" fill="#FF7887"/>
<path id="H - 16" d="M453.76 179C448.81 179 444.76 183.05 444.76 188C444.76 192.95 448.81 197 453.76 197C458.71 197 462.76 192.95 462.76 188C462.76 183.05 458.71 179 453.76 179Z" fill="#FF7887"/>
<path id="H - 15" d="M428.304 179C423.354 179 419.304 183.05 419.304 188C419.304 192.95 423.354 197 428.304 197C433.254 197 437.304 192.95 437.304 188C437.304 183.05 433.254 179 428.304 179Z" fill="#FF7887"/>
<path id="H - 14" d="M402.848 179C397.898 179 393.848 183.05 393.848 188C393.848 192.95 397.898 197 402.848 197C407.798 197 411.848 192.95 411.848 188C411.848 183.05 407.798 179 402.848 179Z" fill="#FF7887"/>
<path id="H - 13" d="M377.392 179C372.442 179 368.392 183.05 368.392 188C368.392 192.95 372.442 197 377.392 197C382.342 197 386.392 192.95 386.392 188C386.392 183.05 382.342 179 377.392 179Z" fill="#FF7887"/>
<path id="H - 12" d="M351.937 179C346.987 179 342.937 183.05 342.937 188C342.937 192.95 346.987 197 351.937 197C356.887 197 360.937 192.95 360.937 188C360.937 183.05 356.887 179 351.937 179Z" fill="#FF7887"/>
<path id="H - 11" d="M326.48 179C321.53 179 317.48 183.05 317.48 188C317.48 192.95 321.53 197 326.48 197C331.43 197 335.48 192.95 335.48 188C335.48 183.05 331.43 179 326.48 179Z" fill="#FF7887"/>
<path id="H - 10" d="M301.024 179C296.074 179 292.024 183.05 292.024 188C292.024 192.95 296.074 197 301.024 197C305.974 197 310.024 192.95 310.024 188C310.024 183.05 305.974 179 301.024 179Z" fill="#FF7887"/>
<path id="H - 09" d="M275.568 179C270.618 179 266.568 183.05 266.568 188C266.568 192.95 270.618 197 275.568 197C280.518 197 284.568 192.95 284.568 188C284.568 183.05 280.518 179 275.568 179Z" fill="#FF7887"/>
<path id="I - 08" d="M212.646 205.711C207.696 205.711 203.646 209.761 203.646 214.711C203.646 219.661 207.696 223.711 212.646 223.711C217.596 223.711 221.646 219.661 221.646 214.711C221.646 209.761 217.596 205.711 212.646 205.711Z" fill="#FF7887"/>
<path id="I - 07" d="M187.19 205.711C182.24 205.711 178.19 209.761 178.19 214.711C178.19 219.661 182.24 223.711 187.19 223.711C192.14 223.711 196.19 219.661 196.19 214.711C196.19 209.761 192.14 205.711 187.19 205.711Z" fill="#FF7887"/>
<path id="I - 06" d="M161.734 205.711C156.784 205.711 152.734 209.761 152.734 214.711C152.734 219.661 156.784 223.711 161.734 223.711C166.684 223.711 170.734 219.661 170.734 214.711C170.734 209.761 166.684 205.711 161.734 205.711Z" fill="#FF7887"/>
<path id="I - 05" d="M136.278 205.711C131.328 205.711 127.278 209.761 127.278 214.711C127.278 219.661 131.328 223.711 136.278 223.711C141.228 223.711 145.278 219.661 145.278 214.711C145.278 209.761 141.228 205.711 136.278 205.711Z" fill="#FF7887"/>
<path id="I - 04" d="M110.823 205.711C105.873 205.711 101.823 209.761 101.823 214.711C101.823 219.661 105.873 223.711 110.823 223.711C115.773 223.711 119.823 219.661 119.823 214.711C119.823 209.761 115.773 205.711 110.823 205.711Z" fill="#FF7887"/>
<path id="I - 03" d="M85.3667 205.711C80.4167 205.711 76.3667 209.761 76.3667 214.711C76.3667 219.661 80.4167 223.711 85.3667 223.711C90.3167 223.711 94.3667 219.661 94.3667 214.711C94.3667 209.761 90.3167 205.711 85.3667 205.711Z" fill="#FF7887"/>
<path id="I - 02" d="M59.9106 205.711C54.9606 205.711 50.9106 209.761 50.9106 214.711C50.9106 219.661 54.9606 223.711 59.9106 223.711C64.8606 223.711 68.9106 219.661 68.9106 214.711C68.9106 209.761 64.8606 205.711 59.9106 205.711Z" fill="#FF7887"/>
<path id="I - 01" d="M34.4551 205.711C29.5051 205.711 25.4551 209.761 25.4551 214.711C25.4551 219.661 29.5051 223.711 34.4551 223.711C39.4051 223.711 43.4551 219.661 43.4551 214.711C43.4551 209.761 39.4051 205.711 34.4551 205.711Z" fill="#FF7887"/>
<path id="I - 15" d="M428.304 204C423.354 204 419.304 208.05 419.304 213C419.304 217.95 423.354 222 428.304 222C433.254 222 437.304 217.95 437.304 213C437.304 208.05 433.254 204 428.304 204Z" fill="#FF7887"/>
<path id="I - 14" d="M402.848 204C397.898 204 393.848 208.05 393.848 213C393.848 217.95 397.898 222 402.848 222C407.798 222 411.848 217.95 411.848 213C411.848 208.05 407.798 204 402.848 204Z" fill="#FF7887"/>
<path id="I - 13" d="M377.392 204C372.442 204 368.392 208.05 368.392 213C368.392 217.95 372.442 222 377.392 222C382.342 222 386.392 217.95 386.392 213C386.392 208.05 382.342 204 377.392 204Z" fill="#FF7887"/>
<path id="I - 12" d="M351.937 204C346.987 204 342.937 208.05 342.937 213C342.937 217.95 346.987 222 351.937 222C356.887 222 360.937 217.95 360.937 213C360.937 208.05 356.887 204 351.937 204Z" fill="#FF7887"/>
<path id="I - 11" d="M326.48 204C321.53 204 317.48 208.05 317.48 213C317.48 217.95 321.53 222 326.48 222C331.43 222 335.48 217.95 335.48 213C335.48 208.05 331.43 204 326.48 204Z" fill="#FF7887"/>
<path id="I - 10" d="M301.024 204C296.074 204 292.024 208.05 292.024 213C292.024 217.95 296.074 222 301.024 222C305.974 222 310.024 217.95 310.024 213C310.024 208.05 305.974 204 301.024 204Z" fill="#FF7887"/>
<path id="I - 09" d="M275.568 204C270.618 204 266.568 208.05 266.568 213C266.568 217.95 270.618 222 275.568 222C280.518 222 284.568 217.95 284.568 213C284.568 208.05 280.518 204 275.568 204Z" fill="#FF7887"/>
<path id="J - 08" d="M212.646 230.711C207.696 230.711 203.646 234.761 203.646 239.711C203.646 244.661 207.696 248.711 212.646 248.711C217.596 248.711 221.646 244.661 221.646 239.711C221.646 234.761 217.596 230.711 212.646 230.711Z" fill="#FF7887"/>
<path id="J - 07" d="M187.19 230.711C182.24 230.711 178.19 234.761 178.19 239.711C178.19 244.661 182.24 248.711 187.19 248.711C192.14 248.711 196.19 244.661 196.19 239.711C196.19 234.761 192.14 230.711 187.19 230.711Z" fill="#FF7887"/>
<path id="J - 06" d="M161.734 230.711C156.784 230.711 152.734 234.761 152.734 239.711C152.734 244.661 156.784 248.711 161.734 248.711C166.684 248.711 170.734 244.661 170.734 239.711C170.734 234.761 166.684 230.711 161.734 230.711Z" fill="#FF7887"/>
<path id="J - 05" d="M136.279 230.711C131.329 230.711 127.279 234.761 127.279 239.711C127.279 244.661 131.329 248.711 136.279 248.711C141.229 248.711 145.279 244.661 145.279 239.711C145.279 234.761 141.229 230.711 136.279 230.711Z" fill="#FF7887"/>
<path id="J - 04" d="M110.823 230.711C105.873 230.711 101.823 234.761 101.823 239.711C101.823 244.661 105.873 248.711 110.823 248.711C115.773 248.711 119.823 244.661 119.823 239.711C119.823 234.761 115.773 230.711 110.823 230.711Z" fill="#FF7887"/>
<path id="J - 03" d="M85.3667 230.711C80.4167 230.711 76.3667 234.761 76.3667 239.711C76.3667 244.661 80.4167 248.711 85.3667 248.711C90.3167 248.711 94.3667 244.661 94.3667 239.711C94.3667 234.761 90.3167 230.711 85.3667 230.711Z" fill="#FF7887"/>
<path id="J - 02" d="M59.9111 230.711C54.9611 230.711 50.9111 234.761 50.9111 239.711C50.9111 244.661 54.9611 248.711 59.9111 248.711C64.8611 248.711 68.9111 244.661 68.9111 239.711C68.9111 234.761 64.8611 230.711 59.9111 230.711Z" fill="#FF7887"/>
<path id="J - 01" d="M34.6465 230.711C29.6965 230.711 25.6465 234.761 25.6465 239.711C25.6465 244.661 29.6965 248.711 34.6465 248.711C39.5965 248.711 43.6465 244.661 43.6465 239.711C43.6465 234.761 39.5965 230.711 34.6465 230.711Z" fill="#FF7887"/>
<path id="J - 13" d="M377.392 229C372.442 229 368.392 233.05 368.392 238C368.392 242.95 372.442 247 377.392 247C382.342 247 386.392 242.95 386.392 238C386.392 233.05 382.342 229 377.392 229Z" fill="#FF7887"/>
<path id="J - 12" d="M351.937 229C346.987 229 342.937 233.05 342.937 238C342.937 242.95 346.987 247 351.937 247C356.887 247 360.937 242.95 360.937 238C360.937 233.05 356.887 229 351.937 229Z" fill="#FF7887"/>
<path id="J - 11" d="M326.48 229C321.53 229 317.48 233.05 317.48 238C317.48 242.95 321.53 247 326.48 247C331.43 247 335.48 242.95 335.48 238C335.48 233.05 331.43 229 326.48 229Z" fill="#FF7887"/>
<path id="J - 10" d="M301.024 229C296.074 229 292.024 233.05 292.024 238C292.024 242.95 296.074 247 301.024 247C305.974 247 310.024 242.95 310.024 238C310.024 233.05 305.974 229 301.024 229Z" fill="#FF7887"/>
<path id="J - 09" d="M275.568 229C270.618 229 266.568 233.05 266.568 238C266.568 242.95 270.618 247 275.568 247C280.518 247 284.568 242.95 284.568 238C284.568 233.05 280.518 229 275.568 229Z" fill="#FF7887"/>
<path id="K - 08" d="M212.646 255.711C207.696 255.711 203.646 259.761 203.646 264.711C203.646 269.661 207.696 273.711 212.646 273.711C217.596 273.711 221.646 269.661 221.646 264.711C221.646 259.761 217.596 255.711 212.646 255.711Z" fill="#FF7887"/>
<path id="K - 07" d="M187.19 255.711C182.24 255.711 178.19 259.761 178.19 264.711C178.19 269.661 182.24 273.711 187.19 273.711C192.14 273.711 196.19 269.661 196.19 264.711C196.19 259.761 192.14 255.711 187.19 255.711Z" fill="#FF7887"/>
<path id="K - 06" d="M161.734 255.711C156.784 255.711 152.734 259.761 152.734 264.711C152.734 269.661 156.784 273.711 161.734 273.711C166.684 273.711 170.734 269.661 170.734 264.711C170.734 259.761 166.684 255.711 161.734 255.711Z" fill="#FF7887"/>
<path id="K - 05" d="M136.279 255.711C131.329 255.711 127.279 259.761 127.279 264.711C127.279 269.661 131.329 273.711 136.279 273.711C141.229 273.711 145.279 269.661 145.279 264.711C145.279 259.761 141.229 255.711 136.279 255.711Z" fill="#FF7887"/>
<path id="K - 04" d="M110.823 255.711C105.873 255.711 101.823 259.761 101.823 264.711C101.823 269.661 105.873 273.711 110.823 273.711C115.773 273.711 119.823 269.661 119.823 264.711C119.823 259.761 115.773 255.711 110.823 255.711Z" fill="#FF7887"/>
<path id="K - 03" d="M85.3667 255.711C80.4167 255.711 76.3667 259.761 76.3667 264.711C76.3667 269.661 80.4167 273.711 85.3667 273.711C90.3167 273.711 94.3667 269.661 94.3667 264.711C94.3667 259.761 90.3167 255.711 85.3667 255.711Z" fill="#FF7887"/>
<path id="K - 02" d="M59.9111 255.711C54.9611 255.711 50.9111 259.761 50.9111 264.711C50.9111 269.661 54.9611 273.711 59.9111 273.711C64.8611 273.711 68.9111 269.661 68.9111 264.711C68.9111 259.761 64.8611 255.711 59.9111 255.711Z" fill="#FF7887"/>
<path id="K - 01" d="M34.6465 255.711C29.6965 255.711 25.6465 259.761 25.6465 264.711C25.6465 269.661 29.6965 273.711 34.6465 273.711C39.5965 273.711 43.6465 269.661 43.6465 264.711C43.6465 259.761 39.5965 255.711 34.6465 255.711Z" fill="#FF7887"/>
<path id="K - 11" d="M326.48 254C321.53 254 317.48 258.05 317.48 263C317.48 267.95 321.53 272 326.48 272C331.43 272 335.48 267.95 335.48 263C335.48 258.05 331.43 254 326.48 254Z" fill="#FF7887"/>
<path id="K - 10" d="M301.024 254C296.074 254 292.024 258.05 292.024 263C292.024 267.95 296.074 272 301.024 272C305.974 272 310.024 267.95 310.024 263C310.024 258.05 305.974 254 301.024 254Z" fill="#FF7887"/>
<path id="K - 09" d="M275.568 254C270.618 254 266.568 258.05 266.568 263C266.568 267.95 270.618 272 275.568 272C280.518 272 284.568 267.95 284.568 263C284.568 258.05 280.518 254 275.568 254Z" fill="#FF7887"/>
<path id="L - 08" d="M212.646 280.711C207.696 280.711 203.646 284.761 203.646 289.711C203.646 294.661 207.696 298.711 212.646 298.711C217.596 298.711 221.646 294.661 221.646 289.711C221.646 284.761 217.596 280.711 212.646 280.711Z" fill="#FF7887"/>
<path id="L - 07" d="M187.19 280.711C182.24 280.711 178.19 284.761 178.19 289.711C178.19 294.661 182.24 298.711 187.19 298.711C192.14 298.711 196.19 294.661 196.19 289.711C196.19 284.761 192.14 280.711 187.19 280.711Z" fill="#FF7887"/>
<path id="L - 06" d="M161.734 280.711C156.784 280.711 152.734 284.761 152.734 289.711C152.734 294.661 156.784 298.711 161.734 298.711C166.684 298.711 170.734 294.661 170.734 289.711C170.734 284.761 166.684 280.711 161.734 280.711Z" fill="#FF7887"/>
<path id="L - 05" d="M136.279 280.711C131.329 280.711 127.279 284.761 127.279 289.711C127.279 294.661 131.329 298.711 136.279 298.711C141.229 298.711 145.279 294.661 145.279 289.711C145.279 284.761 141.229 280.711 136.279 280.711Z" fill="#FF7887"/>
<path id="L - 04" d="M110.823 280.711C105.873 280.711 101.823 284.761 101.823 289.711C101.823 294.661 105.873 298.711 110.823 298.711C115.773 298.711 119.823 294.661 119.823 289.711C119.823 284.761 115.773 280.711 110.823 280.711Z" fill="#FF7887"/>
<path id="L - 03" d="M85.3667 280.711C80.4167 280.711 76.3667 284.761 76.3667 289.711C76.3667 294.661 80.4167 298.711 85.3667 298.711C90.3167 298.711 94.3667 294.661 94.3667 289.711C94.3667 284.761 90.3167 280.711 85.3667 280.711Z" fill="#FF7887"/>
<path id="L - 02" d="M59.9111 280.711C54.9611 280.711 50.9111 284.761 50.9111 289.711C50.9111 294.661 54.9611 298.711 59.9111 298.711C64.8611 298.711 68.9111 294.661 68.9111 289.711C68.9111 284.761 64.8611 280.711 59.9111 280.711Z" fill="#FF7887"/>
<path id="L - 01" d="M34.6465 280.711C29.6965 280.711 25.6465 284.761 25.6465 289.711C25.6465 294.661 29.6965 298.711 34.6465 298.711C39.5965 298.711 43.6465 294.661 43.6465 289.711C43.6465 284.761 39.5965 280.711 34.6465 280.711Z" fill="#FF7887"/>
<path id="L - 10" d="M301.024 279C296.074 279 292.024 283.05 292.024 288C292.024 292.95 296.074 297 301.024 297C305.974 297 310.024 292.95 310.024 288C310.024 283.05 305.974 279 301.024 279Z" fill="#FF7887"/>
<path id="L - 09" d="M275.568 279C270.618 279 266.568 283.05 266.568 288C266.568 292.95 270.618 297 275.568 297C280.518 297 284.568 292.95 284.568 288C284.568 283.05 280.518 279 275.568 279Z" fill="#FF7887"/>
<path id="N - 08" d="M212.646 331C207.696 331 203.646 335.05 203.646 340C203.646 344.95 207.696 349 212.646 349C217.596 349 221.646 344.95 221.646 340C221.646 335.05 217.596 331 212.646 331Z" fill="#FF7887"/>
<path id="N - 07" d="M187.19 331C182.24 331 178.19 335.05 178.19 340C178.19 344.95 182.24 349 187.19 349C192.14 349 196.19 344.95 196.19 340C196.19 335.05 192.14 331 187.19 331Z" fill="#FF7887"/>
<path id="N - 06" d="M161.734 331C156.784 331 152.734 335.05 152.734 340C152.734 344.95 156.784 349 161.734 349C166.684 349 170.734 344.95 170.734 340C170.734 335.05 166.684 331 161.734 331Z" fill="#FF7887"/>
<path id="N - 05" d="M136.279 331C131.329 331 127.279 335.05 127.279 340C127.279 344.95 131.329 349 136.279 349C141.229 349 145.279 344.95 145.279 340C145.279 335.05 141.229 331 136.279 331Z" fill="#FF7887"/>
<path id="N - 04" d="M110.823 331C105.873 331 101.823 335.05 101.823 340C101.823 344.95 105.873 349 110.823 349C115.773 349 119.823 344.95 119.823 340C119.823 335.05 115.773 331 110.823 331Z" fill="#FF7887"/>
<path id="N - 03" d="M85.3667 331C80.4167 331 76.3667 335.05 76.3667 340C76.3667 344.95 80.4167 349 85.3667 349C90.3167 349 94.3667 344.95 94.3667 340C94.3667 335.05 90.3167 331 85.3667 331Z" fill="#FF7887"/>
<path id="N - 02" d="M59.9111 331C54.9611 331 50.9111 335.05 50.9111 340C50.9111 344.95 54.9611 349 59.9111 349C64.8611 349 68.9111 344.95 68.9111 340C68.9111 335.05 64.8611 331 59.9111 331Z" fill="#FF7887"/>
<path id="N - 01" d="M34.6465 331C29.6965 331 25.6465 335.05 25.6465 340C25.6465 344.95 29.6965 349 34.6465 349C39.5965 349 43.6465 344.95 43.6465 340C43.6465 335.05 39.5965 331 34.6465 331Z" fill="#FF7887"/>
<path id="M - 08" d="M212.646 305.711C207.696 305.711 203.646 309.761 203.646 314.711C203.646 319.661 207.696 323.711 212.646 323.711C217.596 323.711 221.646 319.661 221.646 314.711C221.646 309.761 217.596 305.711 212.646 305.711Z" fill="#FF7887"/>
<path id="M - 07" d="M187.19 305.711C182.24 305.711 178.19 309.761 178.19 314.711C178.19 319.661 182.24 323.711 187.19 323.711C192.14 323.711 196.19 319.661 196.19 314.711C196.19 309.761 192.14 305.711 187.19 305.711Z" fill="#FF7887"/>
<path id="M - 06" d="M161.734 305.711C156.784 305.711 152.734 309.761 152.734 314.711C152.734 319.661 156.784 323.711 161.734 323.711C166.684 323.711 170.734 319.661 170.734 314.711C170.734 309.761 166.684 305.711 161.734 305.711Z" fill="#FF7887"/>
<path id="M - 05" d="M136.279 305.711C131.329 305.711 127.279 309.761 127.279 314.711C127.279 319.661 131.329 323.711 136.279 323.711C141.229 323.711 145.279 319.661 145.279 314.711C145.279 309.761 141.229 305.711 136.279 305.711Z" fill="#FF7887"/>
<path id="M - 04" d="M110.823 305.711C105.873 305.711 101.823 309.761 101.823 314.711C101.823 319.661 105.873 323.711 110.823 323.711C115.773 323.711 119.823 319.661 119.823 314.711C119.823 309.761 115.773 305.711 110.823 305.711Z" fill="#FF7887"/>
<path id="M - 03" d="M85.3667 305.711C80.4167 305.711 76.3667 309.761 76.3667 314.711C76.3667 319.661 80.4167 323.711 85.3667 323.711C90.3167 323.711 94.3667 319.661 94.3667 314.711C94.3667 309.761 90.3167 305.711 85.3667 305.711Z" fill="#FF7887"/>
<path id="M - 02" d="M59.9111 305.711C54.9611 305.711 50.9111 309.761 50.9111 314.711C50.9111 319.661 54.9611 323.711 59.9111 323.711C64.8611 323.711 68.9111 319.661 68.9111 314.711C68.9111 309.761 64.8611 305.711 59.9111 305.711Z" fill="#FF7887"/>
<path id="M - 01" d="M34.6465 305.711C29.6965 305.711 25.6465 309.761 25.6465 314.711C25.6465 319.661 29.6965 323.711 34.6465 323.711C39.5965 323.711 43.6465 319.661 43.6465 314.711C43.6465 309.761 39.5965 305.711 34.6465 305.711Z" fill="#FF7887"/>
<path id="b" d="M240.075 43V30.6364H245.025C245.934 30.6364 246.693 30.7712 247.301 31.0408C247.908 31.3105 248.365 31.6848 248.671 32.1637C248.977 32.6386 249.13 33.186 249.13 33.8058C249.13 34.2887 249.033 34.7133 248.84 35.0795C248.647 35.4418 248.381 35.7396 248.043 35.973C247.709 36.2024 247.327 36.3654 246.896 36.462V36.5827C247.367 36.6029 247.808 36.7357 248.218 36.9812C248.633 37.2267 248.969 37.5708 249.227 38.0135C249.484 38.4522 249.613 38.9754 249.613 39.5831C249.613 40.2391 249.45 40.8247 249.124 41.3398C248.802 41.851 248.325 42.2554 247.693 42.5533C247.061 42.8511 246.283 43 245.357 43H240.075ZM242.689 40.8629H244.82C245.548 40.8629 246.079 40.7241 246.413 40.4464C246.747 40.1647 246.914 39.7904 246.914 39.3235C246.914 38.9814 246.832 38.6796 246.667 38.418C246.502 38.1564 246.266 37.9511 245.961 37.8022C245.659 37.6533 245.299 37.5788 244.88 37.5788H242.689V40.8629ZM242.689 35.81H244.626C244.985 35.81 245.303 35.7476 245.58 35.6229C245.862 35.4941 246.083 35.313 246.244 35.0795C246.409 34.8461 246.492 34.5664 246.492 34.2404C246.492 33.7937 246.333 33.4335 246.015 33.1598C245.701 32.8861 245.254 32.7493 244.675 32.7493H242.689V35.81Z" fill="white"/>
<path id="b_2" d="M575.075 43V30.6364H580.025C580.934 30.6364 581.693 30.7712 582.301 31.0408C582.908 31.3105 583.365 31.6848 583.671 32.1637C583.977 32.6386 584.13 33.186 584.13 33.8058C584.13 34.2887 584.033 34.7133 583.84 35.0795C583.647 35.4418 583.381 35.7396 583.043 35.973C582.709 36.2024 582.327 36.3654 581.896 36.462V36.5827C582.367 36.6029 582.808 36.7357 583.218 36.9812C583.633 37.2267 583.969 37.5708 584.227 38.0135C584.484 38.4522 584.613 38.9754 584.613 39.5831C584.613 40.2391 584.45 40.8247 584.124 41.3398C583.802 41.851 583.325 42.2554 582.693 42.5533C582.061 42.8511 581.283 43 580.357 43H575.075ZM577.689 40.8629H579.82C580.548 40.8629 581.079 40.7241 581.413 40.4464C581.747 40.1647 581.914 39.7904 581.914 39.3235C581.914 38.9814 581.832 38.6796 581.667 38.418C581.502 38.1564 581.266 37.9511 580.961 37.8022C580.659 37.6533 580.299 37.5788 579.88 37.5788H577.689V40.8629ZM577.689 35.81H579.626C579.985 35.81 580.303 35.7476 580.58 35.6229C580.862 35.4941 581.083 35.313 581.244 35.0795C581.409 34.8461 581.492 34.5664 581.492 34.2404C581.492 33.7937 581.333 33.4335 581.015 33.1598C580.701 32.8861 580.254 32.7493 579.675 32.7493H577.689V35.81Z" fill="white"/>
<path id="b_3" d="M3.07457 43V30.6364H8.02486C8.93442 30.6364 9.69306 30.7712 10.3008 31.0408C10.9085 31.3105 11.3653 31.6848 11.6712 32.1637C11.977 32.6386 12.13 33.186 12.13 33.8058C12.13 34.2887 12.0334 34.7133 11.8402 35.0795C11.647 35.4418 11.3814 35.7396 11.0433 35.973C10.7093 36.2024 10.3269 36.3654 9.89631 36.462V36.5827C10.3672 36.6029 10.8079 36.7357 11.2184 36.9812C11.6329 37.2267 11.969 37.5708 12.2266 38.0135C12.4841 38.4522 12.6129 38.9754 12.6129 39.5831C12.6129 40.2391 12.4499 40.8247 12.1239 41.3398C11.802 41.851 11.325 42.2554 10.6932 42.5533C10.0613 42.8511 9.28255 43 8.35689 43H3.07457ZM5.68857 40.8629H7.8196C8.54806 40.8629 9.07931 40.7241 9.41335 40.4464C9.7474 40.1647 9.91442 39.7904 9.91442 39.3235C9.91442 38.9814 9.83191 38.6796 9.6669 38.418C9.50189 38.1564 9.26645 37.9511 8.96058 37.8022C8.65874 37.6533 8.29853 37.5788 7.87997 37.5788H5.68857V40.8629ZM5.68857 35.81H7.62642C7.98461 35.81 8.30256 35.7476 8.58026 35.6229C8.86198 35.4941 9.08333 35.313 9.24432 35.0795C9.40933 34.8461 9.49183 34.5664 9.49183 34.2404C9.49183 33.7937 9.33286 33.4335 9.01492 33.1598C8.70099 32.8861 8.25426 32.7493 7.67472 32.7493H5.68857V35.81Z" fill="white"/>
<path id="c" d="M249.983 58.9648H247.339C247.291 58.6228 247.192 58.3189 247.043 58.0533C246.894 57.7836 246.703 57.5542 246.47 57.3651C246.236 57.1759 245.967 57.031 245.661 56.9304C245.359 56.8298 245.031 56.7795 244.677 56.7795C244.037 56.7795 243.48 56.9384 243.005 57.2564C242.53 57.5703 242.161 58.0291 241.9 58.6328C241.638 59.2325 241.507 59.9609 241.507 60.8182C241.507 61.6996 241.638 62.4401 241.9 63.0398C242.165 63.6394 242.536 64.0922 243.011 64.3981C243.486 64.704 244.035 64.8569 244.659 64.8569C245.009 64.8569 245.333 64.8106 245.631 64.718C245.933 64.6255 246.2 64.4906 246.434 64.3136C246.667 64.1325 246.86 63.9131 247.013 63.6555C247.17 63.398 247.279 63.1042 247.339 62.7741L249.983 62.7862C249.915 63.3537 249.744 63.901 249.47 64.4283C249.201 64.9515 248.836 65.4203 248.377 65.8349C247.923 66.2454 247.379 66.5714 246.748 66.8129C246.12 67.0503 245.409 67.169 244.616 67.169C243.514 67.169 242.528 66.9195 241.658 66.4205C240.793 65.9214 240.109 65.199 239.606 64.2532C239.107 63.3074 238.857 62.1624 238.857 60.8182C238.857 59.4699 239.111 58.3229 239.618 57.3771C240.125 56.4313 240.813 55.7109 241.683 55.2159C242.552 54.7169 243.53 54.4673 244.616 54.4673C245.333 54.4673 245.997 54.5679 246.609 54.7692C247.224 54.9704 247.77 55.2642 248.245 55.6506C248.72 56.0329 249.106 56.5018 249.404 57.0572C249.706 57.6126 249.899 58.2485 249.983 58.9648Z" fill="white"/>
<path id="c_2" d="M585.983 58.9648H583.339C583.291 58.6228 583.192 58.3189 583.043 58.0533C582.894 57.7836 582.703 57.5542 582.47 57.3651C582.236 57.1759 581.967 57.031 581.661 56.9304C581.359 56.8298 581.031 56.7795 580.677 56.7795C580.037 56.7795 579.48 56.9384 579.005 57.2564C578.53 57.5703 578.161 58.0291 577.9 58.6328C577.638 59.2325 577.507 59.9609 577.507 60.8182C577.507 61.6996 577.638 62.4401 577.9 63.0398C578.165 63.6394 578.536 64.0922 579.011 64.3981C579.486 64.704 580.035 64.8569 580.659 64.8569C581.009 64.8569 581.333 64.8106 581.631 64.718C581.933 64.6255 582.2 64.4906 582.434 64.3136C582.667 64.1325 582.86 63.9131 583.013 63.6555C583.17 63.398 583.279 63.1042 583.339 62.7741L585.983 62.7862C585.915 63.3537 585.744 63.901 585.47 64.4283C585.201 64.9515 584.836 65.4203 584.377 65.8349C583.923 66.2454 583.379 66.5714 582.748 66.8129C582.12 67.0503 581.409 67.169 580.616 67.169C579.514 67.169 578.528 66.9195 577.658 66.4205C576.793 65.9214 576.109 65.199 575.606 64.2532C575.107 63.3074 574.857 62.1624 574.857 60.8182C574.857 59.4699 575.111 58.3229 575.618 57.3771C576.125 56.4313 576.813 55.7109 577.683 55.2159C578.552 54.7169 579.53 54.4673 580.616 54.4673C581.333 54.4673 581.997 54.5679 582.609 54.7692C583.224 54.9704 583.77 55.2642 584.245 55.6506C584.72 56.0329 585.106 56.5018 585.404 57.0572C585.706 57.6126 585.899 58.2485 585.983 58.9648Z" fill="white"/>
<path id="c_3" d="M12.9833 58.9648H10.3391C10.2908 58.6228 10.1922 58.3189 10.0433 58.0533C9.89441 57.7836 9.70324 57.5542 9.46982 57.3651C9.23639 57.1759 8.96674 57.031 8.66087 56.9304C8.35902 56.8298 8.03101 56.7795 7.67685 56.7795C7.03693 56.7795 6.47952 56.9384 6.00462 57.2564C5.52971 57.5703 5.16146 58.0291 4.89986 58.6328C4.63826 59.2325 4.50746 59.9609 4.50746 60.8182C4.50746 61.6996 4.63826 62.4401 4.89986 63.0398C5.16548 63.6394 5.53575 64.0922 6.01065 64.3981C6.48556 64.704 7.03492 64.8569 7.65874 64.8569C8.00888 64.8569 8.33286 64.8106 8.63068 64.718C8.93253 64.6255 9.20017 64.4906 9.43359 64.3136C9.66702 64.1325 9.8602 63.9131 10.0131 63.6555C10.1701 63.398 10.2788 63.1042 10.3391 62.7741L12.9833 62.7862C12.9149 63.3537 12.7438 63.901 12.4702 64.4283C12.2005 64.9515 11.8363 65.4203 11.3775 65.8349C10.9227 66.2454 10.3794 66.5714 9.74751 66.8129C9.11967 67.0503 8.40933 67.169 7.61648 67.169C6.51373 67.169 5.5277 66.9195 4.65838 66.4205C3.79309 65.9214 3.1089 65.199 2.60582 64.2532C2.10677 63.3074 1.85724 62.1624 1.85724 60.8182C1.85724 59.4699 2.1108 58.3229 2.6179 57.3771C3.125 56.4313 3.81321 55.7109 4.68253 55.2159C5.55185 54.7169 6.52983 54.4673 7.61648 54.4673C8.33286 54.4673 8.99692 54.5679 9.60867 54.7692C10.2244 54.9704 10.7698 55.2642 11.2447 55.6506C11.7196 56.0329 12.1059 56.5018 12.4038 57.0572C12.7056 57.6126 12.8988 58.2485 12.9833 58.9648Z" fill="white"/>
<path id="d" d="M243.457 94H239.075V81.6364H243.494C244.737 81.6364 245.808 81.8839 246.705 82.3789C247.603 82.8699 248.293 83.5762 248.776 84.4979C249.263 85.4195 249.506 86.5223 249.506 87.8061C249.506 89.094 249.263 90.2008 248.776 91.1264C248.293 92.0521 247.599 92.7624 246.693 93.2575C245.792 93.7525 244.713 94 243.457 94ZM241.689 91.7603H243.349C244.121 91.7603 244.771 91.6235 245.299 91.3498C245.83 91.0721 246.228 90.6435 246.494 90.0639C246.764 89.4804 246.898 88.7277 246.898 87.8061C246.898 86.8925 246.764 86.146 246.494 85.5664C246.228 84.9869 245.832 84.5603 245.305 84.2866C244.777 84.0129 244.127 83.8761 243.355 83.8761H241.689V91.7603Z" fill="white"/>
<path id="d_2" d="M579.457 94H575.075V81.6364H579.494C580.737 81.6364 581.808 81.8839 582.705 82.3789C583.603 82.8699 584.293 83.5762 584.776 84.4979C585.263 85.4195 585.506 86.5223 585.506 87.8061C585.506 89.094 585.263 90.2008 584.776 91.1264C584.293 92.0521 583.599 92.7624 582.693 93.2575C581.792 93.7525 580.713 94 579.457 94ZM577.689 91.7603H579.349C580.121 91.7603 580.771 91.6235 581.299 91.3498C581.83 91.0721 582.228 90.6435 582.494 90.0639C582.764 89.4804 582.898 88.7277 582.898 87.8061C582.898 86.8925 582.764 86.146 582.494 85.5664C582.228 84.9869 581.832 84.5603 581.305 84.2866C580.777 84.0129 580.127 83.8761 579.355 83.8761H577.689V91.7603Z" fill="white"/>
<path id="d_3" d="M6.45739 94H2.07457V81.6364H6.49361C7.73722 81.6364 8.80777 81.8839 9.70526 82.3789C10.6027 82.8699 11.293 83.5762 11.7759 84.4979C12.2629 85.4195 12.5064 86.5223 12.5064 87.8061C12.5064 89.094 12.2629 90.2008 11.7759 91.1264C11.293 92.0521 10.5987 92.7624 9.69318 93.2575C8.79167 93.7525 7.71307 94 6.45739 94ZM4.68857 91.7603H6.34872C7.12145 91.7603 7.77143 91.6235 8.29865 91.3498C8.8299 91.0721 9.22834 90.6435 9.49396 90.0639C9.76361 89.4804 9.89844 88.7277 9.89844 87.8061C9.89844 86.8925 9.76361 86.146 9.49396 85.5664C9.22834 84.9869 8.83191 84.5603 8.30469 84.2866C7.77746 84.0129 7.12749 83.8761 6.35476 83.8761H4.68857V91.7603Z" fill="white"/>
<path id="e" d="M240.075 119V106.636H248.406V108.792H242.689V111.738H247.977V113.893H242.689V116.845H248.43V119H240.075Z" fill="white"/>
<path id="e_2" d="M576.075 119V106.636H584.406V108.792H578.689V111.738H583.977V113.893H578.689V116.845H584.43V119H576.075Z" fill="white"/>
<path id="e_3" d="M3.07457 119V106.636H11.4055V108.792H5.68857V111.738H10.9769V113.893H5.68857V116.845H11.4297V119H3.07457Z" fill="white"/>
<path id="f" d="M241.075 143V130.636H249.261V132.792H243.689V135.738H248.717V137.893H243.689V143H241.075Z" fill="white"/>
<path id="f_2" d="M576.075 143V130.636H584.261V132.792H578.689V135.738H583.717V137.893H578.689V143H576.075Z" fill="white"/>
<path id="f_3" d="M4.07457 143V130.636H12.2607V132.792H6.68857V135.738H11.7173V137.893H6.68857V143H4.07457Z" fill="white"/>
<path id="g" d="M247.273 159.633C247.188 159.339 247.069 159.079 246.917 158.854C246.764 158.625 246.576 158.431 246.355 158.275C246.138 158.114 245.888 157.991 245.607 157.906C245.329 157.822 245.021 157.779 244.683 157.779C244.051 157.779 243.496 157.936 243.017 158.25C242.542 158.564 242.172 159.021 241.906 159.621C241.64 160.216 241.507 160.945 241.507 161.806C241.507 162.667 241.638 163.4 241.9 164.004C242.161 164.607 242.532 165.068 243.011 165.386C243.49 165.7 244.055 165.857 244.707 165.857C245.299 165.857 245.804 165.752 246.222 165.543C246.645 165.33 246.967 165.03 247.188 164.643C247.414 164.257 247.526 163.8 247.526 163.273L248.058 163.352H244.87V161.384H250.044V162.941C250.044 164.028 249.814 164.961 249.355 165.742C248.897 166.519 248.265 167.119 247.46 167.541C246.655 167.96 245.733 168.169 244.695 168.169C243.536 168.169 242.518 167.913 241.64 167.402C240.763 166.887 240.079 166.157 239.588 165.211C239.101 164.261 238.857 163.134 238.857 161.83C238.857 160.828 239.002 159.935 239.292 159.15C239.586 158.361 239.996 157.693 240.523 157.146C241.051 156.598 241.664 156.182 242.365 155.896C243.065 155.61 243.824 155.467 244.641 155.467C245.341 155.467 245.993 155.57 246.597 155.775C247.2 155.976 247.736 156.262 248.202 156.632C248.673 157.003 249.058 157.443 249.355 157.955C249.653 158.462 249.844 159.021 249.929 159.633H247.273Z" fill="white"/>
<path id="g_2" d="M533.273 159.633C533.188 159.339 533.069 159.079 532.917 158.854C532.764 158.625 532.576 158.431 532.355 158.275C532.138 158.114 531.888 157.991 531.607 157.906C531.329 157.822 531.021 157.779 530.683 157.779C530.051 157.779 529.496 157.936 529.017 158.25C528.542 158.564 528.172 159.021 527.906 159.621C527.64 160.216 527.507 160.945 527.507 161.806C527.507 162.667 527.638 163.4 527.9 164.004C528.161 164.607 528.532 165.068 529.011 165.386C529.49 165.7 530.055 165.857 530.707 165.857C531.299 165.857 531.804 165.752 532.222 165.543C532.645 165.33 532.967 165.03 533.188 164.643C533.414 164.257 533.526 163.8 533.526 163.273L534.058 163.352H530.87V161.384H536.044V162.941C536.044 164.028 535.814 164.961 535.355 165.742C534.897 166.519 534.265 167.119 533.46 167.541C532.655 167.96 531.733 168.169 530.695 168.169C529.536 168.169 528.518 167.913 527.64 167.402C526.763 166.887 526.079 166.157 525.588 165.211C525.101 164.261 524.857 163.134 524.857 161.83C524.857 160.828 525.002 159.935 525.292 159.15C525.586 158.361 525.996 157.693 526.523 157.146C527.051 156.598 527.664 156.182 528.365 155.896C529.065 155.61 529.824 155.467 530.641 155.467C531.341 155.467 531.993 155.57 532.597 155.775C533.2 155.976 533.736 156.262 534.202 156.632C534.673 157.003 535.058 157.443 535.355 157.955C535.653 158.462 535.844 159.021 535.929 159.633H533.273Z" fill="white"/>
<path id="g_3" d="M10.2727 159.633C10.1882 159.339 10.0695 159.079 9.91655 158.854C9.76361 158.625 9.57647 158.431 9.35511 158.275C9.13778 158.114 8.88826 157.991 8.60653 157.906C8.32884 157.822 8.02095 157.779 7.68288 157.779C7.05102 157.779 6.49562 157.936 6.01669 158.25C5.54179 158.564 5.17152 159.021 4.9059 159.621C4.64027 160.216 4.50746 160.945 4.50746 161.806C4.50746 162.667 4.63826 163.4 4.89986 164.004C5.16146 164.607 5.53172 165.068 6.01065 165.386C6.48958 165.7 7.05504 165.857 7.70703 165.857C8.29865 165.857 8.80374 165.752 9.2223 165.543C9.64489 165.33 9.96686 165.03 10.1882 164.643C10.4136 164.257 10.5263 163.8 10.5263 163.273L11.0575 163.352H7.87003V161.384H13.0437V162.941C13.0437 164.028 12.8143 164.961 12.3555 165.742C11.8967 166.519 11.2648 167.119 10.4599 167.541C9.65495 167.96 8.73331 168.169 7.69496 168.169C6.53587 168.169 5.51764 167.913 4.64027 167.402C3.7629 166.887 3.07872 166.157 2.58771 165.211C2.10073 164.261 1.85724 163.134 1.85724 161.83C1.85724 160.828 2.00213 159.935 2.2919 159.15C2.5857 158.361 2.99621 157.693 3.52344 157.146C4.05066 156.598 4.66442 156.182 5.3647 155.896C6.06499 155.61 6.82363 155.467 7.64062 155.467C8.34091 155.467 8.9929 155.57 9.59659 155.775C10.2003 155.976 10.7356 156.262 11.2024 156.632C11.6733 157.003 12.0576 157.443 12.3555 157.955C12.6533 158.462 12.8445 159.021 12.929 159.633H10.2727Z" fill="white"/>
<path id="h" d="M239.075 195V182.636H241.689V187.738H246.995V182.636H249.603V195H246.995V189.893H241.689V195H239.075Z" fill="white"/>
<path id="h_2" d="M500.075 195V182.636H502.689V187.738H507.995V182.636H510.603V195H507.995V189.893H502.689V195H500.075Z" fill="white"/>
<path id="h_3" d="M2.07457 195V182.636H4.68857V187.738H9.99503V182.636H12.603V195H9.99503V189.893H4.68857V195H2.07457Z" fill="white"/>
<path id="i" d="M245.689 206.636V219H243.075V206.636H245.689Z" fill="white"/>
<path id="i_2" d="M453.689 206.636V219H451.075V206.636H453.689Z" fill="white"/>
<path id="i_3" d="M8.68857 206.636V219H6.07457V206.636H8.68857Z" fill="white"/>
<path id="j" d="M246.025 232.636H248.609V241.257C248.609 242.054 248.43 242.746 248.071 243.334C247.717 243.921 247.224 244.374 246.592 244.692C245.96 245.01 245.226 245.169 244.389 245.169C243.644 245.169 242.968 245.038 242.36 244.777C241.757 244.511 241.278 244.109 240.924 243.569C240.569 243.026 240.394 242.344 240.398 241.523H243C243.008 241.849 243.075 242.128 243.2 242.362C243.328 242.591 243.503 242.768 243.725 242.893C243.95 243.014 244.216 243.074 244.522 243.074C244.844 243.074 245.115 243.006 245.337 242.869C245.562 242.728 245.733 242.523 245.85 242.253C245.967 241.984 246.025 241.652 246.025 241.257V232.636Z" fill="white"/>
<path id="j_2" d="M404.025 232.636H406.609V241.257C406.609 242.054 406.43 242.746 406.071 243.334C405.717 243.921 405.224 244.374 404.592 244.692C403.96 245.01 403.226 245.169 402.389 245.169C401.644 245.169 400.968 245.038 400.36 244.777C399.757 244.511 399.278 244.109 398.924 243.569C398.569 243.026 398.394 242.344 398.398 241.523H401C401.008 241.849 401.075 242.128 401.2 242.362C401.328 242.591 401.503 242.768 401.725 242.893C401.95 243.014 402.216 243.074 402.522 243.074C402.844 243.074 403.115 243.006 403.337 242.869C403.562 242.728 403.733 242.523 403.85 242.253C403.967 241.984 404.025 241.652 404.025 241.257V232.636Z" fill="white"/>
<path id="j_3" d="M9.02486 232.636H11.6087V241.257C11.6087 242.054 11.4296 242.746 11.0714 243.334C10.7172 243.921 10.2242 244.374 9.59233 244.692C8.96046 245.01 8.22597 245.169 7.38885 245.169C6.64429 245.169 5.96816 245.038 5.36044 244.777C4.75675 244.511 4.27782 244.109 3.92365 243.569C3.56948 243.026 3.39441 242.344 3.39844 241.523H6.00036C6.0084 241.849 6.07481 242.128 6.19957 242.362C6.32836 242.591 6.50343 242.768 6.72479 242.893C6.95017 243.014 7.21579 243.074 7.52166 243.074C7.84363 243.074 8.11529 243.006 8.33665 242.869C8.56203 242.728 8.73307 242.523 8.84979 242.253C8.9665 241.984 9.02486 241.652 9.02486 241.257V232.636Z" fill="white"/>
<path id="k" d="M240.075 269V256.636H242.689V262.088H242.852L247.301 256.636H250.434L245.846 262.172L250.488 269H247.361L243.974 263.917L242.689 265.487V269H240.075Z" fill="white"/>
<path id="k_2" d="M347.075 269V256.636H349.689V262.088H349.852L354.301 256.636H357.434L352.846 262.172L357.488 269H354.361L350.974 263.917L349.689 265.487V269H347.075Z" fill="white"/>
<path id="k_3" d="M3.07457 269V256.636H5.68857V262.088H5.85156L10.3008 256.636H13.4339L8.84588 262.172L13.4883 269H10.3612L6.97443 263.917L5.68857 265.487V269H3.07457Z" fill="white"/>
<path id="l" d="M241.075 294V281.636H243.689V291.845H248.989V294H241.075Z" fill="white"/>
<path id="l_2" d="M324.075 294V281.636H326.689V291.845H331.989V294H324.075Z" fill="white"/>
<path id="l_3" d="M4.07457 294V281.636H6.68857V291.845H11.989V294H4.07457Z" fill="white"/>
<path id="m" d="M238.075 307.636H241.298L244.703 315.943H244.848L248.253 307.636H251.477V320H248.941V311.953H248.838L245.639 319.94H243.912L240.713 311.923H240.61V320H238.075V307.636Z" fill="white"/>
<path id="m_2" d="M1.07457 307.636H4.2983L7.70312 315.943H7.84801L11.2528 307.636H14.4766V320H11.9411V311.953H11.8384L8.63885 319.94H6.91229L3.71271 311.923H3.61009V320H1.07457V307.636Z" fill="white"/>
<path id="n" d="M249.416 332.636V345H247.158L241.779 337.218H241.689V345H239.075V332.636H241.369L246.705 340.412H246.814V332.636H249.416Z" fill="white"/>
<path id="n_2" d="M12.4158 332.636V345H10.158L4.77912 337.218H4.68857V345H2.07457V332.636H4.36861L9.70526 340.412H9.81392V332.636H12.4158Z" fill="white"/>
<path id="A" d="M324.206 17H321.404L325.673 4.63636H329.041L333.303 17H330.502L327.405 7.46165H327.309L324.206 17ZM324.031 12.1403H330.647V14.1808H324.031V12.1403Z" fill="white"/>
<path id="A_2" d="M577.206 17H574.404L578.673 4.63636H582.041L586.303 17H583.502L580.405 7.46165H580.309L577.206 17ZM577.031 12.1403H583.647V14.1808H577.031V12.1403Z" fill="white"/>
</g>
</svg>
